%TF.GenerationSoftware,KiCad,Pcbnew,10.0.4*%
%TF.CreationDate,2026-09-26T12:09:51+05:30*%
%TF.ProjectId,ESP32_C3_FOB,45535033-325f-4433-935f-464f422e6b69,rev?*%
%TF.SameCoordinates,Original*%
%TF.FileFunction,Copper,L1,Top*%
%TF.FilePolarity,Positive*%
%FSLAX46Y46*%
G04 Gerber Fmt 4.6, Leading zero omitted, Abs format (unit mm)*
G04 Created by KiCad (PCBNEW 10.0.4) date 2026-09-26 12:09:51*
%MOMM*%
%LPD*%
G01*
G04 APERTURE LIST*
G04 Aperture macros list*
%AMFreePoly0*
4,1,17,0.335278,0.685443,0.349923,0.650088,0.349923,-0.649935,0.335278,-0.685290,0.299923,-0.699935,0.000318,-0.699935,-0.000051,-0.700088,-0.300050,-0.700088,-0.335405,-0.685443,-0.350050,-0.650088,-0.350050,0.649935,-0.335405,0.685290,-0.300050,0.699935,-0.000445,0.699935,-0.000076,0.700088,0.299923,0.700088,0.335278,0.685443,0.335278,0.685443,$1*%
%AMFreePoly1*
4,1,17,0.335431,0.685290,0.350076,0.649935,0.350076,-0.650037,0.335431,-0.685392,0.300076,-0.700037,0.000187,-0.700037,0.000127,-0.700062,-0.299898,-0.700062,-0.335253,-0.685417,-0.349898,-0.650062,-0.349898,0.649910,-0.335253,0.685265,-0.299898,0.699910,-0.000009,0.699910,0.000051,0.699935,0.300076,0.699935,0.335431,0.685290,0.335431,0.685290,$1*%
%AMFreePoly2*
4,1,13,0.335227,0.685443,0.349872,0.650088,0.349872,-0.649884,0.335227,-0.685239,0.299872,-0.699884,-0.300152,-0.699884,-0.335507,-0.685239,-0.350152,-0.649884,-0.350152,0.650088,-0.335507,0.685443,-0.300152,0.700088,0.299872,0.700088,0.335227,0.685443,0.335227,0.685443,$1*%
G04 Aperture macros list end*
%TA.AperFunction,SMDPad,CuDef*%
%ADD10R,0.540000X0.500000*%
%TD*%
%TA.AperFunction,SMDPad,CuDef*%
%ADD11R,0.540000X0.566000*%
%TD*%
%TA.AperFunction,SMDPad,CuDef*%
%ADD12R,0.566000X0.540000*%
%TD*%
%TA.AperFunction,SMDPad,CuDef*%
%ADD13R,0.500000X0.540000*%
%TD*%
%TA.AperFunction,SMDPad,CuDef*%
%ADD14R,0.532000X1.072000*%
%TD*%
%TA.AperFunction,SMDPad,CuDef*%
%ADD15R,1.800000X1.350000*%
%TD*%
%TA.AperFunction,SMDPad,CuDef*%
%ADD16R,1.157000X0.490000*%
%TD*%
%TA.AperFunction,SMDPad,CuDef*%
%ADD17R,1.175000X0.490000*%
%TD*%
%TA.AperFunction,SMDPad,CuDef*%
%ADD18R,0.700000X1.000000*%
%TD*%
%TA.AperFunction,SMDPad,CuDef*%
%ADD19R,0.650000X0.280000*%
%TD*%
%TA.AperFunction,SMDPad,CuDef*%
%ADD20R,0.280000X0.650000*%
%TD*%
%TA.AperFunction,SMDPad,CuDef*%
%ADD21R,3.800000X3.800000*%
%TD*%
%TA.AperFunction,SMDPad,CuDef*%
%ADD22R,0.540000X0.540000*%
%TD*%
%TA.AperFunction,SMDPad,CuDef*%
%ADD23R,1.400000X1.200000*%
%TD*%
%TA.AperFunction,SMDPad,CuDef*%
%ADD24R,1.070000X0.600000*%
%TD*%
%TA.AperFunction,SMDPad,CuDef*%
%ADD25R,0.250000X0.600000*%
%TD*%
%TA.AperFunction,SMDPad,CuDef*%
%ADD26R,0.600000X0.250000*%
%TD*%
%TA.AperFunction,SMDPad,CuDef*%
%ADD27R,1.750000X1.000000*%
%TD*%
%TA.AperFunction,SMDPad,CuDef*%
%ADD28R,1.000000X0.800000*%
%TD*%
%TA.AperFunction,ComponentPad*%
%ADD29O,1.200000X2.000000*%
%TD*%
%TA.AperFunction,ComponentPad*%
%ADD30O,1.200000X1.800000*%
%TD*%
%TA.AperFunction,SMDPad,CuDef*%
%ADD31FreePoly0,180.000000*%
%TD*%
%TA.AperFunction,SMDPad,CuDef*%
%ADD32FreePoly1,180.000000*%
%TD*%
%TA.AperFunction,SMDPad,CuDef*%
%ADD33R,0.300000X1.300000*%
%TD*%
%TA.AperFunction,SMDPad,CuDef*%
%ADD34FreePoly2,180.000000*%
%TD*%
%TA.AperFunction,ViaPad*%
%ADD35C,0.600000*%
%TD*%
%TA.AperFunction,ViaPad*%
%ADD36C,0.500000*%
%TD*%
%TA.AperFunction,Conductor*%
%ADD37C,0.400000*%
%TD*%
%TA.AperFunction,Conductor*%
%ADD38C,0.250000*%
%TD*%
%TA.AperFunction,Conductor*%
%ADD39C,0.200000*%
%TD*%
%TA.AperFunction,Conductor*%
%ADD40C,0.300000*%
%TD*%
%TA.AperFunction,Conductor*%
%ADD41C,0.600000*%
%TD*%
G04 APERTURE END LIST*
D10*
%TO.P,C18,1,1_1*%
%TO.N,3.3V*%
X155194000Y-102145200D03*
%TO.P,C18,2,2_2*%
%TO.N,GND*%
X155194000Y-102985200D03*
%TD*%
D11*
%TO.P,R13,1,1_1*%
%TO.N,GND*%
X145186400Y-91822800D03*
%TO.P,R13,2,2_2*%
%TO.N,VBUS*%
X145186400Y-92682800D03*
%TD*%
D12*
%TO.P,R14,1,1_1*%
%TO.N,Net-(U3-GPIO8)*%
X149430000Y-109829600D03*
%TO.P,R14,2,2_2*%
%TO.N,3.3V*%
X150290000Y-109829600D03*
%TD*%
D11*
%TO.P,R3,1,1_1*%
%TO.N,Net-(D1-Pad6)*%
X151688800Y-95480400D03*
%TO.P,R3,2,2_2*%
%TO.N,USB_D-*%
X151688800Y-96340400D03*
%TD*%
D13*
%TO.P,C1,1,1_1*%
%TO.N,VBUS*%
X147435200Y-91795600D03*
%TO.P,C1,2,2_2*%
%TO.N,GND*%
X146595200Y-91795600D03*
%TD*%
D10*
%TO.P,C15,1,1_1*%
%TO.N,GND*%
X138988800Y-105220400D03*
%TO.P,C15,2,2_2*%
%TO.N,Net-(U3-LNA_IN)*%
X138988800Y-104380400D03*
%TD*%
%TO.P,C4,1,1_1*%
%TO.N,GND*%
X147421600Y-97548000D03*
%TO.P,C4,2,2_2*%
%TO.N,V_SYS*%
X147421600Y-96708000D03*
%TD*%
D14*
%TO.P,D1,1,1_1*%
%TO.N,Net-(USBC1-DN1)*%
X151673600Y-91915600D03*
%TO.P,D1,2,2_2*%
%TO.N,GND*%
X150723600Y-91915600D03*
%TO.P,D1,3,3_3*%
%TO.N,Net-(USBC1-DP1)*%
X149773600Y-91915600D03*
%TO.P,D1,4,4_4*%
%TO.N,Net-(D1-Pad4)*%
X149773600Y-94215600D03*
%TO.P,D1,5,5_5*%
%TO.N,VBUS*%
X150723600Y-94215600D03*
%TO.P,D1,6,6_6*%
%TO.N,Net-(D1-Pad6)*%
X151673600Y-94215600D03*
%TD*%
D11*
%TO.P,R5,1,1_1*%
%TO.N,Net-(U1-PROG)*%
X143948800Y-86224000D03*
%TO.P,R5,2,2_2*%
%TO.N,GND*%
X143948800Y-85364000D03*
%TD*%
D10*
%TO.P,C2,1,1_1*%
%TO.N,BAT*%
X138891700Y-88202400D03*
%TO.P,C2,2,2_2*%
%TO.N,GND*%
X138891700Y-87362400D03*
%TD*%
D15*
%TO.P,SW2,1,1_1*%
%TO.N,BOOT*%
X137668000Y-102326800D03*
%TO.P,SW2,2,2_2*%
%TO.N,GND*%
X137668000Y-97926800D03*
%TD*%
D16*
%TO.P,U1,1,STAT_1*%
%TO.N,Net-(U1-STAT)*%
X140277200Y-86375200D03*
%TO.P,U1,2,VSS_2*%
%TO.N,GND*%
X140277200Y-87325200D03*
%TO.P,U1,3,VBAT_3*%
%TO.N,BAT*%
X140277200Y-88275200D03*
D17*
%TO.P,U1,4,VDD_4*%
%TO.N,VBUS*%
X142577200Y-88275200D03*
%TO.P,U1,5,PROG_5*%
%TO.N,Net-(U1-PROG)*%
X142577200Y-86375200D03*
%TD*%
D10*
%TO.P,C5,1,1_1*%
%TO.N,GND*%
X142270000Y-95759600D03*
%TO.P,C5,2,2_2*%
%TO.N,3.3V*%
X142270000Y-96599600D03*
%TD*%
%TO.P,C21,1,1_1*%
%TO.N,3.3V*%
X142798800Y-102731200D03*
%TO.P,C21,2,2_2*%
%TO.N,GND*%
X142798800Y-101891200D03*
%TD*%
D11*
%TO.P,R9,1,1_1*%
%TO.N,3.3V*%
X139967600Y-99646000D03*
%TO.P,R9,2,2_2*%
%TO.N,BOOT*%
X139967600Y-100506000D03*
%TD*%
D18*
%TO.P,D2,1,K_1*%
%TO.N,V_SYS*%
X147421600Y-95554800D03*
%TO.P,D2,2,A_2*%
%TO.N,VBUS*%
X147421600Y-93214800D03*
%TD*%
D19*
%TO.P,U3,1,LNA_IN_1*%
%TO.N,Net-(U3-LNA_IN)*%
X145627842Y-104320400D03*
%TO.P,U3,2,VDD3P3_2*%
%TO.N,3.3V*%
X145627842Y-104820400D03*
%TO.P,U3,3,VDD3P3_3*%
X145627842Y-105320400D03*
%TO.P,U3,4,XTAL_32K_P_4*%
%TO.N,INT1*%
X145627842Y-105820400D03*
%TO.P,U3,5,XTAL_32K_N_5*%
%TO.N,INT2*%
X145627842Y-106320400D03*
%TO.P,U3,6,GPIO2_6*%
%TO.N,Net-(U3-GPIO2)*%
X145627842Y-106820400D03*
%TO.P,U3,7,CHIP_EN_7*%
%TO.N,CHIP_EN*%
X145627842Y-107320400D03*
%TO.P,U3,8,GPIO3_8*%
%TO.N,unconnected-(U3-GPIO3-Pad8)*%
X145627842Y-107820400D03*
D20*
%TO.P,U3,9,MTMS_9*%
%TO.N,SDA*%
X146357842Y-108550400D03*
%TO.P,U3,10,MTDI_10*%
%TO.N,SCL*%
X146857842Y-108550400D03*
%TO.P,U3,11,VDD3P3_RTC_11*%
%TO.N,3.3V*%
X147357842Y-108550400D03*
%TO.P,U3,12,MTCK_12*%
%TO.N,unconnected-(U3-MTCK-Pad12)*%
X147857842Y-108550400D03*
%TO.P,U3,13,MTDO_13*%
%TO.N,unconnected-(U3-MTDO-Pad13)*%
X148357842Y-108550400D03*
%TO.P,U3,14,GPIO8_14*%
%TO.N,Net-(U3-GPIO8)*%
X148857842Y-108550400D03*
%TO.P,U3,15,GPIO9_15*%
%TO.N,BOOT*%
X149357842Y-108550400D03*
%TO.P,U3,16,GPIO10_16*%
%TO.N,unconnected-(U3-GPIO10-Pad16)*%
X149857842Y-108550400D03*
D19*
%TO.P,U3,17,VDD3P3_CPU_17*%
%TO.N,3.3V*%
X150587842Y-107820400D03*
%TO.P,U3,18,VDD_SPI_18*%
X150587842Y-107320400D03*
%TO.P,U3,19,SPIHD_19*%
%TO.N,unconnected-(U3-SPIHD-Pad19)*%
X150587842Y-106820400D03*
%TO.P,U3,20,SPIWP_20*%
%TO.N,unconnected-(U3-SPIWP-Pad20)*%
X150587842Y-106320400D03*
%TO.P,U3,21,SPICS0_21*%
%TO.N,unconnected-(U3-SPICS0-Pad21)*%
X150587842Y-105820400D03*
%TO.P,U3,22,SPICLK_22*%
%TO.N,unconnected-(U3-SPICLK-Pad22)*%
X150587842Y-105320400D03*
%TO.P,U3,23,SPID_23*%
%TO.N,unconnected-(U3-SPID-Pad23)*%
X150587842Y-104820400D03*
%TO.P,U3,24,SPIQ_24*%
%TO.N,unconnected-(U3-SPIQ-Pad24)*%
X150587842Y-104320400D03*
D20*
%TO.P,U3,25,GPIO18_25*%
%TO.N,USB_D-*%
X149857842Y-103590400D03*
%TO.P,U3,26,GPIO19_26*%
%TO.N,USB_D+*%
X149357842Y-103590400D03*
%TO.P,U3,27,U0RXD_27*%
%TO.N,unconnected-(U3-U0RXD-Pad27)*%
X148857842Y-103590400D03*
%TO.P,U3,28,U0TXD_28*%
%TO.N,unconnected-(U3-U0TXD-Pad28)*%
X148357842Y-103590400D03*
%TO.P,U3,29,XTAL_N_29*%
%TO.N,XTAL_N*%
X147857842Y-103590400D03*
%TO.P,U3,30,XTAL_P_30*%
%TO.N,XTAL_P*%
X147357842Y-103590400D03*
%TO.P,U3,31,VDDA_31*%
%TO.N,3.3V*%
X146857842Y-103590400D03*
%TO.P,U3,32,VDDA_32*%
X146357842Y-103590400D03*
D21*
%TO.P,U3,33,EP_33*%
%TO.N,GND*%
X148107842Y-106070400D03*
%TD*%
D11*
%TO.P,R2,1,1_1*%
%TO.N,Net-(USBC1-CC2)*%
X148539200Y-91822800D03*
%TO.P,R2,2,2_2*%
%TO.N,GND*%
X148539200Y-92682800D03*
%TD*%
%TO.P,R7,1,1_1*%
%TO.N,CHIP_EN*%
X140092800Y-94054400D03*
%TO.P,R7,2,2_2*%
%TO.N,3.3V*%
X140092800Y-93194400D03*
%TD*%
D10*
%TO.P,C13,1,1_1*%
%TO.N,GND*%
X148488400Y-100062400D03*
%TO.P,C13,2,2_2*%
%TO.N,XTAL_N*%
X148488400Y-100902400D03*
%TD*%
D22*
%TO.P,L3,1,1_1*%
%TO.N,Net-(AE1-ANT)*%
X136740000Y-104394000D03*
%TO.P,L3,2,2_2*%
%TO.N,Net-(U3-LNA_IN)*%
X137580000Y-104394000D03*
%TD*%
D13*
%TO.P,C7,1,1_1*%
%TO.N,3.3V*%
X151624400Y-107848400D03*
%TO.P,C7,2,2_2*%
%TO.N,GND*%
X152464400Y-107848400D03*
%TD*%
D10*
%TO.P,C12,1,1_1*%
%TO.N,GND*%
X142849600Y-99910000D03*
%TO.P,C12,2,2_2*%
%TO.N,XTAL_P*%
X142849600Y-100750000D03*
%TD*%
D15*
%TO.P,SW1,1,1_1*%
%TO.N,CHIP_EN*%
X137718800Y-94148000D03*
%TO.P,SW1,2,2_2*%
%TO.N,GND*%
X137718800Y-89748000D03*
%TD*%
D13*
%TO.P,C11,1,1_1*%
%TO.N,GND*%
X152464400Y-106629200D03*
%TO.P,C11,2,2_2*%
%TO.N,3.3V*%
X151624400Y-106629200D03*
%TD*%
D10*
%TO.P,C20,1,1_1*%
%TO.N,3.3V*%
X141630400Y-102731200D03*
%TO.P,C20,2,2_2*%
%TO.N,GND*%
X141630400Y-101891200D03*
%TD*%
D23*
%TO.P,X1,1,1_1*%
%TO.N,XTAL_P*%
X144658600Y-100861800D03*
%TO.P,X1,2,GND_2*%
%TO.N,GND*%
X146858600Y-100861800D03*
%TO.P,X1,3,3_3*%
%TO.N,XTAL_N*%
X146858600Y-99161800D03*
%TO.P,X1,4,GND_4*%
%TO.N,GND*%
X144658600Y-99161800D03*
%TD*%
D12*
%TO.P,R12,1,1_1*%
%TO.N,SCL*%
X147448800Y-111048800D03*
%TO.P,R12,2,2_2*%
%TO.N,3.3V*%
X148308800Y-111048800D03*
%TD*%
D24*
%TO.P,U2,1,GND_1*%
%TO.N,GND*%
X143489200Y-95214400D03*
%TO.P,U2,2,Vout_2*%
%TO.N,3.3V*%
X143489200Y-97114400D03*
%TO.P,U2,3,Vin_3*%
%TO.N,V_SYS*%
X145969200Y-96164400D03*
%TD*%
D12*
%TO.P,R8,1,1_1*%
%TO.N,3.3V*%
X142142000Y-107137200D03*
%TO.P,R8,2,2_2*%
%TO.N,Net-(U3-GPIO2)*%
X143002000Y-107137200D03*
%TD*%
D13*
%TO.P,C14,1,1_1*%
%TO.N,GND*%
X137529200Y-105664000D03*
%TO.P,C14,2,2_2*%
%TO.N,Net-(AE1-ANT)*%
X136689200Y-105664000D03*
%TD*%
D10*
%TO.P,C17,1,1_1*%
%TO.N,Net-(U4-BYP)*%
X153365200Y-99226000D03*
%TO.P,C17,2,2_2*%
%TO.N,GND*%
X153365200Y-98386000D03*
%TD*%
D25*
%TO.P,U4,1,VDDIO_1*%
%TO.N,3.3V*%
X153857200Y-100199200D03*
%TO.P,U4,2,BYP_2*%
%TO.N,Net-(U4-BYP)*%
X153357200Y-100199200D03*
%TO.P,U4,3,NC_3*%
%TO.N,unconnected-(U4-NC-Pad3)*%
X152857200Y-100199200D03*
%TO.P,U4,4,SCL_4*%
%TO.N,SCL*%
X152357200Y-100199200D03*
%TO.P,U4,5,GND_5*%
%TO.N,GND*%
X151857200Y-100199200D03*
D26*
%TO.P,U4,6,SDA_6*%
%TO.N,SDA*%
X151507200Y-101049200D03*
%TO.P,U4,7,SA0_7*%
%TO.N,GND*%
X151507200Y-101549200D03*
%TO.P,U4,8,NC_8*%
%TO.N,unconnected-(U4-NC-Pad8)*%
X151507200Y-102049200D03*
D25*
%TO.P,U4,9,INT2_9*%
%TO.N,INT2*%
X151857200Y-102899200D03*
%TO.P,U4,10,GND_10*%
%TO.N,GND*%
X152357200Y-102899200D03*
%TO.P,U4,11,INT1_11*%
%TO.N,INT1*%
X152857200Y-102899200D03*
%TO.P,U4,12,GND_12*%
%TO.N,GND*%
X153357200Y-102899200D03*
%TO.P,U4,13,NC_13*%
%TO.N,unconnected-(U4-NC-Pad13)*%
X153857200Y-102899200D03*
D26*
%TO.P,U4,14,VDD_14*%
%TO.N,3.3V*%
X154207200Y-102049200D03*
%TO.P,U4,15,NC_15*%
%TO.N,unconnected-(U4-NC-Pad15)*%
X154207200Y-101549200D03*
%TO.P,U4,16,NC_16*%
%TO.N,unconnected-(U4-NC-Pad16)*%
X154207200Y-101049200D03*
%TD*%
D13*
%TO.P,C10,1,1_1*%
%TO.N,GND*%
X142124800Y-106172000D03*
%TO.P,C10,2,2_2*%
%TO.N,3.3V*%
X142964800Y-106172000D03*
%TD*%
D10*
%TO.P,C3,1,1_1*%
%TO.N,GND*%
X143898000Y-89058800D03*
%TO.P,C3,2,2_2*%
%TO.N,VBUS*%
X143898000Y-88218800D03*
%TD*%
D13*
%TO.P,C9,1,1_1*%
%TO.N,GND*%
X141724800Y-105156000D03*
%TO.P,C9,2,2_2*%
%TO.N,3.3V*%
X142564800Y-105156000D03*
%TD*%
D10*
%TO.P,C6,1,1_1*%
%TO.N,GND*%
X137668000Y-96482800D03*
%TO.P,C6,2,2_2*%
%TO.N,CHIP_EN*%
X137668000Y-95642800D03*
%TD*%
D13*
%TO.P,LED1,1,+_1*%
%TO.N,VBUS*%
X141778000Y-84574800D03*
%TO.P,LED1,2,-_2*%
%TO.N,Net-(LED1--)*%
X140938000Y-84574800D03*
%TD*%
D11*
%TO.P,R6,1,1_1*%
%TO.N,Net-(LED1--)*%
X138887200Y-85371200D03*
%TO.P,R6,2,2_2*%
%TO.N,Net-(U1-STAT)*%
X138887200Y-86231200D03*
%TD*%
D12*
%TO.P,R11,1,1_1*%
%TO.N,SDA*%
X146175200Y-109829600D03*
%TO.P,R11,2,2_2*%
%TO.N,3.3V*%
X145315200Y-109829600D03*
%TD*%
D11*
%TO.P,R4,1,1_1*%
%TO.N,Net-(D1-Pad4)*%
X149758400Y-95480400D03*
%TO.P,R4,2,2_2*%
%TO.N,USB_D+*%
X149758400Y-96340400D03*
%TD*%
D27*
%TO.P,AE1,1,ANT_1*%
%TO.N,Net-(AE1-ANT)*%
X137109200Y-107995600D03*
%TO.P,AE1,2,2_2*%
%TO.N,unconnected-(AE1-Pad2)*%
X137109200Y-111155600D03*
%TD*%
D28*
%TO.P,Q1,1,G_1*%
%TO.N,VBUS*%
X143847200Y-93101200D03*
%TO.P,Q1,2,S_2*%
%TO.N,V_SYS*%
X143847200Y-91201200D03*
%TO.P,Q1,3,D_3*%
%TO.N,BAT*%
X141547200Y-92151200D03*
%TD*%
D11*
%TO.P,R1,1,1_1*%
%TO.N,Net-(USBC1-CC1)*%
X152857200Y-91619600D03*
%TO.P,R1,2,2_2*%
%TO.N,GND*%
X152857200Y-92479600D03*
%TD*%
D29*
%TO.P,USBC1,1,EH_1*%
%TO.N,GND*%
X146393600Y-89035200D03*
D30*
%TO.P,USBC1,2,EH_2*%
X146393600Y-84855200D03*
%TO.P,USBC1,3,EH_3*%
X155053600Y-84855200D03*
D29*
%TO.P,USBC1,4,EH_4*%
X155053600Y-89035200D03*
D31*
%TO.P,USBC1,A1B12,GND_A1B12*%
X153923600Y-89795200D03*
D32*
%TO.P,USBC1,A4B9,VBUS_A4B9*%
%TO.N,VBUS*%
X153123600Y-89795200D03*
D33*
%TO.P,USBC1,A5,CC1_A5*%
%TO.N,Net-(USBC1-CC1)*%
X151973600Y-89795200D03*
%TO.P,USBC1,A6,DP1_A6*%
%TO.N,Net-(USBC1-DP1)*%
X150973600Y-89795200D03*
%TO.P,USBC1,A7,DN1_A7*%
%TO.N,Net-(USBC1-DN1)*%
X150473600Y-89795200D03*
%TO.P,USBC1,A8,SBU1_A8*%
%TO.N,unconnected-(USBC1-SBU1-PadA8)*%
X149473600Y-89795200D03*
D34*
%TO.P,USBC1,B1A12,GND_B1A12*%
%TO.N,GND*%
X147523600Y-89795200D03*
%TO.P,USBC1,B4A9,VBUS_B4A9*%
%TO.N,VBUS*%
X148323600Y-89795200D03*
D33*
%TO.P,USBC1,B5,CC2_B5*%
%TO.N,Net-(USBC1-CC2)*%
X148973600Y-89795200D03*
%TO.P,USBC1,B6,DP2_B6*%
%TO.N,Net-(USBC1-DP1)*%
X149973600Y-89795200D03*
%TO.P,USBC1,B7,DN2_B7*%
%TO.N,Net-(USBC1-DN1)*%
X151473600Y-89795200D03*
%TO.P,USBC1,B8,SBU2_B8*%
%TO.N,unconnected-(USBC1-SBU2-PadB8)*%
X152473600Y-89795200D03*
%TD*%
D13*
%TO.P,C8,1,1_1*%
%TO.N,GND*%
X148298800Y-109829600D03*
%TO.P,C8,2,2_2*%
%TO.N,3.3V*%
X147458800Y-109829600D03*
%TD*%
D10*
%TO.P,C16,1,1_1*%
%TO.N,3.3V*%
X155194000Y-100546800D03*
%TO.P,C16,2,2_2*%
%TO.N,GND*%
X155194000Y-99706800D03*
%TD*%
D35*
%TO.N,3.3V*%
X143300000Y-105000000D03*
X148733000Y-94566000D03*
X143600000Y-103300000D03*
X153152400Y-105410000D03*
X152680000Y-94551000D03*
D36*
%TO.N,GND*%
X148844000Y-107470400D03*
X147421600Y-104670400D03*
D35*
X145186400Y-90678000D03*
X146220200Y-92445119D03*
X155194000Y-102985200D03*
X138350000Y-105600000D03*
D36*
X148132800Y-106781600D03*
D35*
X151947144Y-99210228D03*
X143920000Y-110631400D03*
X141630400Y-100990400D03*
D36*
X148844000Y-104670400D03*
D35*
X144648000Y-89058800D03*
D36*
X148132800Y-105359200D03*
D35*
X148539200Y-93421200D03*
X140934458Y-105394742D03*
X142849600Y-99110800D03*
X142240000Y-94894400D03*
D36*
X149532800Y-105359200D03*
D35*
X153416000Y-97637600D03*
X148285200Y-109778800D03*
D36*
X149532800Y-106781600D03*
X146732800Y-105359200D03*
X147421600Y-107470400D03*
D35*
X150716576Y-101827827D03*
X153214400Y-106629200D03*
D36*
X148844000Y-106070400D03*
D35*
X155194000Y-98856800D03*
X142900400Y-85344000D03*
X139358000Y-97637600D03*
X153242217Y-108626217D03*
D36*
X147421600Y-106070400D03*
X146732800Y-106781600D03*
D35*
X137478400Y-87362400D03*
X148183600Y-97536000D03*
X138418000Y-96482800D03*
X148488400Y-99110800D03*
X137718800Y-88544400D03*
%TO.N,BAT*%
X140411200Y-92151200D03*
%TO.N,BOOT*%
X150571200Y-108864400D03*
X139141200Y-102565200D03*
%TO.N,INT1*%
X144576800Y-105400400D03*
X151088000Y-103682800D03*
%TO.N,INT2*%
X150672800Y-102819200D03*
X144018187Y-106070213D03*
%TO.N,CHIP_EN*%
X140106400Y-95961200D03*
X144009900Y-108145100D03*
%TO.N,SDA*%
X150723600Y-101027855D03*
X145546800Y-110599602D03*
%TO.N,SCL*%
X152806400Y-101295200D03*
X146507200Y-110938400D03*
%TD*%
%TO.N,3.3V*%
D37*
X150587842Y-107820400D02*
X150587842Y-107360400D01*
D38*
X147357842Y-108550400D02*
X147357842Y-109728642D01*
X147357842Y-109728642D02*
X147458800Y-109829600D01*
D39*
X141630400Y-102731200D02*
X142798800Y-102731200D01*
D38*
X155244800Y-102145200D02*
X154303200Y-102145200D01*
D37*
X142974400Y-96599600D02*
X143489200Y-97114400D01*
D39*
X145627842Y-105320400D02*
X145627842Y-104952800D01*
D38*
X148386800Y-110970800D02*
X148308800Y-111048800D01*
X155194000Y-102094400D02*
X155244800Y-102145200D01*
X155194000Y-100546800D02*
X154204800Y-100546800D01*
D37*
X151624400Y-106629200D02*
X151624400Y-107848400D01*
X153152400Y-105410000D02*
X152173600Y-105410000D01*
X146357842Y-103590400D02*
X145891442Y-103124000D01*
D38*
X154303200Y-102145200D02*
X154207200Y-102049200D01*
X155194000Y-100546800D02*
X155194000Y-102094400D01*
D37*
X151624400Y-107848400D02*
X150615842Y-107848400D01*
X145891442Y-103124000D02*
X143191600Y-103124000D01*
X152173600Y-105410000D02*
X151624400Y-105959200D01*
X143191600Y-103124000D02*
X142798800Y-102731200D01*
D39*
X145475442Y-104800400D02*
X143320400Y-104800400D01*
D38*
X154204800Y-100546800D02*
X153857200Y-100199200D01*
D37*
X151624400Y-105959200D02*
X151624400Y-106629200D01*
D38*
X148308800Y-111048800D02*
X148308800Y-110869200D01*
X148308800Y-110869200D02*
X147458800Y-110019200D01*
X147458800Y-110019200D02*
X147458800Y-109829600D01*
D39*
X145627842Y-104952800D02*
X145475442Y-104800400D01*
X142564800Y-105156000D02*
X142964800Y-106172000D01*
D37*
X142270000Y-96599600D02*
X142974400Y-96599600D01*
D39*
X143320400Y-104800400D02*
X142564800Y-105156000D01*
D37*
X150615842Y-107848400D02*
X150587842Y-107820400D01*
X146357842Y-103590400D02*
X146817842Y-103590400D01*
%TO.N,GND*%
D39*
X151050784Y-101549200D02*
X151507200Y-101549200D01*
X150716576Y-101827827D02*
X150772157Y-101827827D01*
X152032200Y-101549200D02*
X152357200Y-101874200D01*
D37*
X144892800Y-99161800D02*
X144658600Y-99161800D01*
D40*
X143898000Y-89058800D02*
X144648000Y-89058800D01*
D39*
X151507200Y-101549200D02*
X152032200Y-101549200D01*
D37*
X141630400Y-101891200D02*
X142798800Y-101891200D01*
D40*
X152464400Y-107848400D02*
X153242217Y-108626217D01*
D38*
X153307200Y-102274200D02*
X153357200Y-102324200D01*
D37*
X150429600Y-92851600D02*
X150723600Y-92557600D01*
D40*
X152464400Y-106629200D02*
X153214400Y-106629200D01*
D37*
X137668000Y-97926800D02*
X137668000Y-96482800D01*
X148539200Y-92682800D02*
X148539200Y-93421200D01*
X137478400Y-87362400D02*
X138891700Y-87362400D01*
D39*
X150772157Y-101827827D02*
X151050784Y-101549200D01*
D40*
X137668000Y-96482800D02*
X138418000Y-96482800D01*
D38*
X155194000Y-102985200D02*
X155244800Y-103036000D01*
D37*
X143948800Y-85364000D02*
X142920400Y-85364000D01*
X140277200Y-87325200D02*
X138928900Y-87325200D01*
X146858600Y-100861800D02*
X146592800Y-100861800D01*
D39*
X151857200Y-99300172D02*
X151947144Y-99210228D01*
D37*
X142920400Y-85364000D02*
X142900400Y-85344000D01*
X143898000Y-89058800D02*
X146370000Y-89058800D01*
D39*
X153365200Y-98386000D02*
X153365200Y-97688400D01*
D37*
X142849600Y-99910000D02*
X142849600Y-99110800D01*
X146568000Y-91822800D02*
X146595200Y-91795600D01*
D38*
X152464400Y-107848400D02*
X152464400Y-106629200D01*
D37*
X139068800Y-97926800D02*
X139358000Y-97637600D01*
D39*
X151857200Y-100199200D02*
X151857200Y-99300172D01*
D37*
X148708000Y-92851600D02*
X150429600Y-92851600D01*
D39*
X152857200Y-92479600D02*
X152585200Y-92751600D01*
D37*
X147421600Y-97548000D02*
X148171600Y-97548000D01*
D38*
X152407200Y-102274200D02*
X153307200Y-102274200D01*
X152357200Y-102899200D02*
X152357200Y-102324200D01*
D39*
X152357200Y-101874200D02*
X152357200Y-102324200D01*
D37*
X142849600Y-99910000D02*
X142897800Y-99861800D01*
D39*
X150823600Y-92751600D02*
X150723600Y-92651600D01*
D38*
X155244800Y-107391200D02*
X154787600Y-107848400D01*
D37*
X154683600Y-89035200D02*
X153923600Y-89795200D01*
X142240000Y-94894400D02*
X142240000Y-95729600D01*
X142124800Y-106172000D02*
X141711716Y-106172000D01*
X146592800Y-100861800D02*
X144892800Y-99161800D01*
X148171600Y-97548000D02*
X148183600Y-97536000D01*
X146393600Y-89035200D02*
X146763600Y-89035200D01*
D39*
X152585200Y-92751600D02*
X150823600Y-92751600D01*
D37*
X142944000Y-95759600D02*
X143489200Y-95214400D01*
X142270000Y-95759600D02*
X142944000Y-95759600D01*
X146858600Y-101142600D02*
X146896000Y-101180000D01*
X148488400Y-100062400D02*
X148488400Y-99110800D01*
D39*
X155244800Y-99706800D02*
X155244800Y-98907600D01*
D37*
X141711716Y-106172000D02*
X140934458Y-105394742D01*
D38*
X155244800Y-103036000D02*
X155244800Y-107391200D01*
D37*
X141724800Y-105156000D02*
X142124800Y-106172000D01*
D39*
X150723600Y-92651600D02*
X150723600Y-91915600D01*
D37*
X155053600Y-89035200D02*
X154683600Y-89035200D01*
D39*
X148298800Y-109792400D02*
X148285200Y-109778800D01*
D37*
X142897800Y-99861800D02*
X143958600Y-99861800D01*
D38*
X153357200Y-102324200D02*
X153357200Y-102899200D01*
X137529200Y-105664000D02*
X138545200Y-105664000D01*
D37*
X137668000Y-97926800D02*
X139068800Y-97926800D01*
X146370000Y-89058800D02*
X146393600Y-89035200D01*
D39*
X148298800Y-109829600D02*
X148298800Y-109792400D01*
X155244800Y-98907600D02*
X155194000Y-98856800D01*
D37*
X137718800Y-88544400D02*
X137718800Y-89748000D01*
X148539200Y-92682800D02*
X148708000Y-92851600D01*
X138928900Y-87325200D02*
X138891700Y-87362400D01*
X141630400Y-101891200D02*
X141630400Y-100990400D01*
D38*
X152357200Y-102324200D02*
X152407200Y-102274200D01*
D37*
X150723600Y-92557600D02*
X150723600Y-91915600D01*
X145186400Y-90678000D02*
X145186400Y-91822800D01*
D38*
X154787600Y-107848400D02*
X152464400Y-107848400D01*
D37*
X145186400Y-91822800D02*
X146568000Y-91822800D01*
X143958600Y-99861800D02*
X144658600Y-99161800D01*
X146763600Y-89035200D02*
X147523600Y-89795200D01*
D38*
X138545200Y-105664000D02*
X138988800Y-105220400D01*
D37*
X143858200Y-110693200D02*
X143920000Y-110631400D01*
D40*
X146595200Y-91795600D02*
X146220200Y-92445119D01*
D37*
X142240000Y-95729600D02*
X142270000Y-95759600D01*
D39*
X153365200Y-97688400D02*
X153416000Y-97637600D01*
%TO.N,VBUS*%
D37*
X150723600Y-94215600D02*
X150723600Y-93563600D01*
X149301200Y-88395200D02*
X152478800Y-88395200D01*
X153303600Y-93279600D02*
X153527200Y-93056000D01*
X153123600Y-89040000D02*
X153123600Y-89795200D01*
X153527200Y-90998810D02*
X153123600Y-90595210D01*
X144768000Y-93101200D02*
X145186400Y-92682800D01*
X144893200Y-87223600D02*
X145491200Y-87223600D01*
X141923200Y-84429600D02*
X144475200Y-84429600D01*
X151007600Y-93279600D02*
X153303600Y-93279600D01*
X145135600Y-85090000D02*
X145135600Y-87223600D01*
X147435200Y-91795600D02*
X147435200Y-93201200D01*
X148953550Y-88395200D02*
X149301200Y-88395200D01*
X148323600Y-89795200D02*
X148323600Y-89025150D01*
X144475200Y-84429600D02*
X145135600Y-85090000D01*
X147435200Y-93201200D02*
X147421600Y-93214800D01*
X145491200Y-87223600D02*
X148129600Y-87223600D01*
X148323600Y-90907200D02*
X147435200Y-91795600D01*
X145718400Y-93214800D02*
X145186400Y-92682800D01*
X141778000Y-84574800D02*
X141923200Y-84429600D01*
X148323600Y-89025150D02*
X148953550Y-88395200D01*
X143898000Y-88218800D02*
X144893200Y-87223600D01*
X148323600Y-89795200D02*
X148323600Y-90907200D01*
X148129600Y-87223600D02*
X149301200Y-88395200D01*
X143841600Y-88275200D02*
X143898000Y-88218800D01*
X150723600Y-93563600D02*
X151007600Y-93279600D01*
X153123600Y-90595210D02*
X153123600Y-89795200D01*
X153527200Y-93056000D02*
X153527200Y-90998810D01*
X147421600Y-93214800D02*
X145718400Y-93214800D01*
X143847200Y-93101200D02*
X144768000Y-93101200D01*
X142577200Y-88275200D02*
X143841600Y-88275200D01*
X152478800Y-88395200D02*
X153123600Y-89040000D01*
%TO.N,Net-(U3-GPIO8)*%
D38*
X149430000Y-109829600D02*
X148857842Y-109257442D01*
X148857842Y-109257442D02*
X148857842Y-108550400D01*
%TO.N,Net-(D1-Pad6)*%
D39*
X151673600Y-94215600D02*
X151673600Y-95465200D01*
X151673600Y-95465200D02*
X151688800Y-95480400D01*
%TO.N,USB_D-*%
X149857842Y-103102899D02*
X149857842Y-103590400D01*
X150948600Y-97505101D02*
X150948600Y-98695998D01*
X151688800Y-96340400D02*
X151688800Y-96764901D01*
X149832842Y-103077899D02*
X149857842Y-103102899D01*
X151688800Y-96764901D02*
X150948600Y-97505101D01*
X149832842Y-99811756D02*
X149832842Y-103077899D01*
X150948600Y-98695998D02*
X149832842Y-99811756D01*
%TO.N,Net-(U3-LNA_IN)*%
D41*
X138989000Y-104380000D02*
X137580000Y-104394000D01*
X145050000Y-104150000D02*
X138989000Y-104150000D01*
D38*
X145628000Y-104320000D02*
X145050000Y-104150000D01*
%TO.N,V_SYS*%
D37*
X142849600Y-92198800D02*
X142849600Y-93624400D01*
X144830800Y-94183200D02*
X145969200Y-95321600D01*
X143408400Y-94183200D02*
X144830800Y-94183200D01*
X143847200Y-91201200D02*
X142849600Y-92198800D01*
X147421600Y-95554800D02*
X146578800Y-95554800D01*
X147421600Y-95554800D02*
X147421600Y-96708000D01*
X142849600Y-93624400D02*
X143408400Y-94183200D01*
X146170800Y-95962800D02*
X145969200Y-96164400D01*
X146578800Y-95554800D02*
X145969200Y-96164400D01*
X145969200Y-95321600D02*
X145969200Y-96164400D01*
%TO.N,Net-(USBC1-DN1)*%
D39*
X150573600Y-90695200D02*
X151423600Y-90695200D01*
X151473600Y-89795200D02*
X151473600Y-91715600D01*
X151473600Y-90645200D02*
X151473600Y-89795200D01*
X151473600Y-91715600D02*
X151673600Y-91915600D01*
X151423600Y-90695200D02*
X151473600Y-90645200D01*
X150473600Y-90595200D02*
X150573600Y-90695200D01*
X150473600Y-89795200D02*
X150473600Y-90595200D01*
%TO.N,Net-(USBC1-DP1)*%
X149973600Y-88995200D02*
X150073600Y-88895200D01*
X149973600Y-91715600D02*
X149773600Y-91915600D01*
X150973600Y-88945200D02*
X150973600Y-89795200D01*
X150073600Y-88895200D02*
X150923600Y-88895200D01*
X149973600Y-89795200D02*
X149973600Y-91715600D01*
X150923600Y-88895200D02*
X150973600Y-88945200D01*
X149973600Y-89795200D02*
X149973600Y-88995200D01*
%TO.N,Net-(D1-Pad4)*%
X149773600Y-94215600D02*
X149773600Y-95465200D01*
X149773600Y-95465200D02*
X149758400Y-95480400D01*
%TO.N,Net-(U1-PROG)*%
X143797600Y-86375200D02*
X143948800Y-86224000D01*
X142577200Y-86375200D02*
X143797600Y-86375200D01*
%TO.N,BAT*%
D37*
X140277200Y-88275200D02*
X140277200Y-88308800D01*
X140411200Y-92151200D02*
X141547200Y-92151200D01*
X141547200Y-89578800D02*
X141547200Y-92151200D01*
X140277200Y-88308800D02*
X141547200Y-89578800D01*
X140277200Y-88275200D02*
X138964500Y-88275200D01*
X138964500Y-88275200D02*
X138891700Y-88202400D01*
%TO.N,BOOT*%
D38*
X149357842Y-109065400D02*
X149357842Y-108550400D01*
X150266400Y-109169200D02*
X149461642Y-109169200D01*
D39*
X139488800Y-100506000D02*
X139967600Y-100506000D01*
D38*
X139141200Y-102565200D02*
X137906400Y-102565200D01*
X137906400Y-102565200D02*
X137668000Y-102326800D01*
X150571200Y-108864400D02*
X150266400Y-109169200D01*
X149461642Y-109169200D02*
X149357842Y-109065400D01*
D39*
X137668000Y-102326800D02*
X139488800Y-100506000D01*
%TO.N,Net-(U1-STAT)*%
X138887200Y-86231200D02*
X140133200Y-86231200D01*
X140133200Y-86231200D02*
X140277200Y-86375200D01*
%TO.N,INT1*%
D38*
X144839600Y-105820400D02*
X145627842Y-105820400D01*
D39*
X152857200Y-103424200D02*
X152598600Y-103682800D01*
X152857200Y-102899200D02*
X152857200Y-103424200D01*
D38*
X144576800Y-105400400D02*
X144576800Y-105557600D01*
X144576800Y-105557600D02*
X144839600Y-105820400D01*
D39*
X152598600Y-103682800D02*
X151088000Y-103682800D01*
%TO.N,INT2*%
D38*
X144018187Y-106070213D02*
X144278974Y-106331000D01*
X144278974Y-106331000D02*
X145617242Y-106331000D01*
X151777200Y-102819200D02*
X151857200Y-102899200D01*
X145617242Y-106331000D02*
X145627842Y-106320400D01*
X150672800Y-102819200D02*
X151777200Y-102819200D01*
%TO.N,Net-(U3-GPIO2)*%
X143002000Y-107137200D02*
X143318800Y-106820400D01*
X143318800Y-106820400D02*
X145627842Y-106820400D01*
%TO.N,CHIP_EN*%
D39*
X140081200Y-94148000D02*
X140092800Y-94159600D01*
D38*
X144009900Y-108145100D02*
X144076900Y-108145100D01*
X140106400Y-94068000D02*
X140092800Y-94054400D01*
X144901600Y-107320400D02*
X145627842Y-107320400D01*
X144076900Y-108145100D02*
X144901600Y-107320400D01*
X137668000Y-94198800D02*
X137718800Y-94148000D01*
D39*
X137718800Y-94148000D02*
X140081200Y-94148000D01*
D38*
X140106400Y-95961200D02*
X140106400Y-94068000D01*
X137668000Y-95642800D02*
X137668000Y-94198800D01*
%TO.N,SDA*%
D39*
X146357842Y-109646958D02*
X146175200Y-109829600D01*
X146175200Y-109958400D02*
X146175200Y-109829600D01*
X150902385Y-101032785D02*
X150918800Y-101049200D01*
X145546800Y-110586800D02*
X146175200Y-109958400D01*
X150723600Y-101027855D02*
X150728530Y-101032785D01*
X145546800Y-110599602D02*
X145546800Y-110586800D01*
X150728530Y-101032785D02*
X150902385Y-101032785D01*
X150918800Y-101049200D02*
X151507200Y-101049200D01*
X146357842Y-108550400D02*
X146357842Y-109646958D01*
%TO.N,SCL*%
X152357200Y-100846000D02*
X152357200Y-100199200D01*
X146857842Y-108550400D02*
X146857842Y-110457842D01*
X146857842Y-110457842D02*
X147448800Y-111048800D01*
X146507200Y-110938400D02*
X146600000Y-110845600D01*
X147245600Y-110845600D02*
X147448800Y-111048800D01*
X146600000Y-110845600D02*
X147245600Y-110845600D01*
X152806400Y-101295200D02*
X152357200Y-100846000D01*
%TO.N,USB_D+*%
X149758400Y-96764901D02*
X150498600Y-97505101D01*
X150498600Y-97505101D02*
X150498600Y-98509602D01*
X149382842Y-103077899D02*
X149357842Y-103102899D01*
X149758400Y-96340400D02*
X149758400Y-96764901D01*
X149382842Y-99625360D02*
X149382842Y-103077899D01*
X149357842Y-103102899D02*
X149357842Y-103590400D01*
X150498600Y-98509602D02*
X149382842Y-99625360D01*
%TO.N,XTAL_N*%
X147523400Y-99161800D02*
X147858600Y-99497000D01*
X147858600Y-99497000D02*
X147858600Y-100411400D01*
X146896000Y-99199200D02*
X146858600Y-99161800D01*
X147858600Y-100411400D02*
X148349600Y-100902400D01*
X146858600Y-99161800D02*
X147523400Y-99161800D01*
X148349600Y-100902400D02*
X148488400Y-100902400D01*
X148488400Y-100902400D02*
X148488400Y-101352400D01*
X148488400Y-101352400D02*
X147857842Y-101982958D01*
X147857842Y-101982958D02*
X147857842Y-103590400D01*
%TO.N,XTAL_P*%
X146936400Y-102080000D02*
X147357842Y-102501442D01*
X142961400Y-100861800D02*
X144658600Y-100861800D01*
X142849600Y-100750000D02*
X142961400Y-100861800D01*
X147357842Y-102501442D02*
X147357842Y-103590400D01*
X144658600Y-100861800D02*
X145876800Y-102080000D01*
X145876800Y-102080000D02*
X146936400Y-102080000D01*
%TO.N,Net-(USBC1-CC2)*%
X148983752Y-91378248D02*
X148983752Y-89795200D01*
X148539200Y-91822800D02*
X148983752Y-91378248D01*
%TO.N,Net-(AE1-ANT)*%
D41*
X136689000Y-105664000D02*
X137109000Y-107996000D01*
X136740000Y-104394000D02*
X136689000Y-105664000D01*
%TO.N,Net-(U4-BYP)*%
D38*
X153357200Y-99234000D02*
X153365200Y-99226000D01*
X153357200Y-100199200D02*
X153357200Y-99234000D01*
%TO.N,Net-(LED1--)*%
D39*
X140938000Y-84574800D02*
X139683600Y-84574800D01*
X139683600Y-84574800D02*
X138887200Y-85371200D01*
%TO.N,Net-(USBC1-CC1)*%
X151973600Y-89795200D02*
X151973600Y-90736000D01*
X152857200Y-91619600D02*
X152857200Y-91822800D01*
X151973600Y-90736000D02*
X152857200Y-91619600D01*
%TD*%
%TA.AperFunction,Conductor*%
%TO.N,3.3V*%
G36*
X155675467Y-90069616D02*
G01*
X155722157Y-90121595D01*
X155734300Y-90175112D01*
X155734300Y-98389924D01*
X155714615Y-98456963D01*
X155661811Y-98502718D01*
X155592653Y-98512662D01*
X155529097Y-98483637D01*
X155522619Y-98477605D01*
X155501316Y-98456302D01*
X155501314Y-98456300D01*
X155433674Y-98417248D01*
X155387187Y-98390408D01*
X155278552Y-98361300D01*
X155259892Y-98356300D01*
X155128108Y-98356300D01*
X155000812Y-98390408D01*
X154886686Y-98456300D01*
X154886683Y-98456302D01*
X154793502Y-98549483D01*
X154793500Y-98549486D01*
X154727608Y-98663612D01*
X154696275Y-98780552D01*
X154693500Y-98790908D01*
X154693500Y-98922692D01*
X154726247Y-99044908D01*
X154727609Y-99049988D01*
X154727609Y-99049989D01*
X154795002Y-99166717D01*
X154811475Y-99234617D01*
X154788622Y-99300644D01*
X154781855Y-99308644D01*
X154735132Y-99378569D01*
X154735131Y-99378570D01*
X154723500Y-99437047D01*
X154723500Y-99976552D01*
X154735131Y-100035029D01*
X154735132Y-100035030D01*
X154779447Y-100101352D01*
X154845769Y-100145667D01*
X154845770Y-100145668D01*
X154904247Y-100157299D01*
X154904250Y-100157300D01*
X154904252Y-100157300D01*
X155483750Y-100157300D01*
X155483751Y-100157299D01*
X155503978Y-100153276D01*
X155542229Y-100145668D01*
X155553513Y-100140994D01*
X155554038Y-100142262D01*
X155608082Y-100125338D01*
X155675463Y-100143820D01*
X155722155Y-100195797D01*
X155734300Y-100249318D01*
X155734300Y-102442681D01*
X155714615Y-102509720D01*
X155661811Y-102555475D01*
X155592653Y-102565419D01*
X155586336Y-102564343D01*
X155562014Y-102559552D01*
X155542231Y-102546333D01*
X155483748Y-102534700D01*
X155435843Y-102534700D01*
X155423973Y-102532362D01*
X155407816Y-102523949D01*
X155395249Y-102520581D01*
X155394696Y-102521919D01*
X155387188Y-102518809D01*
X155387186Y-102518808D01*
X155259892Y-102484700D01*
X155128108Y-102484700D01*
X155000814Y-102518808D01*
X154993304Y-102521919D01*
X154992750Y-102520581D01*
X154940063Y-102534700D01*
X154904247Y-102534700D01*
X154845770Y-102546331D01*
X154845769Y-102546332D01*
X154779447Y-102590647D01*
X154735132Y-102656969D01*
X154735131Y-102656970D01*
X154723500Y-102715447D01*
X154723500Y-102791020D01*
X154719274Y-102823113D01*
X154693500Y-102919308D01*
X154693500Y-103051092D01*
X154708507Y-103107100D01*
X154719275Y-103147285D01*
X154723500Y-103179378D01*
X154723500Y-103254952D01*
X154735131Y-103313429D01*
X154735132Y-103313430D01*
X154779447Y-103379752D01*
X154855923Y-103430852D01*
X154854802Y-103432528D01*
X154897151Y-103466650D01*
X154919221Y-103532943D01*
X154919300Y-103537378D01*
X154919300Y-107205011D01*
X154899615Y-107272050D01*
X154882981Y-107292692D01*
X154689092Y-107486581D01*
X154627769Y-107520066D01*
X154601411Y-107522900D01*
X152984734Y-107522900D01*
X152917695Y-107503215D01*
X152893220Y-107482574D01*
X152886868Y-107475627D01*
X152858952Y-107433848D01*
X152832519Y-107416186D01*
X152822386Y-107405103D01*
X152813364Y-107386665D01*
X152800204Y-107370918D01*
X152796163Y-107351513D01*
X152791677Y-107342344D01*
X152792602Y-107334409D01*
X152789900Y-107321429D01*
X152789900Y-107176817D01*
X152809585Y-107109778D01*
X152862389Y-107064023D01*
X152931547Y-107054079D01*
X152975899Y-107069429D01*
X153021214Y-107095592D01*
X153148508Y-107129700D01*
X153148510Y-107129700D01*
X153280290Y-107129700D01*
X153280292Y-107129700D01*
X153407586Y-107095592D01*
X153521714Y-107029700D01*
X153614900Y-106936514D01*
X153680792Y-106822386D01*
X153714900Y-106695092D01*
X153714900Y-106563308D01*
X153680792Y-106436014D01*
X153614900Y-106321886D01*
X153521714Y-106228700D01*
X153420620Y-106170333D01*
X153407587Y-106162808D01*
X153307924Y-106136104D01*
X153280292Y-106128700D01*
X153148508Y-106128700D01*
X153021211Y-106162808D01*
X152959322Y-106198540D01*
X152891421Y-106215011D01*
X152828433Y-106194254D01*
X152792633Y-106170333D01*
X152792629Y-106170331D01*
X152734152Y-106158700D01*
X152734148Y-106158700D01*
X152194652Y-106158700D01*
X152194647Y-106158700D01*
X152136170Y-106170331D01*
X152136169Y-106170332D01*
X152069847Y-106214647D01*
X152025532Y-106280969D01*
X152025531Y-106280970D01*
X152013900Y-106339447D01*
X152013900Y-106918952D01*
X152025531Y-106977429D01*
X152025532Y-106977430D01*
X152066426Y-107038630D01*
X152069848Y-107043752D01*
X152083789Y-107053067D01*
X152088879Y-107059158D01*
X152096103Y-107062457D01*
X152110966Y-107085585D01*
X152128595Y-107106678D01*
X152130547Y-107116053D01*
X152133877Y-107121235D01*
X152138900Y-107156170D01*
X152138900Y-107321429D01*
X152119215Y-107388468D01*
X152083791Y-107424531D01*
X152069847Y-107433847D01*
X152025532Y-107500169D01*
X152025531Y-107500170D01*
X152013900Y-107558647D01*
X152013900Y-108138152D01*
X152025531Y-108196629D01*
X152025532Y-108196630D01*
X152069847Y-108262952D01*
X152136169Y-108307267D01*
X152136170Y-108307268D01*
X152194647Y-108318899D01*
X152194650Y-108318900D01*
X152194652Y-108318900D01*
X152387856Y-108318900D01*
X152454895Y-108338585D01*
X152475537Y-108355219D01*
X152705398Y-108585079D01*
X152738883Y-108646402D01*
X152741717Y-108672760D01*
X152741717Y-108692108D01*
X152775825Y-108819404D01*
X152808771Y-108876467D01*
X152841717Y-108933531D01*
X152934903Y-109026717D01*
X153014023Y-109072397D01*
X153045769Y-109090726D01*
X153049031Y-109092609D01*
X153176325Y-109126717D01*
X153176327Y-109126717D01*
X153308107Y-109126717D01*
X153308109Y-109126717D01*
X153435403Y-109092609D01*
X153549531Y-109026717D01*
X153642717Y-108933531D01*
X153708609Y-108819403D01*
X153742717Y-108692109D01*
X153742717Y-108560325D01*
X153708609Y-108433031D01*
X153695791Y-108410829D01*
X153666387Y-108359900D01*
X153649914Y-108292000D01*
X153672766Y-108225973D01*
X153727687Y-108182783D01*
X153773774Y-108173900D01*
X154830451Y-108173900D01*
X154830453Y-108173900D01*
X154913239Y-108151718D01*
X154987462Y-108108865D01*
X155505265Y-107591062D01*
X155505269Y-107591054D01*
X155510213Y-107584613D01*
X155512284Y-107586202D01*
X155553468Y-107546925D01*
X155622074Y-107533695D01*
X155686941Y-107559656D01*
X155727476Y-107616566D01*
X155734300Y-107657135D01*
X155734300Y-111363507D01*
X155733703Y-111375662D01*
X155722056Y-111493911D01*
X155717314Y-111517751D01*
X155684598Y-111625602D01*
X155675295Y-111648061D01*
X155622170Y-111747450D01*
X155608665Y-111767661D01*
X155537168Y-111854780D01*
X155519980Y-111871968D01*
X155432861Y-111943465D01*
X155412650Y-111956970D01*
X155313261Y-112010095D01*
X155290802Y-112019398D01*
X155182951Y-112052114D01*
X155159111Y-112056856D01*
X155072015Y-112065434D01*
X155040860Y-112068503D01*
X155028707Y-112069100D01*
X142054000Y-112069100D01*
X141986961Y-112049415D01*
X141941206Y-111996611D01*
X141930000Y-111945100D01*
X141930000Y-110565508D01*
X143419500Y-110565508D01*
X143419500Y-110697292D01*
X143432341Y-110745214D01*
X143453608Y-110824587D01*
X143481276Y-110872508D01*
X143519500Y-110938714D01*
X143612686Y-111031900D01*
X143726814Y-111097792D01*
X143854108Y-111131900D01*
X143854110Y-111131900D01*
X143985890Y-111131900D01*
X143985892Y-111131900D01*
X144113186Y-111097792D01*
X144227314Y-111031900D01*
X144320500Y-110938714D01*
X144386392Y-110824586D01*
X144420500Y-110697292D01*
X144420500Y-110565508D01*
X144386392Y-110438214D01*
X144320500Y-110324086D01*
X144227314Y-110230900D01*
X144170250Y-110197954D01*
X144113187Y-110165008D01*
X143997073Y-110133896D01*
X143985892Y-110130900D01*
X143854108Y-110130900D01*
X143726812Y-110165008D01*
X143612686Y-110230900D01*
X143612683Y-110230902D01*
X143519502Y-110324083D01*
X143519500Y-110324086D01*
X143453608Y-110438212D01*
X143444553Y-110472008D01*
X143419500Y-110565508D01*
X141930000Y-110565508D01*
X141930000Y-106766500D01*
X141949685Y-106699461D01*
X142002489Y-106653706D01*
X142054000Y-106642500D01*
X142394550Y-106642500D01*
X142396164Y-106642341D01*
X142397003Y-106642500D01*
X142400640Y-106642500D01*
X142400640Y-106643189D01*
X142464811Y-106655357D01*
X142515523Y-106703420D01*
X142532200Y-106771270D01*
X142529941Y-106789934D01*
X142518500Y-106847453D01*
X142518500Y-107426952D01*
X142530131Y-107485429D01*
X142530132Y-107485430D01*
X142574447Y-107551752D01*
X142640769Y-107596067D01*
X142640770Y-107596068D01*
X142699247Y-107607699D01*
X142699250Y-107607700D01*
X142699252Y-107607700D01*
X143304750Y-107607700D01*
X143304751Y-107607699D01*
X143319568Y-107604752D01*
X143363229Y-107596068D01*
X143363229Y-107596067D01*
X143363231Y-107596067D01*
X143429552Y-107551752D01*
X143473867Y-107485431D01*
X143473867Y-107485429D01*
X143473868Y-107485429D01*
X143484087Y-107434053D01*
X143485500Y-107426948D01*
X143485500Y-107269900D01*
X143505185Y-107202861D01*
X143557989Y-107157106D01*
X143609500Y-107145900D01*
X144316411Y-107145900D01*
X144383450Y-107165585D01*
X144429205Y-107218389D01*
X144439149Y-107287547D01*
X144410124Y-107351103D01*
X144404097Y-107357574D01*
X144276243Y-107485429D01*
X144153391Y-107608281D01*
X144092068Y-107641766D01*
X144065710Y-107644600D01*
X143944008Y-107644600D01*
X143816712Y-107678708D01*
X143702586Y-107744600D01*
X143702583Y-107744602D01*
X143609402Y-107837783D01*
X143609400Y-107837786D01*
X143543508Y-107951912D01*
X143509400Y-108079208D01*
X143509400Y-108210991D01*
X143543508Y-108338287D01*
X143553284Y-108355219D01*
X143609400Y-108452414D01*
X143702586Y-108545600D01*
X143816714Y-108611492D01*
X143944008Y-108645600D01*
X143944010Y-108645600D01*
X144075790Y-108645600D01*
X144075792Y-108645600D01*
X144203086Y-108611492D01*
X144317214Y-108545600D01*
X144410400Y-108452414D01*
X144476292Y-108338286D01*
X144510400Y-108210992D01*
X144510400Y-108210979D01*
X144510827Y-108207741D01*
X144511952Y-108205196D01*
X144512503Y-108203142D01*
X144512823Y-108203227D01*
X144539091Y-108143843D01*
X144546074Y-108136252D01*
X144890661Y-107791666D01*
X144951984Y-107758181D01*
X145021676Y-107763165D01*
X145077609Y-107805037D01*
X145102026Y-107870501D01*
X145102342Y-107879347D01*
X145102342Y-107980152D01*
X145113973Y-108038629D01*
X145113974Y-108038630D01*
X145158289Y-108104952D01*
X145224611Y-108149267D01*
X145224612Y-108149268D01*
X145283089Y-108160899D01*
X145283092Y-108160900D01*
X145893342Y-108160900D01*
X145960381Y-108180585D01*
X146006136Y-108233389D01*
X146017342Y-108284900D01*
X146017342Y-108895152D01*
X146028973Y-108953628D01*
X146028974Y-108953630D01*
X146028975Y-108953631D01*
X146036442Y-108964806D01*
X146042093Y-108982853D01*
X146052319Y-108998764D01*
X146056769Y-109029716D01*
X146057322Y-109031481D01*
X146057342Y-109033699D01*
X146057342Y-109235100D01*
X146037657Y-109302139D01*
X145984853Y-109347894D01*
X145933342Y-109359100D01*
X145872447Y-109359100D01*
X145813970Y-109370731D01*
X145813969Y-109370732D01*
X145747647Y-109415047D01*
X145703332Y-109481369D01*
X145703331Y-109481370D01*
X145691700Y-109539847D01*
X145691700Y-109965567D01*
X145683055Y-109995007D01*
X145676532Y-110024994D01*
X145672777Y-110030009D01*
X145672015Y-110032606D01*
X145655381Y-110053248D01*
X145645846Y-110062783D01*
X145584523Y-110096268D01*
X145558165Y-110099102D01*
X145480908Y-110099102D01*
X145353612Y-110133210D01*
X145239486Y-110199102D01*
X145239483Y-110199104D01*
X145146302Y-110292285D01*
X145146300Y-110292288D01*
X145080408Y-110406414D01*
X145062833Y-110472008D01*
X145046300Y-110533710D01*
X145046300Y-110665494D01*
X145063354Y-110729141D01*
X145080408Y-110792789D01*
X145098767Y-110824587D01*
X145146300Y-110906916D01*
X145239486Y-111000102D01*
X145353614Y-111065994D01*
X145480908Y-111100102D01*
X145480910Y-111100102D01*
X145612690Y-111100102D01*
X145612692Y-111100102D01*
X145739986Y-111065994D01*
X145845337Y-111005169D01*
X145913234Y-110988697D01*
X145979261Y-111011549D01*
X146022452Y-111066470D01*
X146027108Y-111080459D01*
X146040808Y-111131586D01*
X146106700Y-111245714D01*
X146199886Y-111338900D01*
X146314014Y-111404792D01*
X146441308Y-111438900D01*
X146441310Y-111438900D01*
X146573090Y-111438900D01*
X146573092Y-111438900D01*
X146700386Y-111404792D01*
X146803705Y-111345140D01*
X146871602Y-111328668D01*
X146937629Y-111351520D01*
X146967299Y-111388780D01*
X146970148Y-111386877D01*
X147021247Y-111463352D01*
X147087569Y-111507667D01*
X147087570Y-111507668D01*
X147146047Y-111519299D01*
X147146050Y-111519300D01*
X147146052Y-111519300D01*
X147751550Y-111519300D01*
X147751551Y-111519299D01*
X147766368Y-111516352D01*
X147810029Y-111507668D01*
X147810029Y-111507667D01*
X147810031Y-111507667D01*
X147876352Y-111463352D01*
X147920667Y-111397031D01*
X147920667Y-111397029D01*
X147920668Y-111397029D01*
X147929720Y-111351520D01*
X147932300Y-111338548D01*
X147932300Y-110759052D01*
X147932300Y-110759049D01*
X147932299Y-110759047D01*
X147920668Y-110700570D01*
X147920667Y-110700569D01*
X147876352Y-110634247D01*
X147810030Y-110589932D01*
X147810029Y-110589931D01*
X147751552Y-110578300D01*
X147751548Y-110578300D01*
X147454633Y-110578300D01*
X147425192Y-110569655D01*
X147395206Y-110563132D01*
X147390190Y-110559377D01*
X147387594Y-110558615D01*
X147366952Y-110541981D01*
X147194661Y-110369690D01*
X147161176Y-110308367D01*
X147158342Y-110282009D01*
X147158342Y-109033699D01*
X147178027Y-108966660D01*
X147179214Y-108964847D01*
X147186709Y-108953631D01*
X147190708Y-108933530D01*
X147198341Y-108895152D01*
X147198342Y-108895150D01*
X147198342Y-108294900D01*
X147200892Y-108286214D01*
X147199604Y-108277253D01*
X147210582Y-108253212D01*
X147218027Y-108227861D01*
X147224867Y-108221933D01*
X147228629Y-108213697D01*
X147250863Y-108199407D01*
X147270831Y-108182106D01*
X147281345Y-108179818D01*
X147287407Y-108175923D01*
X147322342Y-108170900D01*
X147393342Y-108170900D01*
X147460381Y-108190585D01*
X147506136Y-108243389D01*
X147517342Y-108294900D01*
X147517342Y-108895152D01*
X147528973Y-108953629D01*
X147528974Y-108953630D01*
X147573289Y-109019952D01*
X147639611Y-109064267D01*
X147639612Y-109064268D01*
X147698089Y-109075899D01*
X147698092Y-109075900D01*
X147698094Y-109075900D01*
X148017589Y-109075900D01*
X148017590Y-109075900D01*
X148024466Y-109074532D01*
X148040652Y-109075980D01*
X148056506Y-109072397D01*
X148074737Y-109079029D01*
X148094057Y-109080758D01*
X148106891Y-109090726D01*
X148122166Y-109096284D01*
X148133916Y-109111719D01*
X148149236Y-109123619D01*
X148154643Y-109138946D01*
X148164488Y-109151878D01*
X148166028Y-109171214D01*
X148172482Y-109189508D01*
X148168744Y-109205325D01*
X148170035Y-109221527D01*
X148160876Y-109238626D01*
X148156416Y-109257506D01*
X148144382Y-109269422D01*
X148137047Y-109283119D01*
X148116710Y-109296826D01*
X148108965Y-109304497D01*
X148097292Y-109310993D01*
X148092014Y-109312408D01*
X148018645Y-109354767D01*
X148017760Y-109355260D01*
X148015615Y-109355744D01*
X147981651Y-109368528D01*
X147970570Y-109370732D01*
X147970567Y-109370733D01*
X147904247Y-109415047D01*
X147859933Y-109481367D01*
X147853908Y-109511658D01*
X147839679Y-109549462D01*
X147818810Y-109585609D01*
X147818808Y-109585614D01*
X147784700Y-109712908D01*
X147784700Y-109844691D01*
X147818808Y-109971988D01*
X147831686Y-109994291D01*
X147848300Y-110056293D01*
X147848300Y-110119352D01*
X147859931Y-110177829D01*
X147859932Y-110177830D01*
X147904247Y-110244152D01*
X147970569Y-110288467D01*
X147970570Y-110288468D01*
X148029047Y-110300099D01*
X148029050Y-110300100D01*
X148029052Y-110300100D01*
X148568550Y-110300100D01*
X148568551Y-110300099D01*
X148583368Y-110297152D01*
X148627029Y-110288468D01*
X148627029Y-110288467D01*
X148627031Y-110288467D01*
X148693352Y-110244152D01*
X148737667Y-110177831D01*
X148737666Y-110177831D01*
X148744452Y-110167677D01*
X148748022Y-110170062D01*
X148777151Y-110133896D01*
X148843438Y-110111812D01*
X148911143Y-110129072D01*
X148948733Y-110169423D01*
X148951348Y-110167677D01*
X149002447Y-110244152D01*
X149068769Y-110288467D01*
X149068770Y-110288468D01*
X149127247Y-110300099D01*
X149127250Y-110300100D01*
X149127252Y-110300100D01*
X149732750Y-110300100D01*
X149732751Y-110300099D01*
X149747568Y-110297152D01*
X149791229Y-110288468D01*
X149791229Y-110288467D01*
X149791231Y-110288467D01*
X149857552Y-110244152D01*
X149901867Y-110177831D01*
X149901867Y-110177829D01*
X149901868Y-110177829D01*
X149913499Y-110119352D01*
X149913500Y-110119350D01*
X149913500Y-109618700D01*
X149933185Y-109551661D01*
X149985989Y-109505906D01*
X150037500Y-109494700D01*
X150309251Y-109494700D01*
X150309253Y-109494700D01*
X150392039Y-109472518D01*
X150466262Y-109429665D01*
X150494708Y-109401219D01*
X150556031Y-109367734D01*
X150582389Y-109364900D01*
X150637090Y-109364900D01*
X150637092Y-109364900D01*
X150764386Y-109330792D01*
X150878514Y-109264900D01*
X150971700Y-109171714D01*
X151037592Y-109057586D01*
X151071700Y-108930292D01*
X151071700Y-108798508D01*
X151037592Y-108671214D01*
X150971700Y-108557086D01*
X150878514Y-108463900D01*
X150786593Y-108410829D01*
X150764387Y-108398008D01*
X150700739Y-108380954D01*
X150637092Y-108363900D01*
X150505308Y-108363900D01*
X150378014Y-108398008D01*
X150378013Y-108398008D01*
X150378011Y-108398009D01*
X150370500Y-108401120D01*
X150369224Y-108398039D01*
X150350198Y-108402636D01*
X150316524Y-108410829D01*
X150316425Y-108410794D01*
X150316322Y-108410820D01*
X150283115Y-108399291D01*
X150250482Y-108388021D01*
X150250417Y-108387938D01*
X150250317Y-108387904D01*
X150228775Y-108360456D01*
X150207255Y-108333128D01*
X150207231Y-108333005D01*
X150207180Y-108332940D01*
X150198911Y-108298835D01*
X150198342Y-108292917D01*
X150198342Y-108205652D01*
X150186709Y-108147169D01*
X150183927Y-108143005D01*
X150181833Y-108121228D01*
X150185062Y-108104411D01*
X150183226Y-108087386D01*
X150192962Y-108063275D01*
X150193493Y-108060515D01*
X150192036Y-108059912D01*
X150194968Y-108052832D01*
X150195011Y-108052612D01*
X150195097Y-108052520D01*
X150196710Y-108048628D01*
X150208341Y-107990152D01*
X150208342Y-107990150D01*
X150208342Y-107284900D01*
X150228027Y-107217861D01*
X150280831Y-107172106D01*
X150332342Y-107160900D01*
X150932592Y-107160900D01*
X150932593Y-107160899D01*
X150951664Y-107157106D01*
X150991071Y-107149268D01*
X150991071Y-107149267D01*
X150991073Y-107149267D01*
X151057394Y-107104952D01*
X151101709Y-107038631D01*
X151101709Y-107038629D01*
X151101710Y-107038629D01*
X151113341Y-106980152D01*
X151113342Y-106980150D01*
X151113342Y-106660649D01*
X151100202Y-106594592D01*
X151100202Y-106546208D01*
X151113342Y-106480150D01*
X151113342Y-106160649D01*
X151100202Y-106094592D01*
X151100202Y-106046208D01*
X151113342Y-105980150D01*
X151113342Y-105660649D01*
X151100202Y-105594592D01*
X151100202Y-105546208D01*
X151113342Y-105480150D01*
X151113342Y-105160649D01*
X151100202Y-105094592D01*
X151100202Y-105046208D01*
X151113342Y-104980150D01*
X151113342Y-104660649D01*
X151100202Y-104594592D01*
X151100202Y-104546208D01*
X151113342Y-104480150D01*
X151113342Y-104289313D01*
X151133027Y-104222274D01*
X151185831Y-104176519D01*
X151205241Y-104169541D01*
X151281186Y-104149192D01*
X151395314Y-104083300D01*
X151458995Y-104019619D01*
X151520318Y-103986134D01*
X151546676Y-103983300D01*
X152638160Y-103983300D01*
X152638162Y-103983300D01*
X152714589Y-103962821D01*
X152783111Y-103923260D01*
X152839060Y-103867311D01*
X153097660Y-103608711D01*
X153137222Y-103540188D01*
X153150239Y-103491605D01*
X153186604Y-103431946D01*
X153249451Y-103401417D01*
X153270014Y-103399700D01*
X153501950Y-103399700D01*
X153501951Y-103399699D01*
X153516685Y-103396768D01*
X153572410Y-103385685D01*
X153572664Y-103386962D01*
X153629209Y-103380880D01*
X153653099Y-103387894D01*
X153712447Y-103399699D01*
X153712450Y-103399700D01*
X153712452Y-103399700D01*
X154001950Y-103399700D01*
X154001951Y-103399699D01*
X154016768Y-103396752D01*
X154060429Y-103388068D01*
X154060429Y-103388067D01*
X154060431Y-103388067D01*
X154126752Y-103343752D01*
X154171067Y-103277431D01*
X154171067Y-103277429D01*
X154171068Y-103277429D01*
X154181361Y-103225681D01*
X154182700Y-103218948D01*
X154182700Y-102579452D01*
X154182700Y-102579449D01*
X154182699Y-102579447D01*
X154171068Y-102520970D01*
X154171067Y-102520969D01*
X154126752Y-102454647D01*
X154060430Y-102410332D01*
X154060429Y-102410331D01*
X154001952Y-102398700D01*
X154001948Y-102398700D01*
X153806701Y-102398700D01*
X153739662Y-102379015D01*
X153693907Y-102326211D01*
X153689769Y-102315965D01*
X153682701Y-102295936D01*
X153682701Y-102281347D01*
X153660518Y-102198561D01*
X153634918Y-102154221D01*
X153617665Y-102124338D01*
X153557062Y-102063735D01*
X153507062Y-102013735D01*
X153485524Y-102001300D01*
X153485523Y-102001299D01*
X153432844Y-101970884D01*
X153432842Y-101970883D01*
X153432839Y-101970882D01*
X153350053Y-101948700D01*
X153350052Y-101948700D01*
X153138280Y-101948700D01*
X153071241Y-101929015D01*
X153025486Y-101876211D01*
X153015542Y-101807053D01*
X153044567Y-101743497D01*
X153076279Y-101717313D01*
X153113714Y-101695700D01*
X153206900Y-101602514D01*
X153272792Y-101488386D01*
X153306900Y-101361092D01*
X153306900Y-101229308D01*
X153272792Y-101102014D01*
X153206900Y-100987886D01*
X153130395Y-100911381D01*
X153096910Y-100850058D01*
X153101894Y-100780366D01*
X153143766Y-100724433D01*
X153209230Y-100700016D01*
X153218076Y-100699700D01*
X153501950Y-100699700D01*
X153501951Y-100699699D01*
X153516685Y-100696768D01*
X153572410Y-100685685D01*
X153573042Y-100688866D01*
X153622864Y-100683503D01*
X153685348Y-100714771D01*
X153721007Y-100774855D01*
X153718915Y-100833631D01*
X153720715Y-100833990D01*
X153706700Y-100904447D01*
X153706700Y-101193952D01*
X153720715Y-101264409D01*
X153719439Y-101264662D01*
X153725517Y-101321223D01*
X153718503Y-101345110D01*
X153706700Y-101404447D01*
X153706700Y-101693952D01*
X153718331Y-101752429D01*
X153718332Y-101752430D01*
X153762647Y-101818752D01*
X153828969Y-101863067D01*
X153828970Y-101863068D01*
X153887447Y-101874699D01*
X153887450Y-101874700D01*
X153887452Y-101874700D01*
X154526950Y-101874700D01*
X154526951Y-101874699D01*
X154541768Y-101871752D01*
X154585429Y-101863068D01*
X154585429Y-101863067D01*
X154585431Y-101863067D01*
X154651752Y-101818752D01*
X154696067Y-101752431D01*
X154696067Y-101752429D01*
X154696068Y-101752429D01*
X154706771Y-101698619D01*
X154707700Y-101693948D01*
X154707700Y-101404452D01*
X154707700Y-101404449D01*
X154707699Y-101404447D01*
X154693685Y-101333990D01*
X154694962Y-101333735D01*
X154688880Y-101277191D01*
X154695894Y-101253300D01*
X154707699Y-101193952D01*
X154707700Y-101193950D01*
X154707700Y-100904449D01*
X154707699Y-100904447D01*
X154696068Y-100845970D01*
X154696067Y-100845969D01*
X154651752Y-100779647D01*
X154585430Y-100735332D01*
X154585429Y-100735331D01*
X154526952Y-100723700D01*
X154526948Y-100723700D01*
X153887452Y-100723700D01*
X153887447Y-100723700D01*
X153816990Y-100737715D01*
X153816357Y-100734537D01*
X153766500Y-100739889D01*
X153704026Y-100708605D01*
X153668383Y-100648510D01*
X153670490Y-100589769D01*
X153668685Y-100589410D01*
X153681028Y-100527355D01*
X153682700Y-100518948D01*
X153682700Y-99879452D01*
X153682700Y-99751679D01*
X153702385Y-99684640D01*
X153737806Y-99648579D01*
X153779752Y-99620552D01*
X153824067Y-99554231D01*
X153824067Y-99554229D01*
X153824068Y-99554229D01*
X153835699Y-99495752D01*
X153835700Y-99495750D01*
X153835700Y-98956249D01*
X153835699Y-98956247D01*
X153824068Y-98897770D01*
X153824067Y-98897768D01*
X153808781Y-98874892D01*
X153787902Y-98808215D01*
X153806386Y-98740835D01*
X153808781Y-98737108D01*
X153824067Y-98714231D01*
X153824068Y-98714229D01*
X153835699Y-98655752D01*
X153835700Y-98655750D01*
X153835700Y-98116249D01*
X153835699Y-98116247D01*
X153824068Y-98057770D01*
X153819394Y-98046487D01*
X153822204Y-98045322D01*
X153807014Y-97996829D01*
X153823608Y-97932602D01*
X153831500Y-97918934D01*
X153882392Y-97830786D01*
X153916500Y-97703492D01*
X153916500Y-97571708D01*
X153882392Y-97444414D01*
X153816500Y-97330286D01*
X153723314Y-97237100D01*
X153666250Y-97204154D01*
X153609187Y-97171208D01*
X153542904Y-97153448D01*
X153481892Y-97137100D01*
X153350108Y-97137100D01*
X153222812Y-97171208D01*
X153108686Y-97237100D01*
X153108683Y-97237102D01*
X153015502Y-97330283D01*
X153015500Y-97330286D01*
X152949608Y-97444412D01*
X152915500Y-97571708D01*
X152915500Y-97703491D01*
X152949608Y-97830788D01*
X152961297Y-97851033D01*
X152977768Y-97918934D01*
X152957011Y-97981922D01*
X152906333Y-98057766D01*
X152906331Y-98057770D01*
X152894700Y-98116247D01*
X152894700Y-98655752D01*
X152906331Y-98714229D01*
X152921620Y-98737110D01*
X152942497Y-98803787D01*
X152924012Y-98871167D01*
X152921620Y-98874890D01*
X152906332Y-98897770D01*
X152906331Y-98897770D01*
X152894700Y-98956247D01*
X152894700Y-99495752D01*
X152905592Y-99550509D01*
X152904348Y-99564406D01*
X152907934Y-99577892D01*
X152901296Y-99598518D01*
X152899365Y-99620100D01*
X152890804Y-99631120D01*
X152886530Y-99644402D01*
X152869796Y-99658164D01*
X152856502Y-99675278D01*
X152842246Y-99680821D01*
X152832566Y-99688783D01*
X152809856Y-99693417D01*
X152798457Y-99697851D01*
X152791237Y-99698700D01*
X152712452Y-99698700D01*
X152653969Y-99710333D01*
X152645779Y-99715805D01*
X152621682Y-99718639D01*
X152603509Y-99715547D01*
X152585177Y-99717517D01*
X152561289Y-99710503D01*
X152501951Y-99698700D01*
X152501948Y-99698700D01*
X152457827Y-99698700D01*
X152390788Y-99679015D01*
X152345033Y-99626211D01*
X152335089Y-99557053D01*
X152350440Y-99512700D01*
X152390400Y-99443485D01*
X152413536Y-99403414D01*
X152447644Y-99276120D01*
X152447644Y-99144336D01*
X152413536Y-99017042D01*
X152347644Y-98902914D01*
X152254458Y-98809728D01*
X152197394Y-98776782D01*
X152140331Y-98743836D01*
X152076683Y-98726782D01*
X152013036Y-98709728D01*
X151881252Y-98709728D01*
X151753956Y-98743836D01*
X151639830Y-98809728D01*
X151639827Y-98809730D01*
X151546646Y-98902911D01*
X151546644Y-98902914D01*
X151480752Y-99017040D01*
X151446644Y-99144336D01*
X151446644Y-99276120D01*
X151455359Y-99308644D01*
X151480752Y-99403415D01*
X151489239Y-99418114D01*
X151540087Y-99506185D01*
X151544237Y-99521673D01*
X151551677Y-99533250D01*
X151556700Y-99568185D01*
X151556700Y-99764033D01*
X151547260Y-99811488D01*
X151543331Y-99820970D01*
X151531700Y-99879447D01*
X151531700Y-100518952D01*
X151542950Y-100575509D01*
X151541077Y-100596430D01*
X151544089Y-100617223D01*
X151538026Y-100630533D01*
X151536723Y-100645100D01*
X151523835Y-100661690D01*
X151515128Y-100680808D01*
X151502832Y-100688727D01*
X151493860Y-100700278D01*
X151474048Y-100707266D01*
X151456388Y-100718642D01*
X151431709Y-100722202D01*
X151427970Y-100723522D01*
X151421458Y-100723700D01*
X151187452Y-100723700D01*
X151186257Y-100723937D01*
X151178991Y-100723945D01*
X151150996Y-100715755D01*
X151122342Y-100710313D01*
X151115593Y-100705399D01*
X151111932Y-100704328D01*
X151108166Y-100699990D01*
X151091185Y-100687626D01*
X151030916Y-100627357D01*
X151030914Y-100627355D01*
X150950731Y-100581061D01*
X150916787Y-100561463D01*
X150853139Y-100544409D01*
X150789492Y-100527355D01*
X150657708Y-100527355D01*
X150530412Y-100561463D01*
X150416286Y-100627355D01*
X150416283Y-100627357D01*
X150345023Y-100698618D01*
X150283700Y-100732103D01*
X150214008Y-100727119D01*
X150158075Y-100685247D01*
X150133658Y-100619783D01*
X150133342Y-100610937D01*
X150133342Y-99987589D01*
X150153027Y-99920550D01*
X150169661Y-99899908D01*
X150666155Y-99403414D01*
X151189060Y-98880509D01*
X151201058Y-98859728D01*
X151228621Y-98811987D01*
X151249100Y-98735560D01*
X151249100Y-97680934D01*
X151268785Y-97613895D01*
X151285419Y-97593253D01*
X151600425Y-97278247D01*
X151929260Y-96949412D01*
X151938562Y-96933300D01*
X151968821Y-96880890D01*
X151969861Y-96877005D01*
X151975552Y-96866778D01*
X151995568Y-96847075D01*
X152013184Y-96825213D01*
X152023504Y-96819577D01*
X152025346Y-96817765D01*
X152027742Y-96817263D01*
X152036466Y-96812500D01*
X152037021Y-96812268D01*
X152037031Y-96812267D01*
X152103352Y-96767952D01*
X152147667Y-96701631D01*
X152147667Y-96701629D01*
X152147668Y-96701629D01*
X152159299Y-96643152D01*
X152159300Y-96643150D01*
X152159300Y-96037649D01*
X152159299Y-96037647D01*
X152147668Y-95979170D01*
X152142994Y-95967887D01*
X152144042Y-95967452D01*
X152126870Y-95912620D01*
X152143220Y-95853006D01*
X152142994Y-95852913D01*
X152143740Y-95851110D01*
X152145351Y-95845239D01*
X152147663Y-95841641D01*
X152147668Y-95841629D01*
X152159299Y-95783152D01*
X152159300Y-95783150D01*
X152159300Y-95177649D01*
X152159299Y-95177647D01*
X152147668Y-95119170D01*
X152147667Y-95119169D01*
X152103351Y-95052846D01*
X152101037Y-95050532D01*
X152097604Y-95044245D01*
X152096567Y-95042693D01*
X152096705Y-95042600D01*
X152067552Y-94989209D01*
X152072536Y-94919517D01*
X152085615Y-94893961D01*
X152128467Y-94829831D01*
X152128467Y-94829830D01*
X152128468Y-94829829D01*
X152140099Y-94771352D01*
X152140100Y-94771350D01*
X152140100Y-93804100D01*
X152159785Y-93737061D01*
X152212589Y-93691306D01*
X152264100Y-93680100D01*
X153356325Y-93680100D01*
X153356327Y-93680100D01*
X153458188Y-93652807D01*
X153549513Y-93600080D01*
X153847680Y-93301913D01*
X153900407Y-93210588D01*
X153927700Y-93108727D01*
X153927700Y-93003273D01*
X153927700Y-91051540D01*
X153927701Y-91051537D01*
X153927701Y-90946083D01*
X153902740Y-90852932D01*
X153901694Y-90843884D01*
X153906137Y-90818066D01*
X153906761Y-90791879D01*
X153911968Y-90784184D01*
X153913545Y-90775027D01*
X153931239Y-90755711D01*
X153945923Y-90734016D01*
X153954464Y-90730358D01*
X153960741Y-90723507D01*
X153986072Y-90716823D01*
X154010152Y-90706512D01*
X154024873Y-90705635D01*
X154223651Y-90705635D01*
X154223651Y-90705634D01*
X154302291Y-90689993D01*
X154341182Y-90673884D01*
X154399476Y-90637255D01*
X154452399Y-90562667D01*
X154468508Y-90523776D01*
X154484150Y-90445135D01*
X154484150Y-90249447D01*
X154503835Y-90182408D01*
X154556639Y-90136653D01*
X154625797Y-90126709D01*
X154668352Y-90143017D01*
X154669046Y-90141721D01*
X154674427Y-90144597D01*
X154820098Y-90204935D01*
X154820103Y-90204937D01*
X154974753Y-90235699D01*
X154974756Y-90235700D01*
X154974758Y-90235700D01*
X155132444Y-90235700D01*
X155132445Y-90235699D01*
X155287097Y-90204937D01*
X155432779Y-90144594D01*
X155461583Y-90125348D01*
X155541409Y-90072010D01*
X155608086Y-90051132D01*
X155675467Y-90069616D01*
G37*
%TD.AperFunction*%
%TA.AperFunction,Conductor*%
G36*
X145212902Y-104644882D02*
G01*
X145222608Y-104648437D01*
X145224610Y-104649266D01*
X145224611Y-104649267D01*
X145224612Y-104649267D01*
X145224614Y-104649268D01*
X145283089Y-104660899D01*
X145283092Y-104660900D01*
X145883342Y-104660900D01*
X145950381Y-104680585D01*
X145996136Y-104733389D01*
X146007342Y-104784900D01*
X146007342Y-105355900D01*
X145987657Y-105422939D01*
X145934853Y-105468694D01*
X145883342Y-105479900D01*
X145283089Y-105479900D01*
X145225491Y-105491357D01*
X145155899Y-105485130D01*
X145100722Y-105442266D01*
X145077478Y-105376377D01*
X145077300Y-105369740D01*
X145077300Y-105334510D01*
X145077300Y-105334508D01*
X145043192Y-105207214D01*
X145043068Y-105207000D01*
X145016309Y-105160652D01*
X144977300Y-105093086D01*
X144884114Y-104999900D01*
X144827050Y-104966954D01*
X144769987Y-104934008D01*
X144706339Y-104916954D01*
X144642692Y-104899900D01*
X144510908Y-104899900D01*
X144383612Y-104934008D01*
X144269486Y-104999900D01*
X144269483Y-104999902D01*
X144176302Y-105093083D01*
X144176300Y-105093086D01*
X144110408Y-105207212D01*
X144076300Y-105334508D01*
X144076300Y-105445713D01*
X144056615Y-105512752D01*
X144003811Y-105558507D01*
X143960266Y-105567979D01*
X143960355Y-105568652D01*
X143952304Y-105569711D01*
X143952300Y-105569713D01*
X143952295Y-105569713D01*
X143824999Y-105603821D01*
X143710873Y-105669713D01*
X143710870Y-105669715D01*
X143617689Y-105762896D01*
X143617687Y-105762899D01*
X143551795Y-105877025D01*
X143517687Y-106004321D01*
X143517687Y-106136105D01*
X143524842Y-106162808D01*
X143551795Y-106263399D01*
X143578065Y-106308899D01*
X143594538Y-106376799D01*
X143571686Y-106442826D01*
X143516765Y-106486017D01*
X143470678Y-106494900D01*
X143275947Y-106494900D01*
X143193159Y-106517082D01*
X143118938Y-106559935D01*
X143118935Y-106559937D01*
X143048492Y-106630381D01*
X142987169Y-106663866D01*
X142960811Y-106666700D01*
X142699243Y-106666700D01*
X142697617Y-106666860D01*
X142696774Y-106666700D01*
X142693160Y-106666700D01*
X142693160Y-106666014D01*
X142628973Y-106653834D01*
X142578267Y-106605764D01*
X142561600Y-106537911D01*
X142563858Y-106519270D01*
X142575300Y-106461748D01*
X142575300Y-105882252D01*
X142575300Y-105882249D01*
X142575299Y-105882247D01*
X142563668Y-105823770D01*
X142563667Y-105823769D01*
X142519352Y-105757447D01*
X142453030Y-105713132D01*
X142434288Y-105709404D01*
X142372377Y-105677019D01*
X142343100Y-105633212D01*
X142183920Y-105228894D01*
X142175300Y-105183469D01*
X142175300Y-104866249D01*
X142175299Y-104866247D01*
X142161862Y-104798691D01*
X142168089Y-104729100D01*
X142210952Y-104673922D01*
X142276842Y-104650678D01*
X142283479Y-104650500D01*
X145115889Y-104650500D01*
X145115892Y-104650500D01*
X145143056Y-104643221D01*
X145212902Y-104644882D01*
G37*
%TD.AperFunction*%
%TA.AperFunction,Conductor*%
G36*
X141730531Y-83816940D02*
G01*
X141734833Y-83815993D01*
X141763762Y-83826698D01*
X141793346Y-83835385D01*
X141796229Y-83838712D01*
X141800360Y-83840241D01*
X141818908Y-83864885D01*
X141839101Y-83888189D01*
X141839727Y-83892547D01*
X141842376Y-83896066D01*
X141844655Y-83926820D01*
X141849045Y-83957347D01*
X141847215Y-83961353D01*
X141847541Y-83965744D01*
X141832832Y-83992847D01*
X141820020Y-84020903D01*
X141816056Y-84023761D01*
X141814215Y-84027154D01*
X141786015Y-84048378D01*
X141774105Y-84054920D01*
X141768612Y-84056393D01*
X141713281Y-84088338D01*
X141712117Y-84088978D01*
X141652409Y-84104300D01*
X141508247Y-84104300D01*
X141449770Y-84115931D01*
X141449770Y-84115932D01*
X141426890Y-84131220D01*
X141360213Y-84152097D01*
X141292833Y-84133612D01*
X141289110Y-84131220D01*
X141268034Y-84117138D01*
X141266231Y-84115933D01*
X141266230Y-84115932D01*
X141266229Y-84115932D01*
X141266229Y-84115931D01*
X141207752Y-84104300D01*
X141207748Y-84104300D01*
X140668252Y-84104300D01*
X140668247Y-84104300D01*
X140609770Y-84115931D01*
X140609769Y-84115932D01*
X140543447Y-84160247D01*
X140504063Y-84219191D01*
X140450451Y-84263996D01*
X140400961Y-84274300D01*
X139644038Y-84274300D01*
X139567610Y-84294778D01*
X139499089Y-84334340D01*
X139499086Y-84334342D01*
X138982048Y-84851381D01*
X138920725Y-84884866D01*
X138894367Y-84887700D01*
X138597447Y-84887700D01*
X138538970Y-84899331D01*
X138538969Y-84899332D01*
X138472647Y-84943647D01*
X138428332Y-85009969D01*
X138428331Y-85009970D01*
X138416700Y-85068447D01*
X138416700Y-85673952D01*
X138428331Y-85732429D01*
X138433006Y-85743713D01*
X138431958Y-85744147D01*
X138449129Y-85798988D01*
X138432777Y-85858592D01*
X138433006Y-85858687D01*
X138432251Y-85860508D01*
X138430644Y-85866368D01*
X138428337Y-85869956D01*
X138428331Y-85869970D01*
X138416700Y-85928447D01*
X138416700Y-86533952D01*
X138428331Y-86592429D01*
X138428332Y-86592430D01*
X138472647Y-86658752D01*
X138546850Y-86708333D01*
X138548814Y-86708872D01*
X138565758Y-86727735D01*
X138585499Y-86743640D01*
X138588710Y-86753286D01*
X138595505Y-86760850D01*
X138599561Y-86785876D01*
X138607570Y-86809932D01*
X138605056Y-86819783D01*
X138606683Y-86829820D01*
X138596565Y-86853065D01*
X138590297Y-86877633D01*
X138582112Y-86886268D01*
X138578798Y-86893884D01*
X138552542Y-86917470D01*
X138517327Y-86941001D01*
X138450650Y-86961880D01*
X138448434Y-86961900D01*
X137818940Y-86961900D01*
X137756940Y-86945287D01*
X137671588Y-86896009D01*
X137671587Y-86896008D01*
X137671586Y-86896008D01*
X137544292Y-86861900D01*
X137412508Y-86861900D01*
X137285212Y-86896008D01*
X137171086Y-86961900D01*
X137171083Y-86961902D01*
X137077902Y-87055083D01*
X137077900Y-87055086D01*
X137012008Y-87169212D01*
X136977900Y-87296508D01*
X136977900Y-87428291D01*
X137012008Y-87555587D01*
X137031847Y-87589948D01*
X137077900Y-87669714D01*
X137171086Y-87762900D01*
X137248938Y-87807848D01*
X137284654Y-87828469D01*
X137285214Y-87828792D01*
X137412508Y-87862900D01*
X137412510Y-87862900D01*
X137435417Y-87862900D01*
X137502456Y-87882585D01*
X137548211Y-87935389D01*
X137558155Y-88004547D01*
X137529130Y-88068103D01*
X137497418Y-88094287D01*
X137411486Y-88143900D01*
X137411483Y-88143902D01*
X137318302Y-88237083D01*
X137318300Y-88237086D01*
X137252408Y-88351212D01*
X137220940Y-88468656D01*
X137218300Y-88478508D01*
X137218300Y-88610292D01*
X137246733Y-88716409D01*
X137245071Y-88786256D01*
X137205909Y-88844119D01*
X137141680Y-88871623D01*
X137126959Y-88872500D01*
X136799047Y-88872500D01*
X136740570Y-88884131D01*
X136740569Y-88884132D01*
X136674247Y-88928447D01*
X136629932Y-88994769D01*
X136629931Y-88994770D01*
X136618300Y-89053247D01*
X136618300Y-90442752D01*
X136629931Y-90501229D01*
X136629932Y-90501230D01*
X136674247Y-90567552D01*
X136740569Y-90611867D01*
X136740570Y-90611868D01*
X136799047Y-90623499D01*
X136799050Y-90623500D01*
X136799052Y-90623500D01*
X138638550Y-90623500D01*
X138638551Y-90623499D01*
X138653368Y-90620552D01*
X138697029Y-90611868D01*
X138697029Y-90611867D01*
X138697031Y-90611867D01*
X138763352Y-90567552D01*
X138807667Y-90501231D01*
X138807667Y-90501229D01*
X138807668Y-90501229D01*
X138818795Y-90445288D01*
X138819300Y-90442748D01*
X138819300Y-89053252D01*
X138819300Y-89053249D01*
X138819299Y-89053247D01*
X138807668Y-88994770D01*
X138807667Y-88994769D01*
X138763352Y-88928447D01*
X138690849Y-88880002D01*
X138669113Y-88853993D01*
X138646946Y-88828411D01*
X138646782Y-88827272D01*
X138646044Y-88826389D01*
X138641823Y-88792784D01*
X138637002Y-88759253D01*
X138637480Y-88758205D01*
X138637337Y-88757064D01*
X138651950Y-88726520D01*
X138666027Y-88695697D01*
X138666995Y-88695074D01*
X138667492Y-88694037D01*
X138696304Y-88676239D01*
X138724805Y-88657923D01*
X138726304Y-88657707D01*
X138726935Y-88657318D01*
X138759740Y-88652900D01*
X138810354Y-88652900D01*
X138842447Y-88657124D01*
X138911773Y-88675701D01*
X138911775Y-88675701D01*
X139024823Y-88675701D01*
X139024839Y-88675700D01*
X139532917Y-88675700D01*
X139599956Y-88695385D01*
X139601773Y-88696575D01*
X139620469Y-88709067D01*
X139620471Y-88709067D01*
X139620472Y-88709068D01*
X139620470Y-88709068D01*
X139678947Y-88720699D01*
X139678950Y-88720700D01*
X139678952Y-88720700D01*
X140071345Y-88720700D01*
X140138384Y-88740385D01*
X140159026Y-88757019D01*
X141110381Y-89708374D01*
X141143866Y-89769697D01*
X141146700Y-89796055D01*
X141146700Y-91426700D01*
X141127015Y-91493739D01*
X141074211Y-91539494D01*
X141033342Y-91548384D01*
X141033512Y-91550103D01*
X141027447Y-91550700D01*
X140968970Y-91562331D01*
X140968969Y-91562332D01*
X140902647Y-91606647D01*
X140851548Y-91683123D01*
X140849938Y-91682047D01*
X140815623Y-91724622D01*
X140749326Y-91746680D01*
X140682914Y-91730146D01*
X140604386Y-91684808D01*
X140477092Y-91650700D01*
X140345308Y-91650700D01*
X140218012Y-91684808D01*
X140103886Y-91750700D01*
X140103883Y-91750702D01*
X140010702Y-91843883D01*
X140010700Y-91843886D01*
X139944808Y-91958012D01*
X139920924Y-92047152D01*
X139910700Y-92085308D01*
X139910700Y-92217092D01*
X139919612Y-92250352D01*
X139944808Y-92344387D01*
X139965400Y-92380052D01*
X140010700Y-92458514D01*
X140103886Y-92551700D01*
X140218014Y-92617592D01*
X140345308Y-92651700D01*
X140345310Y-92651700D01*
X140477090Y-92651700D01*
X140477092Y-92651700D01*
X140604386Y-92617592D01*
X140682915Y-92572252D01*
X140750811Y-92555780D01*
X140816838Y-92578631D01*
X140850013Y-92620302D01*
X140851548Y-92619277D01*
X140902647Y-92695752D01*
X140968969Y-92740067D01*
X140968970Y-92740068D01*
X141027447Y-92751699D01*
X141027450Y-92751700D01*
X141027452Y-92751700D01*
X142066950Y-92751700D01*
X142066951Y-92751699D01*
X142081768Y-92748752D01*
X142125429Y-92740068D01*
X142125429Y-92740067D01*
X142125431Y-92740067D01*
X142191752Y-92695752D01*
X142221998Y-92650485D01*
X142275610Y-92605681D01*
X142344935Y-92596974D01*
X142407962Y-92627128D01*
X142444682Y-92686571D01*
X142449100Y-92719377D01*
X142449100Y-93571673D01*
X142449100Y-93677127D01*
X142453399Y-93693170D01*
X142476393Y-93778989D01*
X142494068Y-93809602D01*
X142529120Y-93870313D01*
X143087918Y-94429110D01*
X143087920Y-94429113D01*
X143161028Y-94502221D01*
X143168091Y-94515157D01*
X143194511Y-94563541D01*
X143189527Y-94633233D01*
X143189525Y-94633234D01*
X143189526Y-94633234D01*
X143147655Y-94689168D01*
X143117758Y-94700318D01*
X143082192Y-94713584D01*
X143073345Y-94713900D01*
X142934447Y-94713900D01*
X142875970Y-94725531D01*
X142875966Y-94725533D01*
X142873806Y-94726977D01*
X142868385Y-94728673D01*
X142864687Y-94730206D01*
X142864549Y-94729874D01*
X142807128Y-94747851D01*
X142739749Y-94729363D01*
X142697534Y-94685871D01*
X142672513Y-94642534D01*
X142640500Y-94587086D01*
X142547314Y-94493900D01*
X142468679Y-94448500D01*
X142433187Y-94428008D01*
X142369539Y-94410954D01*
X142305892Y-94393900D01*
X142174108Y-94393900D01*
X142046812Y-94428008D01*
X141932686Y-94493900D01*
X141932683Y-94493902D01*
X141839502Y-94587083D01*
X141839500Y-94587086D01*
X141773608Y-94701212D01*
X141755218Y-94769848D01*
X141739500Y-94828508D01*
X141739500Y-94960292D01*
X141773608Y-95087586D01*
X141822887Y-95172940D01*
X141827037Y-95188427D01*
X141834477Y-95200004D01*
X141839500Y-95234939D01*
X141839500Y-95351300D01*
X141819815Y-95418339D01*
X141818603Y-95420190D01*
X141811132Y-95431370D01*
X141811131Y-95431373D01*
X141799500Y-95489847D01*
X141799500Y-96029352D01*
X141811131Y-96087829D01*
X141811132Y-96087830D01*
X141855447Y-96154152D01*
X141921769Y-96198467D01*
X141921770Y-96198468D01*
X141980247Y-96210099D01*
X141980250Y-96210100D01*
X141980252Y-96210100D01*
X142559750Y-96210100D01*
X142559751Y-96210099D01*
X142579418Y-96206187D01*
X142618228Y-96198468D01*
X142618228Y-96198467D01*
X142618231Y-96198467D01*
X142644375Y-96180997D01*
X142711052Y-96160120D01*
X142713266Y-96160100D01*
X142996725Y-96160100D01*
X142996727Y-96160100D01*
X143098588Y-96132807D01*
X143189913Y-96080080D01*
X143518774Y-95751219D01*
X143580097Y-95717734D01*
X143606455Y-95714900D01*
X144043950Y-95714900D01*
X144043951Y-95714899D01*
X144058768Y-95711952D01*
X144102429Y-95703268D01*
X144102429Y-95703267D01*
X144102431Y-95703267D01*
X144168752Y-95658952D01*
X144213067Y-95592631D01*
X144213067Y-95592629D01*
X144213068Y-95592629D01*
X144224699Y-95534152D01*
X144224700Y-95534150D01*
X144224700Y-94894649D01*
X144224699Y-94894647D01*
X144213068Y-94836170D01*
X144213067Y-94836169D01*
X144173258Y-94776591D01*
X144152380Y-94709914D01*
X144170864Y-94642534D01*
X144222843Y-94595843D01*
X144276360Y-94583700D01*
X144613545Y-94583700D01*
X144680584Y-94603385D01*
X144701226Y-94620019D01*
X145532381Y-95451173D01*
X145547084Y-95478100D01*
X145563677Y-95503919D01*
X145564568Y-95510119D01*
X145565866Y-95512496D01*
X145568700Y-95538854D01*
X145568700Y-95539900D01*
X145549015Y-95606939D01*
X145496211Y-95652694D01*
X145444700Y-95663900D01*
X145414447Y-95663900D01*
X145355970Y-95675531D01*
X145355969Y-95675532D01*
X145289647Y-95719847D01*
X145245332Y-95786169D01*
X145245331Y-95786170D01*
X145233700Y-95844647D01*
X145233700Y-96484152D01*
X145245331Y-96542629D01*
X145245332Y-96542630D01*
X145289647Y-96608952D01*
X145355969Y-96653267D01*
X145355970Y-96653268D01*
X145414447Y-96664899D01*
X145414450Y-96664900D01*
X145414452Y-96664900D01*
X146523950Y-96664900D01*
X146523951Y-96664899D01*
X146538768Y-96661952D01*
X146582429Y-96653268D01*
X146582429Y-96653267D01*
X146582431Y-96653267D01*
X146648752Y-96608952D01*
X146693067Y-96542631D01*
X146693067Y-96542629D01*
X146693068Y-96542629D01*
X146705483Y-96480215D01*
X146737868Y-96418304D01*
X146798583Y-96383730D01*
X146868353Y-96387469D01*
X146925025Y-96428335D01*
X146950606Y-96493354D01*
X146951100Y-96504406D01*
X146951100Y-96977752D01*
X146962731Y-97036229D01*
X146978020Y-97059110D01*
X146998897Y-97125787D01*
X146980412Y-97193167D01*
X146978020Y-97196890D01*
X146962732Y-97219770D01*
X146962731Y-97219770D01*
X146951100Y-97278247D01*
X146951100Y-97817752D01*
X146962731Y-97876229D01*
X146962732Y-97876230D01*
X147007047Y-97942552D01*
X147073369Y-97986867D01*
X147073370Y-97986868D01*
X147131847Y-97998499D01*
X147131850Y-97998500D01*
X147131852Y-97998500D01*
X147711350Y-97998500D01*
X147711351Y-97998499D01*
X147731018Y-97994587D01*
X147769828Y-97986868D01*
X147769828Y-97986867D01*
X147769831Y-97986867D01*
X147795501Y-97969714D01*
X147862176Y-97948836D01*
X147926393Y-97965429D01*
X147980778Y-97996829D01*
X147990414Y-98002392D01*
X148117708Y-98036500D01*
X148117710Y-98036500D01*
X148249490Y-98036500D01*
X148249492Y-98036500D01*
X148376786Y-98002392D01*
X148490914Y-97936500D01*
X148584100Y-97843314D01*
X148649992Y-97729186D01*
X148684100Y-97601892D01*
X148684100Y-97470108D01*
X148649992Y-97342814D01*
X148584100Y-97228686D01*
X148490914Y-97135500D01*
X148432617Y-97101842D01*
X148376787Y-97069608D01*
X148296994Y-97048228D01*
X148249492Y-97035500D01*
X148117708Y-97035500D01*
X148117706Y-97035500D01*
X148048192Y-97054126D01*
X147978342Y-97052463D01*
X147920480Y-97013300D01*
X147892977Y-96949071D01*
X147892100Y-96934351D01*
X147892100Y-96438249D01*
X147892099Y-96438247D01*
X147880468Y-96379772D01*
X147880467Y-96379771D01*
X147880467Y-96379769D01*
X147877030Y-96374626D01*
X147856152Y-96307953D01*
X147874634Y-96240572D01*
X147911242Y-96202632D01*
X147916152Y-96199352D01*
X147960467Y-96133031D01*
X147960467Y-96133029D01*
X147960468Y-96133029D01*
X147970558Y-96082300D01*
X147972100Y-96074548D01*
X147972100Y-95035052D01*
X147972100Y-95035049D01*
X147972099Y-95035047D01*
X147960468Y-94976570D01*
X147960467Y-94976569D01*
X147916152Y-94910247D01*
X147849830Y-94865932D01*
X147849829Y-94865931D01*
X147791352Y-94854300D01*
X147791348Y-94854300D01*
X147051852Y-94854300D01*
X147051847Y-94854300D01*
X146993370Y-94865931D01*
X146993369Y-94865932D01*
X146927047Y-94910247D01*
X146882732Y-94976569D01*
X146882731Y-94976570D01*
X146871100Y-95035047D01*
X146870503Y-95041112D01*
X146868831Y-95040947D01*
X146869838Y-95047947D01*
X146858859Y-95071987D01*
X146851415Y-95097339D01*
X146844574Y-95103266D01*
X146840813Y-95111503D01*
X146818578Y-95125792D01*
X146798611Y-95143094D01*
X146788096Y-95145381D01*
X146782035Y-95149277D01*
X146747100Y-95154300D01*
X146639139Y-95154300D01*
X146639123Y-95154299D01*
X146631527Y-95154299D01*
X146526073Y-95154299D01*
X146526072Y-95154299D01*
X146452562Y-95173996D01*
X146382712Y-95172333D01*
X146325558Y-95134020D01*
X146318537Y-95125669D01*
X146314784Y-95119169D01*
X146289680Y-95075687D01*
X146215113Y-95001120D01*
X146215110Y-95001118D01*
X145076713Y-93862720D01*
X145031050Y-93836356D01*
X144985389Y-93809993D01*
X144934457Y-93796346D01*
X144883527Y-93782700D01*
X144883526Y-93782700D01*
X144632235Y-93782700D01*
X144626642Y-93781057D01*
X144620922Y-93782183D01*
X144593493Y-93771324D01*
X144565196Y-93763015D01*
X144561379Y-93758610D01*
X144555958Y-93756464D01*
X144538751Y-93732496D01*
X144519441Y-93710211D01*
X144518611Y-93704442D01*
X144515211Y-93699706D01*
X144513694Y-93670244D01*
X144509497Y-93641053D01*
X144511840Y-93634238D01*
X144511619Y-93629929D01*
X144519656Y-93611518D01*
X144524611Y-93597113D01*
X144526751Y-93593372D01*
X144536067Y-93579431D01*
X144536779Y-93575848D01*
X144543495Y-93564113D01*
X144563229Y-93545150D01*
X144580403Y-93523841D01*
X144588057Y-93521293D01*
X144593876Y-93515703D01*
X144620732Y-93510419D01*
X144646698Y-93501779D01*
X144651119Y-93501700D01*
X144820725Y-93501700D01*
X144820727Y-93501700D01*
X144922588Y-93474407D01*
X145013913Y-93421680D01*
X145098719Y-93336873D01*
X145106664Y-93332534D01*
X145112090Y-93325287D01*
X145136848Y-93316052D01*
X145160041Y-93303388D01*
X145169071Y-93304033D01*
X145177554Y-93300870D01*
X145203375Y-93306487D01*
X145229732Y-93308372D01*
X145238785Y-93314190D01*
X145245827Y-93315722D01*
X145274081Y-93336873D01*
X145393579Y-93456371D01*
X145393589Y-93456382D01*
X145397919Y-93460712D01*
X145397920Y-93460713D01*
X145472487Y-93535280D01*
X145472489Y-93535281D01*
X145472493Y-93535284D01*
X145548958Y-93579431D01*
X145548961Y-93579432D01*
X145563811Y-93588006D01*
X145563812Y-93588006D01*
X145563813Y-93588007D01*
X145665673Y-93615301D01*
X145665675Y-93615301D01*
X145778723Y-93615301D01*
X145778739Y-93615300D01*
X146747100Y-93615300D01*
X146814139Y-93634985D01*
X146859894Y-93687789D01*
X146868784Y-93728657D01*
X146870503Y-93728488D01*
X146871100Y-93734552D01*
X146882731Y-93793029D01*
X146882732Y-93793030D01*
X146927047Y-93859352D01*
X146993369Y-93903667D01*
X146993370Y-93903668D01*
X147051847Y-93915299D01*
X147051850Y-93915300D01*
X147051852Y-93915300D01*
X147791350Y-93915300D01*
X147791351Y-93915299D01*
X147806168Y-93912352D01*
X147849829Y-93903668D01*
X147849829Y-93903667D01*
X147849831Y-93903667D01*
X147916152Y-93859352D01*
X147960467Y-93793031D01*
X147960467Y-93793026D01*
X147960549Y-93792833D01*
X147960844Y-93792465D01*
X147967252Y-93782877D01*
X147968110Y-93783450D01*
X148004390Y-93738430D01*
X148070684Y-93716365D01*
X148138383Y-93733644D01*
X148162791Y-93752605D01*
X148231886Y-93821700D01*
X148346014Y-93887592D01*
X148473308Y-93921700D01*
X148473310Y-93921700D01*
X148605090Y-93921700D01*
X148605092Y-93921700D01*
X148732386Y-93887592D01*
X148846514Y-93821700D01*
X148939700Y-93728514D01*
X149005592Y-93614386D01*
X149039700Y-93487092D01*
X149039700Y-93376100D01*
X149059385Y-93309061D01*
X149112189Y-93263306D01*
X149163700Y-93252100D01*
X149382089Y-93252100D01*
X149449128Y-93271785D01*
X149494883Y-93324589D01*
X149504827Y-93393747D01*
X149475802Y-93457303D01*
X149439305Y-93483621D01*
X149439523Y-93483948D01*
X149430391Y-93490049D01*
X149429545Y-93490660D01*
X149429368Y-93490733D01*
X149363047Y-93535047D01*
X149318732Y-93601369D01*
X149318731Y-93601370D01*
X149307100Y-93659847D01*
X149307100Y-94771352D01*
X149318731Y-94829829D01*
X149318732Y-94829830D01*
X149361583Y-94893960D01*
X149382461Y-94960637D01*
X149363977Y-95028017D01*
X149346166Y-95050528D01*
X149343850Y-95052843D01*
X149299532Y-95119169D01*
X149299531Y-95119170D01*
X149287900Y-95177647D01*
X149287900Y-95783152D01*
X149299531Y-95841629D01*
X149304206Y-95852913D01*
X149303158Y-95853347D01*
X149320329Y-95908188D01*
X149303977Y-95967792D01*
X149304206Y-95967887D01*
X149303451Y-95969708D01*
X149301844Y-95975568D01*
X149299537Y-95979156D01*
X149299531Y-95979170D01*
X149287900Y-96037647D01*
X149287900Y-96643152D01*
X149299531Y-96701629D01*
X149299532Y-96701630D01*
X149343847Y-96767952D01*
X149377015Y-96790114D01*
X149410169Y-96812267D01*
X149410171Y-96812267D01*
X149410741Y-96812504D01*
X149411797Y-96813355D01*
X149420323Y-96819052D01*
X149419813Y-96819814D01*
X149429282Y-96827445D01*
X149450273Y-96838693D01*
X149458633Y-96851098D01*
X149465145Y-96856346D01*
X149471647Y-96866779D01*
X149477339Y-96877010D01*
X149478379Y-96880890D01*
X149508638Y-96933300D01*
X149509141Y-96934172D01*
X149509147Y-96934182D01*
X149517939Y-96949410D01*
X149517941Y-96949413D01*
X150161781Y-97593253D01*
X150195266Y-97654576D01*
X150198100Y-97680934D01*
X150198100Y-98333769D01*
X150178415Y-98400808D01*
X150161781Y-98421450D01*
X149198330Y-99384901D01*
X149163262Y-99419968D01*
X149101938Y-99453453D01*
X149032247Y-99448467D01*
X148976314Y-99406595D01*
X148951898Y-99341130D01*
X148955806Y-99300201D01*
X148988900Y-99176692D01*
X148988900Y-99044908D01*
X148954792Y-98917614D01*
X148888900Y-98803486D01*
X148795714Y-98710300D01*
X148714852Y-98663614D01*
X148681587Y-98644408D01*
X148596278Y-98621550D01*
X148554292Y-98610300D01*
X148422508Y-98610300D01*
X148295212Y-98644408D01*
X148181086Y-98710300D01*
X148181083Y-98710302D01*
X148087902Y-98803483D01*
X148087900Y-98803486D01*
X148033466Y-98897769D01*
X148022008Y-98917614D01*
X148011656Y-98956249D01*
X148010432Y-98960818D01*
X148007272Y-98966002D01*
X148006839Y-98972058D01*
X147989300Y-98995486D01*
X147974067Y-99020478D01*
X147968605Y-99023131D01*
X147964967Y-99027991D01*
X147937547Y-99038218D01*
X147911220Y-99051007D01*
X147905191Y-99050286D01*
X147899503Y-99052408D01*
X147870903Y-99046186D01*
X147841844Y-99042712D01*
X147835645Y-99038516D01*
X147831230Y-99037556D01*
X147802976Y-99016405D01*
X147795419Y-99008848D01*
X147761934Y-98947525D01*
X147759100Y-98921167D01*
X147759100Y-98542049D01*
X147759099Y-98542047D01*
X147747468Y-98483570D01*
X147747467Y-98483569D01*
X147703152Y-98417247D01*
X147636830Y-98372932D01*
X147636829Y-98372931D01*
X147578352Y-98361300D01*
X147578348Y-98361300D01*
X146138852Y-98361300D01*
X146138847Y-98361300D01*
X146080370Y-98372931D01*
X146080369Y-98372932D01*
X146014047Y-98417247D01*
X145969732Y-98483569D01*
X145969731Y-98483570D01*
X145958100Y-98542047D01*
X145958100Y-99361345D01*
X145951861Y-99382590D01*
X145950282Y-99404679D01*
X145942209Y-99415462D01*
X145938415Y-99428384D01*
X145921681Y-99442883D01*
X145908410Y-99460612D01*
X145895789Y-99465319D01*
X145885611Y-99474139D01*
X145863693Y-99477290D01*
X145842946Y-99485029D01*
X145829785Y-99482166D01*
X145816453Y-99484083D01*
X145796309Y-99474883D01*
X145774673Y-99470177D01*
X145756947Y-99456908D01*
X145752897Y-99455058D01*
X145746419Y-99449026D01*
X145595419Y-99298026D01*
X145561934Y-99236703D01*
X145559100Y-99210345D01*
X145559100Y-98542049D01*
X145559099Y-98542047D01*
X145547468Y-98483570D01*
X145547467Y-98483569D01*
X145503152Y-98417247D01*
X145436830Y-98372932D01*
X145436829Y-98372931D01*
X145378352Y-98361300D01*
X145378348Y-98361300D01*
X143938852Y-98361300D01*
X143938847Y-98361300D01*
X143880370Y-98372931D01*
X143880369Y-98372932D01*
X143814047Y-98417247D01*
X143769732Y-98483569D01*
X143769731Y-98483570D01*
X143758100Y-98542047D01*
X143758100Y-99337300D01*
X143738415Y-99404339D01*
X143685611Y-99450094D01*
X143634100Y-99461300D01*
X143435439Y-99461300D01*
X143368400Y-99441615D01*
X143322645Y-99388811D01*
X143312701Y-99319653D01*
X143315664Y-99305206D01*
X143315989Y-99303989D01*
X143315992Y-99303986D01*
X143350100Y-99176692D01*
X143350100Y-99044908D01*
X143315992Y-98917614D01*
X143250100Y-98803486D01*
X143156914Y-98710300D01*
X143076052Y-98663614D01*
X143042787Y-98644408D01*
X142957478Y-98621550D01*
X142915492Y-98610300D01*
X142783708Y-98610300D01*
X142656412Y-98644408D01*
X142542286Y-98710300D01*
X142542283Y-98710302D01*
X142449102Y-98803483D01*
X142449100Y-98803486D01*
X142383208Y-98917612D01*
X142355646Y-99020478D01*
X142349100Y-99044908D01*
X142349100Y-99176692D01*
X142383208Y-99303986D01*
X142432487Y-99389340D01*
X142436637Y-99404827D01*
X142444077Y-99416404D01*
X142449100Y-99451339D01*
X142449100Y-99456802D01*
X142429415Y-99523841D01*
X142428202Y-99525693D01*
X142390732Y-99581769D01*
X142390731Y-99581770D01*
X142379100Y-99640247D01*
X142379100Y-100179752D01*
X142390731Y-100238229D01*
X142406020Y-100261110D01*
X142426897Y-100327787D01*
X142408412Y-100395167D01*
X142406020Y-100398890D01*
X142390732Y-100421770D01*
X142390731Y-100421770D01*
X142379100Y-100480247D01*
X142379100Y-101019752D01*
X142390731Y-101078229D01*
X142390732Y-101078230D01*
X142435047Y-101144552D01*
X142501369Y-101188867D01*
X142501370Y-101188868D01*
X142532615Y-101195083D01*
X142594526Y-101227468D01*
X142629100Y-101288183D01*
X142625361Y-101357953D01*
X142584494Y-101414625D01*
X142546967Y-101434558D01*
X142528186Y-101440700D01*
X142509052Y-101440700D01*
X142450569Y-101452333D01*
X142410264Y-101479264D01*
X142394077Y-101484558D01*
X142375491Y-101485124D01*
X142357748Y-101490680D01*
X142355534Y-101490700D01*
X142154900Y-101490700D01*
X142087861Y-101471015D01*
X142042106Y-101418211D01*
X142030900Y-101366700D01*
X142030900Y-101330939D01*
X142047512Y-101268940D01*
X142096792Y-101183586D01*
X142130900Y-101056292D01*
X142130900Y-100924508D01*
X142096792Y-100797214D01*
X142030900Y-100683086D01*
X141937714Y-100589900D01*
X141880650Y-100556954D01*
X141823587Y-100524008D01*
X141759939Y-100506954D01*
X141696292Y-100489900D01*
X141564508Y-100489900D01*
X141437212Y-100524008D01*
X141323086Y-100589900D01*
X141323083Y-100589902D01*
X141229902Y-100683083D01*
X141229900Y-100683086D01*
X141164008Y-100797212D01*
X141131031Y-100920287D01*
X141129900Y-100924508D01*
X141129900Y-101056292D01*
X141164008Y-101183586D01*
X141213287Y-101268940D01*
X141217437Y-101284427D01*
X141224877Y-101296004D01*
X141229900Y-101330939D01*
X141229900Y-101438002D01*
X141210215Y-101505041D01*
X141209002Y-101506893D01*
X141171532Y-101562969D01*
X141171531Y-101562970D01*
X141159900Y-101621447D01*
X141159900Y-102160952D01*
X141171531Y-102219429D01*
X141171532Y-102219430D01*
X141215847Y-102285752D01*
X141282169Y-102330067D01*
X141282170Y-102330068D01*
X141340647Y-102341699D01*
X141340650Y-102341700D01*
X141340652Y-102341700D01*
X141920150Y-102341700D01*
X141920151Y-102341699D01*
X141939818Y-102337787D01*
X141978628Y-102330068D01*
X141978628Y-102330067D01*
X141978631Y-102330067D01*
X142004775Y-102312597D01*
X142071452Y-102291720D01*
X142073666Y-102291700D01*
X142355534Y-102291700D01*
X142422573Y-102311385D01*
X142424395Y-102312577D01*
X142450569Y-102330067D01*
X142450571Y-102330067D01*
X142450572Y-102330068D01*
X142450570Y-102330068D01*
X142509047Y-102341699D01*
X142509050Y-102341700D01*
X142509052Y-102341700D01*
X143088550Y-102341700D01*
X143088551Y-102341699D01*
X143103368Y-102338752D01*
X143147029Y-102330068D01*
X143147029Y-102330067D01*
X143147031Y-102330067D01*
X143213352Y-102285752D01*
X143257667Y-102219431D01*
X143257667Y-102219429D01*
X143257668Y-102219429D01*
X143269299Y-102160952D01*
X143269300Y-102160950D01*
X143269300Y-101621449D01*
X143269299Y-101621447D01*
X143257668Y-101562970D01*
X143257667Y-101562969D01*
X143213352Y-101496647D01*
X143147030Y-101452332D01*
X143147029Y-101452331D01*
X143115785Y-101446117D01*
X143053874Y-101413732D01*
X143019300Y-101353017D01*
X143023039Y-101283247D01*
X143063906Y-101226575D01*
X143106267Y-101205170D01*
X143122799Y-101200500D01*
X143139348Y-101200500D01*
X143197831Y-101188867D01*
X143222622Y-101172301D01*
X143241497Y-101166970D01*
X143257612Y-101167135D01*
X143272994Y-101162320D01*
X143275206Y-101162300D01*
X143634100Y-101162300D01*
X143701139Y-101181985D01*
X143746894Y-101234789D01*
X143758100Y-101286300D01*
X143758100Y-101481552D01*
X143769731Y-101540029D01*
X143769732Y-101540030D01*
X143814047Y-101606352D01*
X143880369Y-101650667D01*
X143880370Y-101650668D01*
X143938847Y-101662299D01*
X143938850Y-101662300D01*
X143938852Y-101662300D01*
X144982767Y-101662300D01*
X145049806Y-101681985D01*
X145070448Y-101698619D01*
X145636340Y-102264511D01*
X145692289Y-102320460D01*
X145692291Y-102320461D01*
X145692295Y-102320464D01*
X145760804Y-102360017D01*
X145760811Y-102360021D01*
X145837238Y-102380500D01*
X146760567Y-102380500D01*
X146790007Y-102389144D01*
X146819994Y-102395668D01*
X146825009Y-102399422D01*
X146827606Y-102400185D01*
X146848248Y-102416819D01*
X147021023Y-102589594D01*
X147054508Y-102650917D01*
X147057342Y-102677275D01*
X147057342Y-103107100D01*
X147037657Y-103174139D01*
X147036445Y-103175990D01*
X147028974Y-103187170D01*
X147028973Y-103187173D01*
X147017342Y-103245647D01*
X147017342Y-103845900D01*
X146997657Y-103912939D01*
X146944853Y-103958694D01*
X146893342Y-103969900D01*
X146188089Y-103969900D01*
X146129612Y-103981531D01*
X146118329Y-103986206D01*
X146116849Y-103982634D01*
X146071052Y-103996957D01*
X146043486Y-103991730D01*
X146043052Y-103993915D01*
X145972594Y-103979900D01*
X145972590Y-103979900D01*
X145643091Y-103979900D01*
X145643052Y-103979894D01*
X145643034Y-103979900D01*
X145608102Y-103974861D01*
X145557776Y-103960059D01*
X145499015Y-103922258D01*
X145485377Y-103903096D01*
X145469725Y-103875986D01*
X145450500Y-103842686D01*
X145357314Y-103749500D01*
X145300250Y-103716554D01*
X145243187Y-103683608D01*
X145166704Y-103663115D01*
X145115892Y-103649500D01*
X138923108Y-103649500D01*
X138814598Y-103678575D01*
X138782505Y-103682800D01*
X135857300Y-103682800D01*
X135790261Y-103663115D01*
X135744506Y-103610311D01*
X135733300Y-103558800D01*
X135733300Y-101632047D01*
X136567500Y-101632047D01*
X136567500Y-103021552D01*
X136579131Y-103080029D01*
X136579132Y-103080030D01*
X136623447Y-103146352D01*
X136689769Y-103190667D01*
X136689770Y-103190668D01*
X136748247Y-103202299D01*
X136748250Y-103202300D01*
X136748252Y-103202300D01*
X138587750Y-103202300D01*
X138587751Y-103202299D01*
X138602568Y-103199352D01*
X138646229Y-103190668D01*
X138646229Y-103190667D01*
X138646231Y-103190667D01*
X138712552Y-103146352D01*
X138756867Y-103080031D01*
X138756866Y-103080031D01*
X138763652Y-103069877D01*
X138765192Y-103070906D01*
X138799677Y-103028111D01*
X138865970Y-103006044D01*
X138932400Y-103022578D01*
X138948010Y-103031590D01*
X138948011Y-103031590D01*
X138948014Y-103031592D01*
X139075308Y-103065700D01*
X139075310Y-103065700D01*
X139207090Y-103065700D01*
X139207092Y-103065700D01*
X139334386Y-103031592D01*
X139448514Y-102965700D01*
X139541700Y-102872514D01*
X139607592Y-102758386D01*
X139641700Y-102631092D01*
X139641700Y-102499308D01*
X139607592Y-102372014D01*
X139604729Y-102367056D01*
X139590090Y-102341700D01*
X139541700Y-102257886D01*
X139448514Y-102164700D01*
X139378600Y-102124335D01*
X139334387Y-102098808D01*
X139270739Y-102081754D01*
X139207092Y-102064700D01*
X139075308Y-102064700D01*
X138948014Y-102098808D01*
X138948013Y-102098808D01*
X138948011Y-102098809D01*
X138940500Y-102101920D01*
X138939204Y-102098791D01*
X138886482Y-102111529D01*
X138820477Y-102088614D01*
X138777339Y-102033652D01*
X138768500Y-101987675D01*
X138768500Y-101702632D01*
X138788185Y-101635593D01*
X138804815Y-101614955D01*
X139441029Y-100978740D01*
X139502350Y-100945257D01*
X139572041Y-100950241D01*
X139597599Y-100963321D01*
X139619369Y-100977867D01*
X139619370Y-100977868D01*
X139677847Y-100989499D01*
X139677850Y-100989500D01*
X139677852Y-100989500D01*
X140257350Y-100989500D01*
X140257351Y-100989499D01*
X140272168Y-100986552D01*
X140315829Y-100977868D01*
X140315829Y-100977867D01*
X140315831Y-100977867D01*
X140382152Y-100933552D01*
X140426467Y-100867231D01*
X140426467Y-100867229D01*
X140426468Y-100867229D01*
X140438099Y-100808752D01*
X140438100Y-100808750D01*
X140438100Y-100203249D01*
X140438099Y-100203247D01*
X140426468Y-100144770D01*
X140426467Y-100144769D01*
X140382152Y-100078447D01*
X140315830Y-100034132D01*
X140315829Y-100034131D01*
X140257352Y-100022500D01*
X140257348Y-100022500D01*
X139677852Y-100022500D01*
X139677847Y-100022500D01*
X139619370Y-100034131D01*
X139619369Y-100034132D01*
X139553047Y-100078447D01*
X139501948Y-100154923D01*
X139499483Y-100153276D01*
X139490973Y-100163834D01*
X139471808Y-100189870D01*
X139468799Y-100191346D01*
X139467415Y-100193064D01*
X139440968Y-100207032D01*
X139434978Y-100209320D01*
X139372811Y-100225979D01*
X139344972Y-100242052D01*
X139336444Y-100246975D01*
X139336440Y-100246977D01*
X139304498Y-100265418D01*
X139236597Y-100281889D01*
X139170571Y-100259036D01*
X139127381Y-100204114D01*
X139118500Y-100158030D01*
X139118500Y-100047745D01*
X139118500Y-100047743D01*
X139077577Y-99895016D01*
X139034827Y-99820970D01*
X138998524Y-99758090D01*
X138998518Y-99758082D01*
X138886717Y-99646281D01*
X138886709Y-99646275D01*
X138749790Y-99567226D01*
X138749786Y-99567224D01*
X138749784Y-99567223D01*
X138597057Y-99526300D01*
X138438943Y-99526300D01*
X138286216Y-99567223D01*
X138286209Y-99567226D01*
X138149290Y-99646275D01*
X138149282Y-99646281D01*
X138037481Y-99758082D01*
X138037475Y-99758090D01*
X137958426Y-99895009D01*
X137958423Y-99895016D01*
X137917500Y-100047743D01*
X137917500Y-100205857D01*
X137933460Y-100265418D01*
X137958423Y-100358583D01*
X137958426Y-100358590D01*
X138037475Y-100495509D01*
X138037479Y-100495514D01*
X138037480Y-100495516D01*
X138149284Y-100607320D01*
X138149286Y-100607321D01*
X138149290Y-100607324D01*
X138280516Y-100683086D01*
X138286216Y-100686377D01*
X138438943Y-100727300D01*
X138438945Y-100727300D01*
X138543167Y-100727300D01*
X138610206Y-100746985D01*
X138655961Y-100799789D01*
X138665905Y-100868947D01*
X138636880Y-100932503D01*
X138630848Y-100938981D01*
X138154848Y-101414981D01*
X138093525Y-101448466D01*
X138067167Y-101451300D01*
X136748247Y-101451300D01*
X136689770Y-101462931D01*
X136689769Y-101462932D01*
X136623447Y-101507247D01*
X136579132Y-101573569D01*
X136579131Y-101573570D01*
X136567500Y-101632047D01*
X135733300Y-101632047D01*
X135733300Y-100047743D01*
X136217500Y-100047743D01*
X136217500Y-100205857D01*
X136233460Y-100265418D01*
X136258423Y-100358583D01*
X136258426Y-100358590D01*
X136337475Y-100495509D01*
X136337479Y-100495514D01*
X136337480Y-100495516D01*
X136449284Y-100607320D01*
X136449286Y-100607321D01*
X136449290Y-100607324D01*
X136580516Y-100683086D01*
X136586216Y-100686377D01*
X136738943Y-100727300D01*
X136738945Y-100727300D01*
X136897055Y-100727300D01*
X136897057Y-100727300D01*
X137049784Y-100686377D01*
X137186716Y-100607320D01*
X137298520Y-100495516D01*
X137377577Y-100358584D01*
X137418500Y-100205857D01*
X137418500Y-100047743D01*
X137377577Y-99895016D01*
X137334827Y-99820970D01*
X137298524Y-99758090D01*
X137298518Y-99758082D01*
X137186717Y-99646281D01*
X137186709Y-99646275D01*
X137049790Y-99567226D01*
X137049786Y-99567224D01*
X137049784Y-99567223D01*
X136897057Y-99526300D01*
X136738943Y-99526300D01*
X136586216Y-99567223D01*
X136586209Y-99567226D01*
X136449290Y-99646275D01*
X136449282Y-99646281D01*
X136337481Y-99758082D01*
X136337475Y-99758090D01*
X136258426Y-99895009D01*
X136258423Y-99895016D01*
X136217500Y-100047743D01*
X135733300Y-100047743D01*
X135733300Y-97232047D01*
X136567500Y-97232047D01*
X136567500Y-98621552D01*
X136579131Y-98680029D01*
X136579132Y-98680030D01*
X136623447Y-98746352D01*
X136689769Y-98790667D01*
X136689770Y-98790668D01*
X136748247Y-98802299D01*
X136748250Y-98802300D01*
X136748252Y-98802300D01*
X138587750Y-98802300D01*
X138587751Y-98802299D01*
X138602568Y-98799352D01*
X138646229Y-98790668D01*
X138646229Y-98790667D01*
X138646231Y-98790667D01*
X138712552Y-98746352D01*
X138756867Y-98680031D01*
X138756867Y-98680029D01*
X138756868Y-98680029D01*
X138768499Y-98621552D01*
X138768500Y-98621550D01*
X138768500Y-98451300D01*
X138788185Y-98384261D01*
X138840989Y-98338506D01*
X138892500Y-98327300D01*
X139121525Y-98327300D01*
X139121527Y-98327300D01*
X139223388Y-98300007D01*
X139314713Y-98247280D01*
X139400398Y-98161593D01*
X139455982Y-98129500D01*
X139551186Y-98103992D01*
X139665314Y-98038100D01*
X139758500Y-97944914D01*
X139824392Y-97830786D01*
X139858500Y-97703492D01*
X139858500Y-97571708D01*
X139824392Y-97444414D01*
X139758500Y-97330286D01*
X139665314Y-97237100D01*
X139608250Y-97204154D01*
X139551187Y-97171208D01*
X139484904Y-97153448D01*
X139423892Y-97137100D01*
X139292108Y-97137100D01*
X139164812Y-97171208D01*
X139050686Y-97237100D01*
X138979639Y-97308147D01*
X138918315Y-97341631D01*
X138848624Y-97336646D01*
X138792690Y-97294775D01*
X138770589Y-97237846D01*
X138769689Y-97238026D01*
X138768669Y-97232901D01*
X138768553Y-97232601D01*
X138768500Y-97232065D01*
X138768500Y-97232052D01*
X138768497Y-97232035D01*
X138756868Y-97173570D01*
X138756867Y-97173569D01*
X138712551Y-97107246D01*
X138704464Y-97101842D01*
X138659661Y-97048228D01*
X138650956Y-96978903D01*
X138681114Y-96915877D01*
X138711356Y-96891358D01*
X138725314Y-96883300D01*
X138818500Y-96790114D01*
X138884392Y-96675986D01*
X138918500Y-96548692D01*
X138918500Y-96416908D01*
X138884392Y-96289614D01*
X138818500Y-96175486D01*
X138725314Y-96082300D01*
X138647982Y-96037652D01*
X138611187Y-96016408D01*
X138532379Y-95995292D01*
X138483892Y-95982300D01*
X138352108Y-95982300D01*
X138308779Y-95993910D01*
X138294593Y-95997711D01*
X138224743Y-95996048D01*
X138166881Y-95956885D01*
X138139377Y-95892656D01*
X138138500Y-95877936D01*
X138138500Y-95373049D01*
X138138499Y-95373047D01*
X138126868Y-95314570D01*
X138126867Y-95314569D01*
X138082551Y-95248246D01*
X138073917Y-95239612D01*
X138075537Y-95237991D01*
X138041270Y-95196986D01*
X138032564Y-95127661D01*
X138062721Y-95064635D01*
X138122165Y-95027917D01*
X138154967Y-95023500D01*
X138638550Y-95023500D01*
X138638551Y-95023499D01*
X138653368Y-95020552D01*
X138697029Y-95011868D01*
X138697029Y-95011867D01*
X138697031Y-95011867D01*
X138763352Y-94967552D01*
X138807667Y-94901231D01*
X138807667Y-94901229D01*
X138807668Y-94901229D01*
X138819299Y-94842752D01*
X138819300Y-94842750D01*
X138819300Y-94572500D01*
X138838985Y-94505461D01*
X138891789Y-94459706D01*
X138943300Y-94448500D01*
X139593433Y-94448500D01*
X139660472Y-94468185D01*
X139664428Y-94470836D01*
X139676412Y-94479205D01*
X139678248Y-94481952D01*
X139726853Y-94514429D01*
X139727895Y-94515157D01*
X139748962Y-94541445D01*
X139770595Y-94567330D01*
X139770906Y-94568827D01*
X139771589Y-94569679D01*
X139772100Y-94574559D01*
X139780900Y-94616821D01*
X139780900Y-95527524D01*
X139761215Y-95594563D01*
X139744581Y-95615205D01*
X139705902Y-95653883D01*
X139705900Y-95653886D01*
X139640008Y-95768012D01*
X139617235Y-95853006D01*
X139605900Y-95895308D01*
X139605900Y-96027092D01*
X139606506Y-96029352D01*
X139640008Y-96154387D01*
X139652188Y-96175483D01*
X139705900Y-96268514D01*
X139799086Y-96361700D01*
X139913214Y-96427592D01*
X140040508Y-96461700D01*
X140040510Y-96461700D01*
X140172290Y-96461700D01*
X140172292Y-96461700D01*
X140299586Y-96427592D01*
X140413714Y-96361700D01*
X140506900Y-96268514D01*
X140572792Y-96154386D01*
X140606900Y-96027092D01*
X140606900Y-95895308D01*
X140572792Y-95768014D01*
X140506900Y-95653886D01*
X140468219Y-95615205D01*
X140434734Y-95553882D01*
X140431900Y-95527524D01*
X140431900Y-94598647D01*
X140451585Y-94531608D01*
X140487010Y-94495545D01*
X140507351Y-94481953D01*
X140507352Y-94481952D01*
X140551667Y-94415631D01*
X140551667Y-94415629D01*
X140551668Y-94415629D01*
X140563299Y-94357152D01*
X140563300Y-94357150D01*
X140563300Y-93751649D01*
X140563299Y-93751647D01*
X140551668Y-93693170D01*
X140551667Y-93693169D01*
X140507352Y-93626847D01*
X140441030Y-93582532D01*
X140441029Y-93582531D01*
X140382552Y-93570900D01*
X140382548Y-93570900D01*
X139803052Y-93570900D01*
X139803047Y-93570900D01*
X139744570Y-93582531D01*
X139744569Y-93582532D01*
X139678247Y-93626847D01*
X139633932Y-93693169D01*
X139633931Y-93693170D01*
X139623087Y-93747691D01*
X139590702Y-93809602D01*
X139529986Y-93844176D01*
X139501470Y-93847500D01*
X138943300Y-93847500D01*
X138876261Y-93827815D01*
X138830506Y-93775011D01*
X138819300Y-93723500D01*
X138819300Y-93453249D01*
X138819299Y-93453247D01*
X138807668Y-93394770D01*
X138807667Y-93394769D01*
X138763352Y-93328447D01*
X138697030Y-93284132D01*
X138697029Y-93284131D01*
X138638552Y-93272500D01*
X138638548Y-93272500D01*
X136799052Y-93272500D01*
X136799047Y-93272500D01*
X136740570Y-93284131D01*
X136740569Y-93284132D01*
X136674247Y-93328447D01*
X136629932Y-93394769D01*
X136629931Y-93394770D01*
X136618300Y-93453247D01*
X136618300Y-94842752D01*
X136629931Y-94901229D01*
X136629932Y-94901230D01*
X136674247Y-94967552D01*
X136740569Y-95011867D01*
X136740570Y-95011868D01*
X136799047Y-95023499D01*
X136799050Y-95023500D01*
X136799052Y-95023500D01*
X137181033Y-95023500D01*
X137248072Y-95043185D01*
X137293827Y-95095989D01*
X137303771Y-95165147D01*
X137274746Y-95228703D01*
X137259847Y-95241847D01*
X137253448Y-95248246D01*
X137209132Y-95314569D01*
X137209131Y-95314570D01*
X137197500Y-95373047D01*
X137197500Y-95912552D01*
X137209131Y-95971029D01*
X137224420Y-95993910D01*
X137245297Y-96060587D01*
X137226812Y-96127967D01*
X137224420Y-96131690D01*
X137209132Y-96154570D01*
X137209131Y-96154570D01*
X137197500Y-96213047D01*
X137197500Y-96752552D01*
X137209131Y-96811029D01*
X137209132Y-96811031D01*
X137240790Y-96858408D01*
X137261669Y-96925085D01*
X137243185Y-96992465D01*
X137191207Y-97039156D01*
X137137689Y-97051300D01*
X136748247Y-97051300D01*
X136689770Y-97062931D01*
X136689769Y-97062932D01*
X136623447Y-97107247D01*
X136579132Y-97173569D01*
X136579131Y-97173570D01*
X136567500Y-97232047D01*
X135733300Y-97232047D01*
X135733300Y-91868943D01*
X136268300Y-91868943D01*
X136268300Y-92027057D01*
X136308438Y-92176852D01*
X136309223Y-92179783D01*
X136309226Y-92179790D01*
X136388275Y-92316709D01*
X136388279Y-92316714D01*
X136388280Y-92316716D01*
X136500084Y-92428520D01*
X136500086Y-92428521D01*
X136500090Y-92428524D01*
X136637009Y-92507573D01*
X136637016Y-92507577D01*
X136789743Y-92548500D01*
X136789745Y-92548500D01*
X136947855Y-92548500D01*
X136947857Y-92548500D01*
X137100584Y-92507577D01*
X137237516Y-92428520D01*
X137349320Y-92316716D01*
X137428377Y-92179784D01*
X137469300Y-92027057D01*
X137469300Y-91868943D01*
X137968300Y-91868943D01*
X137968300Y-92027057D01*
X138008438Y-92176852D01*
X138009223Y-92179783D01*
X138009226Y-92179790D01*
X138088275Y-92316709D01*
X138088279Y-92316714D01*
X138088280Y-92316716D01*
X138200084Y-92428520D01*
X138200086Y-92428521D01*
X138200090Y-92428524D01*
X138337009Y-92507573D01*
X138337016Y-92507577D01*
X138489743Y-92548500D01*
X138489745Y-92548500D01*
X138647855Y-92548500D01*
X138647857Y-92548500D01*
X138800584Y-92507577D01*
X138937516Y-92428520D01*
X139049320Y-92316716D01*
X139128377Y-92179784D01*
X139169300Y-92027057D01*
X139169300Y-91868943D01*
X139128377Y-91716216D01*
X139121857Y-91704923D01*
X139049324Y-91579290D01*
X139049318Y-91579282D01*
X138937517Y-91467481D01*
X138937509Y-91467475D01*
X138800590Y-91388426D01*
X138800586Y-91388424D01*
X138800584Y-91388423D01*
X138647857Y-91347500D01*
X138489743Y-91347500D01*
X138337016Y-91388423D01*
X138337009Y-91388426D01*
X138200090Y-91467475D01*
X138200082Y-91467481D01*
X138088281Y-91579282D01*
X138088275Y-91579290D01*
X138009226Y-91716209D01*
X138009223Y-91716216D01*
X137968300Y-91868943D01*
X137469300Y-91868943D01*
X137428377Y-91716216D01*
X137421857Y-91704923D01*
X137349324Y-91579290D01*
X137349318Y-91579282D01*
X137237517Y-91467481D01*
X137237509Y-91467475D01*
X137100590Y-91388426D01*
X137100586Y-91388424D01*
X137100584Y-91388423D01*
X136947857Y-91347500D01*
X136789743Y-91347500D01*
X136637016Y-91388423D01*
X136637009Y-91388426D01*
X136500090Y-91467475D01*
X136500082Y-91467481D01*
X136388281Y-91579282D01*
X136388275Y-91579290D01*
X136309226Y-91716209D01*
X136309223Y-91716216D01*
X136268300Y-91868943D01*
X135733300Y-91868943D01*
X135733300Y-84521292D01*
X135733897Y-84509138D01*
X135745544Y-84390880D01*
X135750283Y-84367056D01*
X135783003Y-84259190D01*
X135792299Y-84236749D01*
X135845432Y-84137343D01*
X135858934Y-84117138D01*
X135865513Y-84109122D01*
X135930434Y-84030015D01*
X135947615Y-84012834D01*
X136034739Y-83941332D01*
X136054943Y-83927832D01*
X136154349Y-83874699D01*
X136176790Y-83865403D01*
X136284656Y-83832683D01*
X136308482Y-83827944D01*
X136408530Y-83818090D01*
X136426740Y-83816297D01*
X136438893Y-83815700D01*
X136480394Y-83815700D01*
X141726307Y-83815700D01*
X141730531Y-83816940D01*
G37*
%TD.AperFunction*%
%TD*%
M02*
