%TF.GenerationSoftware,KiCad,Pcbnew,10.0.4*%
%TF.CreationDate,2026-09-26T12:09:51+05:30*%
%TF.ProjectId,ESP32_C3_FOB,45535033-325f-4433-935f-464f422e6b69,rev?*%
%TF.SameCoordinates,Original*%
%TF.FileFunction,Legend,Top*%
%TF.FilePolarity,Positive*%
%FSLAX46Y46*%
G04 Gerber Fmt 4.6, Leading zero omitted, Abs format (unit mm)*
G04 Created by KiCad (PCBNEW 10.0.4) date 2026-09-26 12:09:51*
%MOMM*%
%LPD*%
G01*
G04 APERTURE LIST*
G04 Aperture macros list*
%AMFreePoly0*
4,1,17,0.335278,0.685443,0.349923,0.650088,0.349923,-0.649935,0.335278,-0.685290,0.299923,-0.699935,0.000318,-0.699935,-0.000051,-0.700088,-0.300050,-0.700088,-0.335405,-0.685443,-0.350050,-0.650088,-0.350050,0.649935,-0.335405,0.685290,-0.300050,0.699935,-0.000445,0.699935,-0.000076,0.700088,0.299923,0.700088,0.335278,0.685443,0.335278,0.685443,$1*%
%AMFreePoly1*
4,1,17,0.335431,0.685290,0.350076,0.649935,0.350076,-0.650037,0.335431,-0.685392,0.300076,-0.700037,0.000187,-0.700037,0.000127,-0.700062,-0.299898,-0.700062,-0.335253,-0.685417,-0.349898,-0.650062,-0.349898,0.649910,-0.335253,0.685265,-0.299898,0.699910,-0.000009,0.699910,0.000051,0.699935,0.300076,0.699935,0.335431,0.685290,0.335431,0.685290,$1*%
%AMFreePoly2*
4,1,13,0.335227,0.685443,0.349872,0.650088,0.349872,-0.649884,0.335227,-0.685239,0.299872,-0.699884,-0.300152,-0.699884,-0.335507,-0.685239,-0.350152,-0.649884,-0.350152,0.650088,-0.335507,0.685443,-0.300152,0.700088,0.299872,0.700088,0.335227,0.685443,0.335227,0.685443,$1*%
G04 Aperture macros list end*
%ADD10C,0.150000*%
%ADD11C,0.060000*%
%ADD12C,0.300000*%
%ADD13C,0.250000*%
%ADD14C,0.000000*%
%ADD15C,0.200000*%
%ADD16R,0.540000X0.500000*%
%ADD17R,0.540000X0.566000*%
%ADD18R,0.566000X0.540000*%
%ADD19R,0.500000X0.540000*%
%ADD20R,0.532000X1.072000*%
%ADD21C,0.800000*%
%ADD22R,1.800000X1.350000*%
%ADD23R,1.157000X0.490000*%
%ADD24R,1.175000X0.490000*%
%ADD25R,0.700000X1.000000*%
%ADD26R,0.650000X0.280000*%
%ADD27R,0.280000X0.650000*%
%ADD28R,3.800000X3.800000*%
%ADD29R,0.540000X0.540000*%
%ADD30R,1.400000X1.200000*%
%ADD31R,1.070000X0.600000*%
%ADD32R,0.250000X0.600000*%
%ADD33R,0.600000X0.250000*%
%ADD34R,1.750000X1.000000*%
%ADD35R,1.000000X0.800000*%
%ADD36C,0.600000*%
%ADD37O,1.200000X2.000000*%
%ADD38O,1.200000X1.800000*%
%ADD39FreePoly0,180.000000*%
%ADD40FreePoly1,180.000000*%
%ADD41R,0.300000X1.300000*%
%ADD42FreePoly2,180.000000*%
G04 APERTURE END LIST*
D10*
X155243228Y-105461514D02*
X155271800Y-105490086D01*
X155271800Y-105490086D02*
X155300371Y-105575800D01*
X155300371Y-105575800D02*
X155300371Y-105632943D01*
X155300371Y-105632943D02*
X155271800Y-105718657D01*
X155271800Y-105718657D02*
X155214657Y-105775800D01*
X155214657Y-105775800D02*
X155157514Y-105804371D01*
X155157514Y-105804371D02*
X155043228Y-105832943D01*
X155043228Y-105832943D02*
X154957514Y-105832943D01*
X154957514Y-105832943D02*
X154843228Y-105804371D01*
X154843228Y-105804371D02*
X154786085Y-105775800D01*
X154786085Y-105775800D02*
X154728942Y-105718657D01*
X154728942Y-105718657D02*
X154700371Y-105632943D01*
X154700371Y-105632943D02*
X154700371Y-105575800D01*
X154700371Y-105575800D02*
X154728942Y-105490086D01*
X154728942Y-105490086D02*
X154757514Y-105461514D01*
X155300371Y-104890086D02*
X155300371Y-105232943D01*
X155300371Y-105061514D02*
X154700371Y-105061514D01*
X154700371Y-105061514D02*
X154786085Y-105118657D01*
X154786085Y-105118657D02*
X154843228Y-105175800D01*
X154843228Y-105175800D02*
X154871800Y-105232943D01*
X154957514Y-104547228D02*
X154928942Y-104604371D01*
X154928942Y-104604371D02*
X154900371Y-104632942D01*
X154900371Y-104632942D02*
X154843228Y-104661514D01*
X154843228Y-104661514D02*
X154814657Y-104661514D01*
X154814657Y-104661514D02*
X154757514Y-104632942D01*
X154757514Y-104632942D02*
X154728942Y-104604371D01*
X154728942Y-104604371D02*
X154700371Y-104547228D01*
X154700371Y-104547228D02*
X154700371Y-104432942D01*
X154700371Y-104432942D02*
X154728942Y-104375800D01*
X154728942Y-104375800D02*
X154757514Y-104347228D01*
X154757514Y-104347228D02*
X154814657Y-104318657D01*
X154814657Y-104318657D02*
X154843228Y-104318657D01*
X154843228Y-104318657D02*
X154900371Y-104347228D01*
X154900371Y-104347228D02*
X154928942Y-104375800D01*
X154928942Y-104375800D02*
X154957514Y-104432942D01*
X154957514Y-104432942D02*
X154957514Y-104547228D01*
X154957514Y-104547228D02*
X154986085Y-104604371D01*
X154986085Y-104604371D02*
X155014657Y-104632942D01*
X155014657Y-104632942D02*
X155071800Y-104661514D01*
X155071800Y-104661514D02*
X155186085Y-104661514D01*
X155186085Y-104661514D02*
X155243228Y-104632942D01*
X155243228Y-104632942D02*
X155271800Y-104604371D01*
X155271800Y-104604371D02*
X155300371Y-104547228D01*
X155300371Y-104547228D02*
X155300371Y-104432942D01*
X155300371Y-104432942D02*
X155271800Y-104375800D01*
X155271800Y-104375800D02*
X155243228Y-104347228D01*
X155243228Y-104347228D02*
X155186085Y-104318657D01*
X155186085Y-104318657D02*
X155071800Y-104318657D01*
X155071800Y-104318657D02*
X155014657Y-104347228D01*
X155014657Y-104347228D02*
X154986085Y-104375800D01*
X154986085Y-104375800D02*
X154957514Y-104432942D01*
X149641219Y-92895657D02*
X149165028Y-93228990D01*
X149641219Y-93467085D02*
X148641219Y-93467085D01*
X148641219Y-93467085D02*
X148641219Y-93086133D01*
X148641219Y-93086133D02*
X148688838Y-92990895D01*
X148688838Y-92990895D02*
X148736457Y-92943276D01*
X148736457Y-92943276D02*
X148831695Y-92895657D01*
X148831695Y-92895657D02*
X148974552Y-92895657D01*
X148974552Y-92895657D02*
X149069790Y-92943276D01*
X149069790Y-92943276D02*
X149117409Y-92990895D01*
X149117409Y-92990895D02*
X149165028Y-93086133D01*
X149165028Y-93086133D02*
X149165028Y-93467085D01*
X149641219Y-91943276D02*
X149641219Y-92514704D01*
X149641219Y-92228990D02*
X148641219Y-92228990D01*
X148641219Y-92228990D02*
X148784076Y-92324228D01*
X148784076Y-92324228D02*
X148879314Y-92419466D01*
X148879314Y-92419466D02*
X148926933Y-92514704D01*
X148641219Y-91609942D02*
X148641219Y-90990895D01*
X148641219Y-90990895D02*
X149022171Y-91324228D01*
X149022171Y-91324228D02*
X149022171Y-91181371D01*
X149022171Y-91181371D02*
X149069790Y-91086133D01*
X149069790Y-91086133D02*
X149117409Y-91038514D01*
X149117409Y-91038514D02*
X149212647Y-90990895D01*
X149212647Y-90990895D02*
X149450742Y-90990895D01*
X149450742Y-90990895D02*
X149545980Y-91038514D01*
X149545980Y-91038514D02*
X149593600Y-91086133D01*
X149593600Y-91086133D02*
X149641219Y-91181371D01*
X149641219Y-91181371D02*
X149641219Y-91467085D01*
X149641219Y-91467085D02*
X149593600Y-91562323D01*
X149593600Y-91562323D02*
X149545980Y-91609942D01*
X149217142Y-106284419D02*
X148883809Y-105808228D01*
X148645714Y-106284419D02*
X148645714Y-105284419D01*
X148645714Y-105284419D02*
X149026666Y-105284419D01*
X149026666Y-105284419D02*
X149121904Y-105332038D01*
X149121904Y-105332038D02*
X149169523Y-105379657D01*
X149169523Y-105379657D02*
X149217142Y-105474895D01*
X149217142Y-105474895D02*
X149217142Y-105617752D01*
X149217142Y-105617752D02*
X149169523Y-105712990D01*
X149169523Y-105712990D02*
X149121904Y-105760609D01*
X149121904Y-105760609D02*
X149026666Y-105808228D01*
X149026666Y-105808228D02*
X148645714Y-105808228D01*
X150169523Y-106284419D02*
X149598095Y-106284419D01*
X149883809Y-106284419D02*
X149883809Y-105284419D01*
X149883809Y-105284419D02*
X149788571Y-105427276D01*
X149788571Y-105427276D02*
X149693333Y-105522514D01*
X149693333Y-105522514D02*
X149598095Y-105570133D01*
X151026666Y-105617752D02*
X151026666Y-106284419D01*
X150788571Y-105236800D02*
X150550476Y-105951085D01*
X150550476Y-105951085D02*
X151169523Y-105951085D01*
X151803083Y-97592599D02*
X151517369Y-97792599D01*
X151803083Y-97935456D02*
X151203083Y-97935456D01*
X151203083Y-97935456D02*
X151203083Y-97706885D01*
X151203083Y-97706885D02*
X151231654Y-97649742D01*
X151231654Y-97649742D02*
X151260226Y-97621171D01*
X151260226Y-97621171D02*
X151317369Y-97592599D01*
X151317369Y-97592599D02*
X151403083Y-97592599D01*
X151403083Y-97592599D02*
X151460226Y-97621171D01*
X151460226Y-97621171D02*
X151488797Y-97649742D01*
X151488797Y-97649742D02*
X151517369Y-97706885D01*
X151517369Y-97706885D02*
X151517369Y-97935456D01*
X151203083Y-97392599D02*
X151203083Y-97021171D01*
X151203083Y-97021171D02*
X151431654Y-97221171D01*
X151431654Y-97221171D02*
X151431654Y-97135456D01*
X151431654Y-97135456D02*
X151460226Y-97078314D01*
X151460226Y-97078314D02*
X151488797Y-97049742D01*
X151488797Y-97049742D02*
X151545940Y-97021171D01*
X151545940Y-97021171D02*
X151688797Y-97021171D01*
X151688797Y-97021171D02*
X151745940Y-97049742D01*
X151745940Y-97049742D02*
X151774512Y-97078314D01*
X151774512Y-97078314D02*
X151803083Y-97135456D01*
X151803083Y-97135456D02*
X151803083Y-97306885D01*
X151803083Y-97306885D02*
X151774512Y-97364028D01*
X151774512Y-97364028D02*
X151745940Y-97392599D01*
X146749200Y-90433428D02*
X146720628Y-90462000D01*
X146720628Y-90462000D02*
X146634914Y-90490571D01*
X146634914Y-90490571D02*
X146577771Y-90490571D01*
X146577771Y-90490571D02*
X146492057Y-90462000D01*
X146492057Y-90462000D02*
X146434914Y-90404857D01*
X146434914Y-90404857D02*
X146406343Y-90347714D01*
X146406343Y-90347714D02*
X146377771Y-90233428D01*
X146377771Y-90233428D02*
X146377771Y-90147714D01*
X146377771Y-90147714D02*
X146406343Y-90033428D01*
X146406343Y-90033428D02*
X146434914Y-89976285D01*
X146434914Y-89976285D02*
X146492057Y-89919142D01*
X146492057Y-89919142D02*
X146577771Y-89890571D01*
X146577771Y-89890571D02*
X146634914Y-89890571D01*
X146634914Y-89890571D02*
X146720628Y-89919142D01*
X146720628Y-89919142D02*
X146749200Y-89947714D01*
X147320628Y-90490571D02*
X146977771Y-90490571D01*
X147149200Y-90490571D02*
X147149200Y-89890571D01*
X147149200Y-89890571D02*
X147092057Y-89976285D01*
X147092057Y-89976285D02*
X147034914Y-90033428D01*
X147034914Y-90033428D02*
X146977771Y-90062000D01*
X139370228Y-107421314D02*
X139398800Y-107449886D01*
X139398800Y-107449886D02*
X139427371Y-107535600D01*
X139427371Y-107535600D02*
X139427371Y-107592743D01*
X139427371Y-107592743D02*
X139398800Y-107678457D01*
X139398800Y-107678457D02*
X139341657Y-107735600D01*
X139341657Y-107735600D02*
X139284514Y-107764171D01*
X139284514Y-107764171D02*
X139170228Y-107792743D01*
X139170228Y-107792743D02*
X139084514Y-107792743D01*
X139084514Y-107792743D02*
X138970228Y-107764171D01*
X138970228Y-107764171D02*
X138913085Y-107735600D01*
X138913085Y-107735600D02*
X138855942Y-107678457D01*
X138855942Y-107678457D02*
X138827371Y-107592743D01*
X138827371Y-107592743D02*
X138827371Y-107535600D01*
X138827371Y-107535600D02*
X138855942Y-107449886D01*
X138855942Y-107449886D02*
X138884514Y-107421314D01*
X139427371Y-106849886D02*
X139427371Y-107192743D01*
X139427371Y-107021314D02*
X138827371Y-107021314D01*
X138827371Y-107021314D02*
X138913085Y-107078457D01*
X138913085Y-107078457D02*
X138970228Y-107135600D01*
X138970228Y-107135600D02*
X138998800Y-107192743D01*
X138827371Y-106307028D02*
X138827371Y-106592742D01*
X138827371Y-106592742D02*
X139113085Y-106621314D01*
X139113085Y-106621314D02*
X139084514Y-106592742D01*
X139084514Y-106592742D02*
X139055942Y-106535600D01*
X139055942Y-106535600D02*
X139055942Y-106392742D01*
X139055942Y-106392742D02*
X139084514Y-106335600D01*
X139084514Y-106335600D02*
X139113085Y-106307028D01*
X139113085Y-106307028D02*
X139170228Y-106278457D01*
X139170228Y-106278457D02*
X139313085Y-106278457D01*
X139313085Y-106278457D02*
X139370228Y-106307028D01*
X139370228Y-106307028D02*
X139398800Y-106335600D01*
X139398800Y-106335600D02*
X139427371Y-106392742D01*
X139427371Y-106392742D02*
X139427371Y-106535600D01*
X139427371Y-106535600D02*
X139398800Y-106592742D01*
X139398800Y-106592742D02*
X139370228Y-106621314D01*
X147134228Y-97447999D02*
X147162800Y-97476571D01*
X147162800Y-97476571D02*
X147191371Y-97562285D01*
X147191371Y-97562285D02*
X147191371Y-97619428D01*
X147191371Y-97619428D02*
X147162800Y-97705142D01*
X147162800Y-97705142D02*
X147105657Y-97762285D01*
X147105657Y-97762285D02*
X147048514Y-97790856D01*
X147048514Y-97790856D02*
X146934228Y-97819428D01*
X146934228Y-97819428D02*
X146848514Y-97819428D01*
X146848514Y-97819428D02*
X146734228Y-97790856D01*
X146734228Y-97790856D02*
X146677085Y-97762285D01*
X146677085Y-97762285D02*
X146619942Y-97705142D01*
X146619942Y-97705142D02*
X146591371Y-97619428D01*
X146591371Y-97619428D02*
X146591371Y-97562285D01*
X146591371Y-97562285D02*
X146619942Y-97476571D01*
X146619942Y-97476571D02*
X146648514Y-97447999D01*
X146791371Y-96933714D02*
X147191371Y-96933714D01*
X146562800Y-97076571D02*
X146991371Y-97219428D01*
X146991371Y-97219428D02*
X146991371Y-96847999D01*
X152820743Y-93690971D02*
X152820743Y-93090971D01*
X152820743Y-93090971D02*
X152963600Y-93090971D01*
X152963600Y-93090971D02*
X153049314Y-93119542D01*
X153049314Y-93119542D02*
X153106457Y-93176685D01*
X153106457Y-93176685D02*
X153135028Y-93233828D01*
X153135028Y-93233828D02*
X153163600Y-93348114D01*
X153163600Y-93348114D02*
X153163600Y-93433828D01*
X153163600Y-93433828D02*
X153135028Y-93548114D01*
X153135028Y-93548114D02*
X153106457Y-93605257D01*
X153106457Y-93605257D02*
X153049314Y-93662400D01*
X153049314Y-93662400D02*
X152963600Y-93690971D01*
X152963600Y-93690971D02*
X152820743Y-93690971D01*
X153735028Y-93690971D02*
X153392171Y-93690971D01*
X153563600Y-93690971D02*
X153563600Y-93090971D01*
X153563600Y-93090971D02*
X153506457Y-93176685D01*
X153506457Y-93176685D02*
X153449314Y-93233828D01*
X153449314Y-93233828D02*
X153392171Y-93262400D01*
X140218571Y-85893999D02*
X139932857Y-86093999D01*
X140218571Y-86236856D02*
X139618571Y-86236856D01*
X139618571Y-86236856D02*
X139618571Y-86008285D01*
X139618571Y-86008285D02*
X139647142Y-85951142D01*
X139647142Y-85951142D02*
X139675714Y-85922571D01*
X139675714Y-85922571D02*
X139732857Y-85893999D01*
X139732857Y-85893999D02*
X139818571Y-85893999D01*
X139818571Y-85893999D02*
X139875714Y-85922571D01*
X139875714Y-85922571D02*
X139904285Y-85951142D01*
X139904285Y-85951142D02*
X139932857Y-86008285D01*
X139932857Y-86008285D02*
X139932857Y-86236856D01*
X139618571Y-85351142D02*
X139618571Y-85636856D01*
X139618571Y-85636856D02*
X139904285Y-85665428D01*
X139904285Y-85665428D02*
X139875714Y-85636856D01*
X139875714Y-85636856D02*
X139847142Y-85579714D01*
X139847142Y-85579714D02*
X139847142Y-85436856D01*
X139847142Y-85436856D02*
X139875714Y-85379714D01*
X139875714Y-85379714D02*
X139904285Y-85351142D01*
X139904285Y-85351142D02*
X139961428Y-85322571D01*
X139961428Y-85322571D02*
X140104285Y-85322571D01*
X140104285Y-85322571D02*
X140161428Y-85351142D01*
X140161428Y-85351142D02*
X140190000Y-85379714D01*
X140190000Y-85379714D02*
X140218571Y-85436856D01*
X140218571Y-85436856D02*
X140218571Y-85579714D01*
X140218571Y-85579714D02*
X140190000Y-85636856D01*
X140190000Y-85636856D02*
X140161428Y-85665428D01*
X135104328Y-87882399D02*
X135132900Y-87910971D01*
X135132900Y-87910971D02*
X135161471Y-87996685D01*
X135161471Y-87996685D02*
X135161471Y-88053828D01*
X135161471Y-88053828D02*
X135132900Y-88139542D01*
X135132900Y-88139542D02*
X135075757Y-88196685D01*
X135075757Y-88196685D02*
X135018614Y-88225256D01*
X135018614Y-88225256D02*
X134904328Y-88253828D01*
X134904328Y-88253828D02*
X134818614Y-88253828D01*
X134818614Y-88253828D02*
X134704328Y-88225256D01*
X134704328Y-88225256D02*
X134647185Y-88196685D01*
X134647185Y-88196685D02*
X134590042Y-88139542D01*
X134590042Y-88139542D02*
X134561471Y-88053828D01*
X134561471Y-88053828D02*
X134561471Y-87996685D01*
X134561471Y-87996685D02*
X134590042Y-87910971D01*
X134590042Y-87910971D02*
X134618614Y-87882399D01*
X134618614Y-87653828D02*
X134590042Y-87625256D01*
X134590042Y-87625256D02*
X134561471Y-87568114D01*
X134561471Y-87568114D02*
X134561471Y-87425256D01*
X134561471Y-87425256D02*
X134590042Y-87368114D01*
X134590042Y-87368114D02*
X134618614Y-87339542D01*
X134618614Y-87339542D02*
X134675757Y-87310971D01*
X134675757Y-87310971D02*
X134732900Y-87310971D01*
X134732900Y-87310971D02*
X134818614Y-87339542D01*
X134818614Y-87339542D02*
X135161471Y-87682399D01*
X135161471Y-87682399D02*
X135161471Y-87310971D01*
X135535200Y-98894800D02*
X135563771Y-98809086D01*
X135563771Y-98809086D02*
X135563771Y-98666228D01*
X135563771Y-98666228D02*
X135535200Y-98609086D01*
X135535200Y-98609086D02*
X135506628Y-98580514D01*
X135506628Y-98580514D02*
X135449485Y-98551943D01*
X135449485Y-98551943D02*
X135392342Y-98551943D01*
X135392342Y-98551943D02*
X135335200Y-98580514D01*
X135335200Y-98580514D02*
X135306628Y-98609086D01*
X135306628Y-98609086D02*
X135278057Y-98666228D01*
X135278057Y-98666228D02*
X135249485Y-98780514D01*
X135249485Y-98780514D02*
X135220914Y-98837657D01*
X135220914Y-98837657D02*
X135192342Y-98866228D01*
X135192342Y-98866228D02*
X135135200Y-98894800D01*
X135135200Y-98894800D02*
X135078057Y-98894800D01*
X135078057Y-98894800D02*
X135020914Y-98866228D01*
X135020914Y-98866228D02*
X134992342Y-98837657D01*
X134992342Y-98837657D02*
X134963771Y-98780514D01*
X134963771Y-98780514D02*
X134963771Y-98637657D01*
X134963771Y-98637657D02*
X134992342Y-98551943D01*
X134963771Y-98351942D02*
X135563771Y-98209085D01*
X135563771Y-98209085D02*
X135135200Y-98094799D01*
X135135200Y-98094799D02*
X135563771Y-97980514D01*
X135563771Y-97980514D02*
X134963771Y-97837657D01*
X135020914Y-97637657D02*
X134992342Y-97609085D01*
X134992342Y-97609085D02*
X134963771Y-97551943D01*
X134963771Y-97551943D02*
X134963771Y-97409085D01*
X134963771Y-97409085D02*
X134992342Y-97351943D01*
X134992342Y-97351943D02*
X135020914Y-97323371D01*
X135020914Y-97323371D02*
X135078057Y-97294800D01*
X135078057Y-97294800D02*
X135135200Y-97294800D01*
X135135200Y-97294800D02*
X135220914Y-97323371D01*
X135220914Y-97323371D02*
X135563771Y-97666228D01*
X135563771Y-97666228D02*
X135563771Y-97294800D01*
X140974557Y-89128571D02*
X140974557Y-89614285D01*
X140974557Y-89614285D02*
X141003128Y-89671428D01*
X141003128Y-89671428D02*
X141031700Y-89700000D01*
X141031700Y-89700000D02*
X141088842Y-89728571D01*
X141088842Y-89728571D02*
X141203128Y-89728571D01*
X141203128Y-89728571D02*
X141260271Y-89700000D01*
X141260271Y-89700000D02*
X141288842Y-89671428D01*
X141288842Y-89671428D02*
X141317414Y-89614285D01*
X141317414Y-89614285D02*
X141317414Y-89128571D01*
X141917413Y-89728571D02*
X141574556Y-89728571D01*
X141745985Y-89728571D02*
X141745985Y-89128571D01*
X141745985Y-89128571D02*
X141688842Y-89214285D01*
X141688842Y-89214285D02*
X141631699Y-89271428D01*
X141631699Y-89271428D02*
X141574556Y-89300000D01*
X142482628Y-94145999D02*
X142511200Y-94174571D01*
X142511200Y-94174571D02*
X142539771Y-94260285D01*
X142539771Y-94260285D02*
X142539771Y-94317428D01*
X142539771Y-94317428D02*
X142511200Y-94403142D01*
X142511200Y-94403142D02*
X142454057Y-94460285D01*
X142454057Y-94460285D02*
X142396914Y-94488856D01*
X142396914Y-94488856D02*
X142282628Y-94517428D01*
X142282628Y-94517428D02*
X142196914Y-94517428D01*
X142196914Y-94517428D02*
X142082628Y-94488856D01*
X142082628Y-94488856D02*
X142025485Y-94460285D01*
X142025485Y-94460285D02*
X141968342Y-94403142D01*
X141968342Y-94403142D02*
X141939771Y-94317428D01*
X141939771Y-94317428D02*
X141939771Y-94260285D01*
X141939771Y-94260285D02*
X141968342Y-94174571D01*
X141968342Y-94174571D02*
X141996914Y-94145999D01*
X141939771Y-93603142D02*
X141939771Y-93888856D01*
X141939771Y-93888856D02*
X142225485Y-93917428D01*
X142225485Y-93917428D02*
X142196914Y-93888856D01*
X142196914Y-93888856D02*
X142168342Y-93831714D01*
X142168342Y-93831714D02*
X142168342Y-93688856D01*
X142168342Y-93688856D02*
X142196914Y-93631714D01*
X142196914Y-93631714D02*
X142225485Y-93603142D01*
X142225485Y-93603142D02*
X142282628Y-93574571D01*
X142282628Y-93574571D02*
X142425485Y-93574571D01*
X142425485Y-93574571D02*
X142482628Y-93603142D01*
X142482628Y-93603142D02*
X142511200Y-93631714D01*
X142511200Y-93631714D02*
X142539771Y-93688856D01*
X142539771Y-93688856D02*
X142539771Y-93831714D01*
X142539771Y-93831714D02*
X142511200Y-93888856D01*
X142511200Y-93888856D02*
X142482628Y-93917428D01*
X140522228Y-102798514D02*
X140550800Y-102827086D01*
X140550800Y-102827086D02*
X140579371Y-102912800D01*
X140579371Y-102912800D02*
X140579371Y-102969943D01*
X140579371Y-102969943D02*
X140550800Y-103055657D01*
X140550800Y-103055657D02*
X140493657Y-103112800D01*
X140493657Y-103112800D02*
X140436514Y-103141371D01*
X140436514Y-103141371D02*
X140322228Y-103169943D01*
X140322228Y-103169943D02*
X140236514Y-103169943D01*
X140236514Y-103169943D02*
X140122228Y-103141371D01*
X140122228Y-103141371D02*
X140065085Y-103112800D01*
X140065085Y-103112800D02*
X140007942Y-103055657D01*
X140007942Y-103055657D02*
X139979371Y-102969943D01*
X139979371Y-102969943D02*
X139979371Y-102912800D01*
X139979371Y-102912800D02*
X140007942Y-102827086D01*
X140007942Y-102827086D02*
X140036514Y-102798514D01*
X140036514Y-102569943D02*
X140007942Y-102541371D01*
X140007942Y-102541371D02*
X139979371Y-102484229D01*
X139979371Y-102484229D02*
X139979371Y-102341371D01*
X139979371Y-102341371D02*
X140007942Y-102284229D01*
X140007942Y-102284229D02*
X140036514Y-102255657D01*
X140036514Y-102255657D02*
X140093657Y-102227086D01*
X140093657Y-102227086D02*
X140150800Y-102227086D01*
X140150800Y-102227086D02*
X140236514Y-102255657D01*
X140236514Y-102255657D02*
X140579371Y-102598514D01*
X140579371Y-102598514D02*
X140579371Y-102227086D01*
X140579371Y-101655657D02*
X140579371Y-101998514D01*
X140579371Y-101827085D02*
X139979371Y-101827085D01*
X139979371Y-101827085D02*
X140065085Y-101884228D01*
X140065085Y-101884228D02*
X140122228Y-101941371D01*
X140122228Y-101941371D02*
X140150800Y-101998514D01*
X144422419Y-100242666D02*
X143946228Y-100575999D01*
X144422419Y-100814094D02*
X143422419Y-100814094D01*
X143422419Y-100814094D02*
X143422419Y-100433142D01*
X143422419Y-100433142D02*
X143470038Y-100337904D01*
X143470038Y-100337904D02*
X143517657Y-100290285D01*
X143517657Y-100290285D02*
X143612895Y-100242666D01*
X143612895Y-100242666D02*
X143755752Y-100242666D01*
X143755752Y-100242666D02*
X143850990Y-100290285D01*
X143850990Y-100290285D02*
X143898609Y-100337904D01*
X143898609Y-100337904D02*
X143946228Y-100433142D01*
X143946228Y-100433142D02*
X143946228Y-100814094D01*
X144422419Y-99766475D02*
X144422419Y-99575999D01*
X144422419Y-99575999D02*
X144374800Y-99480761D01*
X144374800Y-99480761D02*
X144327180Y-99433142D01*
X144327180Y-99433142D02*
X144184323Y-99337904D01*
X144184323Y-99337904D02*
X143993847Y-99290285D01*
X143993847Y-99290285D02*
X143612895Y-99290285D01*
X143612895Y-99290285D02*
X143517657Y-99337904D01*
X143517657Y-99337904D02*
X143470038Y-99385523D01*
X143470038Y-99385523D02*
X143422419Y-99480761D01*
X143422419Y-99480761D02*
X143422419Y-99671237D01*
X143422419Y-99671237D02*
X143470038Y-99766475D01*
X143470038Y-99766475D02*
X143517657Y-99814094D01*
X143517657Y-99814094D02*
X143612895Y-99861713D01*
X143612895Y-99861713D02*
X143850990Y-99861713D01*
X143850990Y-99861713D02*
X143946228Y-99814094D01*
X143946228Y-99814094D02*
X143993847Y-99766475D01*
X143993847Y-99766475D02*
X144041466Y-99671237D01*
X144041466Y-99671237D02*
X144041466Y-99480761D01*
X144041466Y-99480761D02*
X143993847Y-99385523D01*
X143993847Y-99385523D02*
X143946228Y-99337904D01*
X143946228Y-99337904D02*
X143850990Y-99290285D01*
X143691371Y-94827656D02*
X143091371Y-94827656D01*
X143091371Y-94827656D02*
X143091371Y-94684799D01*
X143091371Y-94684799D02*
X143119942Y-94599085D01*
X143119942Y-94599085D02*
X143177085Y-94541942D01*
X143177085Y-94541942D02*
X143234228Y-94513371D01*
X143234228Y-94513371D02*
X143348514Y-94484799D01*
X143348514Y-94484799D02*
X143434228Y-94484799D01*
X143434228Y-94484799D02*
X143548514Y-94513371D01*
X143548514Y-94513371D02*
X143605657Y-94541942D01*
X143605657Y-94541942D02*
X143662800Y-94599085D01*
X143662800Y-94599085D02*
X143691371Y-94684799D01*
X143691371Y-94684799D02*
X143691371Y-94827656D01*
X143148514Y-94256228D02*
X143119942Y-94227656D01*
X143119942Y-94227656D02*
X143091371Y-94170514D01*
X143091371Y-94170514D02*
X143091371Y-94027656D01*
X143091371Y-94027656D02*
X143119942Y-93970514D01*
X143119942Y-93970514D02*
X143148514Y-93941942D01*
X143148514Y-93941942D02*
X143205657Y-93913371D01*
X143205657Y-93913371D02*
X143262800Y-93913371D01*
X143262800Y-93913371D02*
X143348514Y-93941942D01*
X143348514Y-93941942D02*
X143691371Y-94284799D01*
X143691371Y-94284799D02*
X143691371Y-93913371D01*
X149082283Y-99985054D02*
X149082283Y-100470768D01*
X149082283Y-100470768D02*
X149110854Y-100527911D01*
X149110854Y-100527911D02*
X149139426Y-100556483D01*
X149139426Y-100556483D02*
X149196568Y-100585054D01*
X149196568Y-100585054D02*
X149310854Y-100585054D01*
X149310854Y-100585054D02*
X149367997Y-100556483D01*
X149367997Y-100556483D02*
X149396568Y-100527911D01*
X149396568Y-100527911D02*
X149425140Y-100470768D01*
X149425140Y-100470768D02*
X149425140Y-99985054D01*
X149653711Y-99985054D02*
X150025139Y-99985054D01*
X150025139Y-99985054D02*
X149825139Y-100213625D01*
X149825139Y-100213625D02*
X149910854Y-100213625D01*
X149910854Y-100213625D02*
X149967997Y-100242197D01*
X149967997Y-100242197D02*
X149996568Y-100270768D01*
X149996568Y-100270768D02*
X150025139Y-100327911D01*
X150025139Y-100327911D02*
X150025139Y-100470768D01*
X150025139Y-100470768D02*
X149996568Y-100527911D01*
X149996568Y-100527911D02*
X149967997Y-100556483D01*
X149967997Y-100556483D02*
X149910854Y-100585054D01*
X149910854Y-100585054D02*
X149739425Y-100585054D01*
X149739425Y-100585054D02*
X149682282Y-100556483D01*
X149682282Y-100556483D02*
X149653711Y-100527911D01*
X152994019Y-92419466D02*
X152517828Y-92752799D01*
X152994019Y-92990894D02*
X151994019Y-92990894D01*
X151994019Y-92990894D02*
X151994019Y-92609942D01*
X151994019Y-92609942D02*
X152041638Y-92514704D01*
X152041638Y-92514704D02*
X152089257Y-92467085D01*
X152089257Y-92467085D02*
X152184495Y-92419466D01*
X152184495Y-92419466D02*
X152327352Y-92419466D01*
X152327352Y-92419466D02*
X152422590Y-92467085D01*
X152422590Y-92467085D02*
X152470209Y-92514704D01*
X152470209Y-92514704D02*
X152517828Y-92609942D01*
X152517828Y-92609942D02*
X152517828Y-92990894D01*
X152089257Y-92038513D02*
X152041638Y-91990894D01*
X152041638Y-91990894D02*
X151994019Y-91895656D01*
X151994019Y-91895656D02*
X151994019Y-91657561D01*
X151994019Y-91657561D02*
X152041638Y-91562323D01*
X152041638Y-91562323D02*
X152089257Y-91514704D01*
X152089257Y-91514704D02*
X152184495Y-91467085D01*
X152184495Y-91467085D02*
X152279733Y-91467085D01*
X152279733Y-91467085D02*
X152422590Y-91514704D01*
X152422590Y-91514704D02*
X152994019Y-92086132D01*
X152994019Y-92086132D02*
X152994019Y-91467085D01*
X136547619Y-93791066D02*
X136071428Y-94124399D01*
X136547619Y-94362494D02*
X135547619Y-94362494D01*
X135547619Y-94362494D02*
X135547619Y-93981542D01*
X135547619Y-93981542D02*
X135595238Y-93886304D01*
X135595238Y-93886304D02*
X135642857Y-93838685D01*
X135642857Y-93838685D02*
X135738095Y-93791066D01*
X135738095Y-93791066D02*
X135880952Y-93791066D01*
X135880952Y-93791066D02*
X135976190Y-93838685D01*
X135976190Y-93838685D02*
X136023809Y-93886304D01*
X136023809Y-93886304D02*
X136071428Y-93981542D01*
X136071428Y-93981542D02*
X136071428Y-94362494D01*
X135547619Y-93457732D02*
X135547619Y-92791066D01*
X135547619Y-92791066D02*
X136547619Y-93219637D01*
X148701028Y-103238902D02*
X148729600Y-103267474D01*
X148729600Y-103267474D02*
X148758171Y-103353188D01*
X148758171Y-103353188D02*
X148758171Y-103410331D01*
X148758171Y-103410331D02*
X148729600Y-103496045D01*
X148729600Y-103496045D02*
X148672457Y-103553188D01*
X148672457Y-103553188D02*
X148615314Y-103581759D01*
X148615314Y-103581759D02*
X148501028Y-103610331D01*
X148501028Y-103610331D02*
X148415314Y-103610331D01*
X148415314Y-103610331D02*
X148301028Y-103581759D01*
X148301028Y-103581759D02*
X148243885Y-103553188D01*
X148243885Y-103553188D02*
X148186742Y-103496045D01*
X148186742Y-103496045D02*
X148158171Y-103410331D01*
X148158171Y-103410331D02*
X148158171Y-103353188D01*
X148158171Y-103353188D02*
X148186742Y-103267474D01*
X148186742Y-103267474D02*
X148215314Y-103238902D01*
X148758171Y-102667474D02*
X148758171Y-103010331D01*
X148758171Y-102838902D02*
X148158171Y-102838902D01*
X148158171Y-102838902D02*
X148243885Y-102896045D01*
X148243885Y-102896045D02*
X148301028Y-102953188D01*
X148301028Y-102953188D02*
X148329600Y-103010331D01*
X148158171Y-102467473D02*
X148158171Y-102096045D01*
X148158171Y-102096045D02*
X148386742Y-102296045D01*
X148386742Y-102296045D02*
X148386742Y-102210330D01*
X148386742Y-102210330D02*
X148415314Y-102153188D01*
X148415314Y-102153188D02*
X148443885Y-102124616D01*
X148443885Y-102124616D02*
X148501028Y-102096045D01*
X148501028Y-102096045D02*
X148643885Y-102096045D01*
X148643885Y-102096045D02*
X148701028Y-102124616D01*
X148701028Y-102124616D02*
X148729600Y-102153188D01*
X148729600Y-102153188D02*
X148758171Y-102210330D01*
X148758171Y-102210330D02*
X148758171Y-102381759D01*
X148758171Y-102381759D02*
X148729600Y-102438902D01*
X148729600Y-102438902D02*
X148701028Y-102467473D01*
X134482800Y-104663771D02*
X134197086Y-104663771D01*
X134197086Y-104663771D02*
X134197086Y-104063771D01*
X134625657Y-104063771D02*
X134997085Y-104063771D01*
X134997085Y-104063771D02*
X134797085Y-104292342D01*
X134797085Y-104292342D02*
X134882800Y-104292342D01*
X134882800Y-104292342D02*
X134939943Y-104320914D01*
X134939943Y-104320914D02*
X134968514Y-104349485D01*
X134968514Y-104349485D02*
X134997085Y-104406628D01*
X134997085Y-104406628D02*
X134997085Y-104549485D01*
X134997085Y-104549485D02*
X134968514Y-104606628D01*
X134968514Y-104606628D02*
X134939943Y-104635200D01*
X134939943Y-104635200D02*
X134882800Y-104663771D01*
X134882800Y-104663771D02*
X134711371Y-104663771D01*
X134711371Y-104663771D02*
X134654228Y-104635200D01*
X134654228Y-104635200D02*
X134625657Y-104606628D01*
X155583296Y-102493963D02*
X155611868Y-102522535D01*
X155611868Y-102522535D02*
X155640439Y-102608249D01*
X155640439Y-102608249D02*
X155640439Y-102665392D01*
X155640439Y-102665392D02*
X155611868Y-102751106D01*
X155611868Y-102751106D02*
X155554725Y-102808249D01*
X155554725Y-102808249D02*
X155497582Y-102836820D01*
X155497582Y-102836820D02*
X155383296Y-102865392D01*
X155383296Y-102865392D02*
X155297582Y-102865392D01*
X155297582Y-102865392D02*
X155183296Y-102836820D01*
X155183296Y-102836820D02*
X155126153Y-102808249D01*
X155126153Y-102808249D02*
X155069010Y-102751106D01*
X155069010Y-102751106D02*
X155040439Y-102665392D01*
X155040439Y-102665392D02*
X155040439Y-102608249D01*
X155040439Y-102608249D02*
X155069010Y-102522535D01*
X155069010Y-102522535D02*
X155097582Y-102493963D01*
X155040439Y-102293963D02*
X155040439Y-101893963D01*
X155040439Y-101893963D02*
X155640439Y-102151106D01*
X142990386Y-98129400D02*
X143018958Y-98157972D01*
X143018958Y-98157972D02*
X143047529Y-98243686D01*
X143047529Y-98243686D02*
X143047529Y-98300829D01*
X143047529Y-98300829D02*
X143018958Y-98386543D01*
X143018958Y-98386543D02*
X142961815Y-98443686D01*
X142961815Y-98443686D02*
X142904672Y-98472257D01*
X142904672Y-98472257D02*
X142790386Y-98500829D01*
X142790386Y-98500829D02*
X142704672Y-98500829D01*
X142704672Y-98500829D02*
X142590386Y-98472257D01*
X142590386Y-98472257D02*
X142533243Y-98443686D01*
X142533243Y-98443686D02*
X142476100Y-98386543D01*
X142476100Y-98386543D02*
X142447529Y-98300829D01*
X142447529Y-98300829D02*
X142447529Y-98243686D01*
X142447529Y-98243686D02*
X142476100Y-98157972D01*
X142476100Y-98157972D02*
X142504672Y-98129400D01*
X143047529Y-97557972D02*
X143047529Y-97900829D01*
X143047529Y-97729400D02*
X142447529Y-97729400D01*
X142447529Y-97729400D02*
X142533243Y-97786543D01*
X142533243Y-97786543D02*
X142590386Y-97843686D01*
X142590386Y-97843686D02*
X142618958Y-97900829D01*
X142504672Y-97329400D02*
X142476100Y-97300828D01*
X142476100Y-97300828D02*
X142447529Y-97243686D01*
X142447529Y-97243686D02*
X142447529Y-97100828D01*
X142447529Y-97100828D02*
X142476100Y-97043686D01*
X142476100Y-97043686D02*
X142504672Y-97015114D01*
X142504672Y-97015114D02*
X142561815Y-96986543D01*
X142561815Y-96986543D02*
X142618958Y-96986543D01*
X142618958Y-96986543D02*
X142704672Y-97015114D01*
X142704672Y-97015114D02*
X143047529Y-97357971D01*
X143047529Y-97357971D02*
X143047529Y-96986543D01*
X135508000Y-94729200D02*
X135536571Y-94643486D01*
X135536571Y-94643486D02*
X135536571Y-94500628D01*
X135536571Y-94500628D02*
X135508000Y-94443486D01*
X135508000Y-94443486D02*
X135479428Y-94414914D01*
X135479428Y-94414914D02*
X135422285Y-94386343D01*
X135422285Y-94386343D02*
X135365142Y-94386343D01*
X135365142Y-94386343D02*
X135308000Y-94414914D01*
X135308000Y-94414914D02*
X135279428Y-94443486D01*
X135279428Y-94443486D02*
X135250857Y-94500628D01*
X135250857Y-94500628D02*
X135222285Y-94614914D01*
X135222285Y-94614914D02*
X135193714Y-94672057D01*
X135193714Y-94672057D02*
X135165142Y-94700628D01*
X135165142Y-94700628D02*
X135108000Y-94729200D01*
X135108000Y-94729200D02*
X135050857Y-94729200D01*
X135050857Y-94729200D02*
X134993714Y-94700628D01*
X134993714Y-94700628D02*
X134965142Y-94672057D01*
X134965142Y-94672057D02*
X134936571Y-94614914D01*
X134936571Y-94614914D02*
X134936571Y-94472057D01*
X134936571Y-94472057D02*
X134965142Y-94386343D01*
X134936571Y-94186342D02*
X135536571Y-94043485D01*
X135536571Y-94043485D02*
X135108000Y-93929199D01*
X135108000Y-93929199D02*
X135536571Y-93814914D01*
X135536571Y-93814914D02*
X134936571Y-93672057D01*
X135536571Y-93129200D02*
X135536571Y-93472057D01*
X135536571Y-93300628D02*
X134936571Y-93300628D01*
X134936571Y-93300628D02*
X135022285Y-93357771D01*
X135022285Y-93357771D02*
X135079428Y-93414914D01*
X135079428Y-93414914D02*
X135108000Y-93472057D01*
X152579328Y-113669714D02*
X152607900Y-113698286D01*
X152607900Y-113698286D02*
X152636471Y-113784000D01*
X152636471Y-113784000D02*
X152636471Y-113841143D01*
X152636471Y-113841143D02*
X152607900Y-113926857D01*
X152607900Y-113926857D02*
X152550757Y-113984000D01*
X152550757Y-113984000D02*
X152493614Y-114012571D01*
X152493614Y-114012571D02*
X152379328Y-114041143D01*
X152379328Y-114041143D02*
X152293614Y-114041143D01*
X152293614Y-114041143D02*
X152179328Y-114012571D01*
X152179328Y-114012571D02*
X152122185Y-113984000D01*
X152122185Y-113984000D02*
X152065042Y-113926857D01*
X152065042Y-113926857D02*
X152036471Y-113841143D01*
X152036471Y-113841143D02*
X152036471Y-113784000D01*
X152036471Y-113784000D02*
X152065042Y-113698286D01*
X152065042Y-113698286D02*
X152093614Y-113669714D01*
X152636471Y-113098286D02*
X152636471Y-113441143D01*
X152636471Y-113269714D02*
X152036471Y-113269714D01*
X152036471Y-113269714D02*
X152122185Y-113326857D01*
X152122185Y-113326857D02*
X152179328Y-113384000D01*
X152179328Y-113384000D02*
X152207900Y-113441143D01*
X152636471Y-112526857D02*
X152636471Y-112869714D01*
X152636471Y-112698285D02*
X152036471Y-112698285D01*
X152036471Y-112698285D02*
X152122185Y-112755428D01*
X152122185Y-112755428D02*
X152179328Y-112812571D01*
X152179328Y-112812571D02*
X152207900Y-112869714D01*
X138273028Y-102849314D02*
X138301600Y-102877886D01*
X138301600Y-102877886D02*
X138330171Y-102963600D01*
X138330171Y-102963600D02*
X138330171Y-103020743D01*
X138330171Y-103020743D02*
X138301600Y-103106457D01*
X138301600Y-103106457D02*
X138244457Y-103163600D01*
X138244457Y-103163600D02*
X138187314Y-103192171D01*
X138187314Y-103192171D02*
X138073028Y-103220743D01*
X138073028Y-103220743D02*
X137987314Y-103220743D01*
X137987314Y-103220743D02*
X137873028Y-103192171D01*
X137873028Y-103192171D02*
X137815885Y-103163600D01*
X137815885Y-103163600D02*
X137758742Y-103106457D01*
X137758742Y-103106457D02*
X137730171Y-103020743D01*
X137730171Y-103020743D02*
X137730171Y-102963600D01*
X137730171Y-102963600D02*
X137758742Y-102877886D01*
X137758742Y-102877886D02*
X137787314Y-102849314D01*
X137787314Y-102620743D02*
X137758742Y-102592171D01*
X137758742Y-102592171D02*
X137730171Y-102535029D01*
X137730171Y-102535029D02*
X137730171Y-102392171D01*
X137730171Y-102392171D02*
X137758742Y-102335029D01*
X137758742Y-102335029D02*
X137787314Y-102306457D01*
X137787314Y-102306457D02*
X137844457Y-102277886D01*
X137844457Y-102277886D02*
X137901600Y-102277886D01*
X137901600Y-102277886D02*
X137987314Y-102306457D01*
X137987314Y-102306457D02*
X138330171Y-102649314D01*
X138330171Y-102649314D02*
X138330171Y-102277886D01*
X137730171Y-101906457D02*
X137730171Y-101849314D01*
X137730171Y-101849314D02*
X137758742Y-101792171D01*
X137758742Y-101792171D02*
X137787314Y-101763600D01*
X137787314Y-101763600D02*
X137844457Y-101735028D01*
X137844457Y-101735028D02*
X137958742Y-101706457D01*
X137958742Y-101706457D02*
X138101600Y-101706457D01*
X138101600Y-101706457D02*
X138215885Y-101735028D01*
X138215885Y-101735028D02*
X138273028Y-101763600D01*
X138273028Y-101763600D02*
X138301600Y-101792171D01*
X138301600Y-101792171D02*
X138330171Y-101849314D01*
X138330171Y-101849314D02*
X138330171Y-101906457D01*
X138330171Y-101906457D02*
X138301600Y-101963600D01*
X138301600Y-101963600D02*
X138273028Y-101992171D01*
X138273028Y-101992171D02*
X138215885Y-102020742D01*
X138215885Y-102020742D02*
X138101600Y-102049314D01*
X138101600Y-102049314D02*
X137958742Y-102049314D01*
X137958742Y-102049314D02*
X137844457Y-102020742D01*
X137844457Y-102020742D02*
X137787314Y-101992171D01*
X137787314Y-101992171D02*
X137758742Y-101963600D01*
X137758742Y-101963600D02*
X137730171Y-101906457D01*
X145157885Y-97210258D02*
X145557885Y-97810258D01*
X145557885Y-97210258D02*
X145157885Y-97810258D01*
X146100742Y-97810258D02*
X145757885Y-97810258D01*
X145929314Y-97810258D02*
X145929314Y-97210258D01*
X145929314Y-97210258D02*
X145872171Y-97295972D01*
X145872171Y-97295972D02*
X145815028Y-97353115D01*
X145815028Y-97353115D02*
X145757885Y-97381687D01*
X147493085Y-107318571D02*
X147293085Y-107032857D01*
X147150228Y-107318571D02*
X147150228Y-106718571D01*
X147150228Y-106718571D02*
X147378799Y-106718571D01*
X147378799Y-106718571D02*
X147435942Y-106747142D01*
X147435942Y-106747142D02*
X147464513Y-106775714D01*
X147464513Y-106775714D02*
X147493085Y-106832857D01*
X147493085Y-106832857D02*
X147493085Y-106918571D01*
X147493085Y-106918571D02*
X147464513Y-106975714D01*
X147464513Y-106975714D02*
X147435942Y-107004285D01*
X147435942Y-107004285D02*
X147378799Y-107032857D01*
X147378799Y-107032857D02*
X147150228Y-107032857D01*
X148064513Y-107318571D02*
X147721656Y-107318571D01*
X147893085Y-107318571D02*
X147893085Y-106718571D01*
X147893085Y-106718571D02*
X147835942Y-106804285D01*
X147835942Y-106804285D02*
X147778799Y-106861428D01*
X147778799Y-106861428D02*
X147721656Y-106890000D01*
X148293085Y-106775714D02*
X148321657Y-106747142D01*
X148321657Y-106747142D02*
X148378800Y-106718571D01*
X148378800Y-106718571D02*
X148521657Y-106718571D01*
X148521657Y-106718571D02*
X148578800Y-106747142D01*
X148578800Y-106747142D02*
X148607371Y-106775714D01*
X148607371Y-106775714D02*
X148635942Y-106832857D01*
X148635942Y-106832857D02*
X148635942Y-106890000D01*
X148635942Y-106890000D02*
X148607371Y-106975714D01*
X148607371Y-106975714D02*
X148264514Y-107318571D01*
X148264514Y-107318571D02*
X148635942Y-107318571D01*
X145731857Y-98979006D02*
X145731857Y-99464720D01*
X145731857Y-99464720D02*
X145760428Y-99521863D01*
X145760428Y-99521863D02*
X145789000Y-99550435D01*
X145789000Y-99550435D02*
X145846142Y-99579006D01*
X145846142Y-99579006D02*
X145960428Y-99579006D01*
X145960428Y-99579006D02*
X146017571Y-99550435D01*
X146017571Y-99550435D02*
X146046142Y-99521863D01*
X146046142Y-99521863D02*
X146074714Y-99464720D01*
X146074714Y-99464720D02*
X146074714Y-98979006D01*
X146331856Y-99036149D02*
X146360428Y-99007577D01*
X146360428Y-99007577D02*
X146417571Y-98979006D01*
X146417571Y-98979006D02*
X146560428Y-98979006D01*
X146560428Y-98979006D02*
X146617571Y-99007577D01*
X146617571Y-99007577D02*
X146646142Y-99036149D01*
X146646142Y-99036149D02*
X146674713Y-99093292D01*
X146674713Y-99093292D02*
X146674713Y-99150435D01*
X146674713Y-99150435D02*
X146646142Y-99236149D01*
X146646142Y-99236149D02*
X146303285Y-99579006D01*
X146303285Y-99579006D02*
X146674713Y-99579006D01*
X142405333Y-103592019D02*
X142072000Y-103115828D01*
X141833905Y-103592019D02*
X141833905Y-102592019D01*
X141833905Y-102592019D02*
X142214857Y-102592019D01*
X142214857Y-102592019D02*
X142310095Y-102639638D01*
X142310095Y-102639638D02*
X142357714Y-102687257D01*
X142357714Y-102687257D02*
X142405333Y-102782495D01*
X142405333Y-102782495D02*
X142405333Y-102925352D01*
X142405333Y-102925352D02*
X142357714Y-103020590D01*
X142357714Y-103020590D02*
X142310095Y-103068209D01*
X142310095Y-103068209D02*
X142214857Y-103115828D01*
X142214857Y-103115828D02*
X141833905Y-103115828D01*
X142976762Y-103020590D02*
X142881524Y-102972971D01*
X142881524Y-102972971D02*
X142833905Y-102925352D01*
X142833905Y-102925352D02*
X142786286Y-102830114D01*
X142786286Y-102830114D02*
X142786286Y-102782495D01*
X142786286Y-102782495D02*
X142833905Y-102687257D01*
X142833905Y-102687257D02*
X142881524Y-102639638D01*
X142881524Y-102639638D02*
X142976762Y-102592019D01*
X142976762Y-102592019D02*
X143167238Y-102592019D01*
X143167238Y-102592019D02*
X143262476Y-102639638D01*
X143262476Y-102639638D02*
X143310095Y-102687257D01*
X143310095Y-102687257D02*
X143357714Y-102782495D01*
X143357714Y-102782495D02*
X143357714Y-102830114D01*
X143357714Y-102830114D02*
X143310095Y-102925352D01*
X143310095Y-102925352D02*
X143262476Y-102972971D01*
X143262476Y-102972971D02*
X143167238Y-103020590D01*
X143167238Y-103020590D02*
X142976762Y-103020590D01*
X142976762Y-103020590D02*
X142881524Y-103068209D01*
X142881524Y-103068209D02*
X142833905Y-103115828D01*
X142833905Y-103115828D02*
X142786286Y-103211066D01*
X142786286Y-103211066D02*
X142786286Y-103401542D01*
X142786286Y-103401542D02*
X142833905Y-103496780D01*
X142833905Y-103496780D02*
X142881524Y-103544400D01*
X142881524Y-103544400D02*
X142976762Y-103592019D01*
X142976762Y-103592019D02*
X143167238Y-103592019D01*
X143167238Y-103592019D02*
X143262476Y-103544400D01*
X143262476Y-103544400D02*
X143310095Y-103496780D01*
X143310095Y-103496780D02*
X143357714Y-103401542D01*
X143357714Y-103401542D02*
X143357714Y-103211066D01*
X143357714Y-103211066D02*
X143310095Y-103115828D01*
X143310095Y-103115828D02*
X143262476Y-103068209D01*
X143262476Y-103068209D02*
X143167238Y-103020590D01*
X138958685Y-105707828D02*
X138930113Y-105736400D01*
X138930113Y-105736400D02*
X138844399Y-105764971D01*
X138844399Y-105764971D02*
X138787256Y-105764971D01*
X138787256Y-105764971D02*
X138701542Y-105736400D01*
X138701542Y-105736400D02*
X138644399Y-105679257D01*
X138644399Y-105679257D02*
X138615828Y-105622114D01*
X138615828Y-105622114D02*
X138587256Y-105507828D01*
X138587256Y-105507828D02*
X138587256Y-105422114D01*
X138587256Y-105422114D02*
X138615828Y-105307828D01*
X138615828Y-105307828D02*
X138644399Y-105250685D01*
X138644399Y-105250685D02*
X138701542Y-105193542D01*
X138701542Y-105193542D02*
X138787256Y-105164971D01*
X138787256Y-105164971D02*
X138844399Y-105164971D01*
X138844399Y-105164971D02*
X138930113Y-105193542D01*
X138930113Y-105193542D02*
X138958685Y-105222114D01*
X139530113Y-105764971D02*
X139187256Y-105764971D01*
X139358685Y-105764971D02*
X139358685Y-105164971D01*
X139358685Y-105164971D02*
X139301542Y-105250685D01*
X139301542Y-105250685D02*
X139244399Y-105307828D01*
X139244399Y-105307828D02*
X139187256Y-105336400D01*
X140044400Y-105364971D02*
X140044400Y-105764971D01*
X139901542Y-105136400D02*
X139758685Y-105564971D01*
X139758685Y-105564971D02*
X140130114Y-105564971D01*
X153588828Y-97189114D02*
X153617400Y-97217686D01*
X153617400Y-97217686D02*
X153645971Y-97303400D01*
X153645971Y-97303400D02*
X153645971Y-97360543D01*
X153645971Y-97360543D02*
X153617400Y-97446257D01*
X153617400Y-97446257D02*
X153560257Y-97503400D01*
X153560257Y-97503400D02*
X153503114Y-97531971D01*
X153503114Y-97531971D02*
X153388828Y-97560543D01*
X153388828Y-97560543D02*
X153303114Y-97560543D01*
X153303114Y-97560543D02*
X153188828Y-97531971D01*
X153188828Y-97531971D02*
X153131685Y-97503400D01*
X153131685Y-97503400D02*
X153074542Y-97446257D01*
X153074542Y-97446257D02*
X153045971Y-97360543D01*
X153045971Y-97360543D02*
X153045971Y-97303400D01*
X153045971Y-97303400D02*
X153074542Y-97217686D01*
X153074542Y-97217686D02*
X153103114Y-97189114D01*
X153645971Y-96617686D02*
X153645971Y-96960543D01*
X153645971Y-96789114D02*
X153045971Y-96789114D01*
X153045971Y-96789114D02*
X153131685Y-96846257D01*
X153131685Y-96846257D02*
X153188828Y-96903400D01*
X153188828Y-96903400D02*
X153217400Y-96960543D01*
X153045971Y-96417685D02*
X153045971Y-96017685D01*
X153045971Y-96017685D02*
X153645971Y-96274828D01*
X157662019Y-102311104D02*
X158471542Y-102311104D01*
X158471542Y-102311104D02*
X158566780Y-102263485D01*
X158566780Y-102263485D02*
X158614400Y-102215866D01*
X158614400Y-102215866D02*
X158662019Y-102120628D01*
X158662019Y-102120628D02*
X158662019Y-101930152D01*
X158662019Y-101930152D02*
X158614400Y-101834914D01*
X158614400Y-101834914D02*
X158566780Y-101787295D01*
X158566780Y-101787295D02*
X158471542Y-101739676D01*
X158471542Y-101739676D02*
X157662019Y-101739676D01*
X157995352Y-100834914D02*
X158662019Y-100834914D01*
X157614400Y-101073009D02*
X158328685Y-101311104D01*
X158328685Y-101311104D02*
X158328685Y-100692057D01*
X140186581Y-106407193D02*
X140158009Y-106435765D01*
X140158009Y-106435765D02*
X140072295Y-106464336D01*
X140072295Y-106464336D02*
X140015152Y-106464336D01*
X140015152Y-106464336D02*
X139929438Y-106435765D01*
X139929438Y-106435765D02*
X139872295Y-106378622D01*
X139872295Y-106378622D02*
X139843724Y-106321479D01*
X139843724Y-106321479D02*
X139815152Y-106207193D01*
X139815152Y-106207193D02*
X139815152Y-106121479D01*
X139815152Y-106121479D02*
X139843724Y-106007193D01*
X139843724Y-106007193D02*
X139872295Y-105950050D01*
X139872295Y-105950050D02*
X139929438Y-105892907D01*
X139929438Y-105892907D02*
X140015152Y-105864336D01*
X140015152Y-105864336D02*
X140072295Y-105864336D01*
X140072295Y-105864336D02*
X140158009Y-105892907D01*
X140158009Y-105892907D02*
X140186581Y-105921479D01*
X140758009Y-106464336D02*
X140415152Y-106464336D01*
X140586581Y-106464336D02*
X140586581Y-105864336D01*
X140586581Y-105864336D02*
X140529438Y-105950050D01*
X140529438Y-105950050D02*
X140472295Y-106007193D01*
X140472295Y-106007193D02*
X140415152Y-106035765D01*
X141129438Y-105864336D02*
X141186581Y-105864336D01*
X141186581Y-105864336D02*
X141243724Y-105892907D01*
X141243724Y-105892907D02*
X141272296Y-105921479D01*
X141272296Y-105921479D02*
X141300867Y-105978622D01*
X141300867Y-105978622D02*
X141329438Y-106092907D01*
X141329438Y-106092907D02*
X141329438Y-106235765D01*
X141329438Y-106235765D02*
X141300867Y-106350050D01*
X141300867Y-106350050D02*
X141272296Y-106407193D01*
X141272296Y-106407193D02*
X141243724Y-106435765D01*
X141243724Y-106435765D02*
X141186581Y-106464336D01*
X141186581Y-106464336D02*
X141129438Y-106464336D01*
X141129438Y-106464336D02*
X141072296Y-106435765D01*
X141072296Y-106435765D02*
X141043724Y-106407193D01*
X141043724Y-106407193D02*
X141015153Y-106350050D01*
X141015153Y-106350050D02*
X140986581Y-106235765D01*
X140986581Y-106235765D02*
X140986581Y-106092907D01*
X140986581Y-106092907D02*
X141015153Y-105978622D01*
X141015153Y-105978622D02*
X141043724Y-105921479D01*
X141043724Y-105921479D02*
X141072296Y-105892907D01*
X141072296Y-105892907D02*
X141129438Y-105864336D01*
X144110628Y-90364399D02*
X144139200Y-90392971D01*
X144139200Y-90392971D02*
X144167771Y-90478685D01*
X144167771Y-90478685D02*
X144167771Y-90535828D01*
X144167771Y-90535828D02*
X144139200Y-90621542D01*
X144139200Y-90621542D02*
X144082057Y-90678685D01*
X144082057Y-90678685D02*
X144024914Y-90707256D01*
X144024914Y-90707256D02*
X143910628Y-90735828D01*
X143910628Y-90735828D02*
X143824914Y-90735828D01*
X143824914Y-90735828D02*
X143710628Y-90707256D01*
X143710628Y-90707256D02*
X143653485Y-90678685D01*
X143653485Y-90678685D02*
X143596342Y-90621542D01*
X143596342Y-90621542D02*
X143567771Y-90535828D01*
X143567771Y-90535828D02*
X143567771Y-90478685D01*
X143567771Y-90478685D02*
X143596342Y-90392971D01*
X143596342Y-90392971D02*
X143624914Y-90364399D01*
X143567771Y-90164399D02*
X143567771Y-89792971D01*
X143567771Y-89792971D02*
X143796342Y-89992971D01*
X143796342Y-89992971D02*
X143796342Y-89907256D01*
X143796342Y-89907256D02*
X143824914Y-89850114D01*
X143824914Y-89850114D02*
X143853485Y-89821542D01*
X143853485Y-89821542D02*
X143910628Y-89792971D01*
X143910628Y-89792971D02*
X144053485Y-89792971D01*
X144053485Y-89792971D02*
X144110628Y-89821542D01*
X144110628Y-89821542D02*
X144139200Y-89850114D01*
X144139200Y-89850114D02*
X144167771Y-89907256D01*
X144167771Y-89907256D02*
X144167771Y-90078685D01*
X144167771Y-90078685D02*
X144139200Y-90135828D01*
X144139200Y-90135828D02*
X144110628Y-90164399D01*
X140204383Y-105402790D02*
X140175811Y-105431362D01*
X140175811Y-105431362D02*
X140090097Y-105459933D01*
X140090097Y-105459933D02*
X140032954Y-105459933D01*
X140032954Y-105459933D02*
X139947240Y-105431362D01*
X139947240Y-105431362D02*
X139890097Y-105374219D01*
X139890097Y-105374219D02*
X139861526Y-105317076D01*
X139861526Y-105317076D02*
X139832954Y-105202790D01*
X139832954Y-105202790D02*
X139832954Y-105117076D01*
X139832954Y-105117076D02*
X139861526Y-105002790D01*
X139861526Y-105002790D02*
X139890097Y-104945647D01*
X139890097Y-104945647D02*
X139947240Y-104888504D01*
X139947240Y-104888504D02*
X140032954Y-104859933D01*
X140032954Y-104859933D02*
X140090097Y-104859933D01*
X140090097Y-104859933D02*
X140175811Y-104888504D01*
X140175811Y-104888504D02*
X140204383Y-104917076D01*
X140490097Y-105459933D02*
X140604383Y-105459933D01*
X140604383Y-105459933D02*
X140661526Y-105431362D01*
X140661526Y-105431362D02*
X140690097Y-105402790D01*
X140690097Y-105402790D02*
X140747240Y-105317076D01*
X140747240Y-105317076D02*
X140775811Y-105202790D01*
X140775811Y-105202790D02*
X140775811Y-104974219D01*
X140775811Y-104974219D02*
X140747240Y-104917076D01*
X140747240Y-104917076D02*
X140718669Y-104888504D01*
X140718669Y-104888504D02*
X140661526Y-104859933D01*
X140661526Y-104859933D02*
X140547240Y-104859933D01*
X140547240Y-104859933D02*
X140490097Y-104888504D01*
X140490097Y-104888504D02*
X140461526Y-104917076D01*
X140461526Y-104917076D02*
X140432954Y-104974219D01*
X140432954Y-104974219D02*
X140432954Y-105117076D01*
X140432954Y-105117076D02*
X140461526Y-105174219D01*
X140461526Y-105174219D02*
X140490097Y-105202790D01*
X140490097Y-105202790D02*
X140547240Y-105231362D01*
X140547240Y-105231362D02*
X140661526Y-105231362D01*
X140661526Y-105231362D02*
X140718669Y-105202790D01*
X140718669Y-105202790D02*
X140747240Y-105174219D01*
X140747240Y-105174219D02*
X140775811Y-105117076D01*
X133880628Y-96162799D02*
X133909200Y-96191371D01*
X133909200Y-96191371D02*
X133937771Y-96277085D01*
X133937771Y-96277085D02*
X133937771Y-96334228D01*
X133937771Y-96334228D02*
X133909200Y-96419942D01*
X133909200Y-96419942D02*
X133852057Y-96477085D01*
X133852057Y-96477085D02*
X133794914Y-96505656D01*
X133794914Y-96505656D02*
X133680628Y-96534228D01*
X133680628Y-96534228D02*
X133594914Y-96534228D01*
X133594914Y-96534228D02*
X133480628Y-96505656D01*
X133480628Y-96505656D02*
X133423485Y-96477085D01*
X133423485Y-96477085D02*
X133366342Y-96419942D01*
X133366342Y-96419942D02*
X133337771Y-96334228D01*
X133337771Y-96334228D02*
X133337771Y-96277085D01*
X133337771Y-96277085D02*
X133366342Y-96191371D01*
X133366342Y-96191371D02*
X133394914Y-96162799D01*
X133337771Y-95648514D02*
X133337771Y-95762799D01*
X133337771Y-95762799D02*
X133366342Y-95819942D01*
X133366342Y-95819942D02*
X133394914Y-95848514D01*
X133394914Y-95848514D02*
X133480628Y-95905656D01*
X133480628Y-95905656D02*
X133594914Y-95934228D01*
X133594914Y-95934228D02*
X133823485Y-95934228D01*
X133823485Y-95934228D02*
X133880628Y-95905656D01*
X133880628Y-95905656D02*
X133909200Y-95877085D01*
X133909200Y-95877085D02*
X133937771Y-95819942D01*
X133937771Y-95819942D02*
X133937771Y-95705656D01*
X133937771Y-95705656D02*
X133909200Y-95648514D01*
X133909200Y-95648514D02*
X133880628Y-95619942D01*
X133880628Y-95619942D02*
X133823485Y-95591371D01*
X133823485Y-95591371D02*
X133680628Y-95591371D01*
X133680628Y-95591371D02*
X133623485Y-95619942D01*
X133623485Y-95619942D02*
X133594914Y-95648514D01*
X133594914Y-95648514D02*
X133566342Y-95705656D01*
X133566342Y-95705656D02*
X133566342Y-95819942D01*
X133566342Y-95819942D02*
X133594914Y-95877085D01*
X133594914Y-95877085D02*
X133623485Y-95905656D01*
X133623485Y-95905656D02*
X133680628Y-95934228D01*
X138197371Y-84895371D02*
X137911657Y-84895371D01*
X137911657Y-84895371D02*
X137911657Y-84295371D01*
X138397371Y-84581085D02*
X138597371Y-84581085D01*
X138683085Y-84895371D02*
X138397371Y-84895371D01*
X138397371Y-84895371D02*
X138397371Y-84295371D01*
X138397371Y-84295371D02*
X138683085Y-84295371D01*
X138940228Y-84895371D02*
X138940228Y-84295371D01*
X138940228Y-84295371D02*
X139083085Y-84295371D01*
X139083085Y-84295371D02*
X139168799Y-84323942D01*
X139168799Y-84323942D02*
X139225942Y-84381085D01*
X139225942Y-84381085D02*
X139254513Y-84438228D01*
X139254513Y-84438228D02*
X139283085Y-84552514D01*
X139283085Y-84552514D02*
X139283085Y-84638228D01*
X139283085Y-84638228D02*
X139254513Y-84752514D01*
X139254513Y-84752514D02*
X139225942Y-84809657D01*
X139225942Y-84809657D02*
X139168799Y-84866800D01*
X139168799Y-84866800D02*
X139083085Y-84895371D01*
X139083085Y-84895371D02*
X138940228Y-84895371D01*
X139854513Y-84895371D02*
X139511656Y-84895371D01*
X139683085Y-84895371D02*
X139683085Y-84295371D01*
X139683085Y-84295371D02*
X139625942Y-84381085D01*
X139625942Y-84381085D02*
X139568799Y-84438228D01*
X139568799Y-84438228D02*
X139511656Y-84466800D01*
X143342019Y-85967866D02*
X142865828Y-86301199D01*
X143342019Y-86539294D02*
X142342019Y-86539294D01*
X142342019Y-86539294D02*
X142342019Y-86158342D01*
X142342019Y-86158342D02*
X142389638Y-86063104D01*
X142389638Y-86063104D02*
X142437257Y-86015485D01*
X142437257Y-86015485D02*
X142532495Y-85967866D01*
X142532495Y-85967866D02*
X142675352Y-85967866D01*
X142675352Y-85967866D02*
X142770590Y-86015485D01*
X142770590Y-86015485D02*
X142818209Y-86063104D01*
X142818209Y-86063104D02*
X142865828Y-86158342D01*
X142865828Y-86158342D02*
X142865828Y-86539294D01*
X142342019Y-85110723D02*
X142342019Y-85301199D01*
X142342019Y-85301199D02*
X142389638Y-85396437D01*
X142389638Y-85396437D02*
X142437257Y-85444056D01*
X142437257Y-85444056D02*
X142580114Y-85539294D01*
X142580114Y-85539294D02*
X142770590Y-85586913D01*
X142770590Y-85586913D02*
X143151542Y-85586913D01*
X143151542Y-85586913D02*
X143246780Y-85539294D01*
X143246780Y-85539294D02*
X143294400Y-85491675D01*
X143294400Y-85491675D02*
X143342019Y-85396437D01*
X143342019Y-85396437D02*
X143342019Y-85205961D01*
X143342019Y-85205961D02*
X143294400Y-85110723D01*
X143294400Y-85110723D02*
X143246780Y-85063104D01*
X143246780Y-85063104D02*
X143151542Y-85015485D01*
X143151542Y-85015485D02*
X142913447Y-85015485D01*
X142913447Y-85015485D02*
X142818209Y-85063104D01*
X142818209Y-85063104D02*
X142770590Y-85110723D01*
X142770590Y-85110723D02*
X142722971Y-85205961D01*
X142722971Y-85205961D02*
X142722971Y-85396437D01*
X142722971Y-85396437D02*
X142770590Y-85491675D01*
X142770590Y-85491675D02*
X142818209Y-85539294D01*
X142818209Y-85539294D02*
X142913447Y-85586913D01*
X141554285Y-102617771D02*
X141354285Y-102332057D01*
X141211428Y-102617771D02*
X141211428Y-102017771D01*
X141211428Y-102017771D02*
X141439999Y-102017771D01*
X141439999Y-102017771D02*
X141497142Y-102046342D01*
X141497142Y-102046342D02*
X141525713Y-102074914D01*
X141525713Y-102074914D02*
X141554285Y-102132057D01*
X141554285Y-102132057D02*
X141554285Y-102217771D01*
X141554285Y-102217771D02*
X141525713Y-102274914D01*
X141525713Y-102274914D02*
X141497142Y-102303485D01*
X141497142Y-102303485D02*
X141439999Y-102332057D01*
X141439999Y-102332057D02*
X141211428Y-102332057D01*
X142125713Y-102617771D02*
X141782856Y-102617771D01*
X141954285Y-102617771D02*
X141954285Y-102017771D01*
X141954285Y-102017771D02*
X141897142Y-102103485D01*
X141897142Y-102103485D02*
X141839999Y-102160628D01*
X141839999Y-102160628D02*
X141782856Y-102189200D01*
X142697142Y-102617771D02*
X142354285Y-102617771D01*
X142525714Y-102617771D02*
X142525714Y-102017771D01*
X142525714Y-102017771D02*
X142468571Y-102103485D01*
X142468571Y-102103485D02*
X142411428Y-102160628D01*
X142411428Y-102160628D02*
X142354285Y-102189200D01*
X149872683Y-97592599D02*
X149586969Y-97792599D01*
X149872683Y-97935456D02*
X149272683Y-97935456D01*
X149272683Y-97935456D02*
X149272683Y-97706885D01*
X149272683Y-97706885D02*
X149301254Y-97649742D01*
X149301254Y-97649742D02*
X149329826Y-97621171D01*
X149329826Y-97621171D02*
X149386969Y-97592599D01*
X149386969Y-97592599D02*
X149472683Y-97592599D01*
X149472683Y-97592599D02*
X149529826Y-97621171D01*
X149529826Y-97621171D02*
X149558397Y-97649742D01*
X149558397Y-97649742D02*
X149586969Y-97706885D01*
X149586969Y-97706885D02*
X149586969Y-97935456D01*
X149472683Y-97078314D02*
X149872683Y-97078314D01*
X149244112Y-97221171D02*
X149672683Y-97364028D01*
X149672683Y-97364028D02*
X149672683Y-96992599D01*
X141207542Y-110275600D02*
X141207542Y-109989886D01*
X141378971Y-110332743D02*
X140778971Y-110132743D01*
X140778971Y-110132743D02*
X141378971Y-109932743D01*
X141064685Y-109732742D02*
X141064685Y-109532742D01*
X141378971Y-109447028D02*
X141378971Y-109732742D01*
X141378971Y-109732742D02*
X140778971Y-109732742D01*
X140778971Y-109732742D02*
X140778971Y-109447028D01*
X141378971Y-108875600D02*
X141378971Y-109218457D01*
X141378971Y-109047028D02*
X140778971Y-109047028D01*
X140778971Y-109047028D02*
X140864685Y-109104171D01*
X140864685Y-109104171D02*
X140921828Y-109161314D01*
X140921828Y-109161314D02*
X140950400Y-109218457D01*
X143637657Y-88000514D02*
X143580514Y-87971942D01*
X143580514Y-87971942D02*
X143523371Y-87914800D01*
X143523371Y-87914800D02*
X143437657Y-87829085D01*
X143437657Y-87829085D02*
X143380514Y-87800514D01*
X143380514Y-87800514D02*
X143323371Y-87800514D01*
X143351942Y-87943371D02*
X143294800Y-87914800D01*
X143294800Y-87914800D02*
X143237657Y-87857657D01*
X143237657Y-87857657D02*
X143209085Y-87743371D01*
X143209085Y-87743371D02*
X143209085Y-87543371D01*
X143209085Y-87543371D02*
X143237657Y-87429085D01*
X143237657Y-87429085D02*
X143294800Y-87371942D01*
X143294800Y-87371942D02*
X143351942Y-87343371D01*
X143351942Y-87343371D02*
X143466228Y-87343371D01*
X143466228Y-87343371D02*
X143523371Y-87371942D01*
X143523371Y-87371942D02*
X143580514Y-87429085D01*
X143580514Y-87429085D02*
X143609085Y-87543371D01*
X143609085Y-87543371D02*
X143609085Y-87743371D01*
X143609085Y-87743371D02*
X143580514Y-87857657D01*
X143580514Y-87857657D02*
X143523371Y-87914800D01*
X143523371Y-87914800D02*
X143466228Y-87943371D01*
X143466228Y-87943371D02*
X143351942Y-87943371D01*
X144180513Y-87943371D02*
X143837656Y-87943371D01*
X144009085Y-87943371D02*
X144009085Y-87343371D01*
X144009085Y-87343371D02*
X143951942Y-87429085D01*
X143951942Y-87429085D02*
X143894799Y-87486228D01*
X143894799Y-87486228D02*
X143837656Y-87514800D01*
X157312019Y-92216266D02*
X156835828Y-92549599D01*
X157312019Y-92787694D02*
X156312019Y-92787694D01*
X156312019Y-92787694D02*
X156312019Y-92406742D01*
X156312019Y-92406742D02*
X156359638Y-92311504D01*
X156359638Y-92311504D02*
X156407257Y-92263885D01*
X156407257Y-92263885D02*
X156502495Y-92216266D01*
X156502495Y-92216266D02*
X156645352Y-92216266D01*
X156645352Y-92216266D02*
X156740590Y-92263885D01*
X156740590Y-92263885D02*
X156788209Y-92311504D01*
X156788209Y-92311504D02*
X156835828Y-92406742D01*
X156835828Y-92406742D02*
X156835828Y-92787694D01*
X157312019Y-91263885D02*
X157312019Y-91835313D01*
X157312019Y-91549599D02*
X156312019Y-91549599D01*
X156312019Y-91549599D02*
X156454876Y-91644837D01*
X156454876Y-91644837D02*
X156550114Y-91740075D01*
X156550114Y-91740075D02*
X156597733Y-91835313D01*
X149279143Y-90855771D02*
X149279143Y-91341485D01*
X149279143Y-91341485D02*
X149307714Y-91398628D01*
X149307714Y-91398628D02*
X149336286Y-91427200D01*
X149336286Y-91427200D02*
X149393428Y-91455771D01*
X149393428Y-91455771D02*
X149507714Y-91455771D01*
X149507714Y-91455771D02*
X149564857Y-91427200D01*
X149564857Y-91427200D02*
X149593428Y-91398628D01*
X149593428Y-91398628D02*
X149622000Y-91341485D01*
X149622000Y-91341485D02*
X149622000Y-90855771D01*
X149879142Y-91427200D02*
X149964857Y-91455771D01*
X149964857Y-91455771D02*
X150107714Y-91455771D01*
X150107714Y-91455771D02*
X150164857Y-91427200D01*
X150164857Y-91427200D02*
X150193428Y-91398628D01*
X150193428Y-91398628D02*
X150221999Y-91341485D01*
X150221999Y-91341485D02*
X150221999Y-91284342D01*
X150221999Y-91284342D02*
X150193428Y-91227200D01*
X150193428Y-91227200D02*
X150164857Y-91198628D01*
X150164857Y-91198628D02*
X150107714Y-91170057D01*
X150107714Y-91170057D02*
X149993428Y-91141485D01*
X149993428Y-91141485D02*
X149936285Y-91112914D01*
X149936285Y-91112914D02*
X149907714Y-91084342D01*
X149907714Y-91084342D02*
X149879142Y-91027200D01*
X149879142Y-91027200D02*
X149879142Y-90970057D01*
X149879142Y-90970057D02*
X149907714Y-90912914D01*
X149907714Y-90912914D02*
X149936285Y-90884342D01*
X149936285Y-90884342D02*
X149993428Y-90855771D01*
X149993428Y-90855771D02*
X150136285Y-90855771D01*
X150136285Y-90855771D02*
X150221999Y-90884342D01*
X150679143Y-91141485D02*
X150764857Y-91170057D01*
X150764857Y-91170057D02*
X150793428Y-91198628D01*
X150793428Y-91198628D02*
X150822000Y-91255771D01*
X150822000Y-91255771D02*
X150822000Y-91341485D01*
X150822000Y-91341485D02*
X150793428Y-91398628D01*
X150793428Y-91398628D02*
X150764857Y-91427200D01*
X150764857Y-91427200D02*
X150707714Y-91455771D01*
X150707714Y-91455771D02*
X150479143Y-91455771D01*
X150479143Y-91455771D02*
X150479143Y-90855771D01*
X150479143Y-90855771D02*
X150679143Y-90855771D01*
X150679143Y-90855771D02*
X150736286Y-90884342D01*
X150736286Y-90884342D02*
X150764857Y-90912914D01*
X150764857Y-90912914D02*
X150793428Y-90970057D01*
X150793428Y-90970057D02*
X150793428Y-91027200D01*
X150793428Y-91027200D02*
X150764857Y-91084342D01*
X150764857Y-91084342D02*
X150736286Y-91112914D01*
X150736286Y-91112914D02*
X150679143Y-91141485D01*
X150679143Y-91141485D02*
X150479143Y-91141485D01*
X151422000Y-91398628D02*
X151393428Y-91427200D01*
X151393428Y-91427200D02*
X151307714Y-91455771D01*
X151307714Y-91455771D02*
X151250571Y-91455771D01*
X151250571Y-91455771D02*
X151164857Y-91427200D01*
X151164857Y-91427200D02*
X151107714Y-91370057D01*
X151107714Y-91370057D02*
X151079143Y-91312914D01*
X151079143Y-91312914D02*
X151050571Y-91198628D01*
X151050571Y-91198628D02*
X151050571Y-91112914D01*
X151050571Y-91112914D02*
X151079143Y-90998628D01*
X151079143Y-90998628D02*
X151107714Y-90941485D01*
X151107714Y-90941485D02*
X151164857Y-90884342D01*
X151164857Y-90884342D02*
X151250571Y-90855771D01*
X151250571Y-90855771D02*
X151307714Y-90855771D01*
X151307714Y-90855771D02*
X151393428Y-90884342D01*
X151393428Y-90884342D02*
X151422000Y-90912914D01*
X151993428Y-91455771D02*
X151650571Y-91455771D01*
X151822000Y-91455771D02*
X151822000Y-90855771D01*
X151822000Y-90855771D02*
X151764857Y-90941485D01*
X151764857Y-90941485D02*
X151707714Y-90998628D01*
X151707714Y-90998628D02*
X151650571Y-91027200D01*
X149898140Y-110078149D02*
X149869568Y-110106721D01*
X149869568Y-110106721D02*
X149783854Y-110135292D01*
X149783854Y-110135292D02*
X149726711Y-110135292D01*
X149726711Y-110135292D02*
X149640997Y-110106721D01*
X149640997Y-110106721D02*
X149583854Y-110049578D01*
X149583854Y-110049578D02*
X149555283Y-109992435D01*
X149555283Y-109992435D02*
X149526711Y-109878149D01*
X149526711Y-109878149D02*
X149526711Y-109792435D01*
X149526711Y-109792435D02*
X149555283Y-109678149D01*
X149555283Y-109678149D02*
X149583854Y-109621006D01*
X149583854Y-109621006D02*
X149640997Y-109563863D01*
X149640997Y-109563863D02*
X149726711Y-109535292D01*
X149726711Y-109535292D02*
X149783854Y-109535292D01*
X149783854Y-109535292D02*
X149869568Y-109563863D01*
X149869568Y-109563863D02*
X149898140Y-109592435D01*
X150240997Y-109792435D02*
X150183854Y-109763863D01*
X150183854Y-109763863D02*
X150155283Y-109735292D01*
X150155283Y-109735292D02*
X150126711Y-109678149D01*
X150126711Y-109678149D02*
X150126711Y-109649578D01*
X150126711Y-109649578D02*
X150155283Y-109592435D01*
X150155283Y-109592435D02*
X150183854Y-109563863D01*
X150183854Y-109563863D02*
X150240997Y-109535292D01*
X150240997Y-109535292D02*
X150355283Y-109535292D01*
X150355283Y-109535292D02*
X150412426Y-109563863D01*
X150412426Y-109563863D02*
X150440997Y-109592435D01*
X150440997Y-109592435D02*
X150469568Y-109649578D01*
X150469568Y-109649578D02*
X150469568Y-109678149D01*
X150469568Y-109678149D02*
X150440997Y-109735292D01*
X150440997Y-109735292D02*
X150412426Y-109763863D01*
X150412426Y-109763863D02*
X150355283Y-109792435D01*
X150355283Y-109792435D02*
X150240997Y-109792435D01*
X150240997Y-109792435D02*
X150183854Y-109821006D01*
X150183854Y-109821006D02*
X150155283Y-109849578D01*
X150155283Y-109849578D02*
X150126711Y-109906721D01*
X150126711Y-109906721D02*
X150126711Y-110021006D01*
X150126711Y-110021006D02*
X150155283Y-110078149D01*
X150155283Y-110078149D02*
X150183854Y-110106721D01*
X150183854Y-110106721D02*
X150240997Y-110135292D01*
X150240997Y-110135292D02*
X150355283Y-110135292D01*
X150355283Y-110135292D02*
X150412426Y-110106721D01*
X150412426Y-110106721D02*
X150440997Y-110078149D01*
X150440997Y-110078149D02*
X150469568Y-110021006D01*
X150469568Y-110021006D02*
X150469568Y-109906721D01*
X150469568Y-109906721D02*
X150440997Y-109849578D01*
X150440997Y-109849578D02*
X150412426Y-109821006D01*
X150412426Y-109821006D02*
X150355283Y-109792435D01*
X155417628Y-98509914D02*
X155446200Y-98538486D01*
X155446200Y-98538486D02*
X155474771Y-98624200D01*
X155474771Y-98624200D02*
X155474771Y-98681343D01*
X155474771Y-98681343D02*
X155446200Y-98767057D01*
X155446200Y-98767057D02*
X155389057Y-98824200D01*
X155389057Y-98824200D02*
X155331914Y-98852771D01*
X155331914Y-98852771D02*
X155217628Y-98881343D01*
X155217628Y-98881343D02*
X155131914Y-98881343D01*
X155131914Y-98881343D02*
X155017628Y-98852771D01*
X155017628Y-98852771D02*
X154960485Y-98824200D01*
X154960485Y-98824200D02*
X154903342Y-98767057D01*
X154903342Y-98767057D02*
X154874771Y-98681343D01*
X154874771Y-98681343D02*
X154874771Y-98624200D01*
X154874771Y-98624200D02*
X154903342Y-98538486D01*
X154903342Y-98538486D02*
X154931914Y-98509914D01*
X155474771Y-97938486D02*
X155474771Y-98281343D01*
X155474771Y-98109914D02*
X154874771Y-98109914D01*
X154874771Y-98109914D02*
X154960485Y-98167057D01*
X154960485Y-98167057D02*
X155017628Y-98224200D01*
X155017628Y-98224200D02*
X155046200Y-98281343D01*
X154874771Y-97424200D02*
X154874771Y-97538485D01*
X154874771Y-97538485D02*
X154903342Y-97595628D01*
X154903342Y-97595628D02*
X154931914Y-97624200D01*
X154931914Y-97624200D02*
X155017628Y-97681342D01*
X155017628Y-97681342D02*
X155131914Y-97709914D01*
X155131914Y-97709914D02*
X155360485Y-97709914D01*
X155360485Y-97709914D02*
X155417628Y-97681342D01*
X155417628Y-97681342D02*
X155446200Y-97652771D01*
X155446200Y-97652771D02*
X155474771Y-97595628D01*
X155474771Y-97595628D02*
X155474771Y-97481342D01*
X155474771Y-97481342D02*
X155446200Y-97424200D01*
X155446200Y-97424200D02*
X155417628Y-97395628D01*
X155417628Y-97395628D02*
X155360485Y-97367057D01*
X155360485Y-97367057D02*
X155217628Y-97367057D01*
X155217628Y-97367057D02*
X155160485Y-97395628D01*
X155160485Y-97395628D02*
X155131914Y-97424200D01*
X155131914Y-97424200D02*
X155103342Y-97481342D01*
X155103342Y-97481342D02*
X155103342Y-97595628D01*
X155103342Y-97595628D02*
X155131914Y-97652771D01*
X155131914Y-97652771D02*
X155160485Y-97681342D01*
X155160485Y-97681342D02*
X155217628Y-97709914D01*
%TO.C,C18*%
X154694000Y-102345200D02*
X154694000Y-101845200D01*
X154694000Y-103285200D02*
X154694000Y-102785200D01*
X154844000Y-101695200D02*
X155544000Y-101695200D01*
X155544000Y-103435200D02*
X154844000Y-103435200D01*
X155694000Y-101845200D02*
X155694000Y-102345200D01*
X155694000Y-102785200D02*
X155694000Y-103285200D01*
X154694000Y-101845200D02*
G75*
G02*
X154844000Y-101695200I150000J0D01*
G01*
X154844000Y-103435200D02*
G75*
G02*
X154694000Y-103285200I0J150000D01*
G01*
X155544000Y-101695200D02*
G75*
G02*
X155694000Y-101845200I0J-150000D01*
G01*
X155694000Y-103285200D02*
G75*
G02*
X155544000Y-103435200I-150000J0D01*
G01*
D11*
X154974000Y-102065200D02*
G75*
G02*
X154914000Y-102065200I-30000J0D01*
G01*
X154914000Y-102065200D02*
G75*
G02*
X154974000Y-102065200I30000J0D01*
G01*
%TO.C,R13*%
D10*
X144686400Y-91312800D02*
X145686400Y-91312800D01*
X144686400Y-92022800D02*
X144686400Y-91312800D01*
X144686400Y-92482800D02*
X144686400Y-93192800D01*
X144686400Y-93192800D02*
X145686400Y-93192800D01*
X145686400Y-91312800D02*
X145686400Y-92022800D01*
X145686400Y-93192800D02*
X145686400Y-92482800D01*
D11*
X144966400Y-91752800D02*
G75*
G02*
X144906400Y-91752800I-30000J0D01*
G01*
X144906400Y-91752800D02*
G75*
G02*
X144966400Y-91752800I30000J0D01*
G01*
%TO.C,R14*%
D10*
X148920000Y-109329600D02*
X149630000Y-109329600D01*
X148920000Y-110329600D02*
X148920000Y-109329600D01*
X149630000Y-110329600D02*
X148920000Y-110329600D01*
X150090000Y-110329600D02*
X150800000Y-110329600D01*
X150800000Y-109329600D02*
X150090000Y-109329600D01*
X150800000Y-110329600D02*
X150800000Y-109329600D01*
D11*
X149390000Y-110079600D02*
G75*
G02*
X149330000Y-110079600I-30000J0D01*
G01*
X149330000Y-110079600D02*
G75*
G02*
X149390000Y-110079600I30000J0D01*
G01*
%TO.C,R3*%
D10*
X151188800Y-94970400D02*
X152188800Y-94970400D01*
X151188800Y-95680400D02*
X151188800Y-94970400D01*
X151188800Y-96140400D02*
X151188800Y-96850400D01*
X151188800Y-96850400D02*
X152188800Y-96850400D01*
X152188800Y-94970400D02*
X152188800Y-95680400D01*
X152188800Y-96850400D02*
X152188800Y-96140400D01*
D11*
X151468800Y-95410400D02*
G75*
G02*
X151408800Y-95410400I-30000J0D01*
G01*
X151408800Y-95410400D02*
G75*
G02*
X151468800Y-95410400I30000J0D01*
G01*
%TO.C,C1*%
D10*
X146145200Y-92145600D02*
X146145200Y-91445600D01*
X146295200Y-91295600D02*
X146795200Y-91295600D01*
X146795200Y-92295600D02*
X146295200Y-92295600D01*
X147235200Y-91295600D02*
X147735200Y-91295600D01*
X147735200Y-92295600D02*
X147235200Y-92295600D01*
X147885200Y-91445600D02*
X147885200Y-92145600D01*
X146145200Y-91445600D02*
G75*
G02*
X146295200Y-91295600I150000J0D01*
G01*
X146295200Y-92295600D02*
G75*
G02*
X146145200Y-92145600I0J150000D01*
G01*
X147735200Y-91295600D02*
G75*
G02*
X147885200Y-91445600I0J-150000D01*
G01*
X147885200Y-92145600D02*
G75*
G02*
X147735200Y-92295600I-150000J0D01*
G01*
D11*
X147545200Y-91545600D02*
G75*
G02*
X147485200Y-91545600I-30000J0D01*
G01*
X147485200Y-91545600D02*
G75*
G02*
X147545200Y-91545600I30000J0D01*
G01*
%TO.C,C15*%
D10*
X138488800Y-104580400D02*
X138488800Y-104080400D01*
X138488800Y-105520400D02*
X138488800Y-105020400D01*
X138638800Y-103930400D02*
X139338800Y-103930400D01*
X139338800Y-105670400D02*
X138638800Y-105670400D01*
X139488800Y-104080400D02*
X139488800Y-104580400D01*
X139488800Y-105020400D02*
X139488800Y-105520400D01*
X138488800Y-104080400D02*
G75*
G02*
X138638800Y-103930400I150000J0D01*
G01*
X138638800Y-105670400D02*
G75*
G02*
X138488800Y-105520400I0J150000D01*
G01*
X139338800Y-103930400D02*
G75*
G02*
X139488800Y-104080400I0J-150000D01*
G01*
X139488800Y-105520400D02*
G75*
G02*
X139338800Y-105670400I-150000J0D01*
G01*
D11*
X139268800Y-105300400D02*
G75*
G02*
X139208800Y-105300400I-30000J0D01*
G01*
X139208800Y-105300400D02*
G75*
G02*
X139268800Y-105300400I30000J0D01*
G01*
%TO.C,C4*%
D10*
X146921600Y-96908000D02*
X146921600Y-96408000D01*
X146921600Y-97848000D02*
X146921600Y-97348000D01*
X147071600Y-96258000D02*
X147771600Y-96258000D01*
X147771600Y-97998000D02*
X147071600Y-97998000D01*
X147921600Y-96408000D02*
X147921600Y-96908000D01*
X147921600Y-97348000D02*
X147921600Y-97848000D01*
X146921600Y-96408000D02*
G75*
G02*
X147071600Y-96258000I150000J0D01*
G01*
X147071600Y-97998000D02*
G75*
G02*
X146921600Y-97848000I0J150000D01*
G01*
X147771600Y-96258000D02*
G75*
G02*
X147921600Y-96408000I0J-150000D01*
G01*
X147921600Y-97848000D02*
G75*
G02*
X147771600Y-97998000I-150000J0D01*
G01*
D11*
X147701600Y-97628000D02*
G75*
G02*
X147641600Y-97628000I-30000J0D01*
G01*
X147641600Y-97628000D02*
G75*
G02*
X147701600Y-97628000I30000J0D01*
G01*
%TO.C,D1*%
D10*
X149183600Y-92175600D02*
X149183600Y-93955600D01*
X152263600Y-92175600D02*
X152263600Y-93955600D01*
D11*
X152213600Y-91665600D02*
G75*
G02*
X152153600Y-91665600I-30000J0D01*
G01*
X152153600Y-91665600D02*
G75*
G02*
X152213600Y-91665600I30000J0D01*
G01*
D12*
X152543600Y-91765600D02*
G75*
G02*
X152243600Y-91765600I-150000J0D01*
G01*
X152243600Y-91765600D02*
G75*
G02*
X152543600Y-91765600I150000J0D01*
G01*
%TO.C,R5*%
D10*
X143448800Y-84854000D02*
X143448800Y-85564000D01*
X143448800Y-86734000D02*
X143448800Y-86024000D01*
X144448800Y-84854000D02*
X143448800Y-84854000D01*
X144448800Y-85564000D02*
X144448800Y-84854000D01*
X144448800Y-86024000D02*
X144448800Y-86734000D01*
X144448800Y-86734000D02*
X143448800Y-86734000D01*
D11*
X144228800Y-86294000D02*
G75*
G02*
X144168800Y-86294000I-30000J0D01*
G01*
X144168800Y-86294000D02*
G75*
G02*
X144228800Y-86294000I30000J0D01*
G01*
%TO.C,C2*%
D10*
X138391700Y-87562400D02*
X138391700Y-87062400D01*
X138391700Y-88502400D02*
X138391700Y-88002400D01*
X138541700Y-86912400D02*
X139241700Y-86912400D01*
X139241700Y-88652400D02*
X138541700Y-88652400D01*
X139391700Y-87062400D02*
X139391700Y-87562400D01*
X139391700Y-88002400D02*
X139391700Y-88502400D01*
X138391700Y-87062400D02*
G75*
G02*
X138541700Y-86912400I150000J0D01*
G01*
X138541700Y-88652400D02*
G75*
G02*
X138391700Y-88502400I0J150000D01*
G01*
X139241700Y-86912400D02*
G75*
G02*
X139391700Y-87062400I0J-150000D01*
G01*
X139391700Y-88502400D02*
G75*
G02*
X139241700Y-88652400I-150000J0D01*
G01*
D11*
X139171700Y-88282400D02*
G75*
G02*
X139111700Y-88282400I-30000J0D01*
G01*
X139111700Y-88282400D02*
G75*
G02*
X139171700Y-88282400I30000J0D01*
G01*
%TO.C,SW2*%
D13*
X136168000Y-98126800D02*
X136538000Y-98126800D01*
X136168000Y-102126800D02*
X136168000Y-98126800D01*
X136538000Y-102126800D02*
X136168000Y-102126800D01*
X138798000Y-98126800D02*
X139168000Y-98126800D01*
X139168000Y-98126800D02*
X139168000Y-102126800D01*
X139168000Y-102126800D02*
X138798000Y-102126800D01*
D11*
X139198000Y-102626800D02*
G75*
G02*
X139138000Y-102626800I-30000J0D01*
G01*
X139138000Y-102626800D02*
G75*
G02*
X139198000Y-102626800I30000J0D01*
G01*
%TO.C,U1*%
D10*
X140577200Y-85795200D02*
X142277200Y-85795200D01*
X140577200Y-88855200D02*
X142277200Y-88855200D01*
X142277200Y-87805200D02*
X142277200Y-86845200D01*
D11*
X140087200Y-85905200D02*
G75*
G02*
X140027200Y-85905200I-30000J0D01*
G01*
X140027200Y-85905200D02*
G75*
G02*
X140087200Y-85905200I30000J0D01*
G01*
D12*
X140437200Y-85675200D02*
G75*
G02*
X140137200Y-85675200I-150000J0D01*
G01*
X140137200Y-85675200D02*
G75*
G02*
X140437200Y-85675200I150000J0D01*
G01*
%TO.C,C5*%
D10*
X141770000Y-95959600D02*
X141770000Y-95459600D01*
X141770000Y-96899600D02*
X141770000Y-96399600D01*
X141920000Y-95309600D02*
X142620000Y-95309600D01*
X142620000Y-97049600D02*
X141920000Y-97049600D01*
X142770000Y-95459600D02*
X142770000Y-95959600D01*
X142770000Y-96399600D02*
X142770000Y-96899600D01*
X141770000Y-95459600D02*
G75*
G02*
X141920000Y-95309600I150000J0D01*
G01*
X141920000Y-97049600D02*
G75*
G02*
X141770000Y-96899600I0J150000D01*
G01*
X142620000Y-95309600D02*
G75*
G02*
X142770000Y-95459600I0J-150000D01*
G01*
X142770000Y-96899600D02*
G75*
G02*
X142620000Y-97049600I-150000J0D01*
G01*
D11*
X142050000Y-95679600D02*
G75*
G02*
X141990000Y-95679600I-30000J0D01*
G01*
X141990000Y-95679600D02*
G75*
G02*
X142050000Y-95679600I30000J0D01*
G01*
%TO.C,C21*%
D10*
X142298800Y-102091200D02*
X142298800Y-101591200D01*
X142298800Y-103031200D02*
X142298800Y-102531200D01*
X142448800Y-101441200D02*
X143148800Y-101441200D01*
X143148800Y-103181200D02*
X142448800Y-103181200D01*
X143298800Y-101591200D02*
X143298800Y-102091200D01*
X143298800Y-102531200D02*
X143298800Y-103031200D01*
X142298800Y-101591200D02*
G75*
G02*
X142448800Y-101441200I150000J0D01*
G01*
X142448800Y-103181200D02*
G75*
G02*
X142298800Y-103031200I0J150000D01*
G01*
X143148800Y-101441200D02*
G75*
G02*
X143298800Y-101591200I0J-150000D01*
G01*
X143298800Y-103031200D02*
G75*
G02*
X143148800Y-103181200I-150000J0D01*
G01*
D11*
X143078800Y-102811200D02*
G75*
G02*
X143018800Y-102811200I-30000J0D01*
G01*
X143018800Y-102811200D02*
G75*
G02*
X143078800Y-102811200I30000J0D01*
G01*
%TO.C,R9*%
D10*
X139467600Y-99136000D02*
X140467600Y-99136000D01*
X139467600Y-99846000D02*
X139467600Y-99136000D01*
X139467600Y-100306000D02*
X139467600Y-101016000D01*
X139467600Y-101016000D02*
X140467600Y-101016000D01*
X140467600Y-99136000D02*
X140467600Y-99846000D01*
X140467600Y-101016000D02*
X140467600Y-100306000D01*
D11*
X139747600Y-99576000D02*
G75*
G02*
X139687600Y-99576000I-30000J0D01*
G01*
X139687600Y-99576000D02*
G75*
G02*
X139747600Y-99576000I30000J0D01*
G01*
%TO.C,D2*%
D10*
X146691600Y-93484800D02*
X146891600Y-93484800D01*
X146691600Y-94834800D02*
X148151600Y-94834800D01*
X146691600Y-95234800D02*
X146691600Y-93484800D01*
X148151600Y-93484800D02*
X147941600Y-93484800D01*
X148151600Y-95234800D02*
X148151600Y-93484800D01*
D11*
X148101600Y-95614800D02*
G75*
G02*
X148041600Y-95614800I-30000J0D01*
G01*
X148041600Y-95614800D02*
G75*
G02*
X148101600Y-95614800I30000J0D01*
G01*
D14*
G36*
X146971715Y-95464579D02*
G01*
X146619290Y-95464579D01*
X146619290Y-95159805D01*
X146971715Y-95159805D01*
X146971715Y-95464579D01*
G37*
G36*
X148224138Y-95464579D02*
G01*
X147871739Y-95464579D01*
X147871739Y-95159805D01*
X148224138Y-95159805D01*
X148224138Y-95464579D01*
G37*
%TO.C,U3*%
D10*
X145527842Y-103490400D02*
X145527842Y-103990399D01*
X145527842Y-108650400D02*
X145527842Y-108150401D01*
X146027841Y-103490400D02*
X145527842Y-103490400D01*
X146027841Y-103490400D02*
X145527842Y-103990399D01*
X146027841Y-108650400D02*
X145527842Y-108650400D01*
X150187843Y-103490400D02*
X150687842Y-103490400D01*
X150187843Y-108650400D02*
X150687842Y-108650400D01*
X150687842Y-103490400D02*
X150687842Y-103990399D01*
X150687842Y-108650400D02*
X150687842Y-108150401D01*
D15*
X145307842Y-103770400D02*
G75*
G02*
X145107842Y-103770400I-100000J0D01*
G01*
X145107842Y-103770400D02*
G75*
G02*
X145307842Y-103770400I100000J0D01*
G01*
D11*
X145637842Y-103570400D02*
G75*
G02*
X145577842Y-103570400I-30000J0D01*
G01*
X145577842Y-103570400D02*
G75*
G02*
X145637842Y-103570400I30000J0D01*
G01*
D14*
G36*
X146007846Y-103513712D02*
G01*
X145531647Y-103989911D01*
X145531647Y-103570406D01*
X146007847Y-103494205D01*
X146007846Y-103513712D01*
G37*
%TO.C,R2*%
D10*
X148039200Y-91312800D02*
X149039200Y-91312800D01*
X148039200Y-92022800D02*
X148039200Y-91312800D01*
X148039200Y-92482800D02*
X148039200Y-93192800D01*
X148039200Y-93192800D02*
X149039200Y-93192800D01*
X149039200Y-91312800D02*
X149039200Y-92022800D01*
X149039200Y-93192800D02*
X149039200Y-92482800D01*
D11*
X148319200Y-91752800D02*
G75*
G02*
X148259200Y-91752800I-30000J0D01*
G01*
X148259200Y-91752800D02*
G75*
G02*
X148319200Y-91752800I30000J0D01*
G01*
%TO.C,R7*%
D10*
X139592800Y-92684400D02*
X139592800Y-93394400D01*
X139592800Y-94564400D02*
X139592800Y-93854400D01*
X140592800Y-92684400D02*
X139592800Y-92684400D01*
X140592800Y-93394400D02*
X140592800Y-92684400D01*
X140592800Y-93854400D02*
X140592800Y-94564400D01*
X140592800Y-94564400D02*
X139592800Y-94564400D01*
D11*
X140372800Y-94124400D02*
G75*
G02*
X140312800Y-94124400I-30000J0D01*
G01*
X140312800Y-94124400D02*
G75*
G02*
X140372800Y-94124400I30000J0D01*
G01*
%TO.C,C13*%
D10*
X147988400Y-100262400D02*
X147988400Y-99762401D01*
X147988400Y-101202399D02*
X147988400Y-100702400D01*
X148138401Y-99612400D02*
X148838399Y-99612400D01*
X148838399Y-101352400D02*
X148138401Y-101352400D01*
X148988400Y-99762401D02*
X148988400Y-100262400D01*
X148988400Y-100702400D02*
X148988400Y-101202399D01*
X147988400Y-99762401D02*
G75*
G02*
X148138401Y-99612400I150002J-1D01*
G01*
X148138401Y-101352400D02*
G75*
G02*
X147988400Y-101202399I-1J150000D01*
G01*
X148838399Y-99612400D02*
G75*
G02*
X148988400Y-99762401I-1J-150002D01*
G01*
X148988400Y-101202399D02*
G75*
G02*
X148838399Y-101352400I-150000J-1D01*
G01*
D11*
X148268400Y-99982400D02*
G75*
G02*
X148208400Y-99982400I-30000J0D01*
G01*
X148208400Y-99982400D02*
G75*
G02*
X148268400Y-99982400I30000J0D01*
G01*
%TO.C,L3*%
D10*
X136090000Y-104054000D02*
X136240000Y-103904000D01*
X136090000Y-104754000D02*
X136090000Y-104054000D01*
X136240000Y-103904000D02*
X137030000Y-103904000D01*
X136240000Y-104904000D02*
X136090000Y-104754000D01*
X137030000Y-104904000D02*
X136240000Y-104904000D01*
X137290000Y-104904000D02*
X138080000Y-104904000D01*
X138070000Y-103904000D02*
X137290000Y-103904000D01*
X138080000Y-104904000D02*
X138230000Y-104754000D01*
X138230000Y-104064000D02*
X138070000Y-103904000D01*
X138230000Y-104754000D02*
X138230000Y-104064000D01*
D11*
X136690000Y-104644000D02*
G75*
G02*
X136630000Y-104644000I-30000J0D01*
G01*
X136630000Y-104644000D02*
G75*
G02*
X136690000Y-104644000I30000J0D01*
G01*
%TO.C,C7*%
D10*
X151174400Y-108198399D02*
X151174400Y-107498401D01*
X151324401Y-107348400D02*
X151824400Y-107348400D01*
X151824400Y-108348400D02*
X151324401Y-108348400D01*
X152264400Y-107348400D02*
X152764399Y-107348400D01*
X152764399Y-108348400D02*
X152264400Y-108348400D01*
X152914400Y-107498401D02*
X152914400Y-108198399D01*
X151174400Y-107498401D02*
G75*
G02*
X151324401Y-107348400I150002J-1D01*
G01*
X151324401Y-108348400D02*
G75*
G02*
X151174400Y-108198399I1J150002D01*
G01*
X152764399Y-107348400D02*
G75*
G02*
X152914400Y-107498401I1J-150000D01*
G01*
X152914400Y-108198399D02*
G75*
G02*
X152764399Y-108348400I-150000J-1D01*
G01*
D11*
X151574400Y-108098400D02*
G75*
G02*
X151514400Y-108098400I-30000J0D01*
G01*
X151514400Y-108098400D02*
G75*
G02*
X151574400Y-108098400I30000J0D01*
G01*
%TO.C,C12*%
D10*
X142349600Y-100110000D02*
X142349600Y-99610001D01*
X142349600Y-101049999D02*
X142349600Y-100550000D01*
X142499601Y-99460000D02*
X143199599Y-99460000D01*
X143199599Y-101200000D02*
X142499601Y-101200000D01*
X143349600Y-99610001D02*
X143349600Y-100110000D01*
X143349600Y-100550000D02*
X143349600Y-101049999D01*
X142349600Y-99610001D02*
G75*
G02*
X142499601Y-99460000I150002J-1D01*
G01*
X142499601Y-101200000D02*
G75*
G02*
X142349600Y-101049999I-1J150000D01*
G01*
X143199599Y-99460000D02*
G75*
G02*
X143349600Y-99610001I-1J-150002D01*
G01*
X143349600Y-101049999D02*
G75*
G02*
X143199599Y-101200000I-150000J-1D01*
G01*
D11*
X142629600Y-99830000D02*
G75*
G02*
X142569600Y-99830000I-30000J0D01*
G01*
X142569600Y-99830000D02*
G75*
G02*
X142629600Y-99830000I30000J0D01*
G01*
%TO.C,SW1*%
D13*
X136218800Y-89948000D02*
X136588800Y-89948000D01*
X136218800Y-93948000D02*
X136218800Y-89948000D01*
X136588800Y-93948000D02*
X136218800Y-93948000D01*
X138848800Y-89948000D02*
X139218800Y-89948000D01*
X139218800Y-89948000D02*
X139218800Y-93948000D01*
X139218800Y-93948000D02*
X138848800Y-93948000D01*
D11*
X139248800Y-94448000D02*
G75*
G02*
X139188800Y-94448000I-30000J0D01*
G01*
X139188800Y-94448000D02*
G75*
G02*
X139248800Y-94448000I30000J0D01*
G01*
%TO.C,C11*%
D10*
X151174400Y-106979199D02*
X151174400Y-106279201D01*
X151324401Y-106129200D02*
X151824400Y-106129200D01*
X151824400Y-107129200D02*
X151324401Y-107129200D01*
X152264400Y-106129200D02*
X152764399Y-106129200D01*
X152764399Y-107129200D02*
X152264400Y-107129200D01*
X152914400Y-106279201D02*
X152914400Y-106979199D01*
X151174400Y-106279201D02*
G75*
G02*
X151324401Y-106129200I150000J1D01*
G01*
X151324401Y-107129200D02*
G75*
G02*
X151174400Y-106979199I-1J150000D01*
G01*
X152764399Y-106129200D02*
G75*
G02*
X152914400Y-106279201I-1J-150002D01*
G01*
X152914400Y-106979199D02*
G75*
G02*
X152764399Y-107129200I-150002J1D01*
G01*
D11*
X152574400Y-106379200D02*
G75*
G02*
X152514400Y-106379200I-30000J0D01*
G01*
X152514400Y-106379200D02*
G75*
G02*
X152574400Y-106379200I30000J0D01*
G01*
%TO.C,C20*%
D10*
X141130400Y-102091200D02*
X141130400Y-101591200D01*
X141130400Y-103031200D02*
X141130400Y-102531200D01*
X141280400Y-101441200D02*
X141980400Y-101441200D01*
X141980400Y-103181200D02*
X141280400Y-103181200D01*
X142130400Y-101591200D02*
X142130400Y-102091200D01*
X142130400Y-102531200D02*
X142130400Y-103031200D01*
X141130400Y-101591200D02*
G75*
G02*
X141280400Y-101441200I150000J0D01*
G01*
X141280400Y-103181200D02*
G75*
G02*
X141130400Y-103031200I0J150000D01*
G01*
X141980400Y-101441200D02*
G75*
G02*
X142130400Y-101591200I0J-150000D01*
G01*
X142130400Y-103031200D02*
G75*
G02*
X141980400Y-103181200I-150000J0D01*
G01*
D11*
X141910400Y-102811200D02*
G75*
G02*
X141850400Y-102811200I-30000J0D01*
G01*
X141850400Y-102811200D02*
G75*
G02*
X141910400Y-102811200I30000J0D01*
G01*
%TO.C,X1*%
D10*
X143498600Y-100261800D02*
X143498600Y-101921800D01*
X143498600Y-101921800D02*
X145358600Y-101921800D01*
X143728600Y-98331800D02*
X147788600Y-98331800D01*
X143728600Y-101691800D02*
X143728600Y-98331800D01*
X147788600Y-98331800D02*
X147788600Y-101691800D01*
X147788600Y-101691800D02*
X143728600Y-101691800D01*
D11*
X144188600Y-101261800D02*
G75*
G02*
X144128600Y-101261800I-30000J0D01*
G01*
X144128600Y-101261800D02*
G75*
G02*
X144188600Y-101261800I30000J0D01*
G01*
%TO.C,R12*%
D10*
X146938800Y-110548800D02*
X147648800Y-110548800D01*
X146938800Y-111548800D02*
X146938800Y-110548800D01*
X147648800Y-111548800D02*
X146938800Y-111548800D01*
X148108800Y-111548800D02*
X148818800Y-111548800D01*
X148818800Y-110548800D02*
X148108800Y-110548800D01*
X148818800Y-111548800D02*
X148818800Y-110548800D01*
D11*
X147408800Y-111298800D02*
G75*
G02*
X147348800Y-111298800I-30000J0D01*
G01*
X147348800Y-111298800D02*
G75*
G02*
X147408800Y-111298800I30000J0D01*
G01*
%TO.C,U2*%
D10*
X143849200Y-94624400D02*
X145609200Y-94624400D01*
X143849200Y-96624400D02*
X143849200Y-95704400D01*
X143849200Y-97704400D02*
X145609200Y-97704400D01*
X145609200Y-94624400D02*
X145609200Y-95674400D01*
X145609200Y-97704400D02*
X145609200Y-96654400D01*
D11*
X143359200Y-94704400D02*
G75*
G02*
X143299200Y-94704400I-30000J0D01*
G01*
X143299200Y-94704400D02*
G75*
G02*
X143359200Y-94704400I30000J0D01*
G01*
%TO.C,R8*%
D10*
X141632000Y-106637200D02*
X142342000Y-106637200D01*
X141632000Y-107637200D02*
X141632000Y-106637200D01*
X142342000Y-107637200D02*
X141632000Y-107637200D01*
X142802000Y-107637200D02*
X143512000Y-107637200D01*
X143512000Y-106637200D02*
X142802000Y-106637200D01*
X143512000Y-107637200D02*
X143512000Y-106637200D01*
D11*
X142102000Y-107387200D02*
G75*
G02*
X142042000Y-107387200I-30000J0D01*
G01*
X142042000Y-107387200D02*
G75*
G02*
X142102000Y-107387200I30000J0D01*
G01*
%TO.C,C14*%
D10*
X136239200Y-106014000D02*
X136239200Y-105314000D01*
X136389200Y-105164000D02*
X136889200Y-105164000D01*
X136889200Y-106164000D02*
X136389200Y-106164000D01*
X137329200Y-105164000D02*
X137829200Y-105164000D01*
X137829200Y-106164000D02*
X137329200Y-106164000D01*
X137979200Y-105314000D02*
X137979200Y-106014000D01*
X136239200Y-105314000D02*
G75*
G02*
X136389200Y-105164000I150000J0D01*
G01*
X136389200Y-106164000D02*
G75*
G02*
X136239200Y-106014000I0J150000D01*
G01*
X137829200Y-105164000D02*
G75*
G02*
X137979200Y-105314000I0J-150000D01*
G01*
X137979200Y-106014000D02*
G75*
G02*
X137829200Y-106164000I-150000J0D01*
G01*
D11*
X137639200Y-105414000D02*
G75*
G02*
X137579200Y-105414000I-30000J0D01*
G01*
X137579200Y-105414000D02*
G75*
G02*
X137639200Y-105414000I30000J0D01*
G01*
%TO.C,C17*%
D10*
X152865200Y-98586000D02*
X152865200Y-98086000D01*
X152865200Y-99526000D02*
X152865200Y-99026000D01*
X153015200Y-97936000D02*
X153715200Y-97936000D01*
X153715200Y-99676000D02*
X153015200Y-99676000D01*
X153865200Y-98086000D02*
X153865200Y-98586000D01*
X153865200Y-99026000D02*
X153865200Y-99526000D01*
X152865200Y-98086000D02*
G75*
G02*
X153015200Y-97936000I150000J0D01*
G01*
X153015200Y-99676000D02*
G75*
G02*
X152865200Y-99526000I0J150000D01*
G01*
X153715200Y-97936000D02*
G75*
G02*
X153865200Y-98086000I0J-150000D01*
G01*
X153865200Y-99526000D02*
G75*
G02*
X153715200Y-99676000I-150000J0D01*
G01*
D11*
X153645200Y-99306000D02*
G75*
G02*
X153585200Y-99306000I-30000J0D01*
G01*
X153585200Y-99306000D02*
G75*
G02*
X153645200Y-99306000I30000J0D01*
G01*
%TO.C,U4*%
D13*
X151357200Y-100709200D02*
X151357200Y-100049200D01*
X151357200Y-103049200D02*
X151357200Y-102389200D01*
X151497200Y-100049200D02*
X151357200Y-100049200D01*
X151517200Y-103049200D02*
X151357200Y-103049200D01*
X154357200Y-100049200D02*
X154217200Y-100049200D01*
X154357200Y-100049200D02*
X154357200Y-100699200D01*
X154357200Y-102399200D02*
X154357200Y-103049200D01*
X154357200Y-103049200D02*
X154197200Y-103049200D01*
X153927200Y-99629200D02*
G75*
G02*
X153787200Y-99629200I-70000J0D01*
G01*
X153787200Y-99629200D02*
G75*
G02*
X153927200Y-99629200I70000J0D01*
G01*
D11*
X154387200Y-100049200D02*
G75*
G02*
X154327200Y-100049200I-30000J0D01*
G01*
X154327200Y-100049200D02*
G75*
G02*
X154387200Y-100049200I30000J0D01*
G01*
%TO.C,C10*%
D10*
X141674800Y-106521999D02*
X141674800Y-105822001D01*
X141824801Y-105672000D02*
X142324800Y-105672000D01*
X142324800Y-106672000D02*
X141824801Y-106672000D01*
X142764800Y-105672000D02*
X143264799Y-105672000D01*
X143264799Y-106672000D02*
X142764800Y-106672000D01*
X143414800Y-105822001D02*
X143414800Y-106521999D01*
X141674800Y-105822001D02*
G75*
G02*
X141824801Y-105672000I150002J-1D01*
G01*
X141824801Y-106672000D02*
G75*
G02*
X141674800Y-106521999I1J150002D01*
G01*
X143264799Y-105672000D02*
G75*
G02*
X143414800Y-105822001I1J-150000D01*
G01*
X143414800Y-106521999D02*
G75*
G02*
X143264799Y-106672000I-150000J-1D01*
G01*
D11*
X142074800Y-106422000D02*
G75*
G02*
X142014800Y-106422000I-30000J0D01*
G01*
X142014800Y-106422000D02*
G75*
G02*
X142074800Y-106422000I30000J0D01*
G01*
%TO.C,C3*%
D10*
X143398000Y-88418800D02*
X143398000Y-87918800D01*
X143398000Y-89358800D02*
X143398000Y-88858800D01*
X143548000Y-87768800D02*
X144248000Y-87768800D01*
X144248000Y-89508800D02*
X143548000Y-89508800D01*
X144398000Y-87918800D02*
X144398000Y-88418800D01*
X144398000Y-88858800D02*
X144398000Y-89358800D01*
X143398000Y-87918800D02*
G75*
G02*
X143548000Y-87768800I150000J0D01*
G01*
X143548000Y-89508800D02*
G75*
G02*
X143398000Y-89358800I0J150000D01*
G01*
X144248000Y-87768800D02*
G75*
G02*
X144398000Y-87918800I0J-150000D01*
G01*
X144398000Y-89358800D02*
G75*
G02*
X144248000Y-89508800I-150000J0D01*
G01*
D11*
X144178000Y-89138800D02*
G75*
G02*
X144118000Y-89138800I-30000J0D01*
G01*
X144118000Y-89138800D02*
G75*
G02*
X144178000Y-89138800I30000J0D01*
G01*
%TO.C,C9*%
D10*
X141274800Y-105505999D02*
X141274800Y-104806001D01*
X141424801Y-104656000D02*
X141924800Y-104656000D01*
X141924800Y-105656000D02*
X141424801Y-105656000D01*
X142364800Y-104656000D02*
X142864799Y-104656000D01*
X142864799Y-105656000D02*
X142364800Y-105656000D01*
X143014800Y-104806001D02*
X143014800Y-105505999D01*
X141274800Y-104806001D02*
G75*
G02*
X141424801Y-104656000I150002J-1D01*
G01*
X141424801Y-105656000D02*
G75*
G02*
X141274800Y-105505999I1J150002D01*
G01*
X142864799Y-104656000D02*
G75*
G02*
X143014800Y-104806001I1J-150000D01*
G01*
X143014800Y-105505999D02*
G75*
G02*
X142864799Y-105656000I-150000J-1D01*
G01*
D11*
X141674800Y-105406000D02*
G75*
G02*
X141614800Y-105406000I-30000J0D01*
G01*
X141614800Y-105406000D02*
G75*
G02*
X141674800Y-105406000I30000J0D01*
G01*
%TO.C,C6*%
D10*
X137168000Y-95842800D02*
X137168000Y-95342800D01*
X137168000Y-96782800D02*
X137168000Y-96282800D01*
X137318000Y-95192800D02*
X138018000Y-95192800D01*
X138018000Y-96932800D02*
X137318000Y-96932800D01*
X138168000Y-95342800D02*
X138168000Y-95842800D01*
X138168000Y-96282800D02*
X138168000Y-96782800D01*
X137168000Y-95342800D02*
G75*
G02*
X137318000Y-95192800I150000J0D01*
G01*
X137318000Y-96932800D02*
G75*
G02*
X137168000Y-96782800I0J150000D01*
G01*
X138018000Y-95192800D02*
G75*
G02*
X138168000Y-95342800I0J-150000D01*
G01*
X138168000Y-96782800D02*
G75*
G02*
X138018000Y-96932800I-150000J0D01*
G01*
D11*
X137948000Y-96562800D02*
G75*
G02*
X137888000Y-96562800I-30000J0D01*
G01*
X137888000Y-96562800D02*
G75*
G02*
X137948000Y-96562800I30000J0D01*
G01*
%TO.C,LED1*%
D10*
X140378000Y-84234800D02*
X140528000Y-84074800D01*
X140378000Y-84924800D02*
X140378000Y-84234800D01*
X140528000Y-84074800D02*
X141168000Y-84074800D01*
X140528000Y-85074800D02*
X140378000Y-84924800D01*
X141168000Y-85074800D02*
X140528000Y-85074800D01*
X141548000Y-85074800D02*
X142338000Y-85074800D01*
X142338000Y-84074800D02*
X141548000Y-84074800D01*
X142338000Y-85074800D02*
X142338000Y-84074800D01*
D11*
X141898000Y-84324800D02*
G75*
G02*
X141838000Y-84324800I-30000J0D01*
G01*
X141838000Y-84324800D02*
G75*
G02*
X141898000Y-84324800I30000J0D01*
G01*
D14*
G36*
X140225465Y-84924380D02*
G01*
X140073065Y-84924380D01*
X140073065Y-84231976D01*
X140225465Y-84231976D01*
X140225465Y-84924380D01*
G37*
%TO.C,R6*%
D10*
X138387200Y-84861200D02*
X139387200Y-84861200D01*
X138387200Y-85571200D02*
X138387200Y-84861200D01*
X138387200Y-86031200D02*
X138387200Y-86741200D01*
X138387200Y-86741200D02*
X139387200Y-86741200D01*
X139387200Y-84861200D02*
X139387200Y-85571200D01*
X139387200Y-86741200D02*
X139387200Y-86031200D01*
D11*
X138667200Y-85301200D02*
G75*
G02*
X138607200Y-85301200I-30000J0D01*
G01*
X138607200Y-85301200D02*
G75*
G02*
X138667200Y-85301200I30000J0D01*
G01*
%TO.C,R11*%
D10*
X144805200Y-109329600D02*
X144805200Y-110329600D01*
X144805200Y-110329600D02*
X145515200Y-110329600D01*
X145515200Y-109329600D02*
X144805200Y-109329600D01*
X145975200Y-109329600D02*
X146685200Y-109329600D01*
X146685200Y-109329600D02*
X146685200Y-110329600D01*
X146685200Y-110329600D02*
X145975200Y-110329600D01*
D11*
X146275200Y-109579600D02*
G75*
G02*
X146215200Y-109579600I-30000J0D01*
G01*
X146215200Y-109579600D02*
G75*
G02*
X146275200Y-109579600I30000J0D01*
G01*
%TO.C,R4*%
D10*
X149258400Y-94970400D02*
X150258400Y-94970400D01*
X149258400Y-95680400D02*
X149258400Y-94970400D01*
X149258400Y-96140400D02*
X149258400Y-96850400D01*
X149258400Y-96850400D02*
X150258400Y-96850400D01*
X150258400Y-94970400D02*
X150258400Y-95680400D01*
X150258400Y-96850400D02*
X150258400Y-96140400D01*
D11*
X149538400Y-95410400D02*
G75*
G02*
X149478400Y-95410400I-30000J0D01*
G01*
X149478400Y-95410400D02*
G75*
G02*
X149538400Y-95410400I30000J0D01*
G01*
%TO.C,AE1*%
D13*
X136059200Y-111095600D02*
X136059200Y-107895600D01*
X136859200Y-108815600D02*
X136859200Y-109325600D01*
X136859200Y-109325600D02*
X137359200Y-109325600D01*
X137359200Y-108815600D02*
X136859200Y-108815600D01*
X137359200Y-109325600D02*
X137359200Y-108815600D01*
X138169200Y-107895600D02*
X138159200Y-111255600D01*
D11*
X136339200Y-107975600D02*
G75*
G02*
X136279200Y-107975600I-30000J0D01*
G01*
X136279200Y-107975600D02*
G75*
G02*
X136339200Y-107975600I30000J0D01*
G01*
%TO.C,Q1*%
D13*
X141997200Y-90651200D02*
X142997200Y-90651200D01*
X141997200Y-91511200D02*
X141997200Y-90651200D01*
X141997200Y-93651200D02*
X141997200Y-92791200D01*
X141997200Y-93651200D02*
X142997200Y-93651200D01*
X143397200Y-92461200D02*
X143397200Y-91841200D01*
D11*
X143927200Y-93601200D02*
G75*
G02*
X143867200Y-93601200I-30000J0D01*
G01*
X143867200Y-93601200D02*
G75*
G02*
X143927200Y-93601200I30000J0D01*
G01*
%TO.C,R1*%
D10*
X152357200Y-91109600D02*
X153357200Y-91109600D01*
X152357200Y-91819600D02*
X152357200Y-91109600D01*
X152357200Y-92279600D02*
X152357200Y-92989600D01*
X152357200Y-92989600D02*
X153357200Y-92989600D01*
X153357200Y-91109600D02*
X153357200Y-91819600D01*
X153357200Y-92989600D02*
X153357200Y-92279600D01*
D11*
X152637200Y-91549600D02*
G75*
G02*
X152577200Y-91549600I-30000J0D01*
G01*
X152577200Y-91549600D02*
G75*
G02*
X152637200Y-91549600I30000J0D01*
G01*
%TO.C,USBC1*%
D13*
X146253600Y-82235200D02*
X146253600Y-83715200D01*
X146253600Y-82235200D02*
X155193600Y-82235200D01*
X146253600Y-85945200D02*
X146253600Y-87815200D01*
X155193600Y-82235200D02*
X155193600Y-83715200D01*
X155193600Y-85945200D02*
X155193600Y-87815200D01*
D11*
X146283600Y-90085200D02*
G75*
G02*
X146223600Y-90085200I-30000J0D01*
G01*
X146223600Y-90085200D02*
G75*
G02*
X146283600Y-90085200I30000J0D01*
G01*
%TO.C,C8*%
D10*
X147008800Y-110179599D02*
X147008800Y-109479601D01*
X147158801Y-109329600D02*
X147658800Y-109329600D01*
X147658800Y-110329600D02*
X147158801Y-110329600D01*
X148098800Y-109329600D02*
X148598799Y-109329600D01*
X148598799Y-110329600D02*
X148098800Y-110329600D01*
X148748800Y-109479601D02*
X148748800Y-110179599D01*
X147008800Y-109479601D02*
G75*
G02*
X147158801Y-109329600I150000J1D01*
G01*
X147158801Y-110329600D02*
G75*
G02*
X147008800Y-110179599I-1J150000D01*
G01*
X148598799Y-109329600D02*
G75*
G02*
X148748800Y-109479601I-1J-150002D01*
G01*
X148748800Y-110179599D02*
G75*
G02*
X148598799Y-110329600I-150002J1D01*
G01*
D11*
X148408800Y-109579600D02*
G75*
G02*
X148348800Y-109579600I-30000J0D01*
G01*
X148348800Y-109579600D02*
G75*
G02*
X148408800Y-109579600I30000J0D01*
G01*
%TO.C,C16*%
D10*
X154694000Y-99906800D02*
X154694000Y-99406800D01*
X154694000Y-100846800D02*
X154694000Y-100346800D01*
X154844000Y-99256800D02*
X155544000Y-99256800D01*
X155544000Y-100996800D02*
X154844000Y-100996800D01*
X155694000Y-99406800D02*
X155694000Y-99906800D01*
X155694000Y-100346800D02*
X155694000Y-100846800D01*
X154694000Y-99406800D02*
G75*
G02*
X154844000Y-99256800I150000J0D01*
G01*
X154844000Y-100996800D02*
G75*
G02*
X154694000Y-100846800I0J150000D01*
G01*
X155544000Y-99256800D02*
G75*
G02*
X155694000Y-99406800I0J-150000D01*
G01*
X155694000Y-100846800D02*
G75*
G02*
X155544000Y-100996800I-150000J0D01*
G01*
D11*
X155474000Y-100626800D02*
G75*
G02*
X155414000Y-100626800I-30000J0D01*
G01*
X155414000Y-100626800D02*
G75*
G02*
X155474000Y-100626800I30000J0D01*
G01*
%TD*%
%LPC*%
D16*
%TO.C,C18*%
X155194000Y-102145200D03*
X155194000Y-102985200D03*
%TD*%
D17*
%TO.C,R13*%
X145186400Y-91822800D03*
X145186400Y-92682800D03*
%TD*%
D18*
%TO.C,R14*%
X149430000Y-109829600D03*
X150290000Y-109829600D03*
%TD*%
D17*
%TO.C,R3*%
X151688800Y-95480400D03*
X151688800Y-96340400D03*
%TD*%
D19*
%TO.C,C1*%
X147435200Y-91795600D03*
X146595200Y-91795600D03*
%TD*%
D16*
%TO.C,C15*%
X138988800Y-105220400D03*
X138988800Y-104380400D03*
%TD*%
%TO.C,C4*%
X147421600Y-97548000D03*
X147421600Y-96708000D03*
%TD*%
D20*
%TO.C,D1*%
X151673600Y-91915600D03*
X150723600Y-91915600D03*
X149773600Y-91915600D03*
X149773600Y-94215600D03*
X150723600Y-94215600D03*
X151673600Y-94215600D03*
%TD*%
D17*
%TO.C,R5*%
X143948800Y-86224000D03*
X143948800Y-85364000D03*
%TD*%
D16*
%TO.C,C2*%
X138891700Y-88202400D03*
X138891700Y-87362400D03*
%TD*%
D21*
%TO.C,SW2*%
X136818000Y-100126800D03*
X138518000Y-100126800D03*
D22*
X137668000Y-102326800D03*
X137668000Y-97926800D03*
%TD*%
D23*
%TO.C,U1*%
X140277200Y-86375200D03*
X140277200Y-87325200D03*
X140277200Y-88275200D03*
D24*
X142577200Y-88275200D03*
X142577200Y-86375200D03*
%TD*%
D16*
%TO.C,C5*%
X142270000Y-95759600D03*
X142270000Y-96599600D03*
%TD*%
%TO.C,C21*%
X142798800Y-102731200D03*
X142798800Y-101891200D03*
%TD*%
D17*
%TO.C,R9*%
X139967600Y-99646000D03*
X139967600Y-100506000D03*
%TD*%
D25*
%TO.C,D2*%
X147421600Y-95554800D03*
X147421600Y-93214800D03*
%TD*%
D26*
%TO.C,U3*%
X145627842Y-104320400D03*
X145627842Y-104820400D03*
X145627842Y-105320400D03*
X145627842Y-105820400D03*
X145627842Y-106320400D03*
X145627842Y-106820400D03*
X145627842Y-107320400D03*
X145627842Y-107820400D03*
D27*
X146357842Y-108550400D03*
X146857842Y-108550400D03*
X147357842Y-108550400D03*
X147857842Y-108550400D03*
X148357842Y-108550400D03*
X148857842Y-108550400D03*
X149357842Y-108550400D03*
X149857842Y-108550400D03*
D26*
X150587842Y-107820400D03*
X150587842Y-107320400D03*
X150587842Y-106820400D03*
X150587842Y-106320400D03*
X150587842Y-105820400D03*
X150587842Y-105320400D03*
X150587842Y-104820400D03*
X150587842Y-104320400D03*
D27*
X149857842Y-103590400D03*
X149357842Y-103590400D03*
X148857842Y-103590400D03*
X148357842Y-103590400D03*
X147857842Y-103590400D03*
X147357842Y-103590400D03*
X146857842Y-103590400D03*
X146357842Y-103590400D03*
D28*
X148107842Y-106070400D03*
%TD*%
D17*
%TO.C,R2*%
X148539200Y-91822800D03*
X148539200Y-92682800D03*
%TD*%
%TO.C,R7*%
X140092800Y-94054400D03*
X140092800Y-93194400D03*
%TD*%
D16*
%TO.C,C13*%
X148488400Y-100062400D03*
X148488400Y-100902400D03*
%TD*%
D29*
%TO.C,L3*%
X136740000Y-104394000D03*
X137580000Y-104394000D03*
%TD*%
D19*
%TO.C,C7*%
X151624400Y-107848400D03*
X152464400Y-107848400D03*
%TD*%
D16*
%TO.C,C12*%
X142849600Y-99910000D03*
X142849600Y-100750000D03*
%TD*%
D21*
%TO.C,SW1*%
X136868800Y-91948000D03*
X138568800Y-91948000D03*
D22*
X137718800Y-94148000D03*
X137718800Y-89748000D03*
%TD*%
D19*
%TO.C,C11*%
X152464400Y-106629200D03*
X151624400Y-106629200D03*
%TD*%
D16*
%TO.C,C20*%
X141630400Y-102731200D03*
X141630400Y-101891200D03*
%TD*%
D30*
%TO.C,X1*%
X144658600Y-100861800D03*
X146858600Y-100861800D03*
X146858600Y-99161800D03*
X144658600Y-99161800D03*
%TD*%
D18*
%TO.C,R12*%
X147448800Y-111048800D03*
X148308800Y-111048800D03*
%TD*%
D31*
%TO.C,U2*%
X143489200Y-95214400D03*
X143489200Y-97114400D03*
X145969200Y-96164400D03*
%TD*%
D18*
%TO.C,R8*%
X142142000Y-107137200D03*
X143002000Y-107137200D03*
%TD*%
D19*
%TO.C,C14*%
X137529200Y-105664000D03*
X136689200Y-105664000D03*
%TD*%
D16*
%TO.C,C17*%
X153365200Y-99226000D03*
X153365200Y-98386000D03*
%TD*%
D32*
%TO.C,U4*%
X153857200Y-100199200D03*
X153357200Y-100199200D03*
X152857200Y-100199200D03*
X152357200Y-100199200D03*
X151857200Y-100199200D03*
D33*
X151507200Y-101049200D03*
X151507200Y-101549200D03*
X151507200Y-102049200D03*
D32*
X151857200Y-102899200D03*
X152357200Y-102899200D03*
X152857200Y-102899200D03*
X153357200Y-102899200D03*
X153857200Y-102899200D03*
D33*
X154207200Y-102049200D03*
X154207200Y-101549200D03*
X154207200Y-101049200D03*
%TD*%
D19*
%TO.C,C10*%
X142124800Y-106172000D03*
X142964800Y-106172000D03*
%TD*%
D16*
%TO.C,C3*%
X143898000Y-89058800D03*
X143898000Y-88218800D03*
%TD*%
D19*
%TO.C,C9*%
X141724800Y-105156000D03*
X142564800Y-105156000D03*
%TD*%
D16*
%TO.C,C6*%
X137668000Y-96482800D03*
X137668000Y-95642800D03*
%TD*%
D19*
%TO.C,LED1*%
X141778000Y-84574800D03*
X140938000Y-84574800D03*
%TD*%
D17*
%TO.C,R6*%
X138887200Y-85371200D03*
X138887200Y-86231200D03*
%TD*%
D18*
%TO.C,R11*%
X146175200Y-109829600D03*
X145315200Y-109829600D03*
%TD*%
D17*
%TO.C,R4*%
X149758400Y-95480400D03*
X149758400Y-96340400D03*
%TD*%
D34*
%TO.C,AE1*%
X137109200Y-107995600D03*
X137109200Y-111155600D03*
%TD*%
D35*
%TO.C,Q1*%
X143847200Y-93101200D03*
X143847200Y-91201200D03*
X141547200Y-92151200D03*
%TD*%
D17*
%TO.C,R1*%
X152857200Y-91619600D03*
X152857200Y-92479600D03*
%TD*%
D36*
%TO.C,USBC1*%
X153623600Y-88535200D03*
X147823600Y-88535200D03*
D37*
X146393600Y-89035200D03*
D38*
X146393600Y-84855200D03*
X155053600Y-84855200D03*
D37*
X155053600Y-89035200D03*
D39*
X153923600Y-89795200D03*
D40*
X153123600Y-89795200D03*
D41*
X151973600Y-89795200D03*
X150973600Y-89795200D03*
X150473600Y-89795200D03*
X149473600Y-89795200D03*
D42*
X147523600Y-89795200D03*
X148323600Y-89795200D03*
D41*
X148973600Y-89795200D03*
X149973600Y-89795200D03*
X151473600Y-89795200D03*
X152473600Y-89795200D03*
%TD*%
D19*
%TO.C,C8*%
X148298800Y-109829600D03*
X147458800Y-109829600D03*
%TD*%
D16*
%TO.C,C16*%
X155194000Y-100546800D03*
X155194000Y-99706800D03*
%TD*%
%LPD*%
M02*
