M48
; DRILL file KiCad 10.0.4 date 2026-09-26T12:09:52
; FORMAT={-:-/ absolute / inch / decimal}
; #@! TF.CreationDate,2026-09-26T12:09:52+05:30
; #@! TF.GenerationSoftware,Kicad,Pcbnew,10.0.4
; #@! TF.FileFunction,Plated,1,2,PTH
FMAT,2
INCH
; #@! TA.AperFunction,Plated,PTH,ViaDrill
T1C0.0118
; #@! TA.AperFunction,Plated,PTH,ComponentDrill
T2C0.0315
%
G90
G05
T1
X5.4125Y-3.4395
X5.422Y-3.486
X5.4469Y-4.1575
X5.4495Y-3.7985
X5.478Y-4.038
X5.4865Y-3.844
X5.516Y-3.778
X5.528Y-3.628
X5.5486Y-4.1494
X5.576Y-3.976
X5.6Y-3.736
X5.624Y-3.902
X5.626Y-3.36
X5.6417Y-4.1339
X5.6535Y-4.0669
X5.6661Y-4.3556
X5.6697Y-4.2577
X5.67Y-4.176
X5.692Y-4.1496
X5.6948Y-3.5063
X5.716Y-3.57
X5.7302Y-4.3543
X5.7567Y-3.6396
X5.768Y-4.3677
X5.7769Y-4.148
X5.7769Y-4.204
X5.804Y-4.1209
X5.804Y-4.176
X5.804Y-4.2311
X5.832Y-4.148
X5.832Y-4.204
X5.834Y-3.84
X5.838Y-4.322
X5.846Y-3.902
X5.848Y-3.678
X5.8556Y-3.7231
X5.86Y-4.1209
X5.86Y-4.176
X5.86Y-4.2311
X5.8871Y-4.148
X5.8871Y-4.204
X5.928Y-4.286
X5.932Y-4.048
X5.9337Y-4.009
X5.934Y-3.9775
X5.9483Y-4.082
X5.9822Y-3.9059
X6.011Y-3.7225
X6.016Y-3.988
X6.0296Y-4.15
X6.0321Y-4.198
X6.0332Y-4.2766
X6.04Y-3.844
X6.11Y-3.892
X6.11Y-4.0545
T2
X5.7635Y-3.3486G85X5.7635Y-3.3329
G05
X5.7635Y-3.5191G85X5.7635Y-3.4915
G05
X6.1045Y-3.3486G85X6.1045Y-3.3329
G05
X6.1045Y-3.5191G85X6.1045Y-3.4915
G05
M30
