%TF.GenerationSoftware,KiCad,Pcbnew,10.0.4*%
%TF.CreationDate,2026-09-26T12:09:51+05:30*%
%TF.ProjectId,ESP32_C3_FOB,45535033-325f-4433-935f-464f422e6b69,rev?*%
%TF.SameCoordinates,Original*%
%TF.FileFunction,Legend,Bot*%
%TF.FilePolarity,Positive*%
%FSLAX46Y46*%
G04 Gerber Fmt 4.6, Leading zero omitted, Abs format (unit mm)*
G04 Created by KiCad (PCBNEW 10.0.4) date 2026-09-26 12:09:51*
%MOMM*%
%LPD*%
G01*
G04 APERTURE LIST*
%ADD10C,0.100000*%
%ADD11C,0.150000*%
%ADD12C,0.120000*%
%ADD13C,0.800000*%
%ADD14C,0.600000*%
%ADD15O,1.200000X2.000000*%
%ADD16O,1.200000X1.800000*%
%ADD17R,1.500000X1.500000*%
G04 APERTURE END LIST*
D10*
X137110115Y-86664266D02*
X136348211Y-86664266D01*
X136729163Y-87045219D02*
X136729163Y-86283314D01*
X139599315Y-86613466D02*
X138837411Y-86613466D01*
D11*
X155493943Y-106073371D02*
X155151086Y-106073371D01*
X155322514Y-106673371D02*
X155322514Y-106073371D01*
X154951085Y-106673371D02*
X154951085Y-106073371D01*
X154951085Y-106073371D02*
X154722514Y-106073371D01*
X154722514Y-106073371D02*
X154665371Y-106101942D01*
X154665371Y-106101942D02*
X154636800Y-106130514D01*
X154636800Y-106130514D02*
X154608228Y-106187657D01*
X154608228Y-106187657D02*
X154608228Y-106273371D01*
X154608228Y-106273371D02*
X154636800Y-106330514D01*
X154636800Y-106330514D02*
X154665371Y-106359085D01*
X154665371Y-106359085D02*
X154722514Y-106387657D01*
X154722514Y-106387657D02*
X154951085Y-106387657D01*
X154408228Y-106073371D02*
X154036800Y-106073371D01*
X154036800Y-106073371D02*
X154236800Y-106301942D01*
X154236800Y-106301942D02*
X154151085Y-106301942D01*
X154151085Y-106301942D02*
X154093943Y-106330514D01*
X154093943Y-106330514D02*
X154065371Y-106359085D01*
X154065371Y-106359085D02*
X154036800Y-106416228D01*
X154036800Y-106416228D02*
X154036800Y-106559085D01*
X154036800Y-106559085D02*
X154065371Y-106616228D01*
X154065371Y-106616228D02*
X154093943Y-106644800D01*
X154093943Y-106644800D02*
X154151085Y-106673371D01*
X154151085Y-106673371D02*
X154322514Y-106673371D01*
X154322514Y-106673371D02*
X154379657Y-106644800D01*
X154379657Y-106644800D02*
X154408228Y-106616228D01*
X155493943Y-100942571D02*
X155151086Y-100942571D01*
X155322514Y-101542571D02*
X155322514Y-100942571D01*
X154951085Y-101542571D02*
X154951085Y-100942571D01*
X154951085Y-100942571D02*
X154722514Y-100942571D01*
X154722514Y-100942571D02*
X154665371Y-100971142D01*
X154665371Y-100971142D02*
X154636800Y-100999714D01*
X154636800Y-100999714D02*
X154608228Y-101056857D01*
X154608228Y-101056857D02*
X154608228Y-101142571D01*
X154608228Y-101142571D02*
X154636800Y-101199714D01*
X154636800Y-101199714D02*
X154665371Y-101228285D01*
X154665371Y-101228285D02*
X154722514Y-101256857D01*
X154722514Y-101256857D02*
X154951085Y-101256857D01*
X154036800Y-101542571D02*
X154379657Y-101542571D01*
X154208228Y-101542571D02*
X154208228Y-100942571D01*
X154208228Y-100942571D02*
X154265371Y-101028285D01*
X154265371Y-101028285D02*
X154322514Y-101085428D01*
X154322514Y-101085428D02*
X154379657Y-101114000D01*
X155493943Y-103482571D02*
X155151086Y-103482571D01*
X155322514Y-104082571D02*
X155322514Y-103482571D01*
X154951085Y-104082571D02*
X154951085Y-103482571D01*
X154951085Y-103482571D02*
X154722514Y-103482571D01*
X154722514Y-103482571D02*
X154665371Y-103511142D01*
X154665371Y-103511142D02*
X154636800Y-103539714D01*
X154636800Y-103539714D02*
X154608228Y-103596857D01*
X154608228Y-103596857D02*
X154608228Y-103682571D01*
X154608228Y-103682571D02*
X154636800Y-103739714D01*
X154636800Y-103739714D02*
X154665371Y-103768285D01*
X154665371Y-103768285D02*
X154722514Y-103796857D01*
X154722514Y-103796857D02*
X154951085Y-103796857D01*
X154379657Y-103539714D02*
X154351085Y-103511142D01*
X154351085Y-103511142D02*
X154293943Y-103482571D01*
X154293943Y-103482571D02*
X154151085Y-103482571D01*
X154151085Y-103482571D02*
X154093943Y-103511142D01*
X154093943Y-103511142D02*
X154065371Y-103539714D01*
X154065371Y-103539714D02*
X154036800Y-103596857D01*
X154036800Y-103596857D02*
X154036800Y-103654000D01*
X154036800Y-103654000D02*
X154065371Y-103739714D01*
X154065371Y-103739714D02*
X154408228Y-104082571D01*
X154408228Y-104082571D02*
X154036800Y-104082571D01*
X155493943Y-108613371D02*
X155151086Y-108613371D01*
X155322514Y-109213371D02*
X155322514Y-108613371D01*
X154951085Y-109213371D02*
X154951085Y-108613371D01*
X154951085Y-108613371D02*
X154722514Y-108613371D01*
X154722514Y-108613371D02*
X154665371Y-108641942D01*
X154665371Y-108641942D02*
X154636800Y-108670514D01*
X154636800Y-108670514D02*
X154608228Y-108727657D01*
X154608228Y-108727657D02*
X154608228Y-108813371D01*
X154608228Y-108813371D02*
X154636800Y-108870514D01*
X154636800Y-108870514D02*
X154665371Y-108899085D01*
X154665371Y-108899085D02*
X154722514Y-108927657D01*
X154722514Y-108927657D02*
X154951085Y-108927657D01*
X154093943Y-108813371D02*
X154093943Y-109213371D01*
X154236800Y-108584800D02*
X154379657Y-109013371D01*
X154379657Y-109013371D02*
X154008228Y-109013371D01*
%TO.C,TP3*%
D12*
X153786800Y-107101600D02*
X153786800Y-109001600D01*
X153786800Y-109001600D02*
X155686800Y-109001600D01*
X155686800Y-107101600D02*
X153786800Y-107101600D01*
X155686800Y-109001600D02*
X155686800Y-107101600D01*
%TO.C,TP6*%
X138343600Y-83835200D02*
X138343600Y-85735200D01*
X138343600Y-85735200D02*
X140243600Y-85735200D01*
X140243600Y-83835200D02*
X138343600Y-83835200D01*
X140243600Y-85735200D02*
X140243600Y-83835200D01*
%TO.C,TP5*%
X135752800Y-83835200D02*
X135752800Y-85735200D01*
X135752800Y-85735200D02*
X137652800Y-85735200D01*
X137652800Y-83835200D02*
X135752800Y-83835200D01*
X137652800Y-85735200D02*
X137652800Y-83835200D01*
%TO.C,TP1*%
X153786800Y-101970800D02*
X153786800Y-103870800D01*
X153786800Y-103870800D02*
X155686800Y-103870800D01*
X155686800Y-101970800D02*
X153786800Y-101970800D01*
X155686800Y-103870800D02*
X155686800Y-101970800D01*
%TO.C,TP2*%
X153786800Y-104510800D02*
X153786800Y-106410800D01*
X153786800Y-106410800D02*
X155686800Y-106410800D01*
X155686800Y-104510800D02*
X153786800Y-104510800D01*
X155686800Y-106410800D02*
X155686800Y-104510800D01*
%TO.C,TP4*%
X153786800Y-109641600D02*
X153786800Y-111541600D01*
X153786800Y-111541600D02*
X155686800Y-111541600D01*
X155686800Y-109641600D02*
X153786800Y-109641600D01*
X155686800Y-111541600D02*
X155686800Y-109641600D01*
%TD*%
%LPC*%
D13*
%TO.C,SW2*%
X136818000Y-100126800D03*
X138518000Y-100126800D03*
%TD*%
%TO.C,SW1*%
X136868800Y-91948000D03*
X138568800Y-91948000D03*
%TD*%
D14*
%TO.C,USBC1*%
X153623600Y-88535200D03*
X147823600Y-88535200D03*
D15*
X146393600Y-89035200D03*
D16*
X146393600Y-84855200D03*
X155053600Y-84855200D03*
D15*
X155053600Y-89035200D03*
%TD*%
D17*
%TO.C,TP3*%
X154736800Y-108051600D03*
%TD*%
%TO.C,TP6*%
X139293600Y-84785200D03*
%TD*%
%TO.C,TP5*%
X136702800Y-84785200D03*
%TD*%
%TO.C,TP1*%
X154736800Y-102920800D03*
%TD*%
%TO.C,TP2*%
X154736800Y-105460800D03*
%TD*%
%TO.C,TP4*%
X154736800Y-110591600D03*
%TD*%
%LPD*%
M02*
