#VRML V2.0 utf8
# 3D model generated by kicad-lcsc-manager
# Based on easyeda2kicad.py v1.0.1

Shape{
    appearance Appearance {
        material  Material {
            diffuseColor 0.25098039215686274 0.25098039215686274 0.25098039215686274
            specularColor 0.12549019607843137 0.12549019607843137 0.12549019607843137
            ambientIntensity 0.251
            transparency 0.0
            shininess 0.5
        }
    }
    geometry IndexedFaceSet {
        ccw TRUE
        solid FALSE
        coord DEF co Coordinate {
            point [
                1.376 0.126 1.0, 1.628 0.126 1.0, 1.8839 0.4921 1.0, 0.002 0.374 1.0, -0.1161 0.4921 1.0, -0.372 0.126 1.0, -0.8799 0.4921 1.0, -0.624 0.126 1.0, 0.1201 0.4921 1.0, 0.8839 0.4921 1.0, 0.376 0.126 1.0, 1.002 0.374 1.0, 0.628 0.126 1.0, 0.628 -0.126 1.0, 2.002 0.374 1.0, 2.002 -0.374 1.0, 1.8839 -0.4921 1.0, 1.628 -0.126 1.0, 1.1201 -0.4921 1.0, 1.376 -0.126 1.0, 1.002 -0.374 1.0, -0.372 -0.126 1.0, 0.002 -0.374 1.0, 1.1201 0.4921 1.0, 0.376 -0.126 1.0, 0.1201 -0.4921 1.0, 0.8839 -0.4921 1.0, -0.998 0.374 1.0, -0.998 -0.374 1.0, -0.624 -0.126 1.0, -0.8799 -0.4921 1.0, -0.1161 -0.4921 1.0, 1.628 -0.126 0.0787, 1.9914 -0.315 0.0787, 1.376 -0.126 0.0787, 1.0125 -0.315 0.0787, 1.376 0.126 0.0787, 1.0125 0.315 0.0787, 1.628 0.126 0.0787, 1.9914 0.315 0.0787, 0.628 -0.126 0.0787, 0.9914 -0.315 0.0787, 0.376 -0.126 0.0787, 0.0125 -0.315 0.0787, 0.376 0.126 0.0787, 0.0125 0.315 0.0787, 0.628 0.126 0.0787, 0.9914 0.315 0.0787, -0.372 -0.126 0.0787, -0.0086 -0.315 0.0787, -0.624 -0.126 0.0787, -0.9875 -0.315 0.0787, -0.624 0.126 0.0787, -0.9875 0.315 0.0787, -0.372 0.126 0.0787, -0.0086 0.315 0.0787, -0.9664 0.315 0.0, -0.9664 0.4057 0.0, -0.8799 0.4921 0.0, -0.1161 0.4921 0.0, -0.0297 0.4057 0.0, -0.0297 0.315 0.0, -0.998 -0.374 0.1181, -0.998 0.374 0.1181, -0.8799 -0.4921 0.0, -0.1161 -0.4921 0.0, -0.9664 -0.4057 0.0, -0.9664 -0.315 0.0, -0.0297 -0.315 0.0, -0.0297 -0.4057 0.0, 0.002 -0.374 0.1181, 0.002 0.374 0.1181
            ]
        }
        coordIndex [
            0,1,2,-1,3,4,5,-1,5,4,6,-1,5,6,7,-1,8,3,9,-1,9,3,10,-1,9,10,11,-1,11,10,12,-1,11,12,13,-1,14,2,15,-1,15,2,1,-1,15,1,16,-1,16,1,17,-1,16,17,18,-1,18,17,19,-1,18,19,20,-1,20,19,0,-1,5,21,22,-1,2,23,0,-1,0,23,11,-1,0,11,20,-1,20,11,13,-1,3,5,10,-1,10,5,22,-1,10,22,24,-1,24,22,25,-1,24,25,13,-1,13,25,26,-1,13,26,20,-1,6,27,7,-1,7,27,28,-1,7,28,29,-1,29,28,30,-1,29,30,21,-1,21,30,31,-1,21,31,22,-1,32,33,34,-1,34,33,35,-1,34,35,36,-1,36,35,37,-1,36,37,38,-1,38,37,39,-1,38,39,32,-1,32,39,33,-1,40,41,42,-1,42,41,43,-1,42,43,44,-1,44,43,45,-1,44,45,46,-1,46,45,47,-1,46,47,40,-1,40,47,41,-1,48,49,50,-1,50,49,51,-1,50,51,52,-1,52,51,53,-1,52,53,54,-1,54,53,55,-1,54,55,48,-1,48,55,49,-1,56,57,58,-1,58,59,56,-1,56,59,60,-1,56,60,61,-1,6,4,58,-1,58,4,59,-1,62,28,63,-1,63,28,27,-1,64,65,30,-1,30,65,31,-1,66,67,68,-1,64,66,65,-1,65,66,68,-1,65,68,69,-1,27,6,63,-1,63,6,58,-1,63,58,57,-1,30,28,64,-1,64,28,62,-1,64,62,66,-1,22,31,70,-1,70,31,65,-1,70,65,69,-1,4,3,59,-1,59,3,71,-1,59,71,60,-1,56,61,53,-1,53,61,55,-1,51,49,67,-1,67,49,68,-1,67,66,51,-1,51,66,62,-1,51,62,53,-1,53,62,63,-1,53,63,56,-1,56,63,57,-1,61,60,55,-1,55,60,71,-1,55,71,49,-1,49,71,70,-1,49,70,68,-1,68,70,69,-1,
        ]
    }
}
Shape{
    appearance Appearance {
        material  Material {
            diffuseColor 0.7529411764705882 0.7529411764705882 0.7529411764705882
            specularColor 0.3764705882352941 0.3764705882352941 0.3764705882352941
            ambientIntensity 0.7529
            transparency 0.0
            shininess 0.5
        }
    }
    geometry IndexedFaceSet {
        ccw TRUE
        solid FALSE
        coord DEF co Coordinate {
            point [
                -0.5713 -0.0732 -1.1811, -0.5713 0.0732 -1.1811, -0.4248 -0.0732 -1.1811, -0.4248 0.0732 -1.1811, -0.372 0.126 -0.9843, -0.372 0.126 0.0787, -0.372 -0.126 -0.9843, -0.372 -0.126 0.0787, -0.624 -0.126 -0.9843, -0.624 -0.126 0.0787, -0.624 0.126 -0.9843, -0.624 0.126 0.0787, -0.372 0.126 3.1654, -0.372 0.126 1.0, -0.624 0.126 3.1654, -0.624 0.126 1.0, -0.5713 0.0732 3.3622, -0.5713 -0.0732 3.3622, -0.4248 0.0732 3.3622, -0.4248 -0.0732 3.3622, -0.624 -0.126 3.1654, -0.624 -0.126 1.0, -0.372 -0.126 3.1654, -0.372 -0.126 1.0
            ]
        }
        coordIndex [
            0,1,2,-1,2,1,3,-1,4,5,6,-1,6,5,7,-1,8,9,10,-1,10,9,11,-1,6,7,8,-1,8,7,9,-1,10,11,4,-1,4,11,5,-1,12,13,14,-1,14,13,15,-1,16,17,18,-1,18,17,19,-1,20,21,22,-1,22,21,23,-1,22,23,12,-1,12,23,13,-1,14,15,20,-1,20,15,21,-1,
        ]
    }
}
Shape{
    appearance Appearance {
        material  Material {
            diffuseColor 0.25098039215686274 0.25098039215686274 0.25098039215686274
            specularColor 0.12549019607843137 0.12549019607843137 0.12549019607843137
            ambientIntensity 0.251
            transparency 0.0
            shininess 0.5
        }
    }
    geometry IndexedFaceSet {
        ccw TRUE
        solid FALSE
        coord DEF co Coordinate {
            point [
                0.0336 0.315 0.0, 0.0336 0.4057 0.0, 0.1201 0.4921 0.0, 0.8839 0.4921 0.0, 0.9703 0.4057 0.0, 0.9703 0.315 0.0, 0.1201 0.4921 1.0, 0.8839 0.4921 1.0, 0.1201 -0.4921 0.0, 0.8839 -0.4921 0.0, 0.1201 -0.4921 1.0, 0.8839 -0.4921 1.0, 0.0336 -0.4057 0.0, 0.0336 -0.315 0.0, 0.9703 -0.315 0.0, 0.9703 -0.4057 0.0, 0.002 0.374 1.0, 0.002 0.374 0.1181, 0.002 -0.374 1.0, 0.002 -0.374 0.1181, 1.002 -0.374 1.0, 1.002 -0.374 0.1181, 1.002 0.374 1.0, 1.002 0.374 0.1181, 0.0125 0.315 0.0787, 0.9914 0.315 0.0787, 0.0125 -0.315 0.0787, 0.9914 -0.315 0.0787, 1.0336 0.315 0.0, 1.0336 0.4057 0.0, 1.1201 0.4921 0.0, 1.8839 0.4921 0.0, 1.9703 0.4057 0.0, 1.9703 0.315 0.0, 2.002 0.374 0.1181, 2.002 0.374 1.0, 2.002 -0.374 0.1181, 2.002 -0.374 1.0, 1.1201 0.4921 1.0, 1.8839 0.4921 1.0, 1.1201 -0.4921 0.0, 1.8839 -0.4921 0.0, 1.1201 -0.4921 1.0, 1.8839 -0.4921 1.0, 1.0336 -0.4057 0.0, 1.0336 -0.315 0.0, 1.9703 -0.315 0.0, 1.9703 -0.4057 0.0, 1.0125 0.315 0.0787, 1.9914 0.315 0.0787, 1.0125 -0.315 0.0787, 1.9914 -0.315 0.0787
            ]
        }
        coordIndex [
            0,1,2,-1,2,3,0,-1,0,3,4,-1,0,4,5,-1,6,7,2,-1,2,7,3,-1,8,9,10,-1,10,9,11,-1,12,13,14,-1,8,12,9,-1,9,12,14,-1,9,14,15,-1,16,6,17,-1,17,6,2,-1,17,2,1,-1,10,18,8,-1,8,18,19,-1,8,19,12,-1,20,11,21,-1,21,11,9,-1,21,9,15,-1,7,22,3,-1,3,22,23,-1,3,23,4,-1,0,5,24,-1,24,5,25,-1,26,27,13,-1,13,27,14,-1,13,12,26,-1,26,12,19,-1,26,19,24,-1,24,19,17,-1,24,17,0,-1,0,17,1,-1,5,4,25,-1,25,4,23,-1,25,23,27,-1,27,23,21,-1,27,21,14,-1,14,21,15,-1,28,29,30,-1,30,31,28,-1,28,31,32,-1,28,32,33,-1,34,35,36,-1,36,35,37,-1,38,39,30,-1,30,39,31,-1,40,41,42,-1,42,41,43,-1,44,45,46,-1,40,44,41,-1,41,44,46,-1,41,46,47,-1,22,38,23,-1,23,38,30,-1,23,30,29,-1,42,20,40,-1,40,20,21,-1,40,21,44,-1,37,43,36,-1,36,43,41,-1,36,41,47,-1,39,35,31,-1,31,35,34,-1,31,34,32,-1,28,33,48,-1,48,33,49,-1,50,51,45,-1,45,51,46,-1,45,44,50,-1,50,44,21,-1,50,21,48,-1,48,21,23,-1,48,23,28,-1,28,23,29,-1,33,32,49,-1,49,32,34,-1,49,34,51,-1,51,34,36,-1,51,36,46,-1,46,36,47,-1,
        ]
    }
}
Shape{
    appearance Appearance {
        material  Material {
            diffuseColor 0.7529411764705882 0.7529411764705882 0.7529411764705882
            specularColor 0.3764705882352941 0.3764705882352941 0.3764705882352941
            ambientIntensity 0.7529
            transparency 0.0
            shininess 0.5
        }
    }
    geometry IndexedFaceSet {
        ccw TRUE
        solid FALSE
        coord DEF co Coordinate {
            point [
                0.4287 -0.0732 -1.1811, 0.4287 0.0732 -1.1811, 0.5752 -0.0732 -1.1811, 0.5752 0.0732 -1.1811, 0.628 0.126 -0.9843, 0.628 0.126 0.0787, 0.628 -0.126 -0.9843, 0.628 -0.126 0.0787, 0.376 -0.126 -0.9843, 0.376 -0.126 0.0787, 0.376 0.126 -0.9843, 0.376 0.126 0.0787, 0.628 0.126 3.1654, 0.628 0.126 1.0, 0.376 0.126 3.1654, 0.376 0.126 1.0, 0.4287 0.0732 3.3622, 0.4287 -0.0732 3.3622, 0.5752 0.0732 3.3622, 0.5752 -0.0732 3.3622, 0.376 -0.126 3.1654, 0.376 -0.126 1.0, 0.628 -0.126 3.1654, 0.628 -0.126 1.0, 1.4287 -0.0732 -1.1811, 1.4287 0.0732 -1.1811, 1.5752 -0.0732 -1.1811, 1.5752 0.0732 -1.1811, 1.628 0.126 -0.9843, 1.628 0.126 0.0787, 1.628 -0.126 -0.9843, 1.628 -0.126 0.0787, 1.376 -0.126 -0.9843, 1.376 -0.126 0.0787, 1.376 0.126 -0.9843, 1.376 0.126 0.0787, 1.628 0.126 3.1654, 1.628 0.126 1.0, 1.376 0.126 3.1654, 1.376 0.126 1.0, 1.4287 0.0732 3.3622, 1.4287 -0.0732 3.3622, 1.5752 0.0732 3.3622, 1.5752 -0.0732 3.3622, 1.376 -0.126 3.1654, 1.376 -0.126 1.0, 1.628 -0.126 3.1654, 1.628 -0.126 1.0, -0.372 0.126 -0.9843, -0.4248 0.0732 -1.1811, -0.624 0.126 -0.9843, -0.5713 0.0732 -1.1811, -0.372 -0.126 -0.9843, -0.4248 -0.0732 -1.1811, -0.5713 -0.0732 -1.1811, -0.624 -0.126 -0.9843, -0.372 -0.126 3.1654, -0.4248 -0.0732 3.3622, -0.624 -0.126 3.1654, -0.5713 -0.0732 3.3622, -0.372 0.126 3.1654, -0.4248 0.0732 3.3622, -0.5713 0.0732 3.3622, -0.624 0.126 3.1654
            ]
        }
        coordIndex [
            0,1,2,-1,2,1,3,-1,4,5,6,-1,6,5,7,-1,8,9,10,-1,10,9,11,-1,6,7,8,-1,8,7,9,-1,10,11,4,-1,4,11,5,-1,12,13,14,-1,14,13,15,-1,16,17,18,-1,18,17,19,-1,20,21,22,-1,22,21,23,-1,22,23,12,-1,12,23,13,-1,14,15,20,-1,20,15,21,-1,24,25,26,-1,26,25,27,-1,28,29,30,-1,30,29,31,-1,32,33,34,-1,34,33,35,-1,30,31,32,-1,32,31,33,-1,34,35,28,-1,28,35,29,-1,36,37,38,-1,38,37,39,-1,40,41,42,-1,42,41,43,-1,44,45,46,-1,46,45,47,-1,46,47,36,-1,36,47,37,-1,38,39,44,-1,44,39,45,-1,48,49,50,-1,50,49,51,-1,52,53,48,-1,48,53,49,-1,54,55,51,-1,51,55,50,-1,55,54,52,-1,52,54,53,-1,56,57,58,-1,58,57,59,-1,60,61,56,-1,56,61,57,-1,62,63,59,-1,59,63,58,-1,63,62,60,-1,60,62,61,-1,4,3,10,-1,10,3,1,-1,6,2,4,-1,4,2,3,-1,0,8,1,-1,1,8,10,-1,8,0,6,-1,6,0,2,-1,22,19,20,-1,20,19,17,-1,12,18,22,-1,22,18,19,-1,16,14,17,-1,17,14,20,-1,14,16,12,-1,12,16,18,-1,28,27,34,-1,34,27,25,-1,30,26,28,-1,28,26,27,-1,24,32,25,-1,25,32,34,-1,32,24,30,-1,30,24,26,-1,46,43,44,-1,44,43,41,-1,36,42,46,-1,46,42,43,-1,40,38,41,-1,41,38,44,-1,38,40,36,-1,36,40,42,-1,
        ]
    }
}
Shape{
    appearance Appearance {
        material  Material {
            diffuseColor 0.25098039215686274 0.25098039215686274 0.25098039215686274
            specularColor 0.12549019607843137 0.12549019607843137 0.12549019607843137
            ambientIntensity 0.251
            transparency 0.0
            shininess 0.5
        }
    }
    geometry IndexedFaceSet {
        ccw TRUE
        solid FALSE
        coord DEF co Coordinate {
            point [
                -1.998 -0.006 0.4246, -1.998 -0.006 0.3773, -1.998 -0.0273 0.3773, -1.998 -0.1638 0.3551, -1.998 -0.1807 0.3551, -1.998 -0.1807 0.3708, -1.998 -0.3271 0.1181, -1.998 -0.374 0.1181, -1.998 -0.374 0.2649, -1.998 0.0691 0.383, -1.998 0.0588 0.3743, -1.998 0.0228 0.425, -1.998 0.0228 0.3708, -1.998 0.1196 0.4306, -1.998 0.1114 0.425, -1.998 0.1027 0.4192, -1.998 0.0901 0.4046, -1.998 0.0822 0.3892, -1.998 0.0804 0.3886, -1.998 0.1906 0.4299, -1.998 0.1731 0.4366, -1.998 0.374 1.0, -1.998 0.0228 1.0, -1.998 0.1543 0.4389, -1.998 0.1387 0.4373, -1.998 0.1983 0.425, -1.998 0.374 0.425, -1.998 0.1998 0.4241, -1.998 0.374 0.3708, -1.998 0.2814 0.3708, -1.998 0.278 0.3782, -1.998 0.2689 0.39, -1.998 0.2402 0.4063, -1.998 0.2253 0.4082, -1.998 0.2088 0.4165, -1.998 0.2209 0.4079, -1.998 0.2165 0.4074, -1.998 0.2664 0.3924, -1.998 0.2543 0.4009, -1.998 0.259 0.2952, -1.998 0.2708 0.3053, -1.998 0.374 0.2861, -1.998 0.2453 0.2886, -1.998 0.2795 0.3177, -1.998 0.2849 0.3318, -1.998 0.374 0.3551, -1.998 0.2867 0.3467, -1.998 0.2866 0.3503, -1.998 0.2858 0.3551, -1.998 0.2841 0.3646, -1.998 0.2404 0.2871, -1.998 0.24 0.2861, -1.998 0.2366 0.2789, -1.998 0.374 0.2649, -1.998 0.231 0.272, -1.998 0.2235 0.2664, -1.998 0.0228 0.1181, -1.998 0.0228 0.2649, -1.998 0.1887 0.2649, -1.998 0.374 0.1181, -1.998 0.2148 0.2627, -1.998 0.2201 0.2649, -1.998 0.1952 0.2624, -1.998 0.2044 0.2613, -1.998 0.2058 0.2613, -1.998 0.0228 0.2861, -1.998 0.1688 0.2861, -1.998 0.1689 0.2858, -1.998 0.1734 0.2774, -1.998 0.1792 0.271, -1.998 0.1867 0.2657, -1.998 0.0464 0.3519, -1.998 0.0446 0.3395, -1.998 0.0228 0.3551, -1.998 0.1204 0.3085, -1.998 0.1178 0.3095, -1.998 0.1133 0.3311, -1.998 0.0587 0.3034, -1.998 0.069 0.2947, -1.998 0.1759 0.3247, -1.998 0.1251 0.3512, -1.998 0.1826 0.3307, -1.998 0.1906 0.335, -1.998 0.1227 0.3068, -1.998 0.0511 0.3139, -1.998 0.0463 0.326, -1.998 0.1148 0.3099, -1.998 0.1145 0.3099, -1.998 0.1133 0.3096, -1.998 0.2596 0.3322, -1.998 0.2552 0.3246, -1.998 0.2359 0.3207, -1.998 0.2484 0.3176, -1.998 0.2401 0.3125, -1.998 0.2219 0.3332, -1.998 0.2619 0.3551, -1.998 0.2296 0.3278, -1.998 0.2628 0.3475, -1.998 0.2624 0.3415, -1.998 0.2135 0.3365, -1.998 0.2044 0.3376, -1.998 0.1998 0.3373, -1.998 0.1266 0.2981, -1.998 0.1265 0.2996, -1.998 0.1664 0.303, -1.998 0.1257 0.3025, -1.998 0.1243 0.3051, -1.998 0.1125 0.3095, -1.998 0.0955 0.3095, -1.998 0.0918 0.31, -1.998 0.1177 0.2867, -1.998 0.1202 0.2877, -1.998 0.1227 0.2894, -1.998 0.1236 0.2903, -1.998 0.1252 0.2927, -1.998 0.1262 0.2953, -1.998 0.1667 0.2952, -1.998 0.1664 0.2993, -1.998 0.0805 0.289, -1.998 0.0932 0.2863, -1.998 0.1156 0.2863, -1.998 0.0752 0.3198, -1.998 0.0712 0.3259, -1.998 0.0688 0.3327, -1.998 0.0681 0.3391, -1.998 0.0683 0.3426, -1.998 0.0847 0.3124, -1.998 0.0786 0.3164, -1.998 0.0977 0.3687, -1.998 0.1008 0.3687, -1.998 0.073 0.3551, -1.998 0.0914 0.368, -1.998 0.0702 0.3499, -1.998 0.2617 0.3567, -1.998 0.2584 0.3651, -1.998 0.0737 0.3564, -1.998 0.0788 0.3618, -1.998 0.0848 0.3657, -1.998 0.109 0.3916, -1.998 0.1176 0.4018, -1.998 0.2048 0.3797, -1.998 0.1185 0.4026, -1.998 0.1291 0.41, -1.998 0.199 0.3917, -1.998 0.2545 0.3708, -1.998 0.2074 0.3811, -1.998 0.1012 0.3708, -1.998 0.1031 0.3794, -1.998 0.2159 0.3843, -1.998 0.2249 0.3854, -1.998 0.2289 0.3852, -1.998 0.1904 0.4019, -1.998 0.141 0.4146, -1.998 0.1803 0.4093, -1.998 0.1539 0.4161, -1.998 0.1679 0.4143, -1.998 0.2383 0.3829, -1.998 0.2467 0.3784, -1.998 0.2532 0.3727, -1.998 0.0562 0.3708, -1.998 0.051 0.3635, -1.998 0.0476 0.3551, -1.998 -0.1744 0.3399, -1.998 -0.1638 0.3399, -1.998 -0.1469 0.3399, -1.998 -0.1538 0.3106, -1.998 -0.1538 0.2926, -1.998 -0.1638 0.3106, -1.998 -0.1638 0.2926, -1.998 -0.1729 0.3106, -1.998 -0.1756 0.2926, -1.998 -0.1729 0.3167, -1.998 -0.1744 0.3338, -1.998 -0.1638 0.3167, -1.998 -0.1638 0.3338, -1.998 -0.1538 0.3167, -1.998 -0.1538 0.3338, -1.998 -0.1328 0.3247, -1.998 -0.1397 0.3247, -1.998 -0.1138 0.3551, -1.998 -0.1138 0.3154, -1.998 -0.1206 0.296, -1.998 -0.1224 0.2959, -1.998 -0.1807 0.2861, -1.998 -0.1756 0.2865, -1.998 -0.1638 0.2861, -1.998 -0.1638 0.2865, -1.998 -0.1469 0.2865, -1.998 -0.1214 0.2929, -1.998 -0.1216 0.2929, -1.998 -0.1219 0.2942, -1.998 -0.0739 0.2948, -1.998 -0.0671 0.3551, -1.998 -0.0671 0.2861, -1.998 -0.0765 0.2932, -1.998 -0.077 0.293, -1.998 -0.077 0.3072, -1.998 -0.0758 0.3083, -1.998 -0.075 0.3097, -1.998 -0.0742 0.3118, -1.998 -0.0739 0.3144, -1.998 -0.0742 0.3168, -1.998 -0.0769 0.3072, -1.998 -0.0798 0.2861, -1.998 -0.0787 0.2862, -1.998 -0.077 0.2861, -1.998 -0.077 0.2868, -1.998 -0.0739 0.2879, -1.998 -0.0843 0.2856, -1.998 -0.077 0.2649, -1.998 -0.0881 0.2861, -1.998 -0.1014 0.2649, -1.998 -0.0974 0.3032, -1.998 -0.0987 0.3014, -1.998 -0.0978 0.3173, -1.998 -0.0782 0.3225, -1.998 -0.0802 0.3237, -1.998 -0.077 0.3551, -1.998 -0.075 0.3189, -1.998 -0.0763 0.3207, -1.998 -0.077 0.3214, -1.998 -0.0994 0.2994, -1.998 -0.0997 0.2969, -1.998 -0.1014 0.2861, -1.998 -0.0993 0.2942, -1.998 -0.0985 0.2921, -1.998 -0.0973 0.2903, -1.998 -0.0838 0.325, -1.998 -0.0888 0.3255, -1.998 -0.1014 0.3551, -1.998 -0.0978 0.3238, -1.998 -0.0926 0.3253, -1.998 -0.0954 0.2887, -1.998 -0.0938 0.2877, -1.998 -0.0902 0.2863, -1.998 -0.0881 0.3201, -1.998 -0.0862 0.32, -1.998 -0.0808 0.315, -1.998 -0.0844 0.3195, -1.998 -0.0829 0.3187, -1.998 -0.0809 0.3141, -1.998 -0.0812 0.313, -1.998 -0.0816 0.3121, -1.998 -0.0823 0.3114, -1.998 -0.0847 0.31, -1.998 -0.0925 0.3196, -1.998 -0.0888 0.3081, -1.998 -0.0963 0.3182, -1.998 -0.0914 0.3071, -1.998 -0.0958 0.3046, -1.998 -0.0819 0.3178, -1.998 -0.0813 0.3169, -1.998 -0.081 0.316, -1.998 -0.0807 0.2916, -1.998 -0.0841 0.3033, -1.998 -0.0801 0.3051, -1.998 -0.0849 0.2911, -1.998 -0.0852 0.2911, -1.998 -0.0885 0.3015, -1.998 -0.0886 0.2915, -1.998 -0.0928 0.2963, -1.998 -0.0927 0.2971, -1.998 -0.0904 0.2921, -1.998 -0.091 0.2925, -1.998 -0.0917 0.2932, -1.998 -0.0923 0.294, -1.998 -0.0927 0.295, -1.998 -0.0924 0.2981, -1.998 -0.0919 0.299, -1.998 -0.0911 0.2999, -1.998 -0.2307 0.3708, -1.998 -0.2133 0.3712, -1.998 -0.2057 0.3712, -1.998 -0.193 0.4246, -1.998 -0.2307 0.425, -1.998 -0.1807 0.425, -1.998 -0.1729 0.3712, -1.998 -0.1653 0.3712, -1.998 -0.1638 0.3708, -1.998 -0.1807 0.3858, -1.998 -0.178 0.3858, -1.998 -0.1638 0.425, -1.998 -0.1807 0.4116, -1.998 -0.1856 0.4246, -1.998 -0.1076 0.4185, -1.998 -0.1138 0.425, -1.998 -0.1076 0.4246, -1.998 -0.1014 0.425, -1.998 -0.1014 0.4246, -1.998 -0.1061 0.4014, -1.998 -0.1061 0.3953, -1.998 -0.1138 0.3708, -1.998 -0.087 0.4185, -1.998 -0.087 0.4014, -1.998 -0.1014 0.4185, -1.998 -0.1014 0.4014, -1.998 -0.0801 0.3712, -1.998 -0.077 0.3708, -1.998 -0.1014 0.3708, -1.998 -0.087 0.3953, -1.998 -0.087 0.3773, -1.998 -0.1014 0.3953, -1.998 -0.1014 0.3773, -1.998 -0.1088 0.3773, -1.998 -0.1088 0.3712, -1.998 -0.1014 0.3712, -1.998 -0.0801 0.4246, -1.998 -0.077 0.425, -1.998 -0.0374 0.4039, -1.998 -0.0671 0.379, -1.998 -0.0391 0.4087, -1.998 -0.0415 0.4125, -1.998 -0.0367 0.3973, -1.998 -0.0367 0.3968, -1.998 -0.0643 0.3777, -1.998 -0.0582 0.3766, -1.998 -0.0631 0.4186, -1.998 -0.0568 0.4193, -1.998 -0.0545 0.4192, -1.998 -0.0499 0.4182, -1.998 -0.0694 0.4161, -1.998 -0.0694 0.38, -1.998 -0.0685 0.4166, -1.998 -0.0671 0.4171, -1.998 -0.0457 0.4162, -1.998 -0.0423 0.4134, -1.998 -0.0375 0.3903, -1.998 -0.0392 0.3859, -1.998 -0.0419 0.3821, -1.998 -0.0467 0.3784, -1.998 -0.0506 0.377, -1.998 -0.0556 0.3765, -1.998 -0.0432 0.3808, -1.998 -0.0622 0.425, -1.998 -0.0642 0.4249, -1.998 -0.0671 0.425, -1.998 -0.0671 0.424, -1.998 -0.0694 0.4233, -1.998 -0.0572 0.4255, -1.998 -0.0671 1.0, -1.998 -0.0568 0.4255, -1.998 -0.0318 1.0, -1.998 -0.0524 0.425, -1.998 -0.0318 0.425, -1.998 -0.0443 0.4228, -1.998 -0.05 0.4248, -1.998 -0.0335 0.4129, -1.998 -0.0371 0.4176, -1.998 -0.039 0.4193, -1.998 -0.0286 0.425, -1.998 -0.0309 0.407, -1.998 -0.0318 0.4092, -1.998 -0.0318 0.3848, -1.998 -0.0305 0.3884, -1.998 -0.0286 0.3708, -1.998 -0.0294 0.3969, -1.998 -0.0296 0.4001, -1.998 -0.0456 0.3716, -1.998 -0.0406 0.374, -1.998 -0.0318 0.3708, -1.998 -0.0363 0.3776, -1.998 -0.0358 0.3782, -1.998 -0.0326 0.3828, -1.998 -0.05 0.3708, -1.998 -0.0318 0.3551, -1.998 -0.0514 0.3705, -1.998 -0.0546 0.3703, -1.998 -0.0593 0.3708, -1.998 -0.0694 0.3734, -1.998 -0.0685 0.373, -1.998 -0.0671 0.3708, -1.998 -0.0671 0.3725, -1.998 -0.0628 0.3711, -1.998 -0.0369 0.3047, -1.998 -0.0379 0.3155, -1.998 -0.0356 0.3028, -1.998 -0.0347 0.3004, -1.998 -0.0318 0.2861, -1.998 -0.0354 0.2914, -1.998 -0.0345 0.2937, -1.998 -0.0527 0.3199, -1.998 -0.0504 0.3201, -1.998 -0.0469 0.3092, -1.998 -0.055 0.3252, -1.998 -0.0579 0.3243, -1.998 -0.0601 0.3231, -1.998 -0.0619 0.3214, -1.998 -0.0633 0.3192, -1.998 -0.039 0.3065, -1.998 -0.0418 0.3079, -1.998 -0.0427 0.3185, -1.998 -0.0469 0.3198, -1.998 -0.0397 0.2871, -1.998 -0.0375 0.2886, -1.998 -0.0367 0.2894, -1.998 -0.0582 0.2924, -1.998 -0.058 0.2924, -1.998 -0.0582 0.2865, -1.998 -0.0569 0.2908, -1.998 -0.0548 0.2886, -1.998 -0.0342 0.2967, -1.998 -0.0342 0.2975, -1.998 -0.0379 0.322, -1.998 -0.0397 0.323, -1.998 -0.0448 0.3248, -1.998 -0.0511 0.3255, -1.998 -0.0643 0.3162, -1.998 -0.0648 0.3111, -1.998 -0.0648 0.2865, -1.998 -0.0582 0.3108, -1.998 -0.0579 0.3137, -1.998 -0.0572 0.3161, -1.998 -0.0565 0.3175, -1.998 -0.0554 0.3186, -1.998 -0.0543 0.3193, -1.998 -0.0499 0.2861, -1.998 -0.0498 0.286, -1.998 -0.0671 0.2649, -1.998 -0.0318 0.2649, -1.998 -0.0463 0.2856, -1.998 -0.0424 0.2861, -1.998 -0.0423 0.2861, -1.998 -0.1106 0.3247, -1.998 -0.1031 0.3247, -1.998 -0.1179 0.2861, -1.998 -0.1181 0.2866, -1.998 -0.1138 0.2974, -1.998 -0.1152 0.2797, -1.998 -0.1138 0.2861, -1.998 -0.1138 0.2773, -1.998 -0.1138 0.2773, -1.998 -0.1045 0.2751, -1.998 -0.1045 0.2691, -1.998 -0.1059 0.2746, -1.998 -0.1083 0.2743, -1.998 -0.1099 0.2745, -1.998 -0.1138 0.2698, -1.998 -0.1115 0.2689, -1.998 -0.1138 0.2649, -1.998 -0.1088 0.2686, -1.998 -0.1074 0.2686, -1.998 -0.1114 0.275, -1.998 -0.1126 0.2759, -1.998 -0.1224 0.2808, -1.998 -0.1194 0.2749, -1.998 -0.1638 0.2649, -1.998 -0.1245 0.2861, -1.998 -0.117 0.2719, -1.998 -0.1165 0.2715, -1.998 -0.1142 0.2699, -1.998 -0.3271 0.2649, -1.998 -0.2307 0.1181, -1.998 -0.2307 0.2649, -1.998 -0.1807 0.1181, -1.998 -0.1807 0.2649, -1.998 -0.1638 0.1181, -1.998 -0.1138 0.1181, -1.998 -0.1014 0.1181, -1.998 -0.077 0.1181, -1.998 -0.0671 0.1181, -1.998 -0.0318 0.1181, -1.998 -0.0525 0.287, -1.998 0.0009 0.3399, -1.998 0.0009 0.2865, -1.998 -0.0286 0.2861, -1.998 -0.0286 0.2649, -1.998 -0.0286 0.1181, -1.998 -0.0266 0.3399, -1.998 -0.0286 0.3551, -1.998 -0.0266 0.3338, -1.998 -0.0278 0.2926, -1.998 -0.0278 0.2865, -1.998 -0.006 0.3106, -1.998 -0.006 0.2926, -1.998 -0.0251 0.3106, -1.998 -0.0251 0.3167, -1.998 -0.006 0.3167, -1.998 -0.006 0.3338, -1.998 -0.2277 0.304, -1.998 -0.225 0.2985, -1.998 -0.2307 0.2861, -1.998 -0.2155 0.29, -1.998 -0.2093 0.2876, -1.998 -0.2004 0.2865, -1.998 -0.1857 0.2865, -1.998 -0.1857 0.3399, -1.998 -0.201 0.3399, -1.998 -0.2307 0.3551, -1.998 -0.2097 0.3389, -1.998 -0.2161 0.3364, -1.998 -0.2266 0.3257, -1.998 -0.2285 0.3205, -1.998 -0.2292 0.3139, -1.998 -0.229 0.3102, -1.998 -0.2211 0.294, -1.998 -0.2206 0.2935, -1.998 -0.2211 0.3328, -1.998 -0.2235 0.3305, -1.998 -0.2398 0.2865, -1.998 -0.2322 0.2865, -1.998 -0.2726 0.2865, -1.998 -0.2671 0.3011, -1.998 -0.2449 0.3011, -1.998 -0.2525 0.3399, -1.998 -0.2599 0.3399, -1.998 -0.3271 0.2861, -1.998 -0.2003 0.3858, -1.998 0.0009 0.3712, -1.998 0.0009 0.4246, -1.998 -0.0273 0.3712, -1.998 -0.1336 0.3712, -1.998 -0.1189 0.3712, -1.998 -0.1608 0.3887, -1.998 -0.1581 0.3832, -1.998 -0.1486 0.3746, -1.998 -0.1425 0.3723, -1.998 -0.1189 0.4246, -1.998 -0.1341 0.4246, -1.998 -0.1428 0.4236, -1.998 -0.1492 0.4211, -1.998 -0.1598 0.4104, -1.998 -0.1616 0.4052, -1.998 -0.1623 0.3986, -1.998 -0.1622 0.3949, -1.998 -0.1543 0.3787, -1.998 -0.1538 0.3782, -1.998 -0.1543 0.4175, -1.998 -0.1566 0.4152, -1.998 -0.2802 0.2865, -1.998 -0.3271 0.3551, -1.998 -0.3271 0.3708, -1.998 -0.3271 0.425, -1.998 -0.374 0.2861, -1.998 -0.374 0.3551, -1.998 -0.374 0.3708, -1.998 -0.374 0.425, -1.998 -0.0286 1.0, -1.998 -0.374 1.0, -1.998 -0.3271 1.0, -1.998 -0.2307 1.0, -1.998 -0.1807 1.0, -1.998 -0.1638 1.0, -1.998 -0.1138 1.0, -1.998 -0.1014 1.0, -1.998 -0.077 1.0, -1.372 0.126 1.0, -1.1161 0.4921 1.0, -1.624 0.126 1.0, -1.8799 0.4921 1.0, -1.624 -0.126 1.0, -1.8799 -0.4921 1.0, -1.372 -0.126 1.0, -1.1161 -0.4921 1.0, -0.998 -0.374 1.0, -0.998 0.374 1.0, -1.372 -0.126 0.0787, -1.0086 -0.315 0.0787, -1.624 -0.126 0.0787, -1.9875 -0.315 0.0787, -1.624 0.126 0.0787, -1.9875 0.315 0.0787, -1.372 0.126 0.0787, -1.0086 0.315 0.0787, -1.9664 0.315 0.0, -1.9664 0.4057 0.0, -1.8799 0.4921 0.0, -1.1161 0.4921 0.0, -1.0297 0.4057 0.0, -1.0297 0.315 0.0, -0.998 0.374 0.1181, -0.998 -0.374 0.1181, -1.8799 -0.4921 0.0, -1.1161 -0.4921 0.0, -1.9664 -0.4057 0.0, -1.9664 -0.315 0.0, -1.0297 -0.315 0.0, -1.0297 -0.4057 0.0
            ]
        }
        coordIndex [
            0,1,2,-1,3,4,5,-1,6,7,8,-1,9,10,11,-1,11,10,12,-1,13,14,11,-1,11,14,15,-1,11,15,16,-1,16,17,11,-1,11,17,18,-1,11,18,9,-1,19,20,21,-1,21,20,22,-1,22,20,23,-1,22,23,24,-1,19,21,25,-1,25,21,26,-1,25,26,27,-1,28,29,26,-1,26,29,30,-1,26,30,31,-1,26,32,27,-1,27,32,33,-1,27,33,34,-1,34,33,35,-1,34,35,36,-1,31,37,26,-1,26,37,38,-1,26,38,32,-1,39,40,41,-1,39,41,42,-1,40,43,41,-1,41,43,44,-1,41,44,45,-1,45,44,46,-1,46,47,45,-1,45,47,48,-1,45,48,28,-1,28,48,49,-1,28,49,29,-1,50,42,51,-1,51,42,41,-1,51,41,52,-1,52,41,53,-1,52,53,54,-1,54,53,55,-1,56,57,58,-1,59,60,53,-1,53,60,61,-1,53,61,55,-1,58,62,56,-1,56,62,63,-1,56,63,59,-1,59,63,64,-1,59,64,60,-1,65,66,57,-1,57,66,67,-1,57,67,68,-1,68,69,57,-1,57,69,70,-1,57,70,58,-1,71,72,73,-1,74,75,76,-1,77,78,65,-1,79,80,81,-1,81,80,82,-1,74,76,83,-1,77,65,84,-1,73,72,65,-1,65,72,85,-1,65,85,84,-1,75,86,76,-1,76,86,87,-1,76,87,88,-1,89,90,91,-1,91,90,92,-1,91,92,93,-1,94,95,96,-1,96,95,97,-1,96,97,91,-1,91,97,98,-1,91,98,89,-1,94,99,95,-1,95,99,100,-1,95,100,80,-1,80,100,101,-1,80,101,82,-1,102,103,104,-1,104,103,105,-1,104,105,76,-1,76,105,106,-1,76,106,83,-1,88,107,76,-1,76,107,108,-1,76,108,109,-1,110,111,66,-1,66,111,112,-1,66,112,113,-1,113,114,66,-1,66,114,115,-1,66,115,116,-1,116,115,102,-1,116,102,117,-1,117,102,104,-1,78,118,65,-1,65,118,119,-1,65,119,66,-1,66,119,120,-1,66,120,110,-1,121,122,76,-1,76,122,123,-1,76,123,80,-1,80,123,124,-1,80,124,125,-1,109,126,76,-1,76,126,127,-1,76,127,121,-1,128,129,130,-1,128,130,131,-1,125,132,80,-1,80,132,130,-1,80,130,95,-1,95,130,129,-1,95,129,133,-1,133,129,134,-1,135,136,130,-1,130,136,137,-1,130,137,131,-1,138,139,140,-1,139,141,140,-1,140,141,142,-1,140,142,143,-1,144,140,145,-1,134,129,144,-1,144,129,146,-1,144,146,140,-1,140,146,147,-1,140,147,138,-1,145,148,144,-1,144,148,149,-1,144,149,150,-1,143,142,151,-1,151,142,152,-1,151,152,153,-1,153,152,154,-1,153,154,155,-1,156,157,150,-1,150,157,158,-1,150,158,144,-1,10,159,12,-1,12,159,160,-1,12,160,73,-1,73,160,161,-1,73,161,71,-1,162,4,163,-1,163,4,3,-1,163,3,164,-1,165,166,167,-1,167,166,168,-1,167,168,169,-1,169,168,170,-1,169,170,171,-1,171,170,172,-1,171,172,173,-1,173,172,174,-1,173,174,175,-1,175,174,176,-1,177,178,179,-1,180,181,182,-1,162,172,4,-1,4,172,170,-1,4,170,183,-1,183,170,184,-1,183,184,185,-1,185,184,186,-1,185,186,187,-1,188,189,181,-1,181,189,190,-1,181,190,182,-1,191,192,193,-1,194,195,196,-1,197,198,191,-1,198,199,191,-1,191,199,200,-1,191,200,192,-1,192,200,201,-1,194,196,191,-1,191,196,202,-1,191,202,197,-1,203,204,205,-1,205,204,206,-1,205,206,193,-1,193,206,207,-1,193,207,191,-1,208,209,210,-1,210,209,211,-1,212,213,214,-1,215,216,217,-1,201,218,192,-1,192,218,219,-1,192,219,217,-1,217,219,220,-1,217,220,215,-1,221,222,223,-1,222,224,223,-1,223,224,225,-1,223,225,226,-1,216,227,217,-1,217,227,228,-1,217,228,229,-1,213,221,214,-1,214,221,223,-1,214,223,230,-1,230,223,229,-1,230,229,231,-1,231,229,228,-1,226,232,223,-1,223,232,233,-1,223,233,234,-1,235,236,237,-1,237,236,238,-1,237,238,239,-1,237,240,235,-1,235,240,241,-1,235,241,242,-1,242,243,235,-1,235,243,244,-1,235,244,245,-1,245,244,246,-1,245,246,247,-1,247,246,248,-1,247,248,214,-1,214,248,249,-1,214,249,212,-1,250,251,239,-1,239,251,252,-1,239,252,237,-1,253,254,195,-1,195,254,255,-1,195,255,196,-1,253,256,254,-1,254,256,257,-1,254,257,258,-1,258,257,259,-1,258,260,261,-1,259,262,258,-1,258,262,263,-1,258,263,264,-1,264,265,258,-1,258,265,266,-1,258,266,260,-1,261,267,258,-1,258,267,268,-1,258,268,269,-1,270,271,272,-1,271,270,273,-1,273,270,274,-1,273,274,275,-1,276,277,278,-1,5,279,280,-1,278,277,281,-1,281,277,282,-1,281,282,275,-1,275,282,283,-1,275,283,273,-1,284,285,286,-1,286,285,287,-1,286,287,288,-1,289,290,291,-1,292,293,294,-1,294,293,295,-1,294,295,284,-1,296,297,298,-1,299,300,301,-1,301,300,302,-1,301,302,290,-1,290,302,303,-1,290,303,291,-1,291,303,304,-1,291,304,298,-1,298,304,305,-1,298,305,296,-1,288,287,306,-1,306,287,307,-1,306,307,296,-1,308,309,310,-1,310,309,311,-1,308,312,309,-1,309,312,313,-1,309,313,314,-1,314,313,315,-1,316,317,309,-1,309,317,318,-1,309,318,319,-1,296,307,297,-1,297,307,320,-1,297,320,321,-1,321,320,322,-1,321,322,309,-1,309,322,323,-1,309,323,316,-1,319,324,309,-1,309,324,325,-1,309,325,311,-1,326,327,328,-1,329,330,313,-1,313,330,331,-1,313,331,315,-1,326,328,313,-1,313,328,332,-1,313,332,329,-1,333,334,335,-1,335,334,336,-1,335,336,307,-1,307,336,337,-1,307,337,320,-1,338,339,340,-1,340,339,341,-1,340,341,342,-1,343,344,345,-1,346,347,343,-1,343,347,348,-1,343,348,344,-1,349,350,343,-1,343,350,351,-1,343,351,346,-1,352,353,354,-1,354,353,355,-1,354,355,349,-1,349,355,356,-1,349,356,350,-1,357,358,359,-1,359,358,360,-1,360,361,359,-1,359,361,362,-1,359,362,352,-1,357,359,363,-1,363,359,364,-1,363,364,365,-1,365,364,366,-1,366,364,192,-1,366,192,367,-1,321,368,297,-1,297,368,369,-1,297,369,370,-1,370,369,371,-1,370,371,372,-1,373,374,375,-1,375,374,376,-1,377,378,379,-1,380,381,382,-1,383,384,192,-1,384,385,192,-1,192,385,386,-1,192,386,387,-1,373,388,374,-1,374,388,389,-1,374,389,390,-1,390,389,382,-1,390,382,391,-1,391,382,381,-1,392,393,377,-1,377,393,394,-1,377,394,378,-1,395,396,397,-1,397,396,398,-1,397,398,399,-1,379,400,377,-1,377,400,401,-1,377,401,364,-1,364,401,376,-1,364,376,402,-1,402,376,374,-1,402,403,364,-1,364,403,404,-1,364,404,192,-1,192,404,405,-1,192,405,383,-1,387,406,192,-1,192,406,407,-1,192,407,193,-1,193,407,408,-1,193,408,397,-1,409,410,382,-1,382,410,411,-1,382,411,412,-1,412,413,382,-1,382,413,414,-1,382,414,380,-1,415,416,417,-1,417,416,418,-1,416,419,418,-1,418,419,420,-1,418,420,377,-1,377,420,421,-1,377,421,392,-1,182,177,180,-1,180,177,179,-1,180,179,422,-1,422,179,423,-1,424,425,426,-1,427,428,429,-1,429,428,430,-1,428,223,431,-1,234,210,223,-1,223,210,211,-1,223,211,431,-1,431,211,432,-1,431,433,428,-1,428,433,434,-1,428,434,435,-1,436,437,438,-1,438,437,439,-1,438,439,211,-1,211,439,440,-1,211,440,432,-1,435,441,428,-1,428,441,442,-1,428,442,430,-1,443,444,445,-1,443,445,446,-1,444,447,445,-1,445,447,448,-1,445,448,438,-1,438,448,449,-1,438,449,436,-1,6,450,451,-1,451,450,452,-1,451,452,453,-1,453,452,454,-1,453,454,455,-1,455,454,445,-1,455,445,456,-1,456,445,438,-1,456,438,457,-1,457,438,211,-1,457,211,458,-1,458,211,209,-1,458,209,459,-1,459,209,417,-1,459,417,460,-1,460,417,418,-1,208,203,209,-1,209,203,205,-1,209,205,417,-1,417,205,193,-1,417,193,415,-1,415,193,397,-1,415,397,461,-1,461,397,399,-1,462,73,463,-1,463,73,65,-1,463,65,464,-1,464,65,57,-1,464,57,465,-1,465,57,56,-1,465,56,466,-1,462,467,468,-1,467,469,468,-1,468,469,470,-1,468,470,464,-1,464,470,471,-1,464,471,463,-1,472,473,474,-1,474,473,470,-1,474,470,475,-1,475,470,469,-1,475,469,476,-1,476,469,477,-1,478,479,480,-1,481,482,480,-1,480,482,483,-1,480,483,183,-1,183,483,484,-1,183,484,4,-1,4,484,485,-1,4,485,486,-1,487,488,489,-1,490,491,487,-1,487,491,492,-1,487,492,480,-1,480,492,493,-1,480,493,478,-1,479,494,480,-1,480,494,495,-1,480,495,481,-1,489,496,487,-1,487,496,497,-1,487,497,490,-1,498,499,480,-1,500,501,502,-1,480,499,487,-1,487,499,503,-1,487,503,504,-1,352,354,359,-1,359,354,468,-1,359,468,364,-1,364,468,464,-1,364,464,377,-1,377,464,465,-1,377,465,418,-1,418,465,466,-1,418,466,460,-1,372,367,370,-1,370,367,192,-1,370,192,297,-1,297,192,217,-1,297,217,298,-1,298,217,229,-1,298,229,291,-1,450,505,452,-1,452,505,480,-1,452,480,454,-1,454,480,183,-1,454,183,445,-1,445,183,185,-1,445,185,446,-1,446,185,187,-1,446,187,178,-1,178,187,164,-1,178,164,179,-1,179,164,3,-1,179,3,278,-1,278,3,5,-1,278,5,276,-1,276,5,280,-1,506,279,272,-1,272,279,5,-1,272,5,270,-1,270,5,4,-1,270,4,487,-1,487,4,486,-1,487,486,488,-1,462,468,73,-1,73,468,354,-1,73,354,12,-1,12,354,507,-1,12,507,11,-1,507,508,11,-1,11,508,0,-1,11,0,349,-1,349,0,2,-1,349,2,354,-1,354,2,509,-1,354,509,507,-1,510,511,291,-1,512,513,278,-1,295,289,284,-1,284,289,291,-1,284,291,285,-1,285,291,511,-1,514,515,278,-1,515,510,278,-1,278,510,291,-1,278,291,179,-1,179,291,229,-1,179,229,423,-1,423,229,223,-1,423,223,426,-1,426,223,428,-1,426,428,424,-1,424,428,427,-1,511,516,285,-1,285,516,517,-1,285,517,281,-1,281,517,518,-1,281,518,519,-1,520,521,281,-1,281,521,522,-1,281,522,278,-1,278,522,523,-1,278,523,512,-1,513,524,278,-1,278,524,525,-1,278,525,514,-1,519,526,281,-1,281,526,527,-1,281,527,520,-1,502,498,500,-1,500,498,480,-1,500,480,528,-1,528,480,505,-1,528,505,504,-1,504,505,529,-1,504,529,487,-1,487,529,530,-1,487,530,270,-1,270,530,531,-1,270,531,274,-1,6,8,450,-1,450,8,532,-1,450,532,505,-1,505,532,533,-1,505,533,529,-1,529,533,534,-1,529,534,530,-1,530,534,535,-1,530,535,531,-1,345,342,343,-1,343,342,341,-1,343,341,349,-1,349,341,536,-1,349,536,11,-1,11,536,22,-1,11,22,13,-1,13,22,24,-1,535,537,531,-1,531,537,538,-1,531,538,274,-1,274,538,539,-1,274,539,275,-1,275,539,540,-1,275,540,281,-1,281,540,541,-1,281,541,285,-1,285,541,542,-1,285,542,287,-1,287,542,543,-1,287,543,307,-1,307,543,544,-1,307,544,335,-1,335,544,339,-1,335,339,333,-1,333,339,338,-1,545,546,547,-1,547,546,548,-1,548,21,547,-1,547,21,537,-1,547,537,549,-1,549,537,550,-1,549,550,551,-1,551,550,552,-1,551,552,545,-1,545,552,553,-1,545,553,546,-1,546,553,554,-1,555,556,557,-1,557,556,558,-1,557,558,559,-1,559,558,560,-1,559,560,561,-1,561,560,562,-1,561,562,555,-1,555,562,556,-1,563,564,565,-1,565,566,563,-1,563,566,567,-1,563,567,568,-1,569,554,570,-1,570,554,553,-1,548,546,565,-1,565,546,566,-1,571,572,550,-1,550,572,552,-1,573,574,575,-1,571,573,572,-1,572,573,575,-1,572,575,576,-1,21,548,59,-1,59,548,565,-1,59,565,564,-1,550,537,571,-1,571,537,7,-1,571,7,573,-1,553,552,570,-1,570,552,572,-1,570,572,576,-1,546,554,566,-1,566,554,569,-1,566,569,567,-1,563,568,560,-1,560,568,562,-1,558,556,574,-1,574,556,575,-1,574,573,558,-1,558,573,7,-1,558,7,560,-1,560,7,59,-1,560,59,563,-1,563,59,564,-1,568,567,562,-1,562,567,569,-1,562,569,556,-1,556,569,570,-1,556,570,575,-1,575,570,576,-1,
        ]
    }
}
Shape{
    appearance Appearance {
        material  Material {
            diffuseColor 0.7529411764705882 0.7529411764705882 0.7529411764705882
            specularColor 0.3764705882352941 0.3764705882352941 0.3764705882352941
            ambientIntensity 0.7529
            transparency 0.0
            shininess 0.5
        }
    }
    geometry IndexedFaceSet {
        ccw TRUE
        solid FALSE
        coord DEF co Coordinate {
            point [
                -1.5713 -0.0732 -1.1811, -1.5713 0.0732 -1.1811, -1.4248 -0.0732 -1.1811, -1.4248 0.0732 -1.1811, -1.372 0.126 -0.9843, -1.372 0.126 0.0787, -1.372 -0.126 -0.9843, -1.372 -0.126 0.0787, -1.624 -0.126 -0.9843, -1.624 -0.126 0.0787, -1.624 0.126 -0.9843, -1.624 0.126 0.0787, -1.372 0.126 3.1654, -1.372 0.126 1.0, -1.624 0.126 3.1654, -1.624 0.126 1.0, -1.5713 0.0732 3.3622, -1.5713 -0.0732 3.3622, -1.4248 0.0732 3.3622, -1.4248 -0.0732 3.3622, -1.624 -0.126 3.1654, -1.624 -0.126 1.0, -1.372 -0.126 3.1654, -1.372 -0.126 1.0
            ]
        }
        coordIndex [
            0,1,2,-1,2,1,3,-1,4,5,6,-1,6,5,7,-1,8,9,10,-1,10,9,11,-1,6,7,8,-1,8,7,9,-1,10,11,4,-1,4,11,5,-1,12,13,14,-1,14,13,15,-1,16,17,18,-1,18,17,19,-1,20,21,22,-1,22,21,23,-1,22,23,12,-1,12,23,13,-1,14,15,20,-1,20,15,21,-1,4,3,10,-1,10,3,1,-1,6,2,4,-1,4,2,3,-1,0,8,1,-1,1,8,10,-1,8,0,6,-1,6,0,2,-1,22,19,20,-1,20,19,17,-1,12,18,22,-1,22,18,19,-1,16,14,17,-1,17,14,20,-1,14,16,12,-1,12,16,18,-1,
        ]
    }
}
Shape{
    appearance Appearance {
        material  Material {
            diffuseColor 1.0 1.0 1.0
            specularColor 0.5019607843137255 0.5019607843137255 0.5019607843137255
            ambientIntensity 1.0
            transparency 0.0
            shininess 0.5
        }
    }
    geometry IndexedFaceSet {
        ccw TRUE
        solid FALSE
        coord DEF co Coordinate {
            point [
                -2.002 -0.0273 0.3773, -2.002 -0.0273 0.3712, -1.998 -0.0273 0.3773, -1.998 -0.0273 0.3712, -2.002 -0.006 0.3773, -1.998 -0.006 0.3773, -2.002 -0.006 0.4246, -1.998 -0.006 0.4246, -2.002 0.0009 0.4246, -1.998 0.0009 0.4246, -2.002 0.0009 0.3712, -1.998 0.0009 0.3712, -1.998 -0.0694 0.3734, -2.002 -0.0694 0.3734, -2.002 -0.0685 0.373, -2.002 -0.0546 0.3703, -1.998 -0.0546 0.3703, -2.002 -0.0628 0.3711, -1.998 -0.0593 0.3708, -1.998 -0.0628 0.3711, -1.998 -0.0671 0.3725, -1.998 -0.0685 0.373, -2.002 -0.0694 0.38, -1.998 -0.0694 0.38, -1.998 -0.0671 0.379, -2.002 -0.0643 0.3777, -1.998 -0.0643 0.3777, -1.998 -0.0582 0.3766, -2.002 -0.0582 0.3766, -1.998 -0.0556 0.3765, -2.002 -0.0556 0.3765, -1.998 -0.0506 0.377, -2.002 -0.0506 0.377, -1.998 -0.0467 0.3784, -2.002 -0.0467 0.3784, -1.998 -0.0432 0.3808, -2.002 -0.0432 0.3808, -1.998 -0.0419 0.3821, -2.002 -0.0419 0.3821, -1.998 -0.0392 0.3859, -2.002 -0.0392 0.3859, -1.998 -0.0375 0.3903, -2.002 -0.0375 0.3903, -1.998 -0.0367 0.3968, -2.002 -0.0367 0.3968, -1.998 -0.0367 0.3973, -2.002 -0.0367 0.3973, -1.998 -0.0374 0.4039, -2.002 -0.0374 0.4039, -1.998 -0.0391 0.4087, -2.002 -0.0391 0.4087, -1.998 -0.0415 0.4125, -2.002 -0.0415 0.4125, -1.998 -0.0423 0.4134, -2.002 -0.0423 0.4134, -1.998 -0.0457 0.4162, -2.002 -0.0457 0.4162, -1.998 -0.0499 0.4182, -2.002 -0.0499 0.4182, -1.998 -0.0545 0.4192, -2.002 -0.0545 0.4192, -1.998 -0.0568 0.4193, -2.002 -0.0568 0.4193, -1.998 -0.0694 0.4161, -2.002 -0.0694 0.4161, -2.002 -0.0685 0.4166, -1.998 -0.0631 0.4186, -2.002 -0.0631 0.4186, -1.998 -0.0671 0.4171, -1.998 -0.0685 0.4166, -2.002 -0.0694 0.4233, -1.998 -0.0694 0.4233, -1.998 -0.0568 0.4255, -2.002 -0.0568 0.4255, -2.002 -0.0572 0.4255, -1.998 -0.0671 0.424, -2.002 -0.0642 0.4249, -1.998 -0.0642 0.4249, -1.998 -0.0622 0.425, -1.998 -0.0572 0.4255, -2.002 -0.05 0.4248, -1.998 -0.0524 0.425, -1.998 -0.05 0.4248, -1.998 -0.0443 0.4228, -2.002 -0.0443 0.4228, -1.998 -0.039 0.4193, -2.002 -0.039 0.4193, -1.998 -0.0371 0.4176, -2.002 -0.0371 0.4176, -1.998 -0.0335 0.4129, -1.998 -0.0318 0.4092, -2.002 -0.0309 0.407, -2.002 -0.0335 0.4129, -1.998 -0.0309 0.407, -1.998 -0.0296 0.4001, -2.002 -0.0296 0.4001, -1.998 -0.0294 0.3969, -2.002 -0.0294 0.3969, -1.998 -0.0305 0.3884, -2.002 -0.0305 0.3884, -1.998 -0.0318 0.3848, -2.002 -0.0326 0.3828, -1.998 -0.0326 0.3828, -1.998 -0.0358 0.3782, -2.002 -0.0358 0.3782, -1.998 -0.0363 0.3776, -2.002 -0.0363 0.3776, -2.002 -0.0514 0.3705, -1.998 -0.0406 0.374, -2.002 -0.0406 0.374, -1.998 -0.0456 0.3716, -2.002 -0.0456 0.3716, -1.998 -0.05 0.3708, -1.998 -0.0514 0.3705, -2.002 -0.1088 0.3773, -2.002 -0.1088 0.3712, -1.998 -0.1088 0.3773, -1.998 -0.1088 0.3712, -1.998 -0.087 0.3773, -2.002 -0.087 0.3773, -1.998 -0.1014 0.3773, -2.002 -0.087 0.3953, -1.998 -0.087 0.3953, -2.002 -0.1061 0.3953, -1.998 -0.1014 0.3953, -1.998 -0.1061 0.3953, -2.002 -0.1061 0.4014, -1.998 -0.1061 0.4014, -1.998 -0.087 0.4014, -2.002 -0.087 0.4014, -1.998 -0.1014 0.4014, -2.002 -0.087 0.4185, -1.998 -0.087 0.4185, -2.002 -0.1076 0.4185, -1.998 -0.1014 0.4185, -1.998 -0.1076 0.4185, -2.002 -0.1076 0.4246, -1.998 -0.1076 0.4246, -1.998 -0.0801 0.4246, -2.002 -0.0801 0.4246, -1.998 -0.1014 0.4246, -2.002 -0.0801 0.3712, -1.998 -0.0801 0.3712, -1.998 -0.1014 0.3712, -2.002 -0.155 0.3954, -2.002 -0.1622 0.3949, -2.002 -0.1551 0.3984, -2.002 -0.1623 0.3986, -2.002 -0.1544 0.4047, -2.002 -0.1616 0.4052, -2.002 -0.1529 0.4087, -2.002 -0.1598 0.4104, -2.002 -0.1509 0.4118, -2.002 -0.1566 0.4152, -2.002 -0.1492 0.4134, -2.002 -0.1543 0.4175, -2.002 -0.1451 0.4161, -2.002 -0.1492 0.4211, -2.002 -0.1405 0.4178, -2.002 -0.1428 0.4236, -2.002 -0.1338 0.4185, -2.002 -0.1341 0.4246, -2.002 -0.1258 0.4185, -2.002 -0.1189 0.4246, -2.002 -0.1258 0.3773, -2.002 -0.1189 0.3712, -2.002 -0.1335 0.3773, -2.002 -0.1336 0.3712, -2.002 -0.1402 0.378, -2.002 -0.1425 0.3723, -2.002 -0.1448 0.3796, -2.002 -0.1486 0.3746, -2.002 -0.1483 0.3819, -2.002 -0.1538 0.3782, -2.002 -0.1494 0.3829, -2.002 -0.1543 0.3787, -2.002 -0.1522 0.3864, -2.002 -0.1581 0.3832, -2.002 -0.154 0.3904, -2.002 -0.1608 0.3887, -1.998 -0.1336 0.3712, -1.998 -0.1189 0.3712, -1.998 -0.1425 0.3723, -1.998 -0.1486 0.3746, -1.998 -0.1538 0.3782, -1.998 -0.1543 0.3787, -1.998 -0.1581 0.3832, -1.998 -0.1608 0.3887, -1.998 -0.1622 0.3949, -1.998 -0.1623 0.3986, -1.998 -0.1616 0.4052, -1.998 -0.1598 0.4104, -1.998 -0.1566 0.4152, -1.998 -0.1543 0.4175, -1.998 -0.1492 0.4211, -1.998 -0.1428 0.4236, -1.998 -0.1341 0.4246, -1.998 -0.1189 0.4246, -1.998 -0.1338 0.4185, -1.998 -0.1258 0.4185, -1.998 -0.1258 0.3773, -1.998 -0.1335 0.3773, -1.998 -0.1494 0.3829, -1.998 -0.1483 0.3819, -1.998 -0.1448 0.3796, -1.998 -0.1402 0.378, -1.998 -0.1551 0.3984, -1.998 -0.155 0.3954, -1.998 -0.154 0.3904, -1.998 -0.1522 0.3864, -1.998 -0.1492 0.4134, -1.998 -0.1509 0.4118, -1.998 -0.1529 0.4087, -1.998 -0.1544 0.4047, -1.998 -0.1405 0.4178, -1.998 -0.1451 0.4161
            ]
        }
        coordIndex [
            0,1,2,-1,2,1,3,-1,4,0,5,-1,5,0,2,-1,6,4,7,-1,7,4,5,-1,8,6,9,-1,9,6,7,-1,10,8,11,-1,11,8,9,-1,1,10,3,-1,3,10,11,-1,6,8,4,-1,4,8,10,-1,4,10,0,-1,0,10,1,-1,12,13,14,-1,15,16,17,-1,17,16,18,-1,18,19,17,-1,17,19,20,-1,17,20,14,-1,14,20,21,-1,14,21,12,-1,22,13,23,-1,23,13,12,-1,22,23,24,-1,22,24,25,-1,24,26,25,-1,25,26,27,-1,25,27,28,-1,28,27,29,-1,28,29,30,-1,30,29,31,-1,30,31,32,-1,32,31,33,-1,32,33,34,-1,34,33,35,-1,34,35,36,-1,36,35,37,-1,36,37,38,-1,38,37,39,-1,38,39,40,-1,40,39,41,-1,40,41,42,-1,42,41,43,-1,42,43,44,-1,44,43,45,-1,44,45,46,-1,46,45,47,-1,46,47,48,-1,48,47,49,-1,48,49,50,-1,50,49,51,-1,50,51,52,-1,52,51,53,-1,52,53,54,-1,54,53,55,-1,54,55,56,-1,56,55,57,-1,56,57,58,-1,58,57,59,-1,58,59,60,-1,60,59,61,-1,60,61,62,-1,63,64,65,-1,62,61,66,-1,62,66,67,-1,67,66,68,-1,67,68,65,-1,65,68,69,-1,65,69,63,-1,70,64,71,-1,71,64,63,-1,72,73,74,-1,70,71,75,-1,70,75,76,-1,75,77,76,-1,76,77,78,-1,76,78,74,-1,74,78,79,-1,74,79,72,-1,73,72,80,-1,80,72,81,-1,81,82,80,-1,80,82,83,-1,80,83,84,-1,84,83,85,-1,84,85,86,-1,86,85,87,-1,86,87,88,-1,88,87,89,-1,90,91,89,-1,89,91,92,-1,89,92,88,-1,90,93,91,-1,91,93,94,-1,91,94,95,-1,95,94,96,-1,95,96,97,-1,97,96,98,-1,97,98,99,-1,99,98,100,-1,99,100,101,-1,100,102,101,-1,101,102,103,-1,101,103,104,-1,104,103,105,-1,104,105,106,-1,16,15,107,-1,106,105,108,-1,106,108,109,-1,109,108,110,-1,109,110,111,-1,111,110,112,-1,111,112,107,-1,107,112,113,-1,107,113,16,-1,65,64,70,-1,40,42,99,-1,48,50,92,-1,99,42,97,-1,92,50,88,-1,65,70,67,-1,67,70,76,-1,67,76,62,-1,62,76,74,-1,62,74,60,-1,60,74,73,-1,60,73,58,-1,58,73,80,-1,58,80,56,-1,80,84,56,-1,56,84,86,-1,56,86,54,-1,54,86,88,-1,54,88,52,-1,52,88,50,-1,99,101,40,-1,40,101,104,-1,40,104,38,-1,38,104,106,-1,38,106,36,-1,36,106,109,-1,36,109,34,-1,34,109,111,-1,34,111,32,-1,32,111,107,-1,32,107,30,-1,30,107,15,-1,30,15,28,-1,28,15,17,-1,28,17,25,-1,25,17,14,-1,25,14,22,-1,22,14,13,-1,42,44,97,-1,97,44,46,-1,97,46,95,-1,95,46,48,-1,95,48,91,-1,91,48,92,-1,114,115,116,-1,116,115,117,-1,118,119,120,-1,120,119,114,-1,120,114,116,-1,121,119,122,-1,122,119,118,-1,121,122,123,-1,123,122,124,-1,123,124,125,-1,126,123,127,-1,127,123,125,-1,128,129,130,-1,130,129,126,-1,130,126,127,-1,131,129,132,-1,132,129,128,-1,131,132,133,-1,133,132,134,-1,133,134,135,-1,136,133,137,-1,137,133,135,-1,138,139,140,-1,140,139,136,-1,140,136,137,-1,141,139,142,-1,142,139,138,-1,141,142,115,-1,115,142,143,-1,115,143,117,-1,123,126,121,-1,121,126,129,-1,115,114,141,-1,141,114,119,-1,133,136,131,-1,131,136,139,-1,131,139,129,-1,129,139,141,-1,129,141,121,-1,121,141,119,-1,144,145,146,-1,146,145,147,-1,146,147,148,-1,148,147,149,-1,148,149,150,-1,150,149,151,-1,150,151,152,-1,152,151,153,-1,152,153,154,-1,154,153,155,-1,154,155,156,-1,156,155,157,-1,156,157,158,-1,158,157,159,-1,158,159,160,-1,160,159,161,-1,160,161,162,-1,162,161,163,-1,162,163,164,-1,164,163,165,-1,164,165,166,-1,166,165,167,-1,166,167,168,-1,168,167,169,-1,168,169,170,-1,170,169,171,-1,170,171,172,-1,172,171,173,-1,172,173,174,-1,174,173,175,-1,174,175,176,-1,176,175,177,-1,176,177,178,-1,178,177,179,-1,178,179,144,-1,144,179,145,-1,167,165,180,-1,180,165,181,-1,167,180,182,-1,167,182,169,-1,169,182,183,-1,169,183,171,-1,171,183,184,-1,171,184,173,-1,173,184,185,-1,173,185,175,-1,175,185,186,-1,175,186,177,-1,177,186,187,-1,177,187,179,-1,179,187,188,-1,179,188,145,-1,145,188,189,-1,145,189,147,-1,147,189,190,-1,147,190,149,-1,149,190,191,-1,149,191,151,-1,151,191,192,-1,151,192,153,-1,153,192,193,-1,153,193,155,-1,155,193,194,-1,155,194,157,-1,157,194,195,-1,157,195,159,-1,159,195,196,-1,159,196,161,-1,163,161,197,-1,197,161,196,-1,165,163,181,-1,181,163,197,-1,160,162,198,-1,198,162,199,-1,162,164,199,-1,199,164,200,-1,164,166,200,-1,200,166,201,-1,174,202,203,-1,174,203,172,-1,172,203,204,-1,172,204,170,-1,170,204,205,-1,170,205,168,-1,168,205,201,-1,168,201,166,-1,146,206,207,-1,146,207,144,-1,144,207,208,-1,144,208,178,-1,178,208,209,-1,178,209,176,-1,176,209,202,-1,176,202,174,-1,154,210,211,-1,154,211,152,-1,152,211,212,-1,152,212,150,-1,150,212,213,-1,150,213,148,-1,148,213,206,-1,148,206,146,-1,160,198,214,-1,160,214,158,-1,158,214,215,-1,158,215,156,-1,156,215,210,-1,156,210,154,-1,
        ]
    }
}
Shape{
    appearance Appearance {
        material  Material {
            diffuseColor 0.25098039215686274 0.25098039215686274 0.25098039215686274
            specularColor 0.12549019607843137 0.12549019607843137 0.12549019607843137
            ambientIntensity 0.251
            transparency 0.0
            shininess 0.5
        }
    }
    geometry IndexedFaceSet {
        ccw TRUE
        solid FALSE
        coord DEF co Coordinate {
            point [
                -1.998 -0.1258 0.4185, -1.998 -0.1258 0.3773, -1.998 -0.1338 0.4185, -1.998 -0.1335 0.3773, -1.998 -0.1402 0.378, -1.998 -0.1448 0.3796, -1.998 -0.1483 0.3819, -1.998 -0.1494 0.3829, -1.998 -0.1522 0.3864, -1.998 -0.154 0.3904, -1.998 -0.155 0.3954, -1.998 -0.1551 0.3984, -1.998 -0.1544 0.4047, -1.998 -0.1529 0.4087, -1.998 -0.1509 0.4118, -1.998 -0.1492 0.4134, -1.998 -0.1405 0.4178, -1.998 -0.1451 0.4161
            ]
        }
        coordIndex [
            0,1,2,-1,2,1,3,-1,2,3,4,-1,4,5,2,-1,2,5,6,-1,2,6,7,-1,7,8,2,-1,2,8,9,-1,2,9,10,-1,10,11,2,-1,2,11,12,-1,2,12,13,-1,13,14,2,-1,2,14,15,-1,2,15,16,-1,16,15,17,-1,
        ]
    }
}
Shape{
    appearance Appearance {
        material  Material {
            diffuseColor 1.0 1.0 1.0
            specularColor 0.5019607843137255 0.5019607843137255 0.5019607843137255
            ambientIntensity 1.0
            transparency 0.0
            shininess 0.5
        }
    }
    geometry IndexedFaceSet {
        ccw TRUE
        solid FALSE
        coord DEF co Coordinate {
            point [
                -2.002 -0.1802 0.3918, -2.002 -0.1882 0.414, -2.002 -0.1856 0.4246, -2.002 -0.1653 0.3712, -2.002 -0.1729 0.3712, -2.002 -0.178 0.3858, -2.002 -0.1887 0.4156, -2.002 -0.1891 0.4178, -2.002 -0.193 0.4246, -2.002 -0.1893 0.4178, -2.002 -0.1897 0.4155, -2.002 -0.1901 0.414, -2.002 -0.1981 0.3918, -2.002 -0.2133 0.3712, -2.002 -0.2057 0.3712, -2.002 -0.2003 0.3858, -1.998 -0.193 0.4246, -1.998 -0.2133 0.3712, -1.998 -0.1856 0.4246, -1.998 -0.1653 0.3712, -1.998 -0.1807 0.4116, -1.998 -0.1729 0.3712, -1.998 -0.178 0.3858, -1.998 -0.2003 0.3858, -1.998 -0.1807 0.3858, -1.998 -0.2057 0.3712, -1.998 -0.1802 0.3918, -1.998 -0.1981 0.3918, -1.998 -0.1901 0.414, -1.998 -0.1893 0.4178, -1.998 -0.1897 0.4155, -1.998 -0.1891 0.4178, -1.998 -0.1882 0.414, -1.998 -0.1887 0.4156
            ]
        }
        coordIndex [
            0,1,2,-1,3,4,5,-1,1,6,2,-1,2,6,7,-1,2,7,8,-1,8,7,9,-1,8,9,10,-1,10,11,8,-1,8,11,12,-1,8,12,13,-1,14,13,15,-1,15,13,12,-1,15,12,5,-1,5,12,0,-1,5,0,3,-1,3,0,2,-1,8,13,16,-1,16,13,17,-1,2,8,18,-1,18,8,16,-1,19,3,20,-1,20,3,2,-1,20,2,18,-1,4,3,21,-1,21,3,19,-1,5,4,22,-1,22,4,21,-1,23,15,24,-1,24,15,5,-1,24,5,22,-1,14,15,25,-1,25,15,23,-1,13,14,17,-1,17,14,25,-1,0,12,26,-1,26,12,27,-1,12,11,27,-1,27,11,28,-1,9,29,30,-1,9,30,10,-1,10,30,28,-1,10,28,11,-1,9,7,29,-1,29,7,31,-1,1,32,33,-1,1,33,6,-1,6,33,31,-1,6,31,7,-1,1,0,32,-1,32,0,26,-1,
        ]
    }
}
Shape{
    appearance Appearance {
        material  Material {
            diffuseColor 0.25098039215686274 0.25098039215686274 0.25098039215686274
            specularColor 0.12549019607843137 0.12549019607843137 0.12549019607843137
            ambientIntensity 0.251
            transparency 0.0
            shininess 0.5
        }
    }
    geometry IndexedFaceSet {
        ccw TRUE
        solid FALSE
        coord DEF co Coordinate {
            point [
                -1.998 -0.1893 0.4178, -1.998 -0.1891 0.4178, -1.998 -0.1897 0.4155, -1.998 -0.1887 0.4156, -1.998 -0.1901 0.414, -1.998 -0.1882 0.414, -1.998 -0.1981 0.3918, -1.998 -0.1802 0.3918
            ]
        }
        coordIndex [
            0,1,2,-1,2,1,3,-1,2,3,4,-1,4,3,5,-1,4,5,6,-1,6,5,7,-1,
        ]
    }
}
Shape{
    appearance Appearance {
        material  Material {
            diffuseColor 1.0 1.0 1.0
            specularColor 0.5019607843137255 0.5019607843137255 0.5019607843137255
            ambientIntensity 1.0
            transparency 0.0
            shininess 0.5
        }
    }
    geometry IndexedFaceSet {
        ccw TRUE
        solid FALSE
        coord DEF co Coordinate {
            point [
                -2.002 -0.0278 0.2926, -2.002 -0.0278 0.2865, -1.998 -0.0278 0.2926, -1.998 -0.0278 0.2865, -2.002 -0.006 0.2926, -1.998 -0.006 0.2926, -2.002 -0.006 0.3106, -1.998 -0.006 0.3106, -2.002 -0.0251 0.3106, -1.998 -0.0251 0.3106, -2.002 -0.0251 0.3167, -1.998 -0.0251 0.3167, -2.002 -0.006 0.3167, -1.998 -0.006 0.3167, -2.002 -0.006 0.3338, -1.998 -0.006 0.3338, -2.002 -0.0266 0.3338, -1.998 -0.0266 0.3338, -2.002 -0.0266 0.3399, -1.998 -0.0266 0.3399, -2.002 0.0009 0.3399, -1.998 0.0009 0.3399, -2.002 0.0009 0.2865, -1.998 0.0009 0.2865, -2.002 -0.0582 0.2865, -2.002 -0.0648 0.2865, -2.002 -0.0582 0.2924, -2.002 -0.0648 0.3111, -2.002 -0.0582 0.3108, -2.002 -0.0437 0.3028, -2.002 -0.0454 0.3036, -2.002 -0.058 0.2924, -2.002 -0.0545 0.2934, -2.002 -0.0569 0.2908, -2.002 -0.0526 0.2921, -2.002 -0.0492 0.3045, -2.002 -0.0582 0.3057, -2.002 -0.0582 0.302, -2.002 -0.0582 0.3016, -2.002 -0.0577 0.2986, -2.002 -0.0567 0.2962, -2.002 -0.0553 0.2942, -2.002 -0.0579 0.3137, -2.002 -0.0643 0.3162, -2.002 -0.0572 0.3161, -2.002 -0.0633 0.3192, -2.002 -0.0565 0.3175, -2.002 -0.0619 0.3214, -2.002 -0.0554 0.3186, -2.002 -0.0601 0.3231, -2.002 -0.0543 0.3193, -2.002 -0.0579 0.3243, -2.002 -0.0527 0.3199, -2.002 -0.055 0.3252, -2.002 -0.0504 0.3201, -2.002 -0.0511 0.3255, -2.002 -0.0469 0.3198, -2.002 -0.0448 0.3248, -2.002 -0.0427 0.3185, -2.002 -0.0397 0.323, -2.002 -0.0379 0.3155, -2.002 -0.0379 0.322, -2.002 -0.0424 0.2934, -2.002 -0.0375 0.2886, -2.002 -0.0429 0.2928, -2.002 -0.0397 0.2871, -2.002 -0.0443 0.2919, -2.002 -0.0423 0.2861, -2.002 -0.0458 0.2914, -2.002 -0.0463 0.2856, -2.002 -0.048 0.2911, -2.002 -0.0498 0.286, -2.002 -0.0505 0.2914, -2.002 -0.0525 0.287, -2.002 -0.0548 0.2886, -2.002 -0.0411 0.2983, -2.002 -0.0342 0.2975, -2.002 -0.041 0.2973, -2.002 -0.0342 0.2967, -2.002 -0.0412 0.2958, -2.002 -0.0345 0.2937, -2.002 -0.0416 0.2945, -2.002 -0.0354 0.2914, -2.002 -0.0367 0.2894, -2.002 -0.0469 0.3092, -2.002 -0.0418 0.3079, -2.002 -0.0428 0.3021, -2.002 -0.039 0.3065, -2.002 -0.042 0.3011, -2.002 -0.0369 0.3047, -2.002 -0.0414 0.2999, -2.002 -0.0356 0.3028, -2.002 -0.0347 0.3004, -1.998 -0.0511 0.3255, -1.998 -0.0448 0.3248, -1.998 -0.0397 0.323, -1.998 -0.0379 0.322, -1.998 -0.0379 0.3155, -1.998 -0.0427 0.3185, -1.998 -0.0469 0.3198, -1.998 -0.0504 0.3201, -1.998 -0.0527 0.3199, -1.998 -0.0543 0.3193, -1.998 -0.0554 0.3186, -1.998 -0.0565 0.3175, -1.998 -0.0572 0.3161, -1.998 -0.0579 0.3137, -1.998 -0.0582 0.3108, -1.998 -0.0469 0.3092, -1.998 -0.0418 0.3079, -1.998 -0.039 0.3065, -1.998 -0.0369 0.3047, -1.998 -0.0356 0.3028, -1.998 -0.0347 0.3004, -1.998 -0.0342 0.2975, -1.998 -0.0342 0.2967, -1.998 -0.0345 0.2937, -1.998 -0.0354 0.2914, -1.998 -0.0367 0.2894, -1.998 -0.0375 0.2886, -1.998 -0.0463 0.2856, -1.998 -0.0424 0.2861, -1.998 -0.0423 0.2861, -1.998 -0.0397 0.2871, -1.998 -0.0498 0.286, -1.998 -0.0499 0.2861, -1.998 -0.0525 0.287, -1.998 -0.0548 0.2886, -1.998 -0.0569 0.2908, -1.998 -0.058 0.2924, -1.998 -0.0582 0.2924, -1.998 -0.0582 0.2865, -1.998 -0.0648 0.2865, -1.998 -0.0648 0.3111, -1.998 -0.0643 0.3162, -1.998 -0.0633 0.3192, -1.998 -0.0619 0.3214, -1.998 -0.0601 0.3231, -1.998 -0.0579 0.3243, -1.998 -0.055 0.3252, -1.998 -0.0428 0.3021, -1.998 -0.0437 0.3028, -1.998 -0.0454 0.3036, -1.998 -0.0492 0.3045, -1.998 -0.041 0.2973, -1.998 -0.0411 0.2983, -1.998 -0.0414 0.2999, -1.998 -0.042 0.3011, -1.998 -0.0429 0.2928, -1.998 -0.0424 0.2934, -1.998 -0.0416 0.2945, -1.998 -0.0412 0.2958, -1.998 -0.048 0.2911, -1.998 -0.0458 0.2914, -1.998 -0.0443 0.2919, -1.998 -0.0553 0.2942, -1.998 -0.0545 0.2934, -1.998 -0.0526 0.2921, -1.998 -0.0505 0.2914, -1.998 -0.0582 0.302, -1.998 -0.0582 0.3016, -1.998 -0.0577 0.2986, -1.998 -0.0567 0.2962, -1.998 -0.0582 0.3057
            ]
        }
        coordIndex [
            0,1,2,-1,2,1,3,-1,4,0,5,-1,5,0,2,-1,6,4,7,-1,7,4,5,-1,8,6,9,-1,9,6,7,-1,10,8,11,-1,11,8,9,-1,12,10,13,-1,13,10,11,-1,14,12,15,-1,15,12,13,-1,16,14,17,-1,17,14,15,-1,18,16,19,-1,19,16,17,-1,20,18,21,-1,21,18,19,-1,22,20,23,-1,23,20,21,-1,1,22,3,-1,3,22,23,-1,1,0,22,-1,22,0,4,-1,8,10,6,-1,6,10,12,-1,16,18,14,-1,14,18,20,-1,14,20,12,-1,12,20,22,-1,12,22,6,-1,6,22,4,-1,24,25,26,-1,26,25,27,-1,28,29,30,-1,31,32,33,-1,33,32,34,-1,35,36,27,-1,27,36,37,-1,37,38,27,-1,27,38,39,-1,27,39,26,-1,26,39,40,-1,26,40,31,-1,31,40,41,-1,31,41,32,-1,30,35,28,-1,28,35,27,-1,28,27,42,-1,42,27,43,-1,42,43,44,-1,44,43,45,-1,44,45,46,-1,46,45,47,-1,46,47,48,-1,48,47,49,-1,48,49,50,-1,50,49,51,-1,50,51,52,-1,52,51,53,-1,52,53,54,-1,54,53,55,-1,54,55,56,-1,56,55,57,-1,56,57,58,-1,58,57,59,-1,58,59,60,-1,60,59,61,-1,62,63,64,-1,64,63,65,-1,64,65,66,-1,66,65,67,-1,66,67,68,-1,68,67,69,-1,68,69,70,-1,70,69,71,-1,70,71,72,-1,72,71,73,-1,72,73,34,-1,34,73,74,-1,34,74,33,-1,75,76,77,-1,77,76,78,-1,77,78,79,-1,79,78,80,-1,79,80,81,-1,81,80,82,-1,81,82,62,-1,62,82,83,-1,62,83,63,-1,28,84,29,-1,29,84,85,-1,29,85,86,-1,86,85,87,-1,86,87,88,-1,88,87,89,-1,88,89,90,-1,90,89,91,-1,90,91,75,-1,75,91,92,-1,75,92,76,-1,55,93,94,-1,55,94,57,-1,57,94,95,-1,57,95,59,-1,59,95,96,-1,59,96,61,-1,60,61,97,-1,97,61,96,-1,60,97,98,-1,60,98,58,-1,58,98,99,-1,58,99,56,-1,56,99,100,-1,56,100,54,-1,54,100,101,-1,54,101,52,-1,52,101,102,-1,52,102,50,-1,50,102,103,-1,50,103,48,-1,48,103,104,-1,48,104,46,-1,46,104,105,-1,46,105,44,-1,44,105,106,-1,44,106,42,-1,42,106,107,-1,42,107,28,-1,84,28,108,-1,108,28,107,-1,84,108,109,-1,84,109,85,-1,85,109,110,-1,85,110,87,-1,87,110,111,-1,87,111,89,-1,89,111,112,-1,89,112,91,-1,91,112,113,-1,91,113,92,-1,92,113,114,-1,92,114,76,-1,76,114,115,-1,76,115,78,-1,78,115,116,-1,78,116,80,-1,80,116,117,-1,80,117,82,-1,82,117,118,-1,82,118,83,-1,83,118,119,-1,83,119,63,-1,120,69,121,-1,121,69,67,-1,121,67,122,-1,122,67,65,-1,122,65,123,-1,123,65,63,-1,123,63,119,-1,69,120,124,-1,69,124,71,-1,71,124,125,-1,71,125,73,-1,125,126,73,-1,73,126,127,-1,73,127,74,-1,74,127,128,-1,74,128,33,-1,33,128,129,-1,33,129,31,-1,26,31,130,-1,130,31,129,-1,24,26,131,-1,131,26,130,-1,25,24,132,-1,132,24,131,-1,27,25,133,-1,133,25,132,-1,27,133,134,-1,27,134,43,-1,43,134,135,-1,43,135,45,-1,45,135,136,-1,45,136,47,-1,47,136,137,-1,47,137,49,-1,49,137,138,-1,49,138,51,-1,51,138,139,-1,51,139,53,-1,53,139,93,-1,53,93,55,-1,86,140,141,-1,86,141,29,-1,29,141,142,-1,29,142,30,-1,30,142,143,-1,30,143,35,-1,77,144,145,-1,77,145,75,-1,75,145,146,-1,75,146,90,-1,90,146,147,-1,90,147,88,-1,88,147,140,-1,88,140,86,-1,64,148,149,-1,64,149,62,-1,62,149,150,-1,62,150,81,-1,81,150,151,-1,81,151,79,-1,79,151,144,-1,79,144,77,-1,70,152,153,-1,70,153,68,-1,68,153,154,-1,68,154,66,-1,66,154,148,-1,66,148,64,-1,41,155,156,-1,41,156,32,-1,32,156,157,-1,32,157,34,-1,34,157,158,-1,34,158,72,-1,72,158,152,-1,72,152,70,-1,37,159,160,-1,37,160,38,-1,38,160,161,-1,38,161,39,-1,39,161,162,-1,39,162,40,-1,40,162,155,-1,40,155,41,-1,37,36,159,-1,159,36,163,-1,36,35,163,-1,163,35,143,-1,
        ]
    }
}
Shape{
    appearance Appearance {
        material  Material {
            diffuseColor 0.25098039215686274 0.25098039215686274 0.25098039215686274
            specularColor 0.12549019607843137 0.12549019607843137 0.12549019607843137
            ambientIntensity 0.251
            transparency 0.0
            shininess 0.5
        }
    }
    geometry IndexedFaceSet {
        ccw TRUE
        solid FALSE
        coord DEF co Coordinate {
            point [
                -1.998 -0.0582 0.3057, -1.998 -0.0492 0.3045, -1.998 -0.0582 0.302, -1.998 -0.0454 0.3036, -1.998 -0.0437 0.3028, -1.998 -0.0428 0.3021, -1.998 -0.0582 0.3016, -1.998 -0.0577 0.2986, -1.998 -0.042 0.3011, -1.998 -0.0567 0.2962, -1.998 -0.0424 0.2934, -1.998 -0.0429 0.2928, -1.998 -0.0545 0.2934, -1.998 -0.0416 0.2945, -1.998 -0.0526 0.2921, -1.998 -0.0505 0.2914, -1.998 -0.048 0.2911, -1.998 -0.0414 0.2999, -1.998 -0.0411 0.2983, -1.998 -0.0553 0.2942, -1.998 -0.041 0.2973, -1.998 -0.0412 0.2958, -1.998 -0.0443 0.2919, -1.998 -0.0458 0.2914
            ]
        }
        coordIndex [
            0,1,2,-1,2,1,3,-1,3,4,2,-1,2,4,5,-1,2,5,6,-1,6,5,7,-1,7,5,8,-1,7,8,9,-1,10,11,12,-1,10,12,13,-1,14,12,15,-1,15,12,16,-1,8,17,9,-1,9,17,18,-1,9,18,19,-1,19,18,20,-1,19,20,12,-1,12,20,21,-1,12,21,13,-1,11,22,12,-1,12,22,23,-1,12,23,16,-1,
        ]
    }
}
Shape{
    appearance Appearance {
        material  Material {
            diffuseColor 1.0 1.0 1.0
            specularColor 0.5019607843137255 0.5019607843137255 0.5019607843137255
            ambientIntensity 1.0
            transparency 0.0
            shininess 0.5
        }
    }
    geometry IndexedFaceSet {
        ccw TRUE
        solid FALSE
        coord DEF co Coordinate {
            point [
                -1.998 -0.0739 0.2948, -2.002 -0.0739 0.2948, -2.002 -0.0765 0.2932, -2.002 -0.0849 0.2911, -1.998 -0.0849 0.2911, -1.998 -0.0807 0.2916, -2.002 -0.0807 0.2916, -1.998 -0.077 0.293, -1.998 -0.0765 0.2932, -2.002 -0.0739 0.2879, -1.998 -0.0739 0.2879, -1.998 -0.077 0.2868, -2.002 -0.0787 0.2862, -1.998 -0.0843 0.2856, -2.002 -0.0843 0.2856, -1.998 -0.0798 0.2861, -1.998 -0.0787 0.2862, -1.998 -0.0881 0.2861, -2.002 -0.0902 0.2863, -1.998 -0.0902 0.2863, -1.998 -0.0938 0.2877, -2.002 -0.0938 0.2877, -1.998 -0.0954 0.2887, -2.002 -0.0954 0.2887, -1.998 -0.0973 0.2903, -2.002 -0.0973 0.2903, -1.998 -0.0985 0.2921, -2.002 -0.0985 0.2921, -1.998 -0.0993 0.2942, -2.002 -0.0993 0.2942, -1.998 -0.0997 0.2969, -2.002 -0.0997 0.2969, -1.998 -0.0994 0.2994, -2.002 -0.0994 0.2994, -1.998 -0.0987 0.3014, -2.002 -0.0987 0.3014, -1.998 -0.0974 0.3032, -2.002 -0.0974 0.3032, -1.998 -0.0958 0.3046, -2.002 -0.0958 0.3046, -1.998 -0.0914 0.3071, -2.002 -0.0914 0.3071, -1.998 -0.0888 0.3081, -2.002 -0.0888 0.3081, -1.998 -0.0847 0.31, -2.002 -0.0847 0.31, -1.998 -0.0823 0.3114, -2.002 -0.0823 0.3114, -1.998 -0.0816 0.3121, -2.002 -0.0816 0.3121, -1.998 -0.0812 0.313, -2.002 -0.0812 0.313, -1.998 -0.0809 0.3141, -2.002 -0.0809 0.3141, -1.998 -0.0808 0.315, -2.002 -0.0808 0.315, -1.998 -0.081 0.316, -2.002 -0.081 0.316, -1.998 -0.0813 0.3169, -2.002 -0.0813 0.3169, -1.998 -0.0819 0.3178, -2.002 -0.0819 0.3178, -1.998 -0.0829 0.3187, -2.002 -0.0829 0.3187, -1.998 -0.0844 0.3195, -2.002 -0.0844 0.3195, -1.998 -0.0862 0.32, -2.002 -0.0862 0.32, -1.998 -0.0881 0.3201, -2.002 -0.0881 0.3201, -1.998 -0.0925 0.3196, -2.002 -0.0925 0.3196, -1.998 -0.0963 0.3182, -2.002 -0.0963 0.3182, -1.998 -0.0978 0.3173, -2.002 -0.0978 0.3173, -2.002 -0.0978 0.3238, -1.998 -0.0978 0.3238, -1.998 -0.0926 0.3253, -2.002 -0.0926 0.3253, -1.998 -0.0888 0.3255, -2.002 -0.0888 0.3255, -1.998 -0.0838 0.325, -2.002 -0.0838 0.325, -1.998 -0.0802 0.3237, -2.002 -0.0802 0.3237, -1.998 -0.0782 0.3225, -2.002 -0.0782 0.3225, -1.998 -0.077 0.3214, -2.002 -0.0763 0.3207, -1.998 -0.0763 0.3207, -1.998 -0.075 0.3189, -2.002 -0.075 0.3189, -1.998 -0.0742 0.3168, -2.002 -0.0742 0.3168, -1.998 -0.0739 0.3144, -2.002 -0.0739 0.3144, -1.998 -0.0742 0.3118, -2.002 -0.0742 0.3118, -1.998 -0.075 0.3097, -2.002 -0.075 0.3097, -1.998 -0.0758 0.3083, -2.002 -0.0758 0.3083, -1.998 -0.0841 0.3033, -2.002 -0.0841 0.3033, -2.002 -0.0801 0.3051, -1.998 -0.0769 0.3072, -2.002 -0.0769 0.3072, -1.998 -0.077 0.3072, -1.998 -0.0801 0.3051, -1.998 -0.0885 0.3015, -2.002 -0.0885 0.3015, -1.998 -0.0911 0.2999, -2.002 -0.0911 0.2999, -1.998 -0.0919 0.299, -2.002 -0.0919 0.299, -1.998 -0.0924 0.2981, -2.002 -0.0924 0.2981, -1.998 -0.0927 0.2971, -2.002 -0.0927 0.2971, -1.998 -0.0928 0.2963, -2.002 -0.0928 0.2963, -1.998 -0.0927 0.295, -2.002 -0.0927 0.295, -1.998 -0.0923 0.294, -2.002 -0.0923 0.294, -1.998 -0.0917 0.2932, -2.002 -0.0917 0.2932, -1.998 -0.091 0.2925, -2.002 -0.091 0.2925, -1.998 -0.0904 0.2921, -2.002 -0.0904 0.2921, -1.998 -0.0886 0.2915, -2.002 -0.0886 0.2915, -1.998 -0.0852 0.2911, -2.002 -0.0852 0.2911, -2.002 -0.1328 0.3247, -2.002 -0.1397 0.3247, -1.998 -0.1328 0.3247, -1.998 -0.1397 0.3247, -2.002 -0.1224 0.2959, -1.998 -0.1224 0.2959, -1.998 -0.1219 0.2942, -2.002 -0.1219 0.2942, -1.998 -0.1216 0.2929, -2.002 -0.1216 0.2929, -2.002 -0.1214 0.2929, -1.998 -0.1214 0.2929, -2.002 -0.1206 0.296, -1.998 -0.1206 0.296, -2.002 -0.1106 0.3247, -1.998 -0.1138 0.3154, -1.998 -0.1106 0.3247, -2.002 -0.1031 0.3247, -1.998 -0.1031 0.3247, -2.002 -0.1181 0.2866, -1.998 -0.1138 0.2974, -1.998 -0.1181 0.2866, -1.998 -0.1152 0.2797, -2.002 -0.1152 0.2797, -1.998 -0.1179 0.2861, -1.998 -0.1138 0.2773, -2.002 -0.1138 0.2773, -1.998 -0.1138 0.2773, -2.002 -0.1126 0.2759, -1.998 -0.1126 0.2759, -1.998 -0.1114 0.275, -2.002 -0.1114 0.275, -1.998 -0.1099 0.2745, -2.002 -0.1099 0.2745, -1.998 -0.1083 0.2743, -2.002 -0.1083 0.2743, -1.998 -0.1059 0.2746, -2.002 -0.1059 0.2746, -1.998 -0.1045 0.2751, -2.002 -0.1045 0.2751, -2.002 -0.1045 0.2691, -1.998 -0.1045 0.2691, -1.998 -0.1074 0.2686, -2.002 -0.1074 0.2686, -1.998 -0.1088 0.2686, -2.002 -0.1088 0.2686, -1.998 -0.1115 0.2689, -2.002 -0.1115 0.2689, -1.998 -0.1138 0.2698, -2.002 -0.1142 0.2699, -1.998 -0.1142 0.2699, -1.998 -0.1165 0.2715, -2.002 -0.1165 0.2715, -1.998 -0.117 0.2719, -2.002 -0.117 0.2719, -1.998 -0.1194 0.2749, -2.002 -0.1194 0.2749, -1.998 -0.1224 0.2808, -2.002 -0.1224 0.2808, -1.998 -0.1245 0.2861, -2.002 -0.1756 0.2926, -2.002 -0.1756 0.2865, -1.998 -0.1756 0.2926, -1.998 -0.1756 0.2865, -2.002 -0.1538 0.2926, -1.998 -0.1638 0.2926, -1.998 -0.1538 0.2926, -2.002 -0.1538 0.3106, -1.998 -0.1538 0.3106, -2.002 -0.1729 0.3106, -1.998 -0.1638 0.3106, -1.998 -0.1729 0.3106, -2.002 -0.1729 0.3167, -1.998 -0.1729 0.3167, -1.998 -0.1538 0.3167, -2.002 -0.1538 0.3167, -1.998 -0.1638 0.3167, -2.002 -0.1538 0.3338, -1.998 -0.1538 0.3338, -1.998 -0.1744 0.3338, -2.002 -0.1744 0.3338, -1.998 -0.1638 0.3338, -2.002 -0.1744 0.3399, -1.998 -0.1744 0.3399, -1.998 -0.1469 0.3399, -2.002 -0.1469 0.3399, -1.998 -0.1638 0.3399, -2.002 -0.1469 0.2865, -1.998 -0.1469 0.2865, -1.998 -0.1638 0.2865, -2.002 -0.2218 0.3107, -2.002 -0.229 0.3102, -2.002 -0.2219 0.3137, -2.002 -0.2292 0.3139, -2.002 -0.2212 0.32, -2.002 -0.2285 0.3205, -2.002 -0.2198 0.324, -2.002 -0.2266 0.3257, -2.002 -0.2178 0.3271, -2.002 -0.2235 0.3305, -2.002 -0.2161 0.3288, -2.002 -0.2211 0.3328, -2.002 -0.212 0.3314, -2.002 -0.2161 0.3364, -2.002 -0.2073 0.3331, -2.002 -0.2097 0.3389, -2.002 -0.2007 0.3338, -2.002 -0.201 0.3399, -2.002 -0.1926 0.3338, -2.002 -0.1857 0.3399, -2.002 -0.1926 0.2926, -2.002 -0.1857 0.2865, -2.002 -0.2004 0.2926, -2.002 -0.2004 0.2865, -2.002 -0.207 0.2933, -2.002 -0.2093 0.2876, -2.002 -0.2116 0.2949, -2.002 -0.2155 0.29, -2.002 -0.2152 0.2972, -2.002 -0.2206 0.2935, -2.002 -0.2162 0.2982, -2.002 -0.2211 0.294, -2.002 -0.219 0.3017, -2.002 -0.225 0.2985, -2.002 -0.2208 0.3057, -2.002 -0.2277 0.304, -1.998 -0.2004 0.2865, -1.998 -0.1857 0.2865, -1.998 -0.2093 0.2876, -1.998 -0.2155 0.29, -1.998 -0.2206 0.2935, -1.998 -0.2211 0.294, -1.998 -0.225 0.2985, -1.998 -0.2277 0.304, -1.998 -0.229 0.3102, -1.998 -0.2292 0.3139, -1.998 -0.2285 0.3205, -1.998 -0.2266 0.3257, -1.998 -0.2235 0.3305, -1.998 -0.2211 0.3328, -1.998 -0.2161 0.3364, -1.998 -0.2097 0.3389, -1.998 -0.201 0.3399, -1.998 -0.1857 0.3399, -1.998 -0.2007 0.3338, -1.998 -0.1926 0.3338, -1.998 -0.1926 0.2926, -1.998 -0.2004 0.2926, -1.998 -0.2162 0.2982, -1.998 -0.2152 0.2972, -1.998 -0.2116 0.2949, -1.998 -0.207 0.2933, -1.998 -0.2219 0.3137, -1.998 -0.2218 0.3107, -1.998 -0.2208 0.3057, -1.998 -0.219 0.3017, -1.998 -0.2161 0.3288, -1.998 -0.2178 0.3271, -1.998 -0.2198 0.324, -1.998 -0.2212 0.32, -1.998 -0.2073 0.3331, -1.998 -0.212 0.3314
            ]
        }
        coordIndex [
            0,1,2,-1,3,4,5,-1,3,5,6,-1,6,5,7,-1,6,7,2,-1,2,7,8,-1,2,8,0,-1,9,1,10,-1,10,1,0,-1,10,11,9,-1,9,11,12,-1,13,14,15,-1,15,14,12,-1,15,12,16,-1,16,12,11,-1,13,17,14,-1,14,17,18,-1,17,19,18,-1,18,19,20,-1,18,20,21,-1,21,20,22,-1,21,22,23,-1,23,22,24,-1,23,24,25,-1,25,24,26,-1,25,26,27,-1,27,26,28,-1,27,28,29,-1,29,28,30,-1,29,30,31,-1,31,30,32,-1,31,32,33,-1,33,32,34,-1,33,34,35,-1,35,34,36,-1,35,36,37,-1,37,36,38,-1,37,38,39,-1,39,38,40,-1,39,40,41,-1,41,40,42,-1,41,42,43,-1,43,42,44,-1,43,44,45,-1,45,44,46,-1,45,46,47,-1,47,46,48,-1,47,48,49,-1,49,48,50,-1,49,50,51,-1,51,50,52,-1,51,52,53,-1,53,52,54,-1,53,54,55,-1,55,54,56,-1,55,56,57,-1,57,56,58,-1,57,58,59,-1,59,58,60,-1,59,60,61,-1,61,60,62,-1,61,62,63,-1,63,62,64,-1,63,64,65,-1,65,64,66,-1,65,66,67,-1,67,66,68,-1,67,68,69,-1,69,68,70,-1,69,70,71,-1,71,70,72,-1,71,72,73,-1,73,72,74,-1,73,74,75,-1,76,75,77,-1,77,75,74,-1,76,77,78,-1,76,78,79,-1,79,78,80,-1,79,80,81,-1,81,80,82,-1,81,82,83,-1,83,82,84,-1,83,84,85,-1,85,84,86,-1,85,86,87,-1,86,88,87,-1,87,88,89,-1,88,90,89,-1,89,90,91,-1,89,91,92,-1,92,91,93,-1,92,93,94,-1,94,93,95,-1,94,95,96,-1,96,95,97,-1,96,97,98,-1,98,97,99,-1,98,99,100,-1,100,99,101,-1,100,101,102,-1,103,104,105,-1,102,101,106,-1,102,106,107,-1,107,106,108,-1,107,108,105,-1,105,108,109,-1,105,109,103,-1,104,103,110,-1,104,110,111,-1,111,110,112,-1,111,112,113,-1,113,112,114,-1,113,114,115,-1,115,114,116,-1,115,116,117,-1,117,116,118,-1,117,118,119,-1,119,118,120,-1,119,120,121,-1,121,120,122,-1,121,122,123,-1,123,122,124,-1,123,124,125,-1,125,124,126,-1,125,126,127,-1,127,126,128,-1,127,128,129,-1,129,128,130,-1,129,130,131,-1,131,130,132,-1,131,132,133,-1,133,132,134,-1,133,134,135,-1,135,134,4,-1,135,4,3,-1,61,63,85,-1,85,63,83,-1,111,43,104,-1,104,43,45,-1,21,23,127,-1,127,23,25,-1,127,25,125,-1,125,25,27,-1,125,27,123,-1,123,27,29,-1,123,29,121,-1,121,29,31,-1,121,31,119,-1,119,31,33,-1,119,33,117,-1,117,33,35,-1,117,35,115,-1,115,35,37,-1,115,37,113,-1,113,37,39,-1,113,39,111,-1,111,39,41,-1,111,41,43,-1,14,3,12,-1,12,3,6,-1,12,6,9,-1,9,6,2,-1,9,2,1,-1,63,65,83,-1,83,65,67,-1,83,67,81,-1,81,67,69,-1,81,69,79,-1,79,69,71,-1,79,71,76,-1,76,71,73,-1,76,73,75,-1,127,129,21,-1,21,129,131,-1,21,131,18,-1,18,131,133,-1,18,133,14,-1,14,133,135,-1,14,135,3,-1,85,87,61,-1,61,87,89,-1,61,89,59,-1,59,89,92,-1,59,92,57,-1,57,92,94,-1,57,94,55,-1,55,94,96,-1,55,96,53,-1,53,96,98,-1,53,98,51,-1,51,98,100,-1,51,100,49,-1,49,100,102,-1,49,102,47,-1,47,102,107,-1,47,107,45,-1,45,107,105,-1,45,105,104,-1,136,137,138,-1,138,137,139,-1,140,136,141,-1,141,136,138,-1,140,141,142,-1,140,142,143,-1,143,142,144,-1,143,144,145,-1,146,145,147,-1,147,145,144,-1,148,146,149,-1,149,146,147,-1,148,149,150,-1,150,149,151,-1,150,151,152,-1,153,150,154,-1,154,150,152,-1,153,154,155,-1,155,154,156,-1,155,156,157,-1,158,159,160,-1,160,159,155,-1,160,155,157,-1,159,158,161,-1,159,161,162,-1,162,161,163,-1,162,163,164,-1,163,165,164,-1,164,165,166,-1,164,166,167,-1,167,166,168,-1,167,168,169,-1,169,168,170,-1,169,170,171,-1,171,170,172,-1,171,172,173,-1,173,172,174,-1,173,174,175,-1,176,175,177,-1,177,175,174,-1,176,177,178,-1,176,178,179,-1,179,178,180,-1,179,180,181,-1,181,180,182,-1,181,182,183,-1,183,182,184,-1,183,184,185,-1,184,186,185,-1,185,186,187,-1,185,187,188,-1,188,187,189,-1,188,189,190,-1,190,189,191,-1,190,191,192,-1,192,191,193,-1,192,193,194,-1,139,137,195,-1,195,137,194,-1,195,194,193,-1,143,145,194,-1,137,136,194,-1,194,136,140,-1,194,140,143,-1,150,153,148,-1,148,153,155,-1,148,155,146,-1,192,162,190,-1,190,162,164,-1,175,176,173,-1,173,176,179,-1,173,179,171,-1,171,179,181,-1,171,181,169,-1,169,181,183,-1,169,183,167,-1,167,183,185,-1,167,185,164,-1,164,185,188,-1,164,188,190,-1,145,146,194,-1,194,146,155,-1,194,155,192,-1,192,155,159,-1,192,159,162,-1,196,197,198,-1,198,197,199,-1,196,198,200,-1,200,198,201,-1,200,201,202,-1,203,200,204,-1,204,200,202,-1,203,204,205,-1,205,204,206,-1,205,206,207,-1,208,205,209,-1,209,205,207,-1,210,211,212,-1,212,211,208,-1,212,208,209,-1,213,211,214,-1,214,211,210,-1,215,216,217,-1,217,216,213,-1,217,213,214,-1,218,216,219,-1,219,216,215,-1,220,221,222,-1,222,221,218,-1,222,218,219,-1,223,221,224,-1,224,221,220,-1,223,224,197,-1,197,224,225,-1,197,225,199,-1,197,196,223,-1,223,196,200,-1,205,208,203,-1,203,208,211,-1,216,218,213,-1,213,218,221,-1,213,221,211,-1,211,221,223,-1,211,223,203,-1,203,223,200,-1,226,227,228,-1,228,227,229,-1,228,229,230,-1,230,229,231,-1,230,231,232,-1,232,231,233,-1,232,233,234,-1,234,233,235,-1,234,235,236,-1,236,235,237,-1,236,237,238,-1,238,237,239,-1,238,239,240,-1,240,239,241,-1,240,241,242,-1,242,241,243,-1,242,243,244,-1,244,243,245,-1,244,245,246,-1,246,245,247,-1,246,247,248,-1,248,247,249,-1,248,249,250,-1,250,249,251,-1,250,251,252,-1,252,251,253,-1,252,253,254,-1,254,253,255,-1,254,255,256,-1,256,255,257,-1,256,257,258,-1,258,257,259,-1,258,259,260,-1,260,259,261,-1,260,261,226,-1,226,261,227,-1,249,247,262,-1,262,247,263,-1,249,262,264,-1,249,264,251,-1,251,264,265,-1,251,265,253,-1,253,265,266,-1,253,266,255,-1,255,266,267,-1,255,267,257,-1,257,267,268,-1,257,268,259,-1,259,268,269,-1,259,269,261,-1,261,269,270,-1,261,270,227,-1,227,270,271,-1,227,271,229,-1,229,271,272,-1,229,272,231,-1,231,272,273,-1,231,273,233,-1,233,273,274,-1,233,274,235,-1,235,274,275,-1,235,275,237,-1,237,275,276,-1,237,276,239,-1,239,276,277,-1,239,277,241,-1,241,277,278,-1,241,278,243,-1,245,243,279,-1,279,243,278,-1,247,245,263,-1,263,245,279,-1,242,244,280,-1,280,244,281,-1,244,246,281,-1,281,246,282,-1,246,248,282,-1,282,248,283,-1,256,284,285,-1,256,285,254,-1,254,285,286,-1,254,286,252,-1,252,286,287,-1,252,287,250,-1,250,287,283,-1,250,283,248,-1,228,288,289,-1,228,289,226,-1,226,289,290,-1,226,290,260,-1,260,290,291,-1,260,291,258,-1,258,291,284,-1,258,284,256,-1,236,292,293,-1,236,293,234,-1,234,293,294,-1,234,294,232,-1,232,294,295,-1,232,295,230,-1,230,295,288,-1,230,288,228,-1,242,280,296,-1,242,296,240,-1,240,296,297,-1,240,297,238,-1,238,297,292,-1,238,292,236,-1,
        ]
    }
}
Shape{
    appearance Appearance {
        material  Material {
            diffuseColor 0.25098039215686274 0.25098039215686274 0.25098039215686274
            specularColor 0.12549019607843137 0.12549019607843137 0.12549019607843137
            ambientIntensity 0.251
            transparency 0.0
            shininess 0.5
        }
    }
    geometry IndexedFaceSet {
        ccw TRUE
        solid FALSE
        coord DEF co Coordinate {
            point [
                -1.998 -0.1926 0.3338, -1.998 -0.1926 0.2926, -1.998 -0.2007 0.3338, -1.998 -0.2004 0.2926, -1.998 -0.207 0.2933, -1.998 -0.2116 0.2949, -1.998 -0.2152 0.2972, -1.998 -0.2162 0.2982, -1.998 -0.219 0.3017, -1.998 -0.2208 0.3057, -1.998 -0.2218 0.3107, -1.998 -0.2219 0.3137, -1.998 -0.2212 0.32, -1.998 -0.2198 0.324, -1.998 -0.2178 0.3271, -1.998 -0.2161 0.3288, -1.998 -0.2073 0.3331, -1.998 -0.212 0.3314
            ]
        }
        coordIndex [
            0,1,2,-1,2,1,3,-1,2,3,4,-1,4,5,2,-1,2,5,6,-1,2,6,7,-1,7,8,2,-1,2,8,9,-1,2,9,10,-1,10,11,2,-1,2,11,12,-1,2,12,13,-1,13,14,2,-1,2,14,15,-1,2,15,16,-1,16,15,17,-1,
        ]
    }
}
Shape{
    appearance Appearance {
        material  Material {
            diffuseColor 1.0 1.0 1.0
            specularColor 0.5019607843137255 0.5019607843137255 0.5019607843137255
            ambientIntensity 1.0
            transparency 0.0
            shininess 0.5
        }
    }
    geometry IndexedFaceSet {
        ccw TRUE
        solid FALSE
        coord DEF co Coordinate {
            point [
                -2.002 -0.2471 0.3072, -2.002 -0.2551 0.3294, -2.002 -0.2525 0.3399, -2.002 -0.2322 0.2865, -2.002 -0.2398 0.2865, -2.002 -0.2449 0.3011, -2.002 -0.2555 0.3309, -2.002 -0.2559 0.3331, -2.002 -0.2599 0.3399, -2.002 -0.2561 0.3331, -2.002 -0.2565 0.3308, -2.002 -0.2569 0.3294, -2.002 -0.265 0.3072, -2.002 -0.2802 0.2865, -2.002 -0.2726 0.2865, -2.002 -0.2671 0.3011, -1.998 -0.2599 0.3399, -1.998 -0.2802 0.2865, -1.998 -0.2525 0.3399, -1.998 -0.2322 0.2865, -1.998 -0.2398 0.2865, -1.998 -0.2449 0.3011, -1.998 -0.2671 0.3011, -1.998 -0.2726 0.2865, -1.998 -0.2471 0.3072, -1.998 -0.265 0.3072, -1.998 -0.2569 0.3294, -1.998 -0.2561 0.3331, -1.998 -0.2565 0.3308, -1.998 -0.2559 0.3331, -1.998 -0.2551 0.3294, -1.998 -0.2555 0.3309
            ]
        }
        coordIndex [
            0,1,2,-1,3,4,5,-1,1,6,2,-1,2,6,7,-1,2,7,8,-1,8,7,9,-1,8,9,10,-1,10,11,8,-1,8,11,12,-1,8,12,13,-1,14,13,15,-1,15,13,12,-1,15,12,5,-1,5,12,0,-1,5,0,3,-1,3,0,2,-1,8,13,16,-1,16,13,17,-1,2,8,18,-1,18,8,16,-1,3,2,19,-1,19,2,18,-1,4,3,20,-1,20,3,19,-1,5,4,21,-1,21,4,20,-1,15,5,22,-1,22,5,21,-1,14,15,23,-1,23,15,22,-1,13,14,17,-1,17,14,23,-1,0,12,24,-1,24,12,25,-1,12,11,25,-1,25,11,26,-1,9,27,28,-1,9,28,10,-1,10,28,26,-1,10,26,11,-1,9,7,27,-1,27,7,29,-1,1,30,31,-1,1,31,6,-1,6,31,29,-1,6,29,7,-1,1,0,30,-1,30,0,24,-1,
        ]
    }
}
Shape{
    appearance Appearance {
        material  Material {
            diffuseColor 0.25098039215686274 0.25098039215686274 0.25098039215686274
            specularColor 0.12549019607843137 0.12549019607843137 0.12549019607843137
            ambientIntensity 0.251
            transparency 0.0
            shininess 0.5
        }
    }
    geometry IndexedFaceSet {
        ccw TRUE
        solid FALSE
        coord DEF co Coordinate {
            point [
                -1.998 -0.2561 0.3331, -1.998 -0.2559 0.3331, -1.998 -0.2565 0.3308, -1.998 -0.2555 0.3309, -1.998 -0.2569 0.3294, -1.998 -0.2551 0.3294, -1.998 -0.265 0.3072, -1.998 -0.2471 0.3072
            ]
        }
        coordIndex [
            0,1,2,-1,2,1,3,-1,2,3,4,-1,4,3,5,-1,4,5,6,-1,6,5,7,-1,
        ]
    }
}
Shape{
    appearance Appearance {
        material  Material {
            diffuseColor 1.0 1.0 1.0
            specularColor 0.5019607843137255 0.5019607843137255 0.5019607843137255
            ambientIntensity 1.0
            transparency 0.0
            shininess 0.5
        }
    }
    geometry IndexedFaceSet {
        ccw TRUE
        solid FALSE
        coord DEF co Coordinate {
            point [
                -2.002 0.2366 0.2789, -2.002 0.231 0.272, -2.002 0.2401 0.3125, -2.002 0.1133 0.3311, -2.002 0.1251 0.3512, -2.002 0.1759 0.3247, -2.002 0.2016 0.3133, -2.002 0.1981 0.3121, -2.002 0.2467 0.3784, -2.002 0.2383 0.3829, -2.002 0.2402 0.4063, -2.002 0.2165 0.4074, -2.002 0.2048 0.3797, -2.002 0.199 0.3917, -2.002 0.2484 0.3176, -2.002 0.2453 0.2886, -2.002 0.2404 0.2871, -2.002 0.2253 0.4082, -2.002 0.195 0.31, -2.002 0.1926 0.3073, -2.002 0.1664 0.303, -2.002 0.2085 0.3132, -2.002 0.2135 0.3365, -2.002 0.2118 0.3119, -2.002 0.2219 0.3332, -2.002 0.2148 0.3098, -2.002 0.2296 0.3278, -2.002 0.2163 0.3082, -2.002 0.2359 0.3207, -2.002 0.2182 0.3051, -2.002 0.2193 0.3015, -2.002 0.2195 0.2978, -2.002 0.1906 0.335, -2.002 0.1998 0.3373, -2.002 0.2044 0.3376, -2.002 0.2088 0.4165, -2.002 0.1904 0.4019, -2.002 0.1998 0.4241, -2.002 0.1803 0.4093, -2.002 0.1906 0.4299, -2.002 0.2289 0.3852, -2.002 0.2249 0.3854, -2.002 0.2209 0.4079, -2.002 0.2159 0.3843, -2.002 0.2074 0.3811, -2.002 0.1909 0.3042, -2.002 0.1901 0.3006, -2.002 0.1664 0.2993, -2.002 0.1901 0.2972, -2.002 0.1667 0.2952, -2.002 0.0805 0.289, -2.002 0.0918 0.31, -2.002 0.0932 0.2863, -2.002 0.0955 0.3095, -2.002 0.1156 0.2863, -2.002 0.1125 0.3095, -2.002 0.1177 0.2867, -2.002 0.2048 0.3137, -2.002 0.1826 0.3307, -2.002 0.1008 0.3687, -2.002 0.0977 0.3687, -2.002 0.0822 0.3892, -2.002 0.0914 0.368, -2.002 0.0804 0.3886, -2.002 0.0848 0.3657, -2.002 0.0691 0.383, -2.002 0.0788 0.3618, -2.002 0.0588 0.3743, -2.002 0.0737 0.3564, -2.002 0.051 0.3635, -2.002 0.0702 0.3499, -2.002 0.0464 0.3519, -2.002 0.0683 0.3426, -2.002 0.0446 0.3395, -2.002 0.0681 0.3391, -2.002 0.0463 0.326, -2.002 0.0688 0.3327, -2.002 0.0511 0.3139, -2.002 0.0712 0.3259, -2.002 0.0587 0.3034, -2.002 0.0752 0.3198, -2.002 0.069 0.2947, -2.002 0.0786 0.3164, -2.002 0.0847 0.3124, -2.002 0.1027 0.4192, -2.002 0.1176 0.4018, -2.002 0.0901 0.4046, -2.002 0.109 0.3916, -2.002 0.1031 0.3794, -2.002 0.2617 0.3567, -2.002 0.2866 0.3503, -2.002 0.2628 0.3475, -2.002 0.2867 0.3467, -2.002 0.2624 0.3415, -2.002 0.2849 0.3318, -2.002 0.2596 0.3322, -2.002 0.2795 0.3177, -2.002 0.2552 0.3246, -2.002 0.2708 0.3053, -2.002 0.259 0.2952, -2.002 0.2188 0.2942, -2.002 0.2173 0.291, -2.002 0.1731 0.4366, -2.002 0.1679 0.4143, -2.002 0.1543 0.4389, -2.002 0.1539 0.4161, -2.002 0.1387 0.4373, -2.002 0.141 0.4146, -2.002 0.1196 0.4306, -2.002 0.1291 0.41, -2.002 0.1185 0.4026, -2.002 0.2543 0.4009, -2.002 0.2664 0.3924, -2.002 0.2532 0.3727, -2.002 0.2689 0.39, -2.002 0.2584 0.3651, -2.002 0.278 0.3782, -2.002 0.2841 0.3646, -2.002 0.1689 0.2858, -2.002 0.191 0.2935, -2.002 0.1734 0.2774, -2.002 0.1927 0.2903, -2.002 0.1792 0.271, -2.002 0.1948 0.2879, -2.002 0.1867 0.2657, -2.002 0.1977 0.2859, -2.002 0.1952 0.2624, -2.002 0.201 0.2846, -2.002 0.2044 0.2613, -2.002 0.2048 0.2841, -2.002 0.2058 0.2613, -2.002 0.2054 0.2841, -2.002 0.2148 0.2627, -2.002 0.2088 0.2846, -2.002 0.2235 0.2664, -2.002 0.2123 0.2861, -2.002 0.2152 0.2883, -2.002 0.1145 0.3099, -2.002 0.1236 0.2903, -2.002 0.1227 0.2894, -2.002 0.1133 0.3096, -2.002 0.1202 0.2877, -2.002 0.1266 0.2981, -2.002 0.1262 0.2953, -2.002 0.1252 0.2927, -2.002 0.1178 0.3095, -2.002 0.1204 0.3085, -2.002 0.1265 0.2996, -2.002 0.1227 0.3068, -2.002 0.1243 0.3051, -2.002 0.1257 0.3025, -2.002 0.1148 0.3099, -1.998 0.0562 0.3708, -1.998 0.051 0.3635, -1.998 0.0476 0.3551, -1.998 0.0464 0.3519, -1.998 0.0446 0.3395, -1.998 0.0588 0.3743, -1.998 0.0691 0.383, -1.998 0.0804 0.3886, -1.998 0.0822 0.3892, -1.998 0.0901 0.4046, -1.998 0.1027 0.4192, -1.998 0.1114 0.425, -1.998 0.1196 0.4306, -1.998 0.1387 0.4373, -1.998 0.1543 0.4389, -1.998 0.1998 0.4241, -1.998 0.1983 0.425, -1.998 0.1906 0.4299, -1.998 0.1731 0.4366, -1.998 0.2088 0.4165, -1.998 0.2165 0.4074, -1.998 0.2209 0.4079, -1.998 0.2253 0.4082, -1.998 0.2402 0.4063, -1.998 0.2543 0.4009, -1.998 0.2664 0.3924, -1.998 0.2689 0.39, -1.998 0.278 0.3782, -1.998 0.2814 0.3708, -1.998 0.2841 0.3646, -1.998 0.2858 0.3551, -1.998 0.2866 0.3503, -1.998 0.2867 0.3467, -1.998 0.2849 0.3318, -1.998 0.2795 0.3177, -1.998 0.2708 0.3053, -1.998 0.259 0.2952, -1.998 0.2453 0.2886, -1.998 0.2404 0.2871, -1.998 0.24 0.2861, -1.998 0.2366 0.2789, -1.998 0.231 0.272, -1.998 0.2235 0.2664, -1.998 0.2201 0.2649, -1.998 0.2148 0.2627, -1.998 0.2058 0.2613, -1.998 0.2044 0.2613, -1.998 0.1664 0.2993, -1.998 0.1952 0.2624, -1.998 0.1887 0.2649, -1.998 0.1867 0.2657, -1.998 0.1792 0.271, -1.998 0.1734 0.2774, -1.998 0.1689 0.2858, -1.998 0.1688 0.2861, -1.998 0.1667 0.2952, -1.998 0.1664 0.303, -1.998 0.1133 0.3311, -1.998 0.1251 0.3512, -1.998 0.1759 0.3247, -1.998 0.1826 0.3307, -1.998 0.1906 0.335, -1.998 0.1998 0.3373, -1.998 0.2044 0.3376, -1.998 0.2135 0.3365, -1.998 0.2219 0.3332, -1.998 0.2296 0.3278, -1.998 0.2359 0.3207, -1.998 0.2401 0.3125, -1.998 0.2484 0.3176, -1.998 0.2552 0.3246, -1.998 0.2596 0.3322, -1.998 0.2624 0.3415, -1.998 0.2628 0.3475, -1.998 0.2619 0.3551, -1.998 0.2617 0.3567, -1.998 0.2584 0.3651, -1.998 0.2545 0.3708, -1.998 0.2532 0.3727, -1.998 0.2467 0.3784, -1.998 0.2383 0.3829, -1.998 0.2289 0.3852, -1.998 0.2249 0.3854, -1.998 0.2159 0.3843, -1.998 0.2074 0.3811, -1.998 0.2048 0.3797, -1.998 0.199 0.3917, -1.998 0.1904 0.4019, -1.998 0.1803 0.4093, -1.998 0.1679 0.4143, -1.998 0.1539 0.4161, -1.998 0.1008 0.3687, -1.998 0.1012 0.3708, -1.998 0.1031 0.3794, -1.998 0.109 0.3916, -1.998 0.1176 0.4018, -1.998 0.1185 0.4026, -1.998 0.1291 0.41, -1.998 0.141 0.4146, -1.998 0.0977 0.3687, -1.998 0.0914 0.368, -1.998 0.0848 0.3657, -1.998 0.0788 0.3618, -1.998 0.0737 0.3564, -1.998 0.073 0.3551, -1.998 0.0702 0.3499, -1.998 0.0683 0.3426, -1.998 0.0681 0.3391, -1.998 0.0688 0.3327, -1.998 0.0712 0.3259, -1.998 0.0752 0.3198, -1.998 0.0786 0.3164, -1.998 0.0847 0.3124, -1.998 0.0918 0.31, -1.998 0.0955 0.3095, -1.998 0.1125 0.3095, -1.998 0.1133 0.3096, -1.998 0.1145 0.3099, -1.998 0.1148 0.3099, -1.998 0.1178 0.3095, -1.998 0.1204 0.3085, -1.998 0.1227 0.3068, -1.998 0.1243 0.3051, -1.998 0.1257 0.3025, -1.998 0.1265 0.2996, -1.998 0.1266 0.2981, -1.998 0.1262 0.2953, -1.998 0.1252 0.2927, -1.998 0.1236 0.2903, -1.998 0.1227 0.2894, -1.998 0.1202 0.2877, -1.998 0.1177 0.2867, -1.998 0.1156 0.2863, -1.998 0.0932 0.2863, -1.998 0.0805 0.289, -1.998 0.069 0.2947, -1.998 0.0587 0.3034, -1.998 0.0511 0.3139, -1.998 0.0463 0.326, -1.998 0.2048 0.3137, -1.998 0.2016 0.3133, -1.998 0.1981 0.3121, -1.998 0.195 0.31, -1.998 0.1926 0.3073, -1.998 0.1909 0.3042, -1.998 0.1901 0.3006, -1.998 0.1901 0.2972, -1.998 0.191 0.2935, -1.998 0.1927 0.2903, -1.998 0.1948 0.2879, -1.998 0.1977 0.2859, -1.998 0.201 0.2846, -1.998 0.2048 0.2841, -1.998 0.2054 0.2841, -1.998 0.2088 0.2846, -1.998 0.2123 0.2861, -1.998 0.2152 0.2883, -1.998 0.2173 0.291, -1.998 0.2188 0.2942, -1.998 0.2195 0.2978, -1.998 0.2193 0.3015, -1.998 0.2182 0.3051, -1.998 0.2163 0.3082, -1.998 0.2148 0.3098, -1.998 0.2118 0.3119, -1.998 0.2085 0.3132
            ]
        }
        coordIndex [
            0,1,2,-1,3,4,5,-1,6,7,3,-1,8,9,10,-1,11,12,13,-1,14,15,2,-1,2,15,16,-1,2,16,0,-1,10,9,17,-1,7,18,3,-1,3,18,19,-1,3,19,20,-1,21,22,23,-1,23,22,24,-1,23,24,25,-1,25,24,26,-1,25,26,27,-1,27,26,28,-1,27,28,29,-1,29,28,2,-1,29,2,30,-1,30,2,31,-1,32,33,21,-1,21,33,34,-1,21,34,22,-1,11,13,35,-1,35,13,36,-1,35,36,37,-1,37,36,38,-1,37,38,39,-1,9,40,17,-1,17,40,41,-1,17,41,42,-1,42,41,43,-1,42,43,11,-1,11,43,44,-1,11,44,12,-1,19,45,20,-1,20,45,46,-1,20,46,47,-1,47,46,48,-1,47,48,49,-1,50,51,52,-1,52,51,53,-1,52,53,54,-1,54,53,55,-1,54,55,56,-1,6,3,57,-1,57,3,5,-1,57,5,21,-1,21,5,58,-1,21,58,32,-1,59,60,61,-1,61,60,62,-1,61,62,63,-1,63,62,64,-1,63,64,65,-1,65,64,66,-1,65,66,67,-1,67,66,68,-1,67,68,69,-1,69,68,70,-1,69,70,71,-1,71,70,72,-1,71,72,73,-1,73,72,74,-1,73,74,75,-1,75,74,76,-1,75,76,77,-1,77,76,78,-1,77,78,79,-1,79,78,80,-1,79,80,81,-1,81,80,82,-1,81,82,50,-1,50,82,83,-1,50,83,51,-1,84,85,86,-1,86,85,87,-1,86,87,61,-1,61,87,88,-1,61,88,59,-1,89,90,91,-1,91,90,92,-1,91,92,93,-1,93,92,94,-1,93,94,95,-1,95,94,96,-1,95,96,97,-1,97,96,98,-1,97,98,14,-1,14,98,99,-1,14,99,15,-1,31,2,100,-1,100,2,1,-1,100,1,101,-1,39,38,102,-1,102,38,103,-1,102,103,104,-1,104,103,105,-1,104,105,106,-1,106,105,107,-1,106,107,108,-1,108,107,109,-1,108,109,84,-1,84,109,110,-1,84,110,85,-1,10,111,8,-1,8,111,112,-1,8,112,113,-1,113,112,114,-1,113,114,115,-1,115,114,116,-1,115,116,89,-1,89,116,117,-1,89,117,90,-1,49,48,118,-1,118,48,119,-1,118,119,120,-1,120,119,121,-1,120,121,122,-1,122,121,123,-1,122,123,124,-1,124,123,125,-1,124,125,126,-1,126,125,127,-1,126,127,128,-1,128,127,129,-1,128,129,130,-1,130,129,131,-1,130,131,132,-1,132,131,133,-1,132,133,134,-1,134,133,135,-1,134,135,1,-1,1,135,136,-1,1,136,101,-1,137,138,139,-1,55,140,56,-1,56,140,137,-1,56,137,141,-1,141,137,139,-1,142,143,137,-1,137,143,144,-1,137,144,138,-1,145,146,147,-1,146,148,147,-1,147,148,149,-1,147,149,150,-1,142,137,147,-1,147,137,151,-1,147,151,145,-1,152,67,153,-1,153,67,69,-1,153,69,154,-1,154,69,71,-1,154,71,155,-1,155,71,73,-1,155,73,156,-1,152,157,67,-1,67,157,158,-1,67,158,65,-1,65,158,159,-1,65,159,63,-1,63,159,160,-1,63,160,61,-1,61,160,161,-1,61,161,86,-1,86,161,162,-1,86,162,84,-1,84,162,108,-1,108,162,163,-1,163,164,108,-1,108,164,165,-1,108,165,106,-1,106,165,166,-1,106,166,104,-1,167,37,168,-1,168,37,39,-1,168,39,169,-1,169,39,102,-1,169,102,170,-1,170,102,104,-1,170,104,166,-1,37,167,171,-1,37,171,35,-1,35,171,172,-1,35,172,11,-1,11,172,173,-1,11,173,42,-1,42,173,174,-1,42,174,17,-1,17,174,175,-1,17,175,10,-1,10,175,176,-1,10,176,111,-1,111,176,177,-1,111,177,112,-1,112,177,178,-1,112,178,114,-1,117,116,179,-1,179,116,114,-1,179,114,178,-1,179,180,117,-1,117,180,181,-1,117,181,90,-1,90,181,182,-1,182,183,90,-1,90,183,184,-1,90,184,92,-1,92,184,185,-1,92,185,94,-1,94,185,186,-1,94,186,96,-1,96,186,187,-1,96,187,98,-1,98,187,188,-1,98,188,99,-1,99,188,189,-1,99,189,15,-1,15,189,190,-1,15,190,16,-1,16,190,191,-1,16,191,0,-1,191,192,0,-1,0,192,193,-1,0,193,1,-1,1,193,194,-1,1,194,134,-1,134,194,195,-1,134,195,132,-1,195,196,132,-1,132,196,197,-1,132,197,130,-1,130,197,198,-1,130,198,128,-1,199,47,49,-1,128,198,200,-1,128,200,126,-1,126,200,201,-1,126,201,124,-1,201,202,124,-1,124,202,203,-1,124,203,122,-1,122,203,204,-1,122,204,120,-1,120,204,205,-1,120,205,118,-1,118,205,206,-1,118,206,49,-1,49,206,207,-1,49,207,199,-1,20,47,208,-1,208,47,199,-1,3,20,209,-1,209,20,208,-1,4,3,210,-1,210,3,209,-1,5,4,211,-1,211,4,210,-1,5,211,212,-1,5,212,58,-1,58,212,213,-1,58,213,32,-1,32,213,214,-1,32,214,33,-1,33,214,215,-1,33,215,34,-1,34,215,216,-1,34,216,22,-1,22,216,217,-1,22,217,24,-1,24,217,218,-1,24,218,26,-1,26,218,219,-1,26,219,28,-1,28,219,220,-1,28,220,2,-1,2,220,221,-1,2,221,14,-1,14,221,222,-1,14,222,97,-1,97,222,223,-1,97,223,95,-1,95,223,224,-1,95,224,93,-1,93,224,225,-1,93,225,91,-1,91,225,226,-1,91,226,89,-1,89,226,227,-1,89,227,228,-1,229,113,228,-1,228,113,115,-1,228,115,89,-1,229,230,113,-1,113,230,231,-1,113,231,8,-1,8,231,232,-1,8,232,9,-1,9,232,233,-1,9,233,40,-1,40,233,234,-1,40,234,41,-1,41,234,235,-1,41,235,43,-1,43,235,236,-1,43,236,44,-1,44,236,237,-1,44,237,12,-1,12,237,238,-1,12,238,13,-1,13,238,239,-1,13,239,36,-1,36,239,240,-1,36,240,38,-1,38,240,241,-1,38,241,103,-1,103,241,242,-1,103,242,105,-1,243,59,244,-1,244,59,88,-1,244,88,245,-1,245,88,87,-1,245,87,246,-1,246,87,85,-1,246,85,247,-1,247,85,110,-1,247,110,248,-1,248,110,109,-1,248,109,249,-1,249,109,107,-1,249,107,250,-1,250,107,105,-1,250,105,242,-1,60,59,251,-1,251,59,243,-1,60,251,252,-1,60,252,62,-1,62,252,253,-1,62,253,64,-1,64,253,254,-1,64,254,66,-1,66,254,255,-1,66,255,68,-1,68,255,256,-1,68,256,70,-1,256,257,70,-1,70,257,258,-1,70,258,72,-1,72,258,259,-1,72,259,74,-1,74,259,260,-1,74,260,76,-1,76,260,261,-1,76,261,78,-1,78,261,262,-1,78,262,80,-1,80,262,263,-1,80,263,82,-1,82,263,264,-1,82,264,83,-1,83,264,265,-1,83,265,51,-1,51,265,266,-1,51,266,53,-1,55,53,267,-1,267,53,266,-1,55,267,268,-1,55,268,140,-1,140,268,269,-1,140,269,137,-1,137,269,270,-1,137,270,151,-1,151,270,271,-1,151,271,145,-1,145,271,272,-1,145,272,146,-1,146,272,273,-1,146,273,148,-1,148,273,274,-1,148,274,149,-1,149,274,275,-1,149,275,150,-1,150,275,276,-1,150,276,147,-1,147,276,277,-1,147,277,142,-1,142,277,278,-1,142,278,143,-1,143,278,279,-1,143,279,144,-1,144,279,280,-1,144,280,138,-1,138,280,281,-1,138,281,139,-1,139,281,282,-1,139,282,141,-1,141,282,283,-1,141,283,56,-1,56,283,284,-1,56,284,54,-1,52,54,285,-1,285,54,284,-1,52,285,286,-1,52,286,50,-1,50,286,287,-1,50,287,81,-1,81,287,288,-1,81,288,79,-1,79,288,289,-1,79,289,77,-1,77,289,290,-1,77,290,75,-1,75,290,156,-1,75,156,73,-1,57,291,292,-1,57,292,6,-1,6,292,293,-1,6,293,7,-1,7,293,294,-1,7,294,18,-1,18,294,295,-1,18,295,19,-1,19,295,296,-1,19,296,45,-1,45,296,297,-1,45,297,46,-1,46,297,298,-1,46,298,48,-1,48,298,299,-1,48,299,119,-1,119,299,300,-1,119,300,121,-1,121,300,301,-1,121,301,123,-1,123,301,302,-1,123,302,125,-1,125,302,303,-1,125,303,127,-1,127,303,304,-1,127,304,129,-1,129,304,305,-1,129,305,131,-1,131,305,306,-1,131,306,133,-1,133,306,307,-1,133,307,135,-1,135,307,308,-1,135,308,136,-1,136,308,309,-1,136,309,101,-1,101,309,310,-1,101,310,100,-1,100,310,311,-1,100,311,31,-1,31,311,312,-1,31,312,30,-1,30,312,313,-1,30,313,29,-1,29,313,314,-1,29,314,27,-1,27,314,315,-1,27,315,25,-1,25,315,316,-1,25,316,23,-1,23,316,317,-1,23,317,21,-1,21,317,291,-1,21,291,57,-1,
        ]
    }
}
Shape{
    appearance Appearance {
        material  Material {
            diffuseColor 0.25098039215686274 0.25098039215686274 0.25098039215686274
            specularColor 0.12549019607843137 0.12549019607843137 0.12549019607843137
            ambientIntensity 0.251
            transparency 0.0
            shininess 0.5
        }
    }
    geometry IndexedFaceSet {
        ccw TRUE
        solid FALSE
        coord DEF co Coordinate {
            point [
                -1.998 0.2054 0.2841, -1.998 0.2148 0.3098, -1.998 0.2163 0.3082, -1.998 0.201 0.2846, -1.998 0.1977 0.2859, -1.998 0.2016 0.3133, -1.998 0.2048 0.3137, -1.998 0.2085 0.3132, -1.998 0.2118 0.3119, -1.998 0.2188 0.2942, -1.998 0.2173 0.291, -1.998 0.2152 0.2883, -1.998 0.2048 0.2841, -1.998 0.2182 0.3051, -1.998 0.2193 0.3015, -1.998 0.2195 0.2978, -1.998 0.2123 0.2861, -1.998 0.2088 0.2846, -1.998 0.1948 0.2879, -1.998 0.1927 0.2903, -1.998 0.191 0.2935, -1.998 0.1901 0.2972, -1.998 0.1901 0.3006, -1.998 0.1909 0.3042, -1.998 0.1926 0.3073, -1.998 0.195 0.31, -1.998 0.1981 0.3121
            ]
        }
        coordIndex [
            0,1,2,-1,3,4,5,-1,6,7,0,-1,0,7,8,-1,0,8,1,-1,9,10,2,-1,2,10,11,-1,6,0,5,-1,5,0,12,-1,5,12,3,-1,13,14,2,-1,2,14,15,-1,2,15,9,-1,11,16,2,-1,2,16,17,-1,2,17,0,-1,4,18,5,-1,5,18,19,-1,5,19,20,-1,20,21,5,-1,5,21,22,-1,5,22,23,-1,23,24,5,-1,5,24,25,-1,5,25,26,-1,
        ]
    }
}